<?xml version="1.0" encoding="UTF-8"?>
<svg width="1265px" height="874px" viewBox="0 0 1265 874" version="1.1" xmlns="http://www.w3.org/2000/svg" xmlns:xlink="http://www.w3.org/1999/xlink">
    <!-- Generator: Sketch 52.4 (67378) - http://www.bohemiancoding.com/sketch -->
    <title>P_alice_top</title>
    <desc>Created with Sketch.</desc>
    <defs>
        <rect id="path-1" x="0" y="0" width="1265" height="874"></rect>
        <linearGradient x1="106.748105%" y1="57.7548862%" x2="-6.09910689%" y2="57.7548862%" id="linearGradient-3">
            <stop stop-color="#055AFE" offset="0%"></stop>
            <stop stop-color="#C86DD7" offset="100%"></stop>
        </linearGradient>
        <polygon id="path-4" points="0.0729100875 0 1.36349999 0 1.36349999 6.85686413 0.0729100875 6.85686413"></polygon>
        <polygon id="path-6" points="0.0729100875 0 5.82875132 0 5.82875132 1.12664505 0.0729100875 1.12664505"></polygon>
        <polygon id="path-8" points="0.0729100875 1.85097399e-05 1.23223996 1.85097399e-05 1.23223996 5.73801937 0.0729100875 5.73801937"></polygon>
    </defs>
    <g id="Page-1" stroke="none" stroke-width="1" fill="none" fill-rule="evenodd">
        <g id="P_alice_top">
            <mask id="mask-2" fill="white">
                <use xlink:href="#path-1"></use>
            </mask>
            <use id="Rectangle" fill="#FFFFFF" fill-rule="nonzero" xlink:href="#path-1"></use>
            <g id="P_illust1" mask="url(#mask-2)">
                <g transform="translate(367.000000, 214.000000)">
                    <rect id="Rectangle" fill="#FFFFFF" fill-rule="nonzero" x="0" y="0" width="531" height="447"></rect>
                    <path d="M349.633254,93.2149256 C393.834413,121.958844 385.310352,144.112757 406.773863,194.635576 C428.237374,245.158396 459.009026,257.5473 434.271833,305.812275 C409.534639,354.077249 308.056505,371.629468 228.524482,348.764443 C148.992459,325.899418 97.3704729,267.509395 89.5851114,226.479739 C85.5041073,204.9726 89.8075845,176.748171 110.146702,164.615223 C133.338128,150.780815 160.676861,154.011739 185.359397,145.897959 C214.419601,136.341466 235.223436,108.341263 261.66958,93.2149256 C294.5573,74.6234573 325.201528,77.3270264 349.633254,93.2149256 Z" id="Fill-1" fill-opacity="0.75" fill="url(#linearGradient-3)" fill-rule="evenodd" transform="translate(265.820320, 219.481459) rotate(-33.000000) translate(-265.820320, -219.481459) "></path>
                    <g id="Page-1" opacity="0.5" stroke-width="1" fill="none" fill-rule="evenodd" transform="translate(125.623894, 83.758262)">
                        <polygon id="Fill-1" fill="#FEFEFE" points="99.984379 39.877601 88.6061947 39.877601 93.1575775 31.9020808 104.535398 31.9020808"></polygon>
                        <polygon id="Fill-2" fill="#FEFEFE" points="285.019386 154.525704 275.774336 154.525704 279.472134 148.544064 288.716814 148.544064"></polygon>
                        <polygon id="Fill-3" fill="#FEFEFE" points="132.695655 239.265606 113.495575 239.265606 121.175645 227.302326 140.376106 227.302326"></polygon>
                        <polygon id="Fill-5" fill="#FEFEFE" points="210.066372 233.782436 203.429111 240.262546 202.10177 233.782436 208.739215 227.302326"></polygon>
                        <polygon id="Fill-6" fill="#FEFEFE" points="18.849894 177.455324 11.9469027 169.082038 19.9778967 168.482864 26.880531 176.856151"></polygon>
                        <polygon id="Fill-7" fill="#FEFEFE" points="58.5674463 92.5335706 67.699115 89.7246022 65.8782278 95.8879057 56.7477876 98.6970624"></polygon>
                        <polygon id="Fill-8" fill="#FEFEFE" points="48.6113526 192.227373 57.7433628 189.418605 55.9224075 195.582485 46.7920354 198.391065"></polygon>
                        <polygon id="Fill-10" fill="#FEFEFE" points="243.7443 129.420351 252.876106 126.611383 251.056585 132.774687 241.924779 135.583843"></polygon>
                        <polygon id="Fill-11" fill="#FEFEFE" points="216.039823 71.7796818 203.097345 68.3517279 212.526857 58.8194614"></polygon>
                        <polygon id="Fill-12" fill="#FEFEFE" points="0 215.185327 8.96017699 209.357405 8.80721799 221.320685"></polygon>
                        <polygon id="Fill-13" fill="#FEFEFE" points="285.730088 117.638923 291.205855 108.666463 296.681416 117.638923"></polygon>
                        <polygon id="Fill-14" fill="#FEFEFE" points="247.89823 60.8133415 250.885483 56.8255814 253.871681 60.8133415"></polygon>
                        <polygon id="Fill-15" fill="#FEFEFE" points="129.424779 1.84150261 135.39823 0 134.039757 5.98164015"></polygon>
                        <g id="Group-83" transform="translate(39.823009, 11.963280)">
                            <g id="Group-18" transform="translate(133.978851, 0.000000)">
                                <mask id="mask-5" fill="white">
                                    <use xlink:href="#path-4"></use>
                                </mask>
                                <g id="Clip-17"></g>
                                <path d="M1.36335411,6.61306732 C1.36335411,6.92532663 1.37957684,6.84851121 1.06987027,6.84851121 L1.03853092,6.84851121 C0.728640002,6.84851121 0.0729100875,6.92532663 0.0729100875,6.61306732 L0.0729100875,0.788052176 C0.0729100875,0.477828936 0.728640002,-9.25486995e-05 1.03853092,-9.25486995e-05 L1.06987027,-9.25486995e-05 C1.37957684,-9.25486995e-05 1.36335411,0.477828936 1.36335411,0.788052176 L1.36335411,6.61306732 Z" id="Fill-16" fill="#FEFEFE" mask="url(#mask-5)"></path>
                            </g>
                            <path d="M135.342205,21.6701299 C135.342205,21.9803532 135.358428,22.0266275 135.048722,22.0266275 L135.017382,22.0266275 C134.707491,22.0266275 134.051761,21.9803532 134.051761,21.6701299 L134.051761,15.8471508 C134.051761,15.5354468 134.707491,14.9929263 135.017382,14.9929263 L135.048722,14.9929263 C135.358428,14.9929263 135.342205,15.5354468 135.342205,15.8471508 L135.342205,21.6701299 Z" id="Fill-19" fill="#FEFEFE"></path>
                            <path d="M145.481409,11.2464809 C145.481409,11.5559638 145.740603,11.4760017 145.431081,11.4760017 L139.631641,11.4760017 C139.321935,11.4760017 138.844839,11.5559638 138.844839,11.2464809 L138.844839,11.214274 C138.844839,10.9023849 139.321935,10.3654173 139.631641,10.3654173 L145.431081,10.3654173 C145.740603,10.3654173 145.481409,10.9023849 145.481409,11.214274 L145.481409,11.2464809 Z" id="Fill-21" fill="#FEFEFE"></path>
                            <path d="M130.549128,11.2464809 C130.549128,11.5559638 130.744353,11.4760017 130.435753,11.4760017 L124.634101,11.4760017 C124.3255,11.4760017 123.912558,11.5559638 123.912558,11.2464809 L123.912558,11.214274 C123.912558,10.9023849 124.3255,10.3654173 124.634101,10.3654173 L130.435753,10.3654173 C130.744353,10.3654173 130.549128,10.9023849 130.549128,11.214274 L130.549128,11.2464809 Z" id="Fill-23" fill="#FEFEFE"></path>
                            <path d="M138.684253,8.8163557 C138.426533,9.07456657 138.006954,9.07456657 137.749234,8.81413453 C137.490961,8.55666405 137.490961,8.13575257 137.749234,7.87550562 L142.114437,3.4935098 C142.37271,3.23326286 142.791367,3.23326286 143.050747,3.4935098 C143.307361,3.75357164 143.308467,4.17466823 143.050747,4.43213871 L138.684253,8.8163557 Z" id="Fill-25" fill="#FEFEFE"></path>
                            <path d="M128.394547,19.1478262 C128.136458,19.4080731 127.717248,19.4080731 127.459159,19.1478262 C127.200149,18.8881345 127.200149,18.467223 127.459159,18.2091973 L131.824732,13.8247952 C132.082636,13.5652886 132.501662,13.5652886 132.759566,13.8247952 C133.017655,14.0850421 133.017655,14.5059536 132.759566,14.7636092 L128.394547,19.1478262 Z" id="Fill-27" fill="#FEFEFE"></path>
                            <path d="M142.737408,19.1478262 C142.480241,19.4080731 142.061584,19.4080731 141.802389,19.1478262 L137.437002,14.7636092 C137.179282,14.5059536 137.179282,14.0850421 137.437002,13.8247952 C137.69509,13.5652886 138.113932,13.5652886 138.373127,13.8247952 L142.737408,18.2091973 C142.996603,18.467223 142.996603,18.8881345 142.737408,19.1478262" id="Fill-29" fill="#FEFEFE"></path>
                            <path d="M132.447703,8.8163557 C132.189614,9.07456657 131.771879,9.07456657 131.512684,8.81413453 L127.147296,4.43213871 C126.889576,4.17466823 126.889576,3.75357164 127.147296,3.4935098 C127.405016,3.23326286 127.824226,3.23326286 128.083421,3.4935098 L132.447703,7.87550562 C132.706898,8.13575257 132.706898,8.55666405 132.447703,8.8163557" id="Fill-31" fill="#FEFEFE"></path>
                            <path d="M75.9817802,49.4112305 C75.9817802,49.7229346 76.1635485,49.6122463 75.8540263,49.6122463 L75.8223182,49.6122463 C75.5126117,49.6122463 74.8756854,49.7229346 74.8756854,49.4112305 L74.8756854,44.7443698 C74.8756854,44.4341466 75.5126117,43.8742269 75.8223182,43.8742269 L75.8540263,43.8742269 C76.1635485,43.8742269 75.9817802,44.4341466 75.9817802,44.7443698 L75.9817802,49.4112305 Z" id="Fill-33" fill="#FEFEFE"></path>
                            <path d="M75.9817802,58.6769472 C75.9817802,58.9871704 76.1635485,59.0521396 75.8540263,59.0521396 L75.8223182,59.0521396 C75.5126117,59.0521396 74.8756854,58.9871704 74.8756854,58.6769472 L74.8756854,54.0123076 C74.8756854,53.7004185 75.5126117,53.1290229 75.8223182,53.1290229 L75.8540263,53.1290229 C76.1635485,53.1290229 75.9817802,53.7004185 75.9817802,54.0123076 L75.9817802,58.6769472 Z" id="Fill-35" fill="#FEFEFE"></path>
                            <path d="M82.9870478,51.7274654 C82.9870478,52.0376886 83.0849372,52.0184385 82.775415,52.0184385 L78.1294478,52.0184385 C77.8199256,52.0184385 77.2722243,52.0376886 77.2722243,51.7274654 L77.2722243,51.6959988 C77.2722243,51.3837395 77.8199256,50.9078541 78.1294478,50.9078541 L82.775415,50.9078541 C83.0849372,50.9078541 82.9870478,51.3837395 82.9870478,51.6959988 L82.9870478,51.7274654 Z" id="Fill-37" fill="#FEFEFE"></path>
                            <path d="M73.7695905,51.7274654 C73.7695905,52.0376886 73.8567876,52.0184385 73.5481872,52.0184385 L68.8998234,52.0184385 C68.5908543,52.0184385 67.8704178,52.0376886 67.8704178,51.7274654 L67.8704178,51.6959988 C67.8704178,51.3837395 68.5908543,50.9078541 68.8998234,50.9078541 L73.5481872,50.9078541 C73.8567876,50.9078541 73.7695905,51.3837395 73.7695905,51.6959988 L73.7695905,51.7274654 Z" id="Fill-39" fill="#FEFEFE"></path>
                            <path d="M188.803458,202.201195 C188.803458,202.513454 188.808435,202.49661 188.498544,202.49661 L188.466836,202.49661 C188.15713,202.49661 187.697363,202.513454 187.697363,202.201195 L187.697363,197.534149 C187.697363,197.224481 188.15713,196.573493 188.466836,196.573493 L188.498544,196.573493 C188.808435,196.573493 188.803458,197.224481 188.803458,197.534149 L188.803458,202.201195 Z" id="Fill-41" fill="#FEFEFE"></path>
                            <path d="M188.803458,211.467448 C188.803458,211.776931 188.808435,211.936485 188.498544,211.936485 L188.466836,211.936485 C188.15713,211.936485 187.697363,211.776931 187.697363,211.467448 L187.697363,206.802623 C187.697363,206.490179 188.15713,206.013368 188.466836,206.013368 L188.498544,206.013368 C188.808435,206.013368 188.803458,206.490179 188.803458,206.802623 L188.803458,211.467448 Z" id="Fill-43" fill="#FEFEFE"></path>
                            <path d="M195.808726,204.5178 C195.808726,204.828023 195.729824,204.902802 195.420302,204.902802 L190.774335,204.902802 C190.464444,204.902802 189.909553,204.828023 189.909553,204.5178 L189.909553,204.486333 C189.909553,204.174259 190.464444,203.60712 190.774335,203.60712 L195.420302,203.60712 C195.729824,203.60712 195.808726,204.174259 195.808726,204.486333 L195.808726,204.5178 Z" id="Fill-45" fill="#FEFEFE"></path>
                            <path d="M186.406919,204.5178 C186.406919,204.828023 186.501306,204.902802 186.191599,204.902802 L181.545816,204.902802 C181.235741,204.902802 180.692096,204.828023 180.692096,204.5178 L180.692096,204.486333 C180.692096,204.174259 181.235741,203.60712 181.545816,203.60712 L186.191599,203.60712 C186.501306,203.60712 186.406919,204.174259 186.406919,204.486333 L186.406919,204.5178 Z" id="Fill-47" fill="#FEFEFE"></path>
                            <path d="M292.960726,220.332966 C292.960726,220.645225 292.835368,220.821253 292.525846,220.821253 L292.494138,220.821253 C292.184432,220.821253 291.485933,220.645225 291.485933,220.332966 L291.485933,215.66592 C291.485933,215.355882 292.184432,214.898136 292.494138,214.898136 L292.525846,214.898136 C292.835368,214.898136 292.960726,215.355882 292.960726,215.66592 L292.960726,220.332966 Z" id="Fill-57" fill="#FEFEFE"></path>
                            <path d="M292.960726,229.598682 C292.960726,229.908905 292.835368,229.890951 292.525846,229.890951 L292.494138,229.890951 C292.184432,229.890951 291.485933,229.908905 291.485933,229.598682 L291.485933,224.934413 C291.485933,224.622154 292.184432,224.152932 292.494138,224.152932 L292.525846,224.152932 C292.835368,224.152932 292.960726,224.622154 292.960726,224.934413 L292.960726,229.598682 Z" id="Fill-59" fill="#FEFEFE"></path>
                            <g id="Group-63" transform="translate(293.809561, 221.746684)">
                                <mask id="mask-7" fill="white">
                                    <use xlink:href="#path-6"></use>
                                </mask>
                                <g id="Clip-62"></g>
                                <path d="M5.78773363,0.902534918 C5.78773363,1.21257306 5.94719564,1.11058439 5.63767343,1.11058439 L0.991337536,1.11058439 C0.681815319,1.11058439 0.0729100875,1.21257306 0.0729100875,0.902534918 L0.0729100875,0.87106836 C0.0729100875,0.558809048 0.681815319,0 0.991337536,0 L5.63767343,0 C5.94719564,0 5.78773363,0.558809048 5.78773363,0.87106836 L5.78773363,0.902534918 Z" id="Fill-61" fill="#FEFEFE" mask="url(#mask-7)"></path>
                            </g>
                            <path d="M290.379838,222.649219 C290.379838,222.959257 290.528239,222.857268 290.219638,222.857268 L285.571643,222.857268 C285.263043,222.857268 284.665014,222.959257 284.665014,222.649219 L284.665014,222.617752 C284.665014,222.305493 285.263043,221.746684 285.571643,221.746684 L290.219638,221.746684 C290.528239,221.746684 290.379838,222.305493 290.379838,222.617752 L290.379838,222.649219 Z" id="Fill-64" fill="#FEFEFE"></path>
                            <path d="M259.409181,263.79054 C259.409181,264.102799 259.591318,264.133896 259.281796,264.133896 L259.250088,264.133896 C258.940013,264.133896 258.303086,264.102799 258.303086,263.79054 L258.303086,259.123494 C258.303086,258.813456 258.940013,258.395876 259.250088,258.395876 L259.281796,258.395876 C259.591318,258.395876 259.409181,258.813456 259.409181,259.123494 L259.409181,263.79054 Z" id="Fill-66" fill="#FEFEFE"></path>
                            <g id="Group-70" transform="translate(258.230176, 267.650839)">
                                <mask id="mask-9" fill="white">
                                    <use xlink:href="#path-8"></use>
                                </mask>
                                <g id="Clip-69"></g>
                                <path d="M1.17900497,5.40541785 C1.17900497,5.71564109 1.36114192,5.73803788 1.05161971,5.73803788 L1.01991165,5.73803788 C0.709836389,5.73803788 0.0729100875,5.71564109 0.0729100875,5.40541785 L0.0729100875,0.741148495 C0.0729100875,0.428889183 0.709836389,1.85097399e-05 1.01991165,1.85097399e-05 L1.05161971,1.85097399e-05 C1.36114192,1.85097399e-05 1.17900497,0.428889183 1.17900497,0.741148495 L1.17900497,5.40541785 Z" id="Fill-68" fill="#FEFEFE" mask="url(#mask-9)"></path>
                            </g>
                            <path d="M266.414449,266.106793 C266.414449,266.416832 266.512707,266.540292 266.203185,266.540292 L261.557217,266.540292 C261.247695,266.540292 260.699625,266.416832 260.699625,266.106793 L260.699625,266.075142 C260.699625,265.763068 261.247695,265.059512 261.557217,265.059512 L266.203185,265.059512 C266.512707,265.059512 266.414449,265.763068 266.414449,266.075142 L266.414449,266.106793 Z" id="Fill-71" fill="#FEFEFE"></path>
                            <path d="M257.196991,266.106793 C257.196991,266.416832 257.284188,266.540292 256.974482,266.540292 L252.328699,266.540292 C252.018993,266.540292 251.297819,266.416832 251.297819,266.106793 L251.297819,266.075142 C251.297819,265.763068 252.018993,265.059512 252.328699,265.059512 L256.974482,265.059512 C257.284188,265.059512 257.196991,265.763068 257.196991,266.075142 L257.196991,266.106793 Z" id="Fill-73" fill="#FEFEFE"></path>
                            <path d="M118.214308,168.63367 C118.214308,170.658636 116.579315,172.298414 114.562904,172.298414 C112.546309,172.298414 110.910579,170.658636 110.910579,168.63367 C110.910579,166.60926 112.546309,164.966706 114.562904,164.966706 C116.579315,164.966706 118.214308,166.60926 118.214308,168.63367" id="Fill-75" fill="#FEFEFE"></path>
                            <path d="M176.080841,159.459595 C176.080841,161.484191 174.446217,163.124524 172.429806,163.124524 C170.413211,163.124524 168.777481,161.484191 168.777481,159.459595 C168.777481,157.434815 170.413211,155.792446 172.429806,155.792446 C174.446217,155.792446 176.080841,157.434815 176.080841,159.459595" id="Fill-77" fill="#FEFEFE"></path>
                            <path d="M13.1473795,133.640322 L13.1337376,133.640322 C10.5329399,133.640322 8.66253343,131.106339 8.58400069,131.011384 C7.45172823,129.809917 6.22064463,129.040652 4.99822544,129.086926 C2.99195368,129.136902 1.50278127,130.790748 1.48655855,130.809257 L0.308383151,129.771786 C0.38617849,129.680533 2.24017786,127.48935 4.94421114,127.414756 C6.59800733,127.376441 8.25493746,128.132564 9.74079159,129.713666 C9.78909106,129.769195 11.2762356,131.530952 13.1462734,131.530952 L13.1473795,131.530212 C14.2265594,131.530212 15.2745843,130.92846 16.2590087,129.741616 L17.444005,131.015641 C16.1531923,132.569904 14.7067889,133.640322 13.1473795,133.640322" id="Fill-79" fill="#FEFEFE"></path>
                            <path d="M215.856608,173.549165 C214.24724,171.841827 212.498504,170.759377 210.758985,170.846003 C207.907657,170.916525 205.790592,173.284106 205.767548,173.310204 L204.09292,171.843863 C204.20353,171.714109 206.839354,168.603177 210.682296,168.497302 C210.751427,168.49471 210.821664,168.482864 210.89227,168.482864 C213.228711,168.482864 215.451224,169.583083 217.500634,171.763345 C217.570133,171.841086 219.683328,174.350267 222.342011,174.350267 C223.877639,174.349156 225.366812,173.493821 226.766759,171.809064 L228.451157,173.553978 C226.615593,175.764596 224.559916,177.221497 222.343486,177.221497 C218.627007,177.221497 215.968324,173.684471 215.856608,173.549165 Z" id="Fill-81" fill="#FEFEFE"></path>
                        </g>
                    </g>
                    <g id="Group-10" stroke-width="1" fill="none" fill-rule="evenodd" transform="translate(144.026316, 130.526316)">
                        <path d="M146.71888,68.595441 L132.642119,57.237724 C132.642119,57.237724 130.513153,55.4602343 131.157398,51.7211553 L133.260752,27.2173269 C133.260752,27.2173269 133.523795,23.3015894 136.353921,25.549527 L153.169126,40.8528735 C153.169126,40.8528735 155.382227,42.5454338 154.745652,45.5432398 L150.706222,67.1964135 L146.71888,68.595441 Z" id="Fill-9" fill-opacity="0.7" fill="#FFFFFF"></path>
                        <path d="M156.317081,67.6013041 L142.091659,52.1929549 C142.091659,52.1929549 140.047491,50.2164661 141.461015,46.4033598 L149.254884,24.2292108 C149.254884,24.2292108 150.579235,19.2289744 153.963646,23.790649 L165.40503,38.1137124 C165.40503,38.1137124 167.66967,40.5452107 166.371428,43.640144 L158.11,67.6013041 L156.317081,67.6013041 Z" id="Fill-7" fill="#73DCFF"></path>
                        <path d="M146.71888,68.595441 L132.642119,57.237724 C132.642119,57.237724 130.513153,55.4602343 131.157398,51.7211553 L133.260752,27.2173269 C133.260752,27.2173269 133.523795,23.3015894 136.353921,25.549527 L153.169126,40.8528735 C153.169126,40.8528735 155.382227,42.5454338 154.745652,45.5432398 L150.706222,67.1964135 L146.71888,68.595441 Z" id="Fill-9" fill="#7364FF" style="mix-blend-mode: multiply;"></path>
                        <path d="M164.826645,105.9776 C164.826645,105.9776 183.512815,153.26336 139.411857,180.911648 C139.411857,180.911648 115.487323,210.494078 75.1892389,233.856415 C75.1892389,233.856415 62.3297585,242.126553 62.2734445,242.162894 C58.3221657,244.704068 56.2319609,253.222236 60.9815809,256.050636 C63.6739321,257.322066 64.8623381,260.159292 61.7053965,261.521317 C59.715162,262.379883 54.5313042,263.151099 52.8580296,261.389709 C51.2719383,259.72008 51.884805,256.87312 51.8148,254.839169 C51.7385953,252.624679 51.575853,250.410319 51.6316504,248.193103 C51.7425993,243.793975 52.7748502,239.348512 56.590123,236.711812 C56.590123,236.711812 95.698639,205.514006 107.452634,168.33077 C107.452634,168.33077 103.682568,154.810206 113.756572,140.014838 L127.705134,125.414286 C127.705134,125.414286 121.733656,128.923958 93.8192242,141.575183 L89.0623712,142.351072 L89.0623712,133.785271 C89.0623712,133.785271 119.762279,114.512511 136.423082,110.034859 C136.423082,110.034859 140.125986,110.874086 148.832826,101.401956 L164.826645,105.9776 Z" id="Fill-11" fill="#73DCFF"></path>
                        <path d="M111.330422,144.14984 C111.330422,144.14984 97.4383385,157.860494 108.526036,172.364168 C108.526036,172.364168 122.253171,187.830259 130.802045,197.01547 C130.802045,197.01547 136.711873,203.226857 133.384193,212.738568 C130.629005,220.080862 127.095923,228.284116 131.623003,235.836182 C133.989831,239.779024 136.351701,243.724454 138.715919,247.66872 C140.717486,251.007738 142.73954,254.229641 144.618048,257.604893 C146.556454,261.087556 147.97013,265.31031 151.6127,267.452551 C154.860123,269.362502 159.510131,267.999305 163.136389,267.08684 C163.136389,267.08684 168.029904,265.95205 166.463938,262.055149 C166.463938,262.055149 165.87683,259.128558 161.570552,260.487356 C156.656026,262.038196 155.391378,258.351067 153.369062,254.806677 C150.005496,248.911437 146.884132,243.495529 143.758593,237.777192 C143.758593,237.777192 141.605389,234.477256 144.3457,230.401122 L160.591823,208.627494 C160.591823,208.627494 166.855429,200.703246 163.136389,193.327306 C163.136389,193.327306 151.588036,173.140494 145.520175,163.823414 C145.520175,163.823414 127.445003,145.633646 111.330422,144.14984" id="Fill-13" fill="#ACEAFF"></path>
                        <path d="M193.072083,34.9969 C192.857018,35.1845956 192.66563,35.376363 192.504177,35.569838 C190.665015,37.7747694 191.889405,45.785657 193.647964,47.7185676 C194.325918,44.6263834 194.39867,42.5463635 196.039329,39.8319349 C197.644777,37.1754305 198.631528,34.8081535 199.532031,31.8123784 C197.393274,32.7905237 194.925722,33.3794861 193.072083,34.9969" id="Fill-15" fill="#73DCFF"></path>
                        <path d="M202.510121,24.3563522 C202.510121,30.6703921 197.398906,35.7889257 191.094172,35.7889257 C184.789313,35.7889257 179.678098,30.6703921 179.678098,24.3563522 C179.678098,18.0423123 184.789313,12.9237787 191.094172,12.9237787 C197.398906,12.9237787 202.510121,18.0423123 202.510121,24.3563522" id="Fill-17" fill="#FFC107"></path>
                        <path d="M199.532031,24.3563522 C199.532031,29.023205 195.754202,32.8065152 191.09411,32.8065152 C186.434018,32.8065152 182.656188,29.023205 182.656188,24.3563522 C182.656188,19.6894995 186.434018,15.9061892 191.09411,15.9061892 C195.754202,15.9061892 199.532031,19.6894995 199.532031,24.3563522" id="Fill-19" fill="#FEFEFE"></path>
                        <polygon id="Fill-21" fill="#055AFE" points="192.738264 24.5381414 191.070707 21.7025777 188.612368 20.8768733 189.548349 23.3238852 191.966212 24.8534206"></polygon>
                        <path d="M192.705788,24.5330445 L190.575257,29.6837096 L188.612368,31.8123784 L189.028698,29.037735 C188.98002,29.0512401 191.869412,24.8832992 191.869412,24.8534206 C191.869412,24.8335016 192.148204,24.7267096 192.705788,24.5330445 Z" id="Fill-23" fill="#055AFE"></path>
                        <path d="M188.612368,13.9179156 C188.612368,15.0160865 187.723522,15.9061892 186.626901,15.9061892 C185.530427,15.9061892 184.641581,15.0160865 184.641581,13.9179156 C184.641581,12.8198917 185.530427,11.9296419 186.626901,11.9296419 C187.723522,11.9296419 188.612368,12.8198917 188.612368,13.9179156" id="Fill-25" fill="#FFC107"></path>
                        <path d="M186.626975,11.9296419 C186.626975,12.4787435 186.182559,12.9237787 185.634222,12.9237787 C185.085997,12.9237787 184.641581,12.4787435 184.641581,11.9296419 C184.641581,11.3805403 185.085997,10.9355051 185.634222,10.9355051 C186.182559,10.9355051 186.626975,11.3805403 186.626975,11.9296419" id="Fill-27" fill="#FFC107"></path>
                        <path d="M185.634278,10.9355051 C185.634278,11.4843055 185.189735,11.9296419 184.641485,11.9296419 C184.093427,11.9296419 183.648885,11.4843055 183.648885,10.9355051 C183.648885,10.3867047 184.093427,9.94136826 184.641485,9.94136826 C185.189735,9.94136826 185.634278,10.3867047 185.634278,10.9355051" id="Fill-29" fill="#FFC107"></path>
                        <path d="M183.648885,9.94136826 C183.648885,10.4901686 183.204342,10.9355051 182.656092,10.9355051 C182.108034,10.9355051 181.663491,10.4901686 181.663491,9.94136826 C181.663491,9.39256787 182.108034,8.94723143 182.656092,8.94723143 C183.204342,8.94723143 183.648885,9.39256787 183.648885,9.94136826" id="Fill-29" fill="#FFC107"></path>
                        <path d="M181.663491,9.94136826 C181.663491,10.4901686 181.218949,10.9355051 180.670699,10.9355051 C180.122641,10.9355051 179.678098,10.4901686 179.678098,9.94136826 C179.678098,9.39256787 180.122641,8.94723143 180.670699,8.94723143 C181.218949,8.94723143 181.663491,9.39256787 181.663491,9.94136826" id="Fill-29" fill="#FFC107"></path>
                        <path d="M180.670795,7.95309461 C180.670795,8.50189499 180.226252,8.94723143 179.678002,8.94723143 C179.129944,8.94723143 178.685401,8.50189499 178.685401,7.95309461 C178.685401,7.40429422 179.129944,6.95895778 179.678002,6.95895778 C180.226252,6.95895778 180.670795,7.40429422 180.670795,7.95309461" id="Fill-29" fill="#FFC107"></path>
                        <path d="M178.685401,5.96482095 C178.685401,6.51362134 178.240859,6.95895778 177.692609,6.95895778 C177.14455,6.95895778 176.700008,6.51362134 176.700008,5.96482095 C176.700008,5.41602057 177.14455,4.97068413 177.692609,4.97068413 C178.240859,4.97068413 178.685401,5.41602057 178.685401,5.96482095" id="Fill-29" fill="#FFC107"></path>
                        <path d="M176.700008,4.97068413 C176.700008,5.51948451 176.255465,5.96482095 175.707215,5.96482095 C175.159157,5.96482095 174.714615,5.51948451 174.714615,4.97068413 C174.714615,4.42188375 175.159157,3.9765473 175.707215,3.9765473 C176.255465,3.9765473 176.700008,4.42188375 176.700008,4.97068413" id="Fill-29" fill="#FFC107"></path>
                        <path d="M174.714615,5.96482095 C174.714615,6.51362134 174.270072,6.95895778 173.721822,6.95895778 C173.173764,6.95895778 172.729221,6.51362134 172.729221,5.96482095 C172.729221,5.41602057 173.173764,4.97068413 173.721822,4.97068413 C174.270072,4.97068413 174.714615,5.41602057 174.714615,5.96482095" id="Fill-29" fill="#FFC107"></path>
                        <path d="M172.729221,5.96482095 C172.729221,6.51362134 172.284679,6.95895778 171.736429,6.95895778 C171.18837,6.95895778 170.743828,6.51362134 170.743828,5.96482095 C170.743828,5.41602057 171.18837,4.97068413 171.736429,4.97068413 C172.284679,4.97068413 172.729221,5.41602057 172.729221,5.96482095" id="Fill-29" fill="#FFC107"></path>
                        <path d="M170.743828,4.97068413 C170.743828,5.51948451 170.299285,5.96482095 169.751035,5.96482095 C169.202977,5.96482095 168.758435,5.51948451 168.758435,4.97068413 C168.758435,4.42188375 169.202977,3.9765473 169.751035,3.9765473 C170.299285,3.9765473 170.743828,4.42188375 170.743828,4.97068413" id="Fill-29" fill="#FFC107"></path>
                        <path d="M169.751131,2.98241048 C169.751131,3.53121086 169.306589,3.9765473 168.758339,3.9765473 C168.21028,3.9765473 167.765738,3.53121086 167.765738,2.98241048 C167.765738,2.43361009 168.21028,1.98827365 168.758339,1.98827365 C169.306589,1.98827365 169.751131,2.43361009 169.751131,2.98241048" id="Fill-29" fill="#FFC107"></path>
                        <path d="M168.758435,0.994136826 C168.758435,1.54293721 168.313892,1.98827365 167.765642,1.98827365 C167.217584,1.98827365 166.773041,1.54293721 166.773041,0.994136826 C166.773041,0.445336442 167.217584,0 167.765642,0 C168.313892,0 168.758435,0.445336442 168.758435,0.994136826" id="Fill-29" fill="#FFC107"></path>
                        <path d="M165.325342,110.304147 C165.815826,108.061145 169.552517,104.880675 170.964782,103.188414 C173.365001,100.31228 175.833369,97.4904729 178.344971,94.706901 C179.969064,92.9071446 181.612401,91.1242528 183.271951,89.3555222 C187.097486,85.2787777 189.818147,82.6182793 188.86117,76.6987799 C188.206973,72.6521601 187.983678,68.5110466 187.816273,64.4243893 C187.585069,58.7772994 188.213563,53.0659692 187.302063,47.456857 C186.851651,44.6844853 186.009749,41.9118562 184.575074,39.4648054 C183.401921,37.4637028 181.542144,35.8190755 180.273029,33.7873333 C178.858127,31.5223179 177.723859,28.8087795 178.184684,26.107085 C178.396906,24.9238546 178.70364,23.7426839 179.091176,22.6032244 C179.310911,21.9567024 179.619227,20.5632429 180.194994,20.1252764 C181.514199,19.1211205 181.673299,21.5115266 181.698344,22.2643861 C181.751598,23.8712931 181.515517,25.514118 182.489366,26.9514772 C183.829661,28.9296644 185.884393,29.2849812 187.951647,30.184087 C189.562821,30.8849363 191.147369,32.026327 192.285064,33.3645579 C194.401881,35.8582119 194.223931,41.2478259 194.333337,44.2627398 C194.504038,48.9630909 195.600475,53.4037776 196.435523,58.0259847 C196.998373,61.1420867 197.565968,64.2571587 198.142922,67.3715871 C198.935657,71.6492915 199.919788,75.1808308 199.374733,79.5553461 C198.782752,84.3061625 197.029876,89.1156834 194.001559,92.9160275 C193.997341,92.9213057 180.321669,110.083104 167.490271,128.243651 C167.490271,128.243651 163.34034,119.38648 165.325342,110.304147" id="Fill-117" fill="#73DCFF"></path>
                        <path d="M155.85565,101.097029 C155.85565,101.097029 168.302867,103.702632 171.684526,108.952367 C171.684526,108.952367 154.947326,118.885747 138.212401,98.4945558 C142.082253,97.861508 147.963335,98.728999 155.85565,101.097029 Z" id="Fill-119" fill="#B2C0D0"></path>
                        <path d="M169.612915,170.989781 C169.606777,170.99004 159.710114,171.324606 143.563411,162.609702 C143.563411,162.609702 123.049379,152.003847 108.203937,142.037851 C109.12285,142.654784 118.778212,132.608611 119.498407,131.883523 C126.358796,124.975638 131.239289,117.928642 135.787562,109.355051 C135.787562,109.355051 168.01217,120.274489 168.025469,120.279022 C174.503638,122.499358 167.023309,171.0776 169.612915,170.989781 Z" id="Fill-121" stroke="#D3E1F0" fill="#F6F7FA"></path>
                        <circle id="Oval" stroke="#7364FF" stroke-width="3" cx="127.894737" cy="143.289474" r="4.73684211"></circle>
                        <path d="M138.197327,98.4195457 L134.014051,106.277678 C134.014051,106.277678 136.553907,112.166267 147.012097,116.877037 C147.012097,116.877037 158.214314,122.029458 171.736525,119.673946 L171.688382,108.674032 C171.688382,108.674032 153.297052,113.384929 138.197327,98.4195457" id="Fill-123" fill="#D7E3F0"></path>
                        <path d="M151.859325,118.640376 C149.597324,127.055194 147.119254,133.901454 144.425115,139.179156 C144.425115,139.179156 130.41896,132.824521 123.638928,127.428643" id="Stroke-125" stroke="#D3E1F0" stroke-width="0.6"></path>
                        <path d="M154.315861,119.1872 C152.124291,127.481661 149.658706,134.46621 146.919108,140.140847 C146.919108,140.140847 155.446811,144.381747 170.436518,146.209955" id="Stroke-127" stroke="#D3E1F0" stroke-width="0.6"></path>
                        <path d="M170.010454,148.313273 C170.010454,148.313273 159.616994,147.823232 145.618289,142.161566 C145.618289,142.161566 141.931119,151.089459 136.313782,158.62453" id="Stroke-129" stroke="#D3E1F0" stroke-width="0.6"></path>
                        <path d="M122.044827,129.22833 C122.044827,129.22833 126.762933,133.581885 142.948321,141.087396 C142.948321,141.087396 139.690285,149.067672 133.904748,157.39715" id="Stroke-131" stroke="#D3E1F0" stroke-width="0.6"></path>
                        <g id="Group-6" transform="translate(143.289474, 148.026316)" fill="#7364FF">
                            <path d="M6.84053457,12.5747059 C8.55092878,13.2197034 10.4564778,12.3553468 11.1012779,10.6416209 C11.7458058,8.9289849 10.8840763,7.01960699 9.17368212,6.37460948 C7.46247136,5.72906698 5.55528927,6.59451357 4.91076134,8.30687704 C4.26596123,10.020603 5.12959599,11.9291634 6.84053457,12.5747059" id="Fill-139"></path>
                            <path d="M13.1332419,10.5446681 C12.8112399,11.3999533 13.2408401,12.35362 14.0950866,12.6755421 C14.9505221,12.9982575 15.9018646,12.5654578 16.2236684,11.7101727 C16.5450759,10.8564743 16.1154757,9.90280756 15.2600403,9.58029047 C14.4059919,9.25817009 13.4542531,9.69077142 13.1332419,10.5446681" id="Fill-141"></path>
                            <path d="M13.4514227,6.00030492 C14.7358042,6.48476319 16.1678895,5.83524613 16.6509596,4.55157461 C17.1351001,3.26575947 16.487201,1.82917634 15.2028195,1.34471807 C13.917011,0.859545252 12.485996,1.51156321 12.0022123,2.79809289 C11.5191421,4.08140714 12.1656141,5.51513211 13.4514227,6.00030492" id="Fill-143"></path>
                            <path d="M6.9926405,3.20711091 C7.84613381,3.52954984 8.80081446,3.09640101 9.12344079,2.24008779 C9.44548054,1.38348092 9.01316125,0.428791526 8.15937465,0.10693992 C7.30412157,-0.215499007 6.3503208,0.215594203 6.02798777,1.07220108 C5.70536143,1.92880795 6.13738742,2.88467198 6.9926405,3.20711091" id="Fill-145"></path>
                            <path d="M1.07158787,7.94395302 C1.92508118,8.26639194 2.87976183,7.83324311 3.20238816,6.9769299 C3.5244279,6.12032302 3.09210862,5.16563363 2.23832202,4.84378203 C1.38306893,4.5213431 0.429268171,4.95243631 0.106935134,5.80904318 C-0.215691201,6.66565006 0.216334791,7.62151409 1.07158787,7.94395302" id="Fill-145-Copy"></path>
                            <path d="M19.6339427,7.97576153 C20.1809513,8.1819131 20.7922769,7.90424812 20.9988455,7.35604854 C21.2049951,6.80742952 20.928453,6.19589548 20.3814443,5.9895342 C19.8333882,5.7829632 19.2220626,6.05936988 19.0157035,6.60819861 C18.8093444,7.15639819 19.086096,7.76919053 19.6339427,7.97576153" id="Fill-147"></path>
                        </g>
                        <path d="M135.006748,105.850085 C136.197187,106.059775 136.682001,103.547107 136.980122,102.766752 C137.30265,101.922647 137.888541,100.394278 138.957969,100.40791 C141.483883,100.441188 138.998349,103.952053 138.483633,104.719044 C137.931605,105.541498 137.348525,106.463518 137.01833,107.417479 C136.641493,108.506556 137.084266,109.370172 138.212092,108.478757 C139.402403,107.537225 139.416587,105.532678 140.078894,104.24046 C140.780302,102.872332 143.501216,102.255825 143.361931,104.475141 C143.257148,106.142368 141.375778,107.411198 140.386471,108.510431 C139.93322,109.014141 139.311932,110.081701 139.535299,110.810603 C139.854377,111.851433 141.216942,111.794634 141.886276,111.148325 C142.509609,110.546386 142.729398,109.225033 143.126935,108.400842 C143.522684,107.579992 143.937472,106.649419 144.558376,105.98627 C145.251223,105.246275 146.664391,105.251354 146.544785,106.445208 C146.423773,107.65363 145.31716,109.050626 144.73293,110.057912 C144.332325,110.748591 143.552841,111.575856 143.337268,112.336165 C143.0909,113.205395 143.941944,114.041481 144.587639,113.542716 C145.095326,113.1506 145.561484,111.706294 145.814752,111.094198 C146.180599,110.210668 146.367803,109.185474 146.9551,108.417681 C147.698678,107.445545 149.105201,107.141768 149.077727,108.686442 C149.05332,110.063926 147.994882,111.307363 147.290534,112.369844 C146.866929,113.008803 145.966816,113.880705 146.195805,114.749802 C146.469264,115.787692 147.467644,115.797983 148.000632,115.116257 C149.155164,113.64001 149.238224,111.653905 150.325414,110.126605 C150.731768,109.555939 151.685423,108.813138 152.210234,109.474015 C153.475172,111.069207 151.121255,113.4787 150.519646,114.873958 C149.702593,116.768516 151.785734,118.683521 152.765457,116.608409 C153.556187,114.933698 153.188807,112.545855 154.403014,111.128679 C155.061615,110.35995 155.8388,110.675888 156.09488,111.60606 C156.368594,112.599714 155.957,113.982276 155.78053,114.962432 C155.630894,115.792904 155.141736,116.797918 155.427845,117.656322 C155.783725,118.724016 156.760764,118.819038 157.403648,117.985625 C158.474225,116.597984 157.125844,114.492534 157.73627,112.926611 C157.96756,112.333626 158.410077,111.627978 159.063056,111.573718 C160.63851,111.44328 160.239311,114.359423 160.147562,115.306702 C160.071147,116.094007 159.106758,119.296419 160.649371,119.296419 C162.274533,119.296419 161.710365,116.339247 161.638934,115.345593 C161.596637,114.755949 161.383237,113.559555 161.625772,113.010941 C161.995452,112.174187 163.088264,112.521531 163.263073,113.290527 C163.409259,113.93256 163.140017,115.183214 163.120977,115.891935 C163.096315,116.809545 162.669515,119.749076 164.355247,119.125487 C165.707717,118.625118 164.651451,115.905567 164.461947,114.961362 C164.315378,114.231792 164.05802,113.253908 164.355375,112.527813 C164.683142,111.727143 165.756019,111.62437 166.138989,112.410338 C166.526559,113.20593 166.294503,114.939712 166.340377,115.865073 C166.374112,116.54466 166.25604,117.546332 166.612047,118.184489 C167.113856,119.08419 167.917109,118.999726 168.29829,118.054452 C168.848657,116.690333 168.176128,115.150337 167.875579,113.807468 C167.717127,113.10035 167.502193,111.151933 168.650975,111.104355 C170.869696,111.01361 168.380328,117.543927 170.743828,118.145465" id="Stroke-151" stroke="#B2C0D0" stroke-width="0.5"></path>
                        <path d="M115.644724,49.1117317 C124.691893,52.572251 130.501526,62.047213 130.014875,72.6225363 C130.014875,72.6231791 129.754373,78.2799208 125.460777,82.5227021 C122.523039,85.4257119 120.437723,89.2517753 121.418444,93.3343498 C122.231829,96.7202944 122.679184,100.348607 120.308253,103.253931 C118.439849,105.5435 115.357287,106.373978 113.166183,108.267274 C110.569102,110.511969 109.968204,114.47471 108.039684,117.094851 C105.864975,120.049291 101.890175,122.37319 98.2653996,123.02469 C98.2653996,123.02469 84.3424741,135.496651 77.0557093,141.025459 C69.7275662,141.025459 63.6167031,142.612227 59.4390447,135.176109 C57.0924462,130.999416 52.6987873,130.754349 49.6587751,127.359275 C45.5171602,122.734106 48.4636155,118.509068 52.3197454,115.319846 C57.057704,111.401207 57.2403936,106.293361 55.7778358,100.986734 C54.5502762,96.5327007 54.7958141,90.5783034 59.4883605,88.1807296 C68.091167,83.7855846 79.9199283,83.9442486 85.3834405,74.8083439 C89.5888146,67.7759578 88.6986582,59.1924196 94.5771255,53.0196987 C97.2962598,50.164391 100.936519,48.4514892 104.849772,47.9295955 C108.76823,47.4068017 112.413044,47.8755932 115.644724,49.1117317" id="Fill-153" fill="#160F71"></path>
                        <path d="M121.60128,81.0144015 C119.826624,86.2481585 116.374482,92.5464287 110.075852,91.9182825 C108.775007,91.7885768 107.089369,90.6847549 105.878447,91.4349303 C103.762989,92.7470754 104.526236,97.5692154 104.612795,99.7108152 C104.753826,103.197648 105.901866,109.548248 105.901866,109.549704 C105.901866,109.551159 105.384323,114.325735 105.384323,114.325735 C105.384323,114.325735 86.3759966,99.5109626 86.3646106,99.5022273 C87.0798553,100.059697 94.0793681,92.9060311 94.6205889,92.3306937 C96.7902594,90.0244471 98.7366099,87.5052449 100.255082,84.7006902 C101.538459,82.3302525 101.339464,80.1689321 101.243977,77.5316713 C101.243977,77.5316713 100.468051,73.166413 102.018998,71.4447685 C103.161087,70.1772262 104.737006,69.344198 105.901866,71.0463867 C105.901866,71.0463867 106.548795,71.8405032 106.678181,73.9581471 C106.678181,73.9581471 106.764481,75.4140273 105.815695,77.3552451 C105.815695,77.3552451 107.282024,76.6494079 109.610969,74.5317639 C112.875243,71.5636212 112.628763,65.2215423 118.064131,64.6493814 C118.064131,64.6493814 123.325604,63.9434118 124.015877,69.325801 C124.464329,72.8233547 122.690708,77.8015386 121.60128,81.0144015 Z" id="Fill-155" fill="#FDD9D7"></path>
                        <path d="M99.2971209,101.747375 C99.2971209,101.747375 103.328277,109.54686 106.165127,108.935518 C106.165127,108.935518 107.734094,123.158199 93.865641,138.184229 C93.865641,138.184229 87.5772719,138.349009 77.2249296,133.918324 C76.9830993,133.814678 76.9681233,131.368927 76.946636,131.124133 C76.7191306,128.538647 76.3976018,125.949692 76.4417485,123.354959 C76.5974992,114.203715 78.1918602,107.839984 79.752753,105.1854 C82.1840786,101.051139 85.7918689,97.6462491 90.3563018,95.9167691 C90.3563018,95.9167691 95.6248685,92.9558725 99.2971209,101.747375 Z" id="Fill-157" fill="#F44336"></path>
                        <path d="M9.92696674,253.078849 C9.92696674,253.078849 6.8240113,257.05563 6.08946807,261.28272 C6.08946807,261.28272 1.48020931,262.878224 2.03111673,256.441383 C1.0582563,256.407281 1.57109032,255.137906 3.56961879,252.633256 C5.56814727,250.128606 7.68726325,248.099498 9.92696674,246.545933 L9.92696674,253.078849 Z" id="Fill-159" fill="#FDD9D7"></path>
                        <path d="M5.24451631,250.52248 C5.24451631,250.52248 3.31828301,254.249156 6.4536941,259.90821 C6.4536941,259.90821 6.94887672,269.210031 6.94887672,269.210806 C6.94887672,270.477209 6.91968601,273.263812 5.36328009,273.382501 C1.93502034,273.644056 0.793169484,263.820418 0.431581419,261.429574 C0.0689340145,259.031619 -0.786188802,253.829737 1.78671273,252.418658 C1.79012616,252.416718 5.24451631,250.52248 5.24451631,250.52248" id="Fill-161" fill="#7986CB"></path>
                        <path d="M67.2361213,258.779408 L64.0317021,262.418758 C66.9424367,267.273305 70.0850539,270.598215 73.4595539,272.39349 L68.8490691,263.861647 L69.7983125,260.339813 L67.2361213,258.779408 Z" id="Fill-163" fill="#FDD9D7"></path>
                        <path d="M89.689272,152.462629 C89.9947319,152.93702 97.4965306,164.26082 99.3648841,168.126788 C101.708254,172.975655 103.352948,178.230287 105.071808,183.32553 C106.963847,188.934229 108.860158,194.876553 110.254143,200.579922 C111.465887,205.538304 113.935712,212.098911 110.166388,216.587199 C110.160822,216.59371 70.3715578,264.440396 70.3715578,264.440396 L65.3937383,260.648696 C65.3937383,260.648696 80.6608985,236.900196 98.1333369,217.172928 C102.061474,212.7379 96.9385484,206.284594 94.6789214,202.667998 C92.5325476,199.232147 90.3861737,195.796165 88.2399293,192.360444 L78.2373913,177.138387 C85.6683385,160.371621 89.485632,152.146369 89.689272,152.462629 Z" id="Fill-165" fill="#F5A623"></path>
                        <path d="M76.4090953,277.569611 C76.7423332,279.873161 74.0756494,279.713048 72.7161431,278.39779 C72.7143207,278.396104 62.8394161,268.841973 62.8394161,268.841973 C62.8394161,268.841973 59.9657412,266.103647 62.8394161,263.383889 L64.4162476,261.96645 C68.153151,267.935164 70.1242208,269.4744 70.3294572,266.584158 C74.2496013,272.988604 76.2761473,276.650421 76.4090953,277.569611 Z" id="Fill-167" fill="#7986CB"></path>
                        <path d="M93.6571504,138.278601 C93.6571504,138.278601 91.4636373,161.249885 70.0814577,191.050459 C70.0814577,191.050459 41.2226744,231.644905 9.86492058,253.504891 L6.94887672,245.930278 C6.94887672,245.930278 36.6964314,215.344006 46.054557,195.815798 C46.054557,195.815798 54.488052,170.560771 56.9001374,160.989067 C56.9001374,160.989067 63.0161717,139.84263 77.1613236,133.566263 C77.1613236,133.566263 83.7098256,136.937008 92.3207907,138.278601 C93.2116972,138.278601 93.6571504,138.278601 93.6571504,138.278601 Z" id="Fill-169" fill="#FFC107"></path>
                        <path d="M84.6062692,111.706648 C84.8523643,110.175576 85.3394221,108.724892 86.2551576,107.498271 C87.600982,105.69564 89.5164947,104.932932 91.6763061,105.639854 C91.6763061,105.639854 95.3219262,106.495581 95.452159,114.125419 L95.9709089,144.513333 C95.9709089,144.513333 96.1531065,147.668102 99.0993188,147.352073 C99.0993188,147.352073 115.254729,146.535685 123.321207,145.46971 C126.815039,145.323273 129.444586,143.745757 132.628297,142.644127 C133.977586,142.177319 135.469681,141.915101 136.877479,141.717879 C138.521748,141.488159 141.79104,141.5746 141.949501,143.856144 C142.086534,145.829947 139.893875,146.896185 138.36688,147.304971 C138.36688,147.304971 134.144643,148.038865 131.707044,148.082677 C129.301908,148.125832 126.626041,148.722236 124.365507,149.515731 C120.516904,150.866948 116.729246,151.698466 112.73527,152.490119 C108.189568,153.390842 103.477322,154.243807 98.8291018,154.06803 C98.8291018,154.06803 91.5281102,154.877971 87.747125,143.881931 C86.4097689,139.992084 86.0901532,135.352291 85.5613953,131.29956 C85.022501,127.168283 84.6442485,123.011218 84.4983621,118.844811 C84.4207356,116.62721 84.2262204,114.071213 84.6062692,111.706648" id="Fill-171" fill="#FDD9D7"></path>
                        <path d="M141.909623,73.1674806 C142.625859,71.7526796 143.558356,70.4997287 144.736059,69.5020182 C153.567555,62.0212559 167.458354,65.6774181 169.483375,77.5121199 C170.097729,81.102922 172.536146,83.5714935 173.846206,86.8865172 C174.297472,88.0281233 174.620078,89.2375438 174.693142,90.4691816 C175.0577,96.6240119 170.750974,105.360308 164.00035,105.378392 C160.263605,105.388468 156.336356,104.714328 152.844179,103.384521 C147.079351,101.189403 143.484782,96.5248092 141.384145,90.811095 C139.569009,85.8734354 139.256222,78.4088194 141.909623,73.1674806" id="Fill-173" fill="#ACEAFF"></path>
                        <path d="M153.7777,84.5685409 C154.103601,86.4750934 153.5194,88.2133815 152.472938,88.4510885 C151.426347,88.6887955 150.3137,87.3357055 149.987542,85.429153 C149.661512,83.5223036 150.245713,81.7838672 151.292175,81.5463086 C152.338895,81.3086016 153.451542,82.6616915 153.7777,84.5685409" id="Fill-175" fill="#171B20" transform="translate(151.882591, 84.998699) rotate(-6.000000) translate(-151.882591, -84.998699) "></path>
                        <path d="M169.660835,80.5919091 C169.98674,82.49865 169.40266,84.2368261 168.356053,84.4745381 C167.309576,84.7122501 166.196784,83.3592802 165.87075,81.4526877 C165.544586,79.54565 166.128796,77.8073255 167.175273,77.5697619 C168.222008,77.3320499 169.334672,78.6851682 169.660835,80.5919091" id="Fill-177" fill="#171B20" transform="translate(167.765738, 81.022151) rotate(-7.000000) translate(-167.765738, -81.022151) "></path>
                        <path d="M171.14617,97.7068195 C170.764573,97.5853364 168.786112,97.1119076 168.191677,96.9621267 L167.93399,93.3993679 C168.180273,93.2290546 170.113757,90.5128606 170.113757,90.5128606 C170.789816,89.2595971 169.086469,89.4887435 169.086469,89.4887435 C165.860835,89.6918296 164.322018,90.5025945 164.302797,90.512729 C163.791268,90.7838614 163.567666,91.1884542 164.104054,91.5813329 C164.419403,91.8123219 164.752051,92.0218573 165.075729,92.2400794 C165.485517,92.5160816 165.895689,92.7914258 166.309448,93.0615053 C166.527412,93.203784 166.772029,93.4160833 167.02113,93.4987392 L167.500881,97.0688686 C166.983586,97.6127128 166.46629,98.1564255 165.948866,98.7001381 C165.613399,99.0527418 165.199768,99.4599669 164.886853,99.8159927 C164.582652,100.162147 164.914403,100.622546 165.257815,100.296529 C165.584184,99.9864376 166.028568,99.5520993 166.373518,99.2158161 C166.920285,98.6828962 167.466797,98.1501078 168.013436,97.6173195 C168.682192,97.7534121 169.326985,97.8806864 170.019703,98.0255975 C170.349147,98.0944335 171.665516,98.5167946 171.732916,98.1097012 C171.782122,97.8130349 171.314672,97.7605195 171.14617,97.7068195" id="Fill-179" fill="#171B20"></path>
                        <path d="M152.875288,84.0045618 C152.875288,84.2789435 152.653089,84.5016302 152.378939,84.5016302 C152.10479,84.5016302 151.882591,84.2789435 151.882591,84.0045618 C151.882591,83.73018 152.10479,83.5074934 152.378939,83.5074934 C152.653089,83.5074934 152.875288,83.73018 152.875288,84.0045618" id="Fill-181" fill="#FEFEFE"></path>
                        <path d="M168.758435,80.0280145 C168.758435,80.3023962 168.536236,80.5250829 168.262086,80.5250829 C167.987936,80.5250829 167.765738,80.3023962 167.765738,80.0280145 C167.765738,79.7536327 167.987936,79.5309461 168.262086,79.5309461 C168.536236,79.5309461 168.758435,79.7536327 168.758435,80.0280145" id="Fill-183" fill="#FEFEFE"></path>
                        <path d="M188.256754,13.4764908 L184.65703,15.8056567 C184.326487,16.0232542 183.912126,15.875932 183.732034,15.4765518 C183.552067,15.0773221 183.673872,14.5768178 184.004414,14.3592203 L187.604262,12.0302049 C187.934805,11.8126074 188.348917,11.9597791 188.529133,12.3593098 C188.70935,12.7586899 188.587171,13.2590438 188.256754,13.4764908 M183.351451,13.4175201 C182.705003,13.7676507 182.466733,14.5722996 182.818988,15.2151144 C183.171377,15.8573973 183.981175,16.0946297 184.627489,15.7443661 L188.909802,13.424169 C189.556249,13.0739054 189.79452,12.2691236 189.442265,11.6265748 C189.089742,10.9840259 188.280078,10.7471924 187.634031,11.097323 L183.351451,13.4175201 Z" id="Fill-185" fill="#FFC107"></path>
                        <g id="Group-11" transform="translate(129.078947, 118.421053)" fill="#7364FF">
                            <polygon id="Path-2" points="0.0986742189 10.5193463 5.20955156 2.22039474 8.14913733 3.7282171 3.33046479 12.2883463"></polygon>
                            <polygon id="Path-2-Copy" points="4.44078947 12.8212229 11.4176719 0.0154613085 14.7201145 1.63607353 7.90387892 14.6017869"></polygon>
                            <polygon id="Path-2-Copy-2" points="8.79929782 15.1720065 14.1649376 4.92725191 17.4673802 6.54786413 12.2623873 16.9525705"></polygon>
                        </g>
                        <polyline id="Path-4" stroke="#7364FF" points="150.631754 137.617971 157.788042 131.707449 164.047964 137.617971 169.083436 129.279708"></polyline>
                    </g>
                </g>
            </g>
        </g>
    </g>
</svg>