<?xml version="1.0" encoding="utf-8"?>
<!-- Generator: Adobe Illustrator 16.0.3, SVG Export Plug-In . SVG Version: 6.00 Build 0)  -->
<!DOCTYPE svg PUBLIC "-//W3C//DTD SVG 1.1//EN" "http://www.w3.org/Graphics/SVG/1.1/DTD/svg11.dtd">
<svg version="1.1" id="Layer_1" xmlns="http://www.w3.org/2000/svg" xmlns:xlink="http://www.w3.org/1999/xlink" x="0px" y="0px"
	 width="828.568px" height="410.236px" viewBox="0 0 828.568 410.236" enable-background="new 0 0 828.568 410.236"
	 xml:space="preserve">
<g>
	<rect x="0.104" fill="#FFFFFF" width="828.568" height="410.235"/>
	<g>
		<text transform="matrix(0.9729 0 0 1 279.606 31.6846)" fill="#626366" font-family="'TitilliumText22L-Regular'" font-size="16">Flow</text>
	</g>
	<g>
		<text transform="matrix(0.9729 0 0 1 0 31.6846)" fill="#626366" font-family="'TitilliumText22L-Regular'" font-size="16">Develop</text>
	</g>
	<g>
		<text transform="matrix(0.9729 0 0 1 482.2949 30.1748)"><tspan x="0" y="0" fill="#626366" font-family="'NanumBarunGothicOTF-KSCpc-EUC-H'" font-size="12">단골 디자이너의 예약가능 일정을 확인하고 앱으로 빠르게 예약함으로써 </tspan><tspan x="0" y="22" fill="#626366" font-family="'NanumBarunGothicOTF-KSCpc-EUC-H'" font-size="12">예약시간, 승인절차, 대기시간 단축 </tspan></text>
	</g>
	<rect x="278.606" y="10.197" fill="#A2A4A6" width="542.234" height="0.537"/>
	<path fill="#EEEEEF" stroke="#7DC8ED" stroke-width="4.1617" stroke-miterlimit="10" d="M390.021,213.693
		c0,30.076-24.386,54.461-54.463,54.461c-30.078,0-54.461-24.385-54.461-54.461c0-30.081,24.383-54.462,54.461-54.462
		C365.635,159.231,390.021,183.612,390.021,213.693z"/>
	<path fill="#EEEEEF" stroke="#7DC8ED" stroke-width="4.1617" stroke-miterlimit="10" d="M709.734,213.693
		c0,30.076-24.387,54.461-54.463,54.461c-30.078,0-54.461-24.385-54.461-54.461c0-30.081,24.383-54.462,54.461-54.462
		C685.348,159.231,709.734,183.612,709.734,213.693z"/>
	<path fill="#EEEEEF" stroke="#7DC8ED" stroke-width="4.1617" stroke-miterlimit="10" d="M549.877,213.693
		c0,30.076-24.387,54.461-54.463,54.461c-30.078,0-54.46-24.385-54.46-54.461c0-30.081,24.383-54.462,54.46-54.462
		C525.49,159.231,549.877,183.612,549.877,213.693z"/>
	<g>
		<text transform="matrix(0.9984 0 0 1 295.9761 233.0503)"><tspan x="0" y="0" fill="#807FB6" font-family="'NanumBarunGothicOTF-KSCpc-EUC-H'" font-size="10">단골 디자이너-고객</tspan><tspan x="20.755" y="12.5" fill="#807FB6" font-family="'NanumBarunGothicOTF-KSCpc-EUC-H'" font-size="10">친구맺기 </tspan></text>
	</g>
	<g>
		
			<text transform="matrix(0.9984 0 0 1 458.1108 237.2158)" fill="#807FB6" font-family="'NanumBarunGothicOTF-KSCpc-EUC-H'" font-size="10">예약가능시간 확인</text>
	</g>
	<g>
		
			<text transform="matrix(0.9984 0 0 1 646.3652 237.2158)" fill="#807FB6" font-family="'NanumBarunGothicOTF-KSCpc-EUC-H'" font-size="10">예약</text>
	</g>
	<g>
		<path fill="#807FB6" d="M495.416,217.072c-9.809,0-17.789-7.975-17.789-17.775c0-9.816,7.98-17.801,17.789-17.801
			s17.789,7.984,17.789,17.801C513.205,209.098,505.225,217.072,495.416,217.072z M495.416,183.85
			c-8.516,0-15.446,6.93-15.446,15.447c0,8.51,6.93,15.434,15.446,15.434c8.518,0,15.447-6.924,15.447-15.434
			C510.863,190.779,503.934,183.85,495.416,183.85z"/>
		<path fill="#807FB6" d="M495.416,181.879c-9.617,0-17.406,7.8-17.406,17.418c0,9.607,7.789,17.393,17.406,17.393
			s17.408-7.785,17.408-17.393C512.824,189.679,505.033,181.879,495.416,181.879 M495.416,215.112
			c-8.734,0-15.829-7.081-15.829-15.815c0-8.746,7.094-15.83,15.829-15.83s15.83,7.084,15.83,15.83
			C511.246,208.031,504.15,215.112,495.416,215.112"/>
		<g>
			<path fill="#807FB6" d="M495.416,200.463c-0.65,0-1.178-0.523-1.178-1.166v-11.863c0-0.668,0.518-1.19,1.178-1.19
				c0.643,0,1.166,0.533,1.166,1.19v11.863C496.582,199.939,496.059,200.463,495.416,200.463z"/>
			<path fill="#807FB6" d="M496.199,199.297c0,0.43-0.354,0.783-0.783,0.783l0,0c-0.439,0-0.795-0.354-0.795-0.783v-11.863
				c0-0.457,0.355-0.809,0.795-0.809l0,0c0.43,0,0.783,0.352,0.783,0.809V199.297z"/>
			<path fill="#807FB6" d="M495.416,200.463c-0.65,0-1.178-0.523-1.178-1.166c0-0.648,0.527-1.176,1.178-1.176h7.119
				c0.643,0,1.166,0.527,1.166,1.176c0,0.643-0.523,1.166-1.166,1.166H495.416z"/>
			<path fill="#807FB6" d="M495.416,200.08c-0.439,0-0.795-0.354-0.795-0.783l0,0c0-0.44,0.355-0.794,0.795-0.794h7.119
				c0.43,0,0.783,0.354,0.783,0.794l0,0c0,0.43-0.354,0.783-0.783,0.783H495.416z"/>
		</g>
	</g>
	<g>
		<path fill="#807FB6" d="M318.944,211.529c-0.861,0-1.173-0.701-1.173-1.174c0-4.987,4.4-6.539,6.515-7.285
			c0.199-0.053,2.999-0.756,2.999-3.695c0-2.293-0.87-3.32-1.445-4.001c-0.121-0.142-0.227-0.269-0.313-0.388
			c-0.077-0.074-1.035-1.16-0.364-4.086c-0.521-1.156-1.693-3.906-0.714-6.307c1.196-2.929,2.551-3.71,4.333-4.494
			c0.583-0.381,2.167-0.99,3.925-0.99c1.043,0,1.965,0.218,2.739,0.647c1.106,0.614,1.875,1.644,2.741,3.672
			c1.202,2.822,1.174,5.782-0.059,7.61c0.655,2.912-0.386,3.908-0.509,4.014c-0.025,0.053-0.132,0.18-0.252,0.321
			c-0.574,0.681-1.444,1.708-1.444,4.001c0,2.954,2.889,3.663,2.918,3.67c2.195,0.771,6.596,2.324,6.596,7.311
			c0,0.473-0.312,1.174-1.173,1.174H318.944z M342.951,209.183c-0.557-2.215-2.745-3.167-4.778-3.888
			c-1.688-0.432-4.597-2.18-4.597-5.92c0-3.152,1.301-4.691,1.999-5.518c0.085-0.1,0.152-0.176,0.206-0.249
			c0.034-0.048,0.074-0.098,0.116-0.146c0.057-0.143,0.227-0.727-0.09-2.043c-0.139-0.564-0.019-1.156,0.326-1.623
			c0.696-0.951,0.934-3.006-0.106-5.445c-0.736-1.723-1.221-2.262-1.722-2.541c-0.422-0.233-0.959-0.352-1.6-0.352
			c-1.19,0-2.37,0.427-2.709,0.644c-0.087,0.056-0.179,0.106-0.275,0.147c-1.465,0.646-2.212,1.055-3.1,3.23
			c-0.633,1.549,0.357,3.741,0.73,4.566c0.183,0.4,0.226,0.852,0.123,1.275c-0.394,1.628-0.079,2.254-0.076,2.26l0.024,0.021
			c0.049,0.068,0.104,0.131,0.162,0.201c0.743,0.874,2.046,2.412,2.046,5.57c0,3.74-2.909,5.488-4.627,5.931
			c-2.005,0.713-4.192,1.667-4.749,3.877H342.951z M346.241,209.947l-0.03-0.35c-0.045-0.523-0.138-1.031-0.277-1.507l-0.145-0.49
			h5.024c-0.568-1.72-2.362-2.481-4.168-3.111c-1.585-0.406-4.318-2.039-4.318-5.519c0-2.898,1.336-4.332,2.054-5.104
			c0.07-0.073,0.164-0.174,0.195-0.214c0.029-0.038,0.06-0.077,0.092-0.115c0.044-0.134,0.155-0.622-0.103-1.675
			c-0.139-0.572-0.019-1.17,0.332-1.64c0.615-0.829,0.833-2.601-0.071-4.69c-0.63-1.461-1.291-1.951-1.733-2.193
			c-0.361-0.198-0.827-0.299-1.385-0.299c-0.858,0-1.694,0.238-2.19,0.459l-0.366,0.164l-0.213-0.553
			c-0.186-0.434-0.372-0.842-0.571-1.225l-0.187-0.359l0.369-0.166c0.348-0.156,1.604-0.668,3.158-0.668
			c0.956,0,1.801,0.197,2.512,0.586c1.169,0.642,2.073,1.729,2.762,3.322c1.088,2.519,1.046,5.19-0.095,6.875
			c0.594,2.631-0.367,3.538-0.48,3.635c-0.033,0.062-0.159,0.199-0.306,0.355c-0.567,0.61-1.426,1.531-1.426,3.504
			c0,2.613,2.526,3.24,2.634,3.266c2.007,0.695,6.04,2.094,6.04,6.617c0,0.439-0.294,1.094-1.104,1.094H346.241z"/>
		<path fill="#807FB6" d="M347.221,203.12c0,0-2.93-0.677-2.93-3.639c0-2.603,1.401-3.52,1.866-4.151c0,0,0.955-0.811,0.316-3.424
			c1.063-1.432,1.313-3.963,0.155-6.643c-0.727-1.682-1.617-2.602-2.595-3.139c-0.72-0.393-1.534-0.538-2.327-0.538
			c-1.184,0-2.309,0.322-3.001,0.634c0.203,0.392,0.395,0.808,0.583,1.25c0.027,0.062,0.046,0.126,0.071,0.191
			c0.447-0.201,1.346-0.493,2.347-0.493c0.622,0,1.149,0.116,1.568,0.345c0.491,0.27,1.225,0.809,1.901,2.379
			c0.965,2.23,0.708,4.154,0.026,5.07c-0.281,0.378-0.378,0.862-0.267,1.32c0.319,1.309,0.113,1.859,0.062,1.969
			c-0.041,0.045-0.08,0.092-0.117,0.143c-0.03,0.041-0.141,0.16-0.221,0.244c-0.684,0.734-1.952,2.099-1.952,4.843
			c0,3.267,2.604,4.782,4.062,5.157c2.085,0.728,4.118,1.636,4.534,3.855H346.3c0.143,0.487,0.243,1.013,0.292,1.582h5.651
			c0.722,0,0.722-0.713,0.722-0.713C352.965,205.09,349.083,203.766,347.221,203.12 M338.752,203.929c0,0-3.213-0.751-3.213-4.043
			c0-2.89,1.32-3.907,1.83-4.612c0,0,1.048-0.899,0.346-3.803c1.169-1.591,1.389-4.402,0.119-7.381
			c-0.798-1.869-1.503-2.893-2.575-3.487c-0.789-0.438-1.684-0.6-2.554-0.6c-1.621,0-3.158,0.563-3.771,0.958
			c-1.795,0.789-3.001,1.516-4.133,4.288c-0.919,2.25,0.187,4.854,0.762,6.124c-0.7,2.902,0.272,3.9,0.272,3.9
			c0.51,0.705,1.831,1.723,1.831,4.612c0,3.292-3.215,4.043-3.215,4.043c-2.04,0.72-6.3,2.19-6.3,6.938c0,0,0,0.791,0.791,0.791
			h25.319c0.791,0,0.791-0.791,0.791-0.791C345.054,206.119,340.793,204.648,338.752,203.929 M319.791,210.076
			c0.39-2.705,2.798-3.807,5.118-4.631c1.556-0.4,4.341-2.036,4.341-5.56c0-3.015-1.244-4.484-1.914-5.273
			c-0.082-0.098-0.158-0.185-0.219-0.269c-0.019-0.024-0.037-0.049-0.057-0.074c-0.057-0.106-0.369-0.818,0.043-2.527
			c0.083-0.34,0.048-0.703-0.098-1.023c-0.392-0.867-1.435-3.168-0.738-4.872c0.942-2.31,1.782-2.768,3.305-3.438
			c0.076-0.032,0.148-0.072,0.218-0.117c0.384-0.246,1.633-0.704,2.916-0.704c0.705,0,1.307,0.134,1.785,0.399
			c0.57,0.317,1.108,0.9,1.888,2.725c1.101,2.582,0.824,4.784,0.062,5.824c-0.276,0.374-0.372,0.855-0.263,1.306
			c0.384,1.592,0.101,2.235,0.042,2.347c-0.046,0.049-0.092,0.102-0.131,0.156c-0.061,0.084-0.136,0.171-0.22,0.269
			c-0.668,0.789-1.912,2.259-1.912,5.273c0,3.524,2.786,5.159,4.342,5.56c2.298,0.812,4.725,1.912,5.116,4.631H319.791z"/>
	</g>
	<g>
		<path fill="#807FB6" d="M655.271,217.073c-9.809,0-17.789-7.979-17.789-17.789c0-9.809,7.98-17.788,17.789-17.788
			c4.779,0,9.271,1.889,12.645,5.32c-0.004-0.006-0.004-0.01,0-0.01c0.01,0,0.053,0.027,0.094,0.068
			c0.463,0.455,0.469,1.199,0.016,1.662c-0.221,0.225-0.516,0.348-0.83,0.348c-0.17,0-0.338-0.037-0.49-0.107l-0.059,0.055
			l-0.27-0.26c-2.939-3.05-6.883-4.729-11.105-4.729c-8.514,0-15.441,6.928-15.441,15.441c0,8.515,6.928,15.441,15.441,15.441
			s15.441-6.927,15.441-15.441c0-1.948-0.371-3.865-1.102-5.7l-0.145-0.365l0.09-0.033c-0.004-0.307,0.109-0.605,0.332-0.83
			c0.221-0.227,0.518-0.352,0.836-0.352c0.311,0,0.604,0.12,0.822,0.337c0.133,0.132,0.229,0.294,0.291,0.497
			c0.809,2.062,1.223,4.24,1.223,6.446C673.061,209.094,665.08,217.073,655.271,217.073z M655.271,205.996
			c-0.314,0-0.609-0.121-0.83-0.344l-7.912-7.91c-0.223-0.225-0.344-0.52-0.344-0.831c0-0.647,0.527-1.175,1.174-1.175
			c0.314,0,0.607,0.123,0.83,0.346l7.062,7.062l12.453-13.046l-0.002-0.005l1.672-1.758l0.004,0.008l1.93-2.021l0.047,0.048
			c0.164-0.084,0.344-0.128,0.531-0.128c0.646,0,1.174,0.526,1.174,1.173c0,0.174-0.037,0.342-0.111,0.496l0.043,0.042l-0.256,0.273
			l-1.658,1.739h0.004l-2.121,2.224l-0.004-0.005l-13.107,13.732l-0.047-0.049C655.639,205.953,655.459,205.996,655.271,205.996z"/>
		<path fill="#807FB6" d="M655.258,203.691l-7.338-7.34c-0.145-0.143-0.342-0.232-0.561-0.232c-0.438,0-0.791,0.355-0.791,0.792
			c0,0.218,0.088,0.416,0.232,0.562l7.912,7.91c0.143,0.144,0.34,0.231,0.559,0.231c0.227,0,0.426-0.096,0.57-0.247l0.002,0.002
			l13.211-13.84c0,0.002,0.004,0.002,0.004,0.004l1.129-1.185c0,0,0-0.002-0.002-0.004l2.273-2.382l-0.002-0.002
			c0.135-0.143,0.221-0.332,0.221-0.545c0-0.436-0.354-0.791-0.791-0.791c-0.225,0-0.428,0.098-0.57,0.248l-0.002-0.002L669.281,189
			c0,0-0.002-0.002-0.004-0.006l-1.105,1.157c0.002,0.003,0.004,0.005,0.006,0.007L655.258,203.691z M671.279,192.613
			c-0.311-0.306-0.812-0.303-1.119,0.011c-0.217,0.222-0.271,0.537-0.176,0.812l-0.018,0.007c0.721,1.809,1.129,3.776,1.129,5.842
			c0,8.741-7.084,15.823-15.824,15.823c-8.738,0-15.822-7.082-15.822-15.823c0-8.737,7.084-15.823,15.822-15.823
			c4.473,0,8.506,1.861,11.381,4.846l0.01-0.01c0.314,0.281,0.793,0.274,1.09-0.027c0.307-0.312,0.303-0.813-0.008-1.12
			c-0.029-0.029-0.068-0.04-0.1-0.065c-3.152-3.204-7.521-5.205-12.373-5.205c-9.613,0-17.406,7.793-17.406,17.405
			c0,9.614,7.793,17.407,17.406,17.407s17.406-7.793,17.406-17.407c0-2.237-0.438-4.369-1.207-6.334
			C671.434,192.828,671.377,192.71,671.279,192.613"/>
	</g>
	<g>
		<path fill="#807FB6" d="M425.667,213.692c0,0.977-0.791,1.768-1.768,1.768h-16.586c-0.977,0-1.768-0.791-1.768-1.768l0,0
			c0-0.977,0.791-1.768,1.768-1.768h16.586C424.875,211.925,425.667,212.716,425.667,213.692L425.667,213.692z"/>
		<path fill="#807FB6" d="M425.258,214.942c-0.69,0.691-1.81,0.691-2.499,0l-7.244-7.244c-0.69-0.689-0.69-1.809,0-2.498l0,0
			c0.69-0.691,1.809-0.691,2.5,0l7.243,7.242C425.949,213.134,425.949,214.253,425.258,214.942L425.258,214.942z"/>
		<path fill="#807FB6" d="M415.515,222.187c-0.69-0.691-0.69-1.809,0-2.5l7.244-7.244c0.689-0.689,1.809-0.689,2.499,0l0,0
			c0.69,0.691,0.69,1.811,0,2.5l-7.243,7.244C417.324,222.878,416.206,222.878,415.515,222.187L415.515,222.187z"/>
	</g>
	<g>
		<path fill="#807FB6" d="M585.666,213.692c0,0.977-0.791,1.768-1.768,1.768h-16.586c-0.977,0-1.768-0.791-1.768-1.768l0,0
			c0-0.977,0.791-1.768,1.768-1.768h16.586C584.875,211.925,585.666,212.716,585.666,213.692L585.666,213.692z"/>
		<path fill="#807FB6" d="M585.258,214.942c-0.689,0.691-1.809,0.691-2.498,0l-7.244-7.244c-0.691-0.689-0.691-1.809,0-2.498l0,0
			c0.689-0.691,1.809-0.691,2.5,0l7.242,7.242C585.949,213.134,585.949,214.253,585.258,214.942L585.258,214.942z"/>
		<path fill="#807FB6" d="M575.516,222.187c-0.691-0.691-0.691-1.809,0-2.5l7.244-7.244c0.689-0.689,1.809-0.689,2.498,0l0,0
			c0.691,0.691,0.691,1.811,0,2.5l-7.242,7.244C577.324,222.878,576.205,222.878,575.516,222.187L575.516,222.187z"/>
	</g>
	<rect x="0.284" y="10.197" fill="#A4A4A4" width="178.986" height="1.954"/>
</g>
</svg>
