<?xml version="1.0" encoding="utf-8"?>
<!-- Generator: Adobe Illustrator 16.0.3, SVG Export Plug-In . SVG Version: 6.00 Build 0)  -->
<!DOCTYPE svg PUBLIC "-//W3C//DTD SVG 1.1//EN" "http://www.w3.org/Graphics/SVG/1.1/DTD/svg11.dtd">
<svg version="1.1" id="Layer_1" xmlns="http://www.w3.org/2000/svg" xmlns:xlink="http://www.w3.org/1999/xlink" x="0px" y="0px"
	 width="828.568px" height="410.236px" viewBox="0 0 828.568 410.236" enable-background="new 0 0 828.568 410.236"
	 xml:space="preserve">
<g>
	<rect x="0.097" fill="#FFFFFF" width="828.575" height="410.236"/>
	<circle fill="#EEEEEF" stroke="#7DC8ED" stroke-width="2.5" stroke-miterlimit="10" cx="577.051" cy="307.875" r="21.995"/>
	<g>
		<path fill="#807FB6" d="M583.179,319.977c-0.816,0-1.607-0.168-2.352-0.498l-0.158-0.053c-6.479-3.248-11.824-8.586-15.068-15.039
			l-0.094-0.186l0.025-0.025c-0.32-0.746-0.482-1.528-0.482-2.327c0-3.258,2.777-5.882,5.076-5.882c0.492,0,0.977,0.202,1.332,0.555
			c0.119,0.12,0.203,0.235,0.268,0.362l3.482,4.456c0.338,0.337,0.531,0.806,0.531,1.306c0,0.4-0.135,0.79-0.391,1.127l-1.281,1.292
			c-0.188,0.146-0.293,0.365-0.293,0.594c0,0.176,0.305,0.652,0.521,0.936c1.133,1.523,2.514,2.902,4.104,4.1l0.123,0.088
			c0.225,0.172,0.65,0.443,0.836,0.443c0.23,0,0.439-0.092,0.57-0.25l1.279-1.281c0.357-0.275,0.756-0.414,1.164-0.414
			c0.49,0,0.949,0.186,1.324,0.539l4.486,3.498c0.092,0.049,0.205,0.137,0.312,0.242c0.354,0.354,0.555,0.836,0.555,1.324
			C589.05,317.189,586.431,319.977,583.179,319.977z M570.126,297.6c-1.357,0-3.451,1.824-3.451,4.249
			c0,0.628,0.141,1.235,0.416,1.806c0.049,0.096,0.078,0.184,0.09,0.268c3.033,5.914,8.016,10.885,14.014,13.953l0.086,0.021
			c0.648,0.303,1.262,0.447,1.898,0.447c2.348,0,4.162-2.012,4.24-3.367l-0.01-0.082c0-0.115-0.059-0.176-0.066-0.184l-4.787-3.713
			c-0.041-0.039-0.102-0.088-0.184-0.088c-0.039,0-0.076,0.012-0.113,0.037l-1.168,1.176l-0.088,0.074
			c-0.406,0.422-1.01,0.67-1.645,0.67c-0.615,0-1.223-0.246-1.67-0.672c-1.896-1.379-3.537-3.01-4.863-4.84
			c-0.438-0.475-0.674-1.064-0.674-1.697c0-0.666,0.275-1.305,0.758-1.755l1.197-1.199c-0.008-0.146-0.043-0.199-0.072-0.229
			c-0.049-0.046-0.088-0.095-0.125-0.146l-3.496-4.497c-0.035-0.05-0.062-0.091-0.088-0.142
			C570.276,297.646,570.216,297.6,570.126,297.6z"/>
		<path fill="#807FB6" d="M583.179,319.834c-0.809,0-1.59-0.168-2.324-0.5l-0.002,0.004l-0.139-0.047
			c-6.434-3.227-11.756-8.541-14.988-14.969l-0.047-0.092l0.023-0.021c-0.338-0.755-0.51-1.549-0.51-2.36
			c0-3.18,2.699-5.74,4.934-5.74c0.455,0,0.904,0.188,1.23,0.514c0.107,0.108,0.184,0.211,0.242,0.325l3.496,4.479
			c0.32,0.319,0.504,0.757,0.504,1.219c0,0.369-0.127,0.729-0.363,1.041l-1.268,1.278c-0.211,0.162-0.336,0.422-0.336,0.693
			c0,0.303,0.551,1.021,0.551,1.021c1.17,1.572,2.598,2.99,4.252,4.217l0.002-0.002c0,0,0.619,0.471,0.922,0.471
			c0.273,0,0.521-0.109,0.68-0.301l1.27-1.27c0.326-0.25,0.688-0.375,1.064-0.375c0.453,0,0.877,0.174,1.229,0.502l4.494,3.506
			c0.1,0.055,0.203,0.135,0.301,0.232c0.326,0.326,0.514,0.771,0.514,1.223C588.909,317.135,586.353,319.834,583.179,319.834z
			 M570.126,297.458c-1.414,0-3.594,1.886-3.594,4.391c0,0.648,0.145,1.277,0.432,1.867c0.027,0.054,0.064,0.137,0.076,0.227
			c3.053,5.966,8.061,10.974,14.09,14.058l0.111,0.033c0.65,0.307,1.281,0.451,1.938,0.451c2.426,0,4.301-2.09,4.381-3.5
			l-0.01-0.102c0-0.15-0.082-0.246-0.107-0.271l-4.799-3.725c-0.045-0.045-0.139-0.117-0.271-0.117c-0.068,0-0.131,0.02-0.191,0.059
			l-1.191,1.195l-0.078,0.066c-0.387,0.4-0.951,0.635-1.553,0.635c-0.578,0-1.15-0.23-1.57-0.633
			c-1.912-1.389-3.531-3.002-4.848-4.818c-0.43-0.469-0.646-1.025-0.646-1.615c0-0.627,0.258-1.229,0.711-1.65l1.201-1.203
			c0.018-0.025,0.033-0.082,0.033-0.159c0-0.136-0.059-0.223-0.105-0.271c-0.043-0.041-0.076-0.084-0.109-0.129l-3.5-4.501
			c-0.027-0.038-0.049-0.073-0.07-0.117C570.372,297.539,570.276,297.458,570.126,297.458z"/>
	</g>
	<g>
		<text transform="matrix(0.9729 0 0 1 279.606 31.6934)" fill="#626366" font-family="'TitilliumText22L-Regular'" font-size="16">Competitive research</text>
	</g>
	<g>
		<text transform="matrix(0.9729 0 0 1 0 31.6934)" fill="#626366" font-family="'TitilliumText22L-Regular'" font-size="16">Discover</text>
	</g>
	<rect x="278.606" y="10.197" fill="#A2A4A6" width="542.232" height="0.538"/>
	<text transform="matrix(1 0 0 1 750.9707 114.7949)"><tspan x="0" y="0" fill="#807FB6" font-family="'NanumBarunGothicOTF-KSCpc-EUC-H'" font-size="8">승인절차에 따른</tspan><tspan x="3.568" y="12" fill="#807FB6" font-family="'NanumBarunGothicOTF-KSCpc-EUC-H'" font-size="8">대기시간 발생</tspan></text>
	<g>
		<text transform="matrix(1 0 0 1 744.6582 298.0664)"><tspan x="0" y="0" fill="#807FB6" font-family="'NanumBarunGothicOTF-KSCpc-EUC-H'" font-size="8">- 예약절차 증가</tspan><tspan x="0" y="12" fill="#807FB6" font-family="'NanumBarunGothicOTF-KSCpc-EUC-H'" font-size="8">- 모험에 대한 두려움</tspan><tspan x="0" y="24" fill="#807FB6" font-family="'NanumBarunGothicOTF-KSCpc-EUC-H'" font-size="8">- 신뢰할만한가</tspan></text>
	</g>
	<circle fill="#EEEEEF" stroke="#7DC8ED" stroke-width="2.5" stroke-miterlimit="10" cx="577.051" cy="118.405" r="21.995"/>
	<g>
		<text transform="matrix(1 0 0 1 472.9038 154.3696)"><tspan x="0" y="0" fill="#807FB6" font-family="'NanumBarunGothicOTF-KSCpc-EUC-H'" font-size="8">단골디자이너</tspan><tspan x="-0.896" y="10.5" fill="#807FB6" font-family="'NanumBarunGothicOTF-KSCpc-EUC-H'" font-size="8">예약시간 설정</tspan></text>
	</g>
	<g>
		<text transform="matrix(1 0 0 1 553.9434 154.3696)"><tspan x="0" y="0" fill="#807FB6" font-family="'NanumBarunGothicOTF-KSCpc-EUC-H'" font-size="8">예약승인 요청 </tspan><tspan x="11.601" y="10" fill="#807FB6" font-family="'NanumBarunGothicOTF-KSCpc-EUC-H'" font-size="8">및 승낙</tspan></text>
	</g>
	<g>
		<circle fill="#EEEEEF" stroke="#7DC8ED" stroke-width="2.5" stroke-miterlimit="10" cx="494.133" cy="118.406" r="21.995"/>
		<path fill="#807FB6" d="M489.194,132.132c-1.441,0-2.611-1.172-2.611-2.612v-22.227c0-1.44,1.17-2.612,2.611-2.612h9.879
			c1.439,0,2.611,1.172,2.611,2.612v22.227c0,1.44-1.172,2.612-2.611,2.612H489.194z M488.101,129.52
			c0,0.603,0.49,1.094,1.094,1.094h9.879c0.602,0,1.092-0.491,1.092-1.094v-1.093h-12.064V129.52z M500.165,126.909v-17.006h-12.064
			v17.006H500.165z M500.165,108.386v-1.093c0-0.603-0.49-1.094-1.092-1.094h-9.879c-0.604,0-1.094,0.491-1.094,1.094v1.093H500.165
			z M494.134,130.279c-0.42,0-0.76-0.341-0.76-0.76c0-0.418,0.34-0.758,0.76-0.758c0.418,0,0.758,0.34,0.758,0.758
			C494.892,129.938,494.552,130.279,494.134,130.279z M493.515,108.052c-0.418,0-0.758-0.34-0.758-0.759
			c0-0.419,0.34-0.76,0.758-0.76h1.236c0.418,0,0.758,0.341,0.758,0.76c0,0.418-0.34,0.759-0.758,0.759H493.515z"/>
		<path fill="#807FB6" d="M494.134,130.138c0.34,0,0.617-0.276,0.617-0.618c0-0.341-0.277-0.616-0.617-0.616
			c-0.342,0-0.619,0.275-0.619,0.616C493.515,129.861,493.792,130.138,494.134,130.138 M499.073,104.822h-9.879
			c-1.365,0-2.471,1.106-2.471,2.471v22.227c0,1.365,1.105,2.471,2.471,2.471h9.879c1.363,0,2.469-1.105,2.469-2.471v-22.227
			C501.542,105.929,500.437,104.822,499.073,104.822 M500.308,129.52c0,0.683-0.555,1.235-1.234,1.235h-9.879
			c-0.684,0-1.236-0.553-1.236-1.235v-1.234h12.35V129.52z M500.308,127.051h-12.35v-17.289h12.35V127.051z M500.308,108.527h-12.35
			v-1.234c0-0.682,0.553-1.235,1.236-1.235h9.879c0.68,0,1.234,0.554,1.234,1.235V108.527z M494.751,106.675h-1.236
			c-0.34,0-0.617,0.277-0.617,0.618s0.277,0.617,0.617,0.617h1.236c0.34,0,0.617-0.276,0.617-0.617S495.091,106.675,494.751,106.675
			"/>
	</g>
	<g>
		<text transform="matrix(1 0 0 1 475.5757 343.9922)"><tspan x="0" y="0" fill="#807FB6" font-family="'NanumBarunGothicOTF-KSCpc-EUC-H'" font-size="8">특정 미용실</tspan><tspan x="-3.568" y="10.5" fill="#807FB6" font-family="'NanumBarunGothicOTF-KSCpc-EUC-H'" font-size="8">할인쿠폰 구매</tspan></text>
	</g>
	<g>
		
			<text transform="matrix(1 0 0 1 554.7949 343.9922)" fill="#807FB6" font-family="'NanumBarunGothicOTF-KSCpc-EUC-H'" font-size="8">예약시간 문의</text>
	</g>
	<g>
		<path fill="none" d="M634.401,121.416"/>
	</g>
	<path fill="none" stroke="#7DC8ED" stroke-width="5" stroke-miterlimit="10" d="M306.552,180.796V162.28
		c0,0-0.605-40.867,46.385-43.874h121.33"/>
	<path fill="none" stroke="#7DC8ED" stroke-width="5" stroke-miterlimit="10" d="M306.552,245.48v18.512
		c0,0-0.605,40.875,46.385,43.883h121.33"/>
	
		<line fill="none" stroke="#7DC8ED" stroke-width="4" stroke-miterlimit="10" x1="515.306" y1="118.406" x2="555.056" y2="118.406"/>
	
		<line fill="none" stroke="#7DC8ED" stroke-width="4" stroke-miterlimit="10" x1="597.915" y1="118.406" x2="638.233" y2="118.406"/>
	<g>
		<circle fill="#7DC8ED" cx="472.085" cy="118.406" r="6.289"/>
		<circle fill="#FFFFFF" cx="472.149" cy="118.406" r="2.516"/>
	</g>
	<g>
		<circle fill="#7DC8ED" cx="516.128" cy="118.406" r="6.289"/>
		<circle fill="#FFFFFF" cx="516.192" cy="118.406" r="2.516"/>
	</g>
	<g>
		<circle fill="#7DC8ED" cx="555.056" cy="118.406" r="6.289"/>
		<circle fill="#FFFFFF" cx="555.12" cy="118.406" r="2.516"/>
	</g>
	<g>
		<circle fill="#7DC8ED" cx="599.045" cy="118.406" r="6.288"/>
		<circle fill="#FFFFFF" cx="599.108" cy="118.406" r="2.516"/>
	</g>
	<g>
		<path fill="none" d="M634.401,304.865"/>
	</g>
	
		<line fill="none" stroke="#7DC8ED" stroke-width="4" stroke-miterlimit="10" x1="514.353" y1="307.875" x2="554.104" y2="307.875"/>
	
		<line fill="none" stroke="#7DC8ED" stroke-width="4" stroke-miterlimit="10" x1="597.915" y1="307.875" x2="638.233" y2="307.875"/>
	<g>
		<path fill="#807FB6" d="M578.642,130.441c-0.256,0-0.482-0.143-0.602-0.366l-0.059-0.116l-3.713-9.022l-9.148-3.766l0.004-0.009
			c-0.221-0.119-0.359-0.344-0.359-0.599c0-0.22,0.104-0.42,0.277-0.549L565.034,116l0.127-0.061l23.209-9.946l0.004,0.01
			c0.053-0.013,0.104-0.02,0.156-0.02c0.381,0,0.691,0.31,0.691,0.69c0,0.057-0.008,0.113-0.025,0.172l0.004,0.002l-0.043,0.118
			l-9.879,23.051l-0.061,0.15l-0.023-0.009C579.065,130.336,578.864,130.441,578.642,130.441z M578.653,127.97l7.83-18.27
			l-10.877,10.875L578.653,127.97z M574.63,119.598l10.875-10.875l-18.27,7.831L574.63,119.598z M567.653,128.245
			c-0.383,0-0.691-0.311-0.691-0.692c0-0.184,0.07-0.358,0.201-0.488l5.494-5.494c0.131-0.13,0.305-0.202,0.49-0.202
			c0.381,0,0.689,0.31,0.689,0.69c0,0.183-0.074,0.361-0.203,0.489l-5.492,5.495C568.011,128.173,567.837,128.245,567.653,128.245z
			 M572.048,127.146c-0.381,0-0.691-0.31-0.691-0.691c0-0.184,0.072-0.357,0.203-0.488l1.648-1.648
			c0.129-0.13,0.303-0.202,0.488-0.202c0.381,0,0.691,0.31,0.691,0.69c0,0.185-0.072,0.358-0.203,0.49l-1.648,1.648
			C572.405,127.074,572.231,127.146,572.048,127.146z M569.851,122.75c-0.381,0-0.691-0.31-0.691-0.691
			c0-0.183,0.07-0.356,0.201-0.488l0.551-0.55c0.131-0.131,0.305-0.203,0.488-0.203c0.381,0,0.691,0.31,0.691,0.691
			c0,0.184-0.072,0.357-0.203,0.488l-0.549,0.549C570.21,122.678,570.036,122.75,569.851,122.75z"/>
		<path fill="#807FB6" d="M570.239,122.446l0.549-0.549c0.1-0.099,0.16-0.236,0.16-0.388c0-0.304-0.244-0.55-0.549-0.55
			c-0.15,0-0.289,0.062-0.389,0.161l-0.549,0.549c-0.1,0.1-0.162,0.237-0.162,0.388c0,0.303,0.248,0.55,0.551,0.55
			C570.001,122.608,570.14,122.547,570.239,122.446 M573.696,122.059c0-0.304-0.246-0.549-0.549-0.549
			c-0.152,0-0.289,0.061-0.389,0.161l-5.494,5.494c-0.1,0.1-0.162,0.237-0.162,0.388c0,0.304,0.246,0.55,0.551,0.55
			c0.15,0,0.289-0.061,0.387-0.161l5.494-5.496C573.634,122.348,573.696,122.21,573.696,122.059 M573.696,124.257
			c-0.152,0-0.289,0.061-0.389,0.161l-1.648,1.648c-0.1,0.1-0.16,0.237-0.16,0.388c0,0.304,0.246,0.55,0.549,0.55
			c0.152,0,0.289-0.062,0.389-0.161l1.648-1.648c0.1-0.1,0.16-0.238,0.16-0.39C574.245,124.502,573.999,124.257,573.696,124.257
			 M589.081,106.674c0-0.303-0.246-0.549-0.551-0.549c-0.084,0-0.162,0.022-0.234,0.057l-0.002-0.003l-23.051,9.879
			c-0.002,0-0.004,0.001-0.006,0.002l-0.02,0.009l0.002,0.003c-0.184,0.088-0.314,0.274-0.314,0.492c0,0.25,0.17,0.452,0.396,0.52
			l-0.002,0.008l9.076,3.737l3.736,9.077l0.01-0.003c0.068,0.228,0.27,0.397,0.52,0.397c0.219,0,0.402-0.129,0.492-0.315
			l0.004,0.002l0.008-0.021c0,0,0.002-0.002,0.002-0.004l9.879-23.051l-0.006-0.003
			C589.056,106.836,589.081,106.759,589.081,106.674 M566.87,116.557l19.256-8.254l-11.463,11.462L566.87,116.557z M578.649,128.336
			l-3.209-7.793l11.463-11.463L578.649,128.336z"/>
	</g>
	<g>
		<circle fill="#7DC8ED" cx="555.056" cy="307.875" r="6.289"/>
		<circle fill="#FFFFFF" cx="555.12" cy="307.875" r="2.516"/>
	</g>
	<g>
		<circle fill="#7DC8ED" cx="599.045" cy="307.875" r="6.288"/>
		<circle fill="#FFFFFF" cx="599.108" cy="307.875" r="2.516"/>
	</g>
	<circle fill="#EEEEEF" stroke="#7DC8ED" stroke-width="2.5" stroke-miterlimit="10" cx="670.164" cy="307.875" r="32.716"/>
	<path fill="#807FB6" d="M690.032,320.334c0,3.203-2.596,5.799-5.799,5.799h-28.141c-3.203,0-5.799-2.596-5.799-5.799l0,0
		c0-3.203,2.596-5.799,5.799-5.799h28.141C687.437,314.535,690.032,317.131,690.032,320.334L690.032,320.334z"/>
	<path fill="#807FB6" d="M660.284,310.471c-0.6,0-0.758-0.496-0.758-0.758c0-3.783,3.363-4.969,4.98-5.539
		c0.143-0.037,2.443-0.608,2.443-3.031c0-1.849-0.701-2.677-1.166-3.226c-0.09-0.106-0.172-0.203-0.236-0.292
		c-0.02-0.019-0.795-0.845-0.234-3.16c-0.365-0.731-1.355-2.917-0.59-4.8c0.912-2.234,1.898-2.805,3.301-3.422
		c0.443-0.287,1.672-0.759,2.998-0.759c0.789,0,1.482,0.163,2.062,0.484c0.83,0.461,1.41,1.243,2.07,2.79
		c0.932,2.183,0.902,4.467-0.068,5.846c0.529,2.274-0.295,3.015-0.332,3.045c-0.041,0.064-0.123,0.161-0.213,0.268
		c-0.465,0.549-1.166,1.377-1.166,3.226c0,2.428,2.375,3.012,2.398,3.018c1.662,0.584,5.027,1.77,5.027,5.553
		c0,0.262-0.158,0.758-0.76,0.758H660.284z M679.214,308.953c-0.369-1.943-2.188-2.742-3.873-3.338
		c-1.285-0.33-3.482-1.649-3.482-4.473c0-2.406,0.992-3.578,1.525-4.208c0.074-0.086,0.125-0.145,0.166-0.201
		c0.033-0.046,0.072-0.091,0.111-0.135c0.006-0.02,0.227-0.488-0.066-1.701c-0.096-0.396-0.012-0.811,0.23-1.137
		c0.57-0.778,0.771-2.442-0.066-4.404c-0.59-1.387-0.99-1.826-1.41-2.059c-0.352-0.195-0.799-0.295-1.326-0.295
		c-0.961,0-1.92,0.35-2.197,0.528c-0.062,0.038-0.125,0.073-0.191,0.103c-1.186,0.521-1.787,0.85-2.504,2.605
		c-0.52,1.275,0.275,3.029,0.574,3.69c0.127,0.278,0.156,0.595,0.084,0.892c-0.314,1.304-0.074,1.818-0.045,1.873
		c0.072,0.092,0.119,0.146,0.17,0.206c0.562,0.663,1.555,1.835,1.555,4.242c0,2.823-2.195,4.143-3.494,4.477
		c-1.674,0.594-3.492,1.395-3.861,3.334H679.214z"/>
	
		<text transform="matrix(1 0 0 1 655.8906 322.8691)" fill="#FFFFFF" font-family="'NanumBarunGothicOTF-KSCpc-EUC-H'" font-size="8">디자이너</text>
	<circle fill="#EEEEEF" stroke="#7DC8ED" stroke-width="2.5" stroke-miterlimit="10" cx="670.164" cy="118.405" r="32.716"/>
	<path fill="#807FB6" d="M690.032,130.859c0,3.203-2.596,5.8-5.799,5.8h-28.141c-3.203,0-5.799-2.597-5.799-5.8l0,0
		c0-3.202,2.596-5.799,5.799-5.799h28.141C687.437,125.061,690.032,127.657,690.032,130.859L690.032,130.859z"/>
	<path fill="#807FB6" d="M660.284,120.998c-0.6,0-0.758-0.496-0.758-0.758c0-3.783,3.363-4.969,4.98-5.539
		c0.143-0.037,2.443-0.607,2.443-3.03c0-1.849-0.701-2.677-1.166-3.226c-0.09-0.106-0.172-0.203-0.236-0.292
		c-0.02-0.019-0.795-0.845-0.234-3.16c-0.365-0.731-1.355-2.917-0.59-4.8c0.912-2.234,1.898-2.805,3.301-3.422
		c0.443-0.287,1.672-0.759,2.998-0.759c0.789,0,1.482,0.163,2.062,0.484c0.83,0.461,1.41,1.243,2.07,2.79
		c0.932,2.183,0.902,4.467-0.068,5.846c0.529,2.274-0.295,3.015-0.332,3.045c-0.041,0.064-0.123,0.161-0.213,0.268
		c-0.465,0.549-1.166,1.377-1.166,3.226c0,2.428,2.375,3.011,2.398,3.017c1.662,0.584,5.027,1.771,5.027,5.553
		c0,0.262-0.158,0.758-0.76,0.758H660.284z M679.214,119.48c-0.369-1.943-2.188-2.742-3.873-3.338
		c-1.285-0.33-3.482-1.648-3.482-4.472c0-2.406,0.992-3.578,1.525-4.208c0.074-0.086,0.125-0.145,0.166-0.201
		c0.033-0.046,0.072-0.091,0.111-0.135c0.006-0.02,0.227-0.488-0.066-1.701c-0.096-0.396-0.012-0.811,0.23-1.137
		c0.57-0.778,0.771-2.442-0.066-4.404c-0.59-1.387-0.99-1.826-1.41-2.059c-0.352-0.195-0.799-0.295-1.326-0.295
		c-0.961,0-1.92,0.35-2.197,0.528c-0.062,0.038-0.125,0.073-0.191,0.103c-1.186,0.521-1.787,0.85-2.504,2.605
		c-0.52,1.275,0.275,3.029,0.574,3.69c0.127,0.278,0.156,0.595,0.084,0.892c-0.314,1.304-0.074,1.818-0.045,1.873
		c0.072,0.092,0.119,0.146,0.17,0.206c0.562,0.663,1.555,1.835,1.555,4.242c0,2.823-2.195,4.142-3.494,4.476
		c-1.674,0.594-3.492,1.395-3.861,3.334H679.214z"/>
	
		<text transform="matrix(1 0 0 1 655.8906 133.3892)" fill="#FFFFFF" font-family="'NanumBarunGothicOTF-KSCpc-EUC-H'" font-size="8">디자이너</text>
	<g>
		<circle fill="#7DC8ED" cx="637.447" cy="118.406" r="6.288"/>
		<circle fill="#FFFFFF" cx="637.511" cy="118.406" r="2.516"/>
	</g>
	<g>
		<circle fill="#7DC8ED" cx="637.447" cy="307.875" r="6.288"/>
		<circle fill="#FFFFFF" cx="637.511" cy="307.875" r="2.516"/>
	</g>
	<circle fill="#EEEEEF" stroke="#7DC8ED" stroke-width="2.5" stroke-miterlimit="10" cx="405.729" cy="118.407" r="32.716"/>
	<g>
		<path fill="#807FB6" d="M405.724,115.87c-6.146,0-11.145-4.996-11.145-11.137c0-6.15,4.998-11.153,11.145-11.153
			c6.145,0,11.145,5.003,11.145,11.153C416.868,110.874,411.868,115.87,405.724,115.87z M405.724,95.149
			c-5.285,0-9.582,4.299-9.582,9.583c0,5.279,4.297,9.574,9.582,9.574c5.281,0,9.58-4.295,9.58-9.574
			C415.304,99.448,411.005,95.149,405.724,95.149z"/>
		<path fill="#807FB6" d="M405.724,115.728c-6.068,0-11.004-4.933-11.004-10.996c0-6.072,4.936-11.011,11.004-11.011
			c6.066,0,11.002,4.939,11.002,11.011C416.726,110.795,411.79,115.728,405.724,115.728z M405.724,95.008
			c-5.361,0-9.725,4.363-9.725,9.725c0,5.357,4.363,9.715,9.725,9.715s9.723-4.358,9.723-9.715
			C415.446,99.371,411.085,95.008,405.724,95.008z"/>
		<path fill="#807FB6" d="M405.724,115.721c-6.064,0-10.998-4.93-10.998-10.989c0-6.068,4.934-11.004,10.998-11.004
			c6.062,0,10.996,4.937,10.996,11.004C416.72,110.792,411.786,115.721,405.724,115.721z M405.724,95.002
			c-5.365,0-9.73,4.365-9.73,9.73c0,5.361,4.365,9.722,9.73,9.722c5.363,0,9.729-4.361,9.729-9.722
			C415.452,99.367,411.087,95.002,405.724,95.002z"/>
		<path fill="#807FB6" d="M405.724,93.87c-5.998,0-10.855,4.864-10.855,10.863c0,5.99,4.857,10.847,10.855,10.847
			c5.996,0,10.854-4.857,10.854-10.847C416.577,98.734,411.72,93.87,405.724,93.87 M405.724,114.596
			c-5.449,0-9.871-4.417-9.871-9.864c0-5.455,4.422-9.872,9.871-9.872c5.445,0,9.871,4.417,9.871,9.872
			C415.595,110.179,411.169,114.596,405.724,114.596"/>
		<g>
			<path fill="#807FB6" d="M405.724,105.511c-0.434,0-0.787-0.349-0.787-0.778v-7.398c0-0.445,0.346-0.793,0.787-0.793
				c0.428,0,0.775,0.355,0.775,0.793v7.398C406.499,105.162,406.151,105.511,405.724,105.511z"/>
			<path fill="#807FB6" d="M405.724,105.369c-0.355,0-0.645-0.285-0.645-0.637v-7.398c0-0.366,0.283-0.651,0.645-0.651
				c0.35,0,0.635,0.292,0.635,0.651v7.398C406.358,105.084,406.073,105.369,405.724,105.369z"/>
			<path fill="#807FB6" d="M405.724,105.362c-0.354,0-0.639-0.283-0.639-0.63v-7.398c0-0.361,0.279-0.645,0.639-0.645
				c0.352,0,0.629,0.283,0.629,0.645v7.398C406.353,105.08,406.069,105.362,405.724,105.362z"/>
			<path fill="#807FB6" d="M406.21,104.732c0,0.267-0.221,0.488-0.486,0.488l0,0c-0.275,0-0.498-0.221-0.498-0.488v-7.398
				c0-0.285,0.223-0.503,0.498-0.503l0,0c0.266,0,0.486,0.218,0.486,0.503V104.732z"/>
			<path fill="#807FB6" d="M405.724,105.511c-0.434,0-0.787-0.349-0.787-0.778c0-0.433,0.354-0.785,0.787-0.785h4.438
				c0.43,0,0.779,0.352,0.779,0.785c0,0.429-0.35,0.778-0.779,0.778H405.724z"/>
			<path fill="#807FB6" d="M405.724,105.369c-0.355,0-0.645-0.285-0.645-0.637c0-0.354,0.289-0.643,0.645-0.643h4.438
				c0.352,0,0.637,0.29,0.637,0.643c0,0.352-0.285,0.637-0.637,0.637H405.724z"/>
			<path fill="#807FB6" d="M405.724,105.362c-0.354,0-0.639-0.283-0.639-0.63c0-0.351,0.285-0.636,0.639-0.636h4.438
				c0.348,0,0.631,0.285,0.631,0.636c0,0.347-0.283,0.63-0.631,0.63H405.724z"/>
			<path fill="#807FB6" d="M405.724,105.221c-0.275,0-0.498-0.221-0.498-0.488l0,0c0-0.275,0.223-0.495,0.498-0.495h4.438
				c0.27,0,0.488,0.219,0.488,0.495l0,0c0,0.267-0.219,0.488-0.488,0.488H405.724z"/>
		</g>
	</g>
	<path fill="#807FB6" d="M433.171,126.007c0,3.203-2.596,5.8-5.799,5.8h-43.301c-3.203,0-5.799-2.597-5.799-5.8l0,0
		c0-3.202,2.596-5.799,5.799-5.799h43.301C430.575,120.208,433.171,122.805,433.171,126.007L433.171,126.007z"/>
	<g>
		<text transform="matrix(1 0 0 1 381.9062 127.7124)" fill="#FFFFFF" font-family="'TitilliumText22L-Regular'" font-size="8.5">appointment</text>
	</g>
	<g>
		<g>
			<linearGradient id="SVGID_1_" gradientUnits="userSpaceOnUse" x1="736.416" y1="20.064" x2="853.3799" y2="173.0165">
				<stop  offset="0" style="stop-color:#7DC8ED"/>
				<stop  offset="1" style="stop-color:#807FB6"/>
			</linearGradient>
			<circle fill="url(#SVGID_1_)" cx="776.538" cy="72.531" r="1.574"/>
			<linearGradient id="SVGID_2_" gradientUnits="userSpaceOnUse" x1="692.1309" y1="53.895" x2="809.131" y2="206.895">
				<stop  offset="0" style="stop-color:#7DC8ED"/>
				<stop  offset="1" style="stop-color:#807FB6"/>
			</linearGradient>
			<circle fill="url(#SVGID_2_)" cx="776.538" cy="164.273" r="1.574"/>
		</g>
		<g>
			<linearGradient id="SVGID_3_" gradientUnits="userSpaceOnUse" x1="743.2393" y1="14.8721" x2="860.2031" y2="167.8245">
				<stop  offset="0" style="stop-color:#7DC8ED"/>
				<stop  offset="1" style="stop-color:#807FB6"/>
			</linearGradient>
			<circle fill="url(#SVGID_3_)" cx="822.413" cy="118.407" r="1.574"/>
			<linearGradient id="SVGID_4_" gradientUnits="userSpaceOnUse" x1="685.3184" y1="59.1133" x2="802.3185" y2="212.1133">
				<stop  offset="0" style="stop-color:#7DC8ED"/>
				<stop  offset="1" style="stop-color:#807FB6"/>
			</linearGradient>
			<circle fill="url(#SVGID_4_)" cx="730.661" cy="118.407" r="1.574"/>
		</g>
		<g>
			<g>
				<linearGradient id="SVGID_5_" gradientUnits="userSpaceOnUse" x1="736.416" y1="20.064" x2="853.3799" y2="173.0165">
					<stop  offset="0" style="stop-color:#7DC8ED"/>
					<stop  offset="1" style="stop-color:#807FB6"/>
				</linearGradient>
				<circle fill="url(#SVGID_5_)" cx="776.538" cy="72.531" r="1.574"/>
				<linearGradient id="SVGID_6_" gradientUnits="userSpaceOnUse" x1="692.1309" y1="53.895" x2="809.131" y2="206.895">
					<stop  offset="0" style="stop-color:#7DC8ED"/>
					<stop  offset="1" style="stop-color:#807FB6"/>
				</linearGradient>
				<circle fill="url(#SVGID_6_)" cx="776.538" cy="164.273" r="1.574"/>
			</g>
			<g>
				<linearGradient id="SVGID_7_" gradientUnits="userSpaceOnUse" x1="743.2393" y1="14.8721" x2="860.2031" y2="167.8245">
					<stop  offset="0" style="stop-color:#7DC8ED"/>
					<stop  offset="1" style="stop-color:#807FB6"/>
				</linearGradient>
				<circle fill="url(#SVGID_7_)" cx="822.413" cy="118.407" r="1.574"/>
				<linearGradient id="SVGID_8_" gradientUnits="userSpaceOnUse" x1="685.3184" y1="59.1133" x2="802.3185" y2="212.1133">
					<stop  offset="0" style="stop-color:#7DC8ED"/>
					<stop  offset="1" style="stop-color:#807FB6"/>
				</linearGradient>
				<circle fill="url(#SVGID_8_)" cx="730.661" cy="118.407" r="1.574"/>
			</g>
		</g>
		<g>
			<g>
				<linearGradient id="SVGID_9_" gradientUnits="userSpaceOnUse" x1="733.2578" y1="22.4541" x2="850.258" y2="175.4541">
					<stop  offset="0" style="stop-color:#7DC8ED"/>
					<stop  offset="1" style="stop-color:#807FB6"/>
				</linearGradient>
				<circle fill="url(#SVGID_9_)" cx="771.743" cy="72.782" r="1.575"/>
				<linearGradient id="SVGID_10_" gradientUnits="userSpaceOnUse" x1="695.3047" y1="51.5225" x2="812.2685" y2="204.4749">
					<stop  offset="0" style="stop-color:#7DC8ED"/>
					<stop  offset="1" style="stop-color:#807FB6"/>
				</linearGradient>
				<circle fill="url(#SVGID_10_)" cx="781.334" cy="164.021" r="1.574"/>
			</g>
			<g>
				<linearGradient id="SVGID_11_" gradientUnits="userSpaceOnUse" x1="745.3467" y1="13.1602" x2="862.3831" y2="166.2076">
					<stop  offset="0" style="stop-color:#7DC8ED"/>
					<stop  offset="1" style="stop-color:#807FB6"/>
				</linearGradient>
				<circle fill="url(#SVGID_11_)" cx="822.163" cy="113.612" r="1.574"/>
				<linearGradient id="SVGID_12_" gradientUnits="userSpaceOnUse" x1="683.1641" y1="60.7607" x2="800.1642" y2="213.7607">
					<stop  offset="0" style="stop-color:#7DC8ED"/>
					<stop  offset="1" style="stop-color:#807FB6"/>
				</linearGradient>
				<circle fill="url(#SVGID_12_)" cx="730.913" cy="123.202" r="1.574"/>
			</g>
		</g>
		<g>
			<g>
				<linearGradient id="SVGID_13_" gradientUnits="userSpaceOnUse" x1="729.9023" y1="25.02" x2="846.9025" y2="178.0199">
					<stop  offset="0" style="stop-color:#7DC8ED"/>
					<stop  offset="1" style="stop-color:#807FB6"/>
				</linearGradient>
				<circle fill="url(#SVGID_13_)" cx="767" cy="73.533" r="1.575"/>
				<linearGradient id="SVGID_14_" gradientUnits="userSpaceOnUse" x1="698.6602" y1="48.9575" x2="815.624" y2="201.91">
					<stop  offset="0" style="stop-color:#7DC8ED"/>
					<stop  offset="1" style="stop-color:#807FB6"/>
				</linearGradient>
				<circle fill="url(#SVGID_14_)" cx="786.076" cy="163.271" r="1.574"/>
			</g>
			<g>
				<linearGradient id="SVGID_15_" gradientUnits="userSpaceOnUse" x1="747.1162" y1="11.7139" x2="864.2253" y2="164.8563">
					<stop  offset="0" style="stop-color:#7DC8ED"/>
					<stop  offset="1" style="stop-color:#807FB6"/>
				</linearGradient>
				<circle fill="url(#SVGID_15_)" cx="821.412" cy="108.869" r="1.574"/>
				<linearGradient id="SVGID_16_" gradientUnits="userSpaceOnUse" x1="681.334" y1="62.1279" x2="798.3704" y2="215.1754">
					<stop  offset="0" style="stop-color:#7DC8ED"/>
					<stop  offset="1" style="stop-color:#807FB6"/>
				</linearGradient>
				<circle fill="url(#SVGID_16_)" cx="731.664" cy="127.944" r="1.574"/>
			</g>
		</g>
		<g>
			<g>
				<linearGradient id="SVGID_17_" gradientUnits="userSpaceOnUse" x1="726.376" y1="27.7163" x2="843.3761" y2="180.7162">
					<stop  offset="0" style="stop-color:#7DC8ED"/>
					<stop  offset="1" style="stop-color:#807FB6"/>
				</linearGradient>
				<circle fill="url(#SVGID_17_)" cx="762.363" cy="74.776" r="1.574"/>
				<linearGradient id="SVGID_18_" gradientUnits="userSpaceOnUse" x1="702.1328" y1="46.1895" x2="819.1693" y2="199.2369">
					<stop  offset="0" style="stop-color:#7DC8ED"/>
					<stop  offset="1" style="stop-color:#807FB6"/>
				</linearGradient>
				<circle fill="url(#SVGID_18_)" cx="790.715" cy="162.027" r="1.574"/>
			</g>
			<g>
				<linearGradient id="SVGID_19_" gradientUnits="userSpaceOnUse" x1="748.6387" y1="10.6914" x2="865.6388" y2="163.6913">
					<stop  offset="0" style="stop-color:#7DC8ED"/>
					<stop  offset="1" style="stop-color:#807FB6"/>
				</linearGradient>
				<path fill="url(#SVGID_19_)" d="M820.655,105.728c-0.826,0.266-1.715-0.185-1.984-1.012c-0.268-0.827,0.186-1.715,1.012-1.983
					s1.715,0.183,1.984,1.011C821.935,104.571,821.481,105.457,820.655,105.728z"/>
				<linearGradient id="SVGID_20_" gradientUnits="userSpaceOnUse" x1="679.9121" y1="63.2817" x2="796.8759" y2="216.2342">
					<stop  offset="0" style="stop-color:#7DC8ED"/>
					<stop  offset="1" style="stop-color:#807FB6"/>
				</linearGradient>
				<circle fill="url(#SVGID_20_)" cx="732.907" cy="132.583" r="1.574"/>
			</g>
		</g>
		<g>
			<g>
				<linearGradient id="SVGID_21_" gradientUnits="userSpaceOnUse" x1="722.6953" y1="30.4854" x2="839.768" y2="183.5801">
					<stop  offset="0" style="stop-color:#7DC8ED"/>
					<stop  offset="1" style="stop-color:#807FB6"/>
				</linearGradient>
				<circle fill="url(#SVGID_21_)" cx="757.88" cy="76.496" r="1.574"/>
				<linearGradient id="SVGID_22_" gradientUnits="userSpaceOnUse" x1="705.875" y1="43.502" x2="822.8026" y2="196.407">
					<stop  offset="0" style="stop-color:#7DC8ED"/>
					<stop  offset="1" style="stop-color:#807FB6"/>
				</linearGradient>
				<circle fill="url(#SVGID_22_)" cx="795.198" cy="160.308" r="1.573"/>
			</g>
			<g>
				<linearGradient id="SVGID_23_" gradientUnits="userSpaceOnUse" x1="749.6963" y1="9.8389" x2="866.7327" y2="162.8863">
					<stop  offset="0" style="stop-color:#7DC8ED"/>
					<stop  offset="1" style="stop-color:#807FB6"/>
				</linearGradient>
				<path fill="url(#SVGID_23_)" d="M819.089,101.186c-0.795,0.351-1.725-0.005-2.078-0.8c-0.354-0.794,0.004-1.725,0.797-2.078
					c0.795-0.354,1.725,0.003,2.08,0.799C820.241,99.902,819.882,100.83,819.089,101.186z"/>
				<linearGradient id="SVGID_24_" gradientUnits="userSpaceOnUse" x1="678.8369" y1="64.1064" x2="795.8008" y2="217.059">
					<stop  offset="0" style="stop-color:#7DC8ED"/>
					<stop  offset="1" style="stop-color:#807FB6"/>
				</linearGradient>
				<circle fill="url(#SVGID_24_)" cx="734.629" cy="137.065" r="1.574"/>
			</g>
		</g>
		<g>
			<g>
				<linearGradient id="SVGID_25_" gradientUnits="userSpaceOnUse" x1="718.9658" y1="33.3828" x2="835.9659" y2="186.3827">
					<stop  offset="0" style="stop-color:#7DC8ED"/>
					<stop  offset="1" style="stop-color:#807FB6"/>
				</linearGradient>
				<circle fill="url(#SVGID_25_)" cx="753.603" cy="78.676" r="1.574"/>
				<linearGradient id="SVGID_26_" gradientUnits="userSpaceOnUse" x1="709.6553" y1="40.6719" x2="826.5466" y2="193.5295">
					<stop  offset="0" style="stop-color:#7DC8ED"/>
					<stop  offset="1" style="stop-color:#807FB6"/>
				</linearGradient>
				<path fill="url(#SVGID_26_)" d="M800.841,157.346c0.434,0.75,0.176,1.712-0.576,2.146c-0.754,0.434-1.717,0.177-2.15-0.576
					c-0.436-0.751-0.178-1.712,0.574-2.145C799.444,156.336,800.405,156.594,800.841,157.346z"/>
			</g>
			<g>
				<linearGradient id="SVGID_27_" gradientUnits="userSpaceOnUse" x1="750.3857" y1="9.313" x2="867.4222" y2="162.3604">
					<stop  offset="0" style="stop-color:#7DC8ED"/>
					<stop  offset="1" style="stop-color:#807FB6"/>
				</linearGradient>
				<path fill="url(#SVGID_27_)" d="M817.056,96.833c-0.752,0.432-1.715,0.175-2.15-0.578s-0.176-1.716,0.576-2.15
					c0.754-0.435,1.715-0.177,2.15,0.577S817.808,96.395,817.056,96.833z"/>
				<linearGradient id="SVGID_28_" gradientUnits="userSpaceOnUse" x1="678.1123" y1="64.5869" x2="795.1488" y2="217.6344">
					<stop  offset="0" style="stop-color:#7DC8ED"/>
					<stop  offset="1" style="stop-color:#807FB6"/>
				</linearGradient>
				<circle fill="url(#SVGID_28_)" cx="736.81" cy="141.343" r="1.574"/>
			</g>
		</g>
		<g>
			<g>
				<linearGradient id="SVGID_29_" gradientUnits="userSpaceOnUse" x1="715.1631" y1="36.291" x2="832.1632" y2="189.2909">
					<stop  offset="0" style="stop-color:#7DC8ED"/>
					<stop  offset="1" style="stop-color:#807FB6"/>
				</linearGradient>
				<circle fill="url(#SVGID_29_)" cx="749.575" cy="81.291" r="1.574"/>
				<linearGradient id="SVGID_30_" gradientUnits="userSpaceOnUse" x1="713.4033" y1="37.6938" x2="830.3672" y2="190.6464">
					<stop  offset="0" style="stop-color:#7DC8ED"/>
					<stop  offset="1" style="stop-color:#807FB6"/>
				</linearGradient>
				<path fill="url(#SVGID_30_)" d="M804.778,154.594c0.51,0.702,0.355,1.687-0.348,2.197c-0.705,0.511-1.689,0.354-2.199-0.35
					c-0.512-0.7-0.355-1.685,0.348-2.195C803.284,153.736,804.269,153.89,804.778,154.594z"/>
			</g>
			<g>
				<linearGradient id="SVGID_31_" gradientUnits="userSpaceOnUse" x1="750.7188" y1="9.1411" x2="867.6826" y2="162.0936">
					<stop  offset="0" style="stop-color:#7DC8ED"/>
					<stop  offset="1" style="stop-color:#807FB6"/>
				</linearGradient>
				<circle fill="url(#SVGID_31_)" cx="813.654" cy="91.44" r="1.575"/>
				<linearGradient id="SVGID_32_" gradientUnits="userSpaceOnUse" x1="677.876" y1="64.8838" x2="794.8036" y2="217.7888">
					<stop  offset="0" style="stop-color:#7DC8ED"/>
					<stop  offset="1" style="stop-color:#807FB6"/>
				</linearGradient>
				<circle fill="url(#SVGID_32_)" cx="739.425" cy="145.371" r="1.573"/>
			</g>
		</g>
		<g>
			<g>
				<linearGradient id="SVGID_33_" gradientUnits="userSpaceOnUse" x1="711.3613" y1="39.2212" x2="828.3251" y2="192.1736">
					<stop  offset="0" style="stop-color:#7DC8ED"/>
					<stop  offset="1" style="stop-color:#807FB6"/>
				</linearGradient>
				<path fill="url(#SVGID_33_)" d="M747.013,83.258c0.584,0.647,0.531,1.644-0.115,2.224c-0.648,0.582-1.643,0.528-2.223-0.116
					c-0.584-0.646-0.531-1.642,0.115-2.224C745.437,82.561,746.431,82.613,747.013,83.258z"/>
				<linearGradient id="SVGID_34_" gradientUnits="userSpaceOnUse" x1="717.1885" y1="34.7422" x2="834.1885" y2="187.742">
					<stop  offset="0" style="stop-color:#7DC8ED"/>
					<stop  offset="1" style="stop-color:#807FB6"/>
				</linearGradient>
				<circle fill="url(#SVGID_34_)" cx="807.237" cy="152.497" r="1.573"/>
			</g>
			<g>
				<linearGradient id="SVGID_35_" gradientUnits="userSpaceOnUse" x1="750.5947" y1="9.1968" x2="867.5947" y2="162.1966">
					<stop  offset="0" style="stop-color:#7DC8ED"/>
					<stop  offset="1" style="stop-color:#807FB6"/>
				</linearGradient>
				<circle fill="url(#SVGID_35_)" cx="810.633" cy="87.708" r="1.575"/>
				<linearGradient id="SVGID_36_" gradientUnits="userSpaceOnUse" x1="677.9639" y1="64.7778" x2="794.9276" y2="217.7301">
					<stop  offset="0" style="stop-color:#7DC8ED"/>
					<stop  offset="1" style="stop-color:#807FB6"/>
				</linearGradient>
				<circle fill="url(#SVGID_36_)" cx="742.446" cy="149.102" r="1.573"/>
			</g>
		</g>
		<g>
			<g>
				<linearGradient id="SVGID_37_" gradientUnits="userSpaceOnUse" x1="707.5811" y1="42.1113" x2="824.5449" y2="195.0638">
					<stop  offset="0" style="stop-color:#7DC8ED"/>
					<stop  offset="1" style="stop-color:#807FB6"/>
				</linearGradient>
				<circle fill="url(#SVGID_37_)" cx="742.448" cy="87.707" r="1.574"/>
				<linearGradient id="SVGID_38_" gradientUnits="userSpaceOnUse" x1="720.9424" y1="31.8135" x2="837.9788" y2="184.8608">
					<stop  offset="0" style="stop-color:#7DC8ED"/>
					<stop  offset="1" style="stop-color:#807FB6"/>
				</linearGradient>
				<circle fill="url(#SVGID_38_)" cx="810.633" cy="149.101" r="1.573"/>
			</g>
			<g>
				<linearGradient id="SVGID_39_" gradientUnits="userSpaceOnUse" x1="750.1094" y1="9.605" x2="867.0731" y2="162.5573">
					<stop  offset="0" style="stop-color:#7DC8ED"/>
					<stop  offset="1" style="stop-color:#807FB6"/>
				</linearGradient>
				<circle fill="url(#SVGID_39_)" cx="807.237" cy="84.312" r="1.575"/>
				<linearGradient id="SVGID_40_" gradientUnits="userSpaceOnUse" x1="678.4492" y1="64.3662" x2="795.4494" y2="217.3662">
					<stop  offset="0" style="stop-color:#7DC8ED"/>
					<stop  offset="1" style="stop-color:#807FB6"/>
				</linearGradient>
				<path fill="url(#SVGID_40_)" d="M747.011,153.55c-0.578,0.646-1.574,0.697-2.221,0.115s-0.697-1.575-0.117-2.221
					c0.582-0.646,1.578-0.697,2.225-0.116C747.542,151.91,747.595,152.905,747.011,153.55z"/>
			</g>
		</g>
		<g>
			<g>
				<linearGradient id="SVGID_41_" gradientUnits="userSpaceOnUse" x1="703.8848" y1="44.9609" x2="820.8123" y2="197.866">
					<stop  offset="0" style="stop-color:#7DC8ED"/>
					<stop  offset="1" style="stop-color:#807FB6"/>
				</linearGradient>
				<circle fill="url(#SVGID_41_)" cx="739.427" cy="91.438" r="1.575"/>
				<linearGradient id="SVGID_42_" gradientUnits="userSpaceOnUse" x1="724.6504" y1="28.9795" x2="841.6869" y2="182.027">
					<stop  offset="0" style="stop-color:#7DC8ED"/>
					<stop  offset="1" style="stop-color:#807FB6"/>
				</linearGradient>
				<path fill="url(#SVGID_42_)" d="M814.579,144.096c0.703,0.511,0.859,1.494,0.35,2.198c-0.514,0.703-1.496,0.859-2.201,0.346
					c-0.701-0.51-0.857-1.492-0.348-2.195C812.894,143.742,813.876,143.583,814.579,144.096z"/>
			</g>
			<g>
				<linearGradient id="SVGID_43_" gradientUnits="userSpaceOnUse" x1="749.1953" y1="10.2671" x2="866.1953" y2="163.2669">
					<stop  offset="0" style="stop-color:#7DC8ED"/>
					<stop  offset="1" style="stop-color:#807FB6"/>
				</linearGradient>
				<path fill="url(#SVGID_43_)" d="M804.78,82.216c-0.514,0.701-1.496,0.857-2.199,0.348c-0.705-0.512-0.859-1.498-0.35-2.201
					c0.512-0.701,1.494-0.857,2.201-0.347C805.136,80.528,805.288,81.511,804.78,82.216z"/>
				<linearGradient id="SVGID_44_" gradientUnits="userSpaceOnUse" x1="679.3672" y1="63.7075" x2="796.3311" y2="216.66">
					<stop  offset="0" style="stop-color:#7DC8ED"/>
					<stop  offset="1" style="stop-color:#807FB6"/>
				</linearGradient>
				<path fill="url(#SVGID_44_)" d="M750.847,156.443c-0.508,0.702-1.494,0.856-2.197,0.346s-0.857-1.492-0.348-2.195
					c0.512-0.704,1.496-0.858,2.199-0.348C751.204,154.757,751.36,155.741,750.847,156.443z"/>
			</g>
		</g>
		<g>
			<g>
				<linearGradient id="SVGID_45_" gradientUnits="userSpaceOnUse" x1="700.292" y1="47.7095" x2="817.2195" y2="200.6145">
					<stop  offset="0" style="stop-color:#7DC8ED"/>
					<stop  offset="1" style="stop-color:#807FB6"/>
				</linearGradient>
				<path fill="url(#SVGID_45_)" d="M737.599,94.101c0.754,0.436,1.012,1.399,0.576,2.15c-0.438,0.755-1.4,1.012-2.15,0.578
					c-0.754-0.435-1.012-1.398-0.576-2.151S736.845,93.667,737.599,94.101z"/>
				<linearGradient id="SVGID_46_" gradientUnits="userSpaceOnUse" x1="728.2715" y1="26.2671" x2="845.2717" y2="179.2671">
					<stop  offset="0" style="stop-color:#7DC8ED"/>
					<stop  offset="1" style="stop-color:#807FB6"/>
				</linearGradient>
				<circle fill="url(#SVGID_46_)" cx="816.27" cy="141.341" r="1.573"/>
			</g>
			<g>
				<linearGradient id="SVGID_47_" gradientUnits="userSpaceOnUse" x1="747.915" y1="11.2451" x2="864.9152" y2="164.245">
					<stop  offset="0" style="stop-color:#7DC8ED"/>
					<stop  offset="1" style="stop-color:#807FB6"/>
				</linearGradient>
				<path fill="url(#SVGID_47_)" d="M800.843,79.462c-0.438,0.751-1.398,1.01-2.152,0.576c-0.752-0.436-1.01-1.4-0.576-2.153
					c0.436-0.751,1.396-1.009,2.152-0.575C801.021,77.746,801.274,78.708,800.843,79.462z"/>
				<linearGradient id="SVGID_48_" gradientUnits="userSpaceOnUse" x1="680.7393" y1="62.8462" x2="797.558" y2="215.6089">
					<stop  offset="0" style="stop-color:#7DC8ED"/>
					<stop  offset="1" style="stop-color:#807FB6"/>
				</linearGradient>
				<path fill="url(#SVGID_48_)" d="M754.964,158.916c-0.432,0.751-1.396,1.008-2.15,0.572c-0.752-0.434-1.008-1.393-0.574-2.144
					c0.436-0.752,1.398-1.009,2.152-0.574C755.144,157.204,755.401,158.163,754.964,158.916z"/>
			</g>
		</g>
		<g>
			<g>
				<linearGradient id="SVGID_49_" gradientUnits="userSpaceOnUse" x1="696.8184" y1="50.2959" x2="813.8548" y2="203.3433">
					<stop  offset="0" style="stop-color:#7DC8ED"/>
					<stop  offset="1" style="stop-color:#807FB6"/>
				</linearGradient>
				<path fill="url(#SVGID_49_)" d="M735.271,98.304c0.797,0.354,1.154,1.286,0.801,2.078c-0.357,0.797-1.289,1.153-2.08,0.8
					c-0.795-0.354-1.152-1.284-0.799-2.079C733.548,98.308,734.476,97.953,735.271,98.304z"/>
				<linearGradient id="SVGID_50_" gradientUnits="userSpaceOnUse" x1="731.7109" y1="23.6367" x2="848.7111" y2="176.6367">
					<stop  offset="0" style="stop-color:#7DC8ED"/>
					<stop  offset="1" style="stop-color:#807FB6"/>
				</linearGradient>
				<path fill="url(#SVGID_50_)" d="M819.091,135.625c0.793,0.353,1.15,1.282,0.797,2.077c-0.355,0.794-1.283,1.151-2.08,0.796
					c-0.793-0.353-1.15-1.281-0.797-2.075C817.368,135.628,818.296,135.269,819.091,135.625z"/>
			</g>
			<g>
				<linearGradient id="SVGID_51_" gradientUnits="userSpaceOnUse" x1="746.2676" y1="12.5049" x2="863.2677" y2="165.5048">
					<stop  offset="0" style="stop-color:#7DC8ED"/>
					<stop  offset="1" style="stop-color:#807FB6"/>
				</linearGradient>
				<path fill="url(#SVGID_51_)" d="M796.64,77.134c-0.357,0.793-1.285,1.151-2.08,0.799c-0.795-0.354-1.15-1.287-0.799-2.082
					c0.355-0.792,1.285-1.148,2.08-0.797C796.638,75.41,796.991,76.339,796.64,77.134z"/>
				<linearGradient id="SVGID_52_" gradientUnits="userSpaceOnUse" x1="682.3672" y1="61.5562" x2="799.2222" y2="214.3663">
					<stop  offset="0" style="stop-color:#7DC8ED"/>
					<stop  offset="1" style="stop-color:#807FB6"/>
				</linearGradient>
				<path fill="url(#SVGID_52_)" d="M759.317,160.945c-0.352,0.793-1.283,1.15-2.078,0.795c-0.793-0.354-1.148-1.28-0.795-2.073
					c0.352-0.794,1.283-1.148,2.078-0.796C759.315,159.224,759.675,160.152,759.317,160.945z"/>
			</g>
		</g>
		<g>
			<g>
				<linearGradient id="SVGID_53_" gradientUnits="userSpaceOnUse" x1="693.5938" y1="52.8105" x2="810.5576" y2="205.7631">
					<stop  offset="0" style="stop-color:#7DC8ED"/>
					<stop  offset="1" style="stop-color:#807FB6"/>
				</linearGradient>
				<path fill="url(#SVGID_53_)" d="M733.396,102.728c0.83,0.27,1.281,1.158,1.014,1.982c-0.271,0.83-1.16,1.282-1.984,1.014
					c-0.828-0.269-1.281-1.157-1.012-1.984C731.683,102.912,732.569,102.461,733.396,102.728z"/>
				<linearGradient id="SVGID_54_" gradientUnits="userSpaceOnUse" x1="734.96" y1="21.1504" x2="851.9601" y2="174.1504">
					<stop  offset="0" style="stop-color:#7DC8ED"/>
					<stop  offset="1" style="stop-color:#807FB6"/>
				</linearGradient>
				<path fill="url(#SVGID_54_)" d="M820.659,131.083c0.824,0.268,1.277,1.154,1.008,1.981s-1.156,1.28-1.984,1.009
					c-0.826-0.268-1.277-1.153-1.01-1.979C818.944,131.266,819.829,130.812,820.659,131.083z"/>
			</g>
			<g>
				<linearGradient id="SVGID_55_" gradientUnits="userSpaceOnUse" x1="744.2695" y1="14.0332" x2="861.2697" y2="167.0331">
					<stop  offset="0" style="stop-color:#7DC8ED"/>
					<stop  offset="1" style="stop-color:#807FB6"/>
				</linearGradient>
				<path fill="url(#SVGID_55_)" d="M792.216,75.259c-0.271,0.826-1.158,1.279-1.984,1.012c-0.828-0.27-1.279-1.16-1.012-1.987
					c0.27-0.825,1.156-1.276,1.984-1.01C792.032,73.544,792.481,74.431,792.216,75.259z"/>
				<linearGradient id="SVGID_56_" gradientUnits="userSpaceOnUse" x1="684.2969" y1="59.9365" x2="801.2607" y2="212.8891">
					<stop  offset="0" style="stop-color:#7DC8ED"/>
					<stop  offset="1" style="stop-color:#807FB6"/>
				</linearGradient>
				<circle fill="url(#SVGID_56_)" cx="762.364" cy="162.025" r="1.573"/>
			</g>
		</g>
		<g>
			<g>
				<linearGradient id="SVGID_57_" gradientUnits="userSpaceOnUse" x1="690.5586" y1="55.106" x2="807.5588" y2="208.1059">
					<stop  offset="0" style="stop-color:#7DC8ED"/>
					<stop  offset="1" style="stop-color:#807FB6"/>
				</linearGradient>
				<path fill="url(#SVGID_57_)" d="M731.993,107.324c0.854,0.181,1.396,1.018,1.215,1.865c-0.184,0.854-1.02,1.396-1.867,1.216
					c-0.85-0.181-1.395-1.017-1.213-1.868S731.144,107.144,731.993,107.324z"/>
				<linearGradient id="SVGID_58_" gradientUnits="userSpaceOnUse" x1="737.957" y1="18.8062" x2="854.9934" y2="171.8534">
					<stop  offset="0" style="stop-color:#7DC8ED"/>
					<stop  offset="1" style="stop-color:#807FB6"/>
				</linearGradient>
				<path fill="url(#SVGID_58_)" d="M821.741,126.402c0.85,0.18,1.393,1.015,1.211,1.865c-0.182,0.852-1.016,1.394-1.869,1.211
					c-0.848-0.18-1.391-1.014-1.209-1.863C820.058,126.763,820.89,126.218,821.741,126.402z"/>
			</g>
			<g>
				<linearGradient id="SVGID_59_" gradientUnits="userSpaceOnUse" x1="741.9424" y1="15.8125" x2="858.9426" y2="168.8125">
					<stop  offset="0" style="stop-color:#7DC8ED"/>
					<stop  offset="1" style="stop-color:#807FB6"/>
				</linearGradient>
				<path fill="url(#SVGID_59_)" d="M787.62,73.857c-0.184,0.85-1.018,1.393-1.869,1.213c-0.85-0.182-1.393-1.02-1.213-1.87
					c0.182-0.849,1.018-1.39,1.869-1.212C787.259,72.17,787.798,73.005,787.62,73.857z"/>
				<linearGradient id="SVGID_60_" gradientUnits="userSpaceOnUse" x1="686.6494" y1="58.189" x2="803.577" y2="211.094">
					<stop  offset="0" style="stop-color:#7DC8ED"/>
					<stop  offset="1" style="stop-color:#807FB6"/>
				</linearGradient>
				<path fill="url(#SVGID_60_)" d="M768.542,163.594c-0.18,0.852-1.018,1.395-1.869,1.213c-0.85-0.182-1.389-1.016-1.209-1.867
					c0.18-0.85,1.016-1.393,1.869-1.211C768.181,161.908,768.726,162.744,768.542,163.594z"/>
			</g>
		</g>
		<g>
			<g>
				<linearGradient id="SVGID_61_" gradientUnits="userSpaceOnUse" x1="687.7969" y1="57.2183" x2="804.7971" y2="210.2182">
					<stop  offset="0" style="stop-color:#7DC8ED"/>
					<stop  offset="1" style="stop-color:#807FB6"/>
				</linearGradient>
				<path fill="url(#SVGID_61_)" d="M731.079,112.041c0.869,0.09,1.496,0.865,1.404,1.729c-0.094,0.867-0.869,1.494-1.73,1.404
					c-0.865-0.092-1.492-0.865-1.402-1.731C729.442,112.576,730.216,111.951,731.079,112.041z"/>
				<linearGradient id="SVGID_62_" gradientUnits="userSpaceOnUse" x1="740.6963" y1="16.6606" x2="857.7689" y2="169.7554">
					<stop  offset="0" style="stop-color:#7DC8ED"/>
					<stop  offset="1" style="stop-color:#807FB6"/>
				</linearGradient>
				<path fill="url(#SVGID_62_)" d="M822.331,121.632c0.863,0.09,1.49,0.863,1.398,1.729c-0.092,0.867-0.863,1.492-1.73,1.4
					c-0.863-0.09-1.49-0.863-1.398-1.727C820.692,122.168,821.464,121.54,822.331,121.632z"/>
			</g>
			<g>
				<linearGradient id="SVGID_63_" gradientUnits="userSpaceOnUse" x1="739.3262" y1="17.8408" x2="856.29" y2="170.7933">
					<stop  offset="0" style="stop-color:#7DC8ED"/>
					<stop  offset="1" style="stop-color:#807FB6"/>
				</linearGradient>
				<path fill="url(#SVGID_63_)" d="M782.903,72.943c-0.094,0.863-0.865,1.491-1.73,1.401c-0.865-0.092-1.492-0.868-1.402-1.733
					c0.092-0.863,0.865-1.488,1.732-1.4C782.368,71.302,782.991,72.078,782.903,72.943z"/>
				<linearGradient id="SVGID_64_" gradientUnits="userSpaceOnUse" x1="689.1797" y1="56.0459" x2="806.2525" y2="209.1409">
					<stop  offset="0" style="stop-color:#7DC8ED"/>
					<stop  offset="1" style="stop-color:#807FB6"/>
				</linearGradient>
				<path fill="url(#SVGID_64_)" d="M773.312,164.182c-0.09,0.865-0.865,1.494-1.732,1.402c-0.863-0.092-1.488-0.865-1.398-1.73
					s0.865-1.492,1.732-1.4C772.776,162.543,773.403,163.316,773.312,164.182z"/>
			</g>
		</g>
		<linearGradient id="SVGID_65_" gradientUnits="userSpaceOnUse" x1="670.4746" y1="70.4878" x2="787.4385" y2="223.4403">
			<stop  offset="0" style="stop-color:#7DC8ED"/>
			<stop  offset="1" style="stop-color:#807FB6"/>
		</linearGradient>
		<circle fill="url(#SVGID_65_)" cx="707.03" cy="118.291" r="1.574"/>
		<linearGradient id="SVGID_66_" gradientUnits="userSpaceOnUse" x1="673.4688" y1="68.1992" x2="790.4326" y2="221.1517">
			<stop  offset="0" style="stop-color:#7DC8ED"/>
			<stop  offset="1" style="stop-color:#807FB6"/>
		</linearGradient>
		<circle fill="url(#SVGID_66_)" cx="711.774" cy="118.291" r="1.574"/>
		<linearGradient id="SVGID_67_" gradientUnits="userSpaceOnUse" x1="676.4629" y1="65.9102" x2="793.4268" y2="218.8627">
			<stop  offset="0" style="stop-color:#7DC8ED"/>
			<stop  offset="1" style="stop-color:#807FB6"/>
		</linearGradient>
		<circle fill="url(#SVGID_67_)" cx="716.519" cy="118.291" r="1.574"/>
		<linearGradient id="SVGID_68_" gradientUnits="userSpaceOnUse" x1="679.4326" y1="63.5879" x2="796.4691" y2="216.6353">
			<stop  offset="0" style="stop-color:#7DC8ED"/>
			<stop  offset="1" style="stop-color:#807FB6"/>
		</linearGradient>
		<circle fill="url(#SVGID_68_)" cx="721.265" cy="118.291" r="1.574"/>
		<linearGradient id="SVGID_69_" gradientUnits="userSpaceOnUse" x1="682.4395" y1="61.3154" x2="799.4396" y2="214.3154">
			<stop  offset="0" style="stop-color:#7DC8ED"/>
			<stop  offset="1" style="stop-color:#807FB6"/>
		</linearGradient>
		<circle fill="url(#SVGID_69_)" cx="726.009" cy="118.291" r="1.574"/>
	</g>
	<g>
		<g>
			<linearGradient id="SVGID_70_" gradientUnits="userSpaceOnUse" x1="736.4033" y1="209.5156" x2="853.4035" y2="362.5156">
				<stop  offset="0" style="stop-color:#7DC8ED"/>
				<stop  offset="1" style="stop-color:#807FB6"/>
			</linearGradient>
			<circle fill="url(#SVGID_70_)" cx="776.538" cy="261.998" r="1.574"/>
			<linearGradient id="SVGID_71_" gradientUnits="userSpaceOnUse" x1="692.1309" y1="243.3721" x2="809.131" y2="396.372">
				<stop  offset="0" style="stop-color:#7DC8ED"/>
				<stop  offset="1" style="stop-color:#807FB6"/>
			</linearGradient>
			<circle fill="url(#SVGID_71_)" cx="776.538" cy="353.75" r="1.574"/>
		</g>
		<g>
			<linearGradient id="SVGID_72_" gradientUnits="userSpaceOnUse" x1="743.2393" y1="204.3398" x2="860.2031" y2="357.2923">
				<stop  offset="0" style="stop-color:#7DC8ED"/>
				<stop  offset="1" style="stop-color:#807FB6"/>
			</linearGradient>
			<circle fill="url(#SVGID_72_)" cx="822.413" cy="307.875" r="1.574"/>
			<linearGradient id="SVGID_73_" gradientUnits="userSpaceOnUse" x1="685.3184" y1="248.5811" x2="802.3185" y2="401.581">
				<stop  offset="0" style="stop-color:#7DC8ED"/>
				<stop  offset="1" style="stop-color:#807FB6"/>
			</linearGradient>
			<circle fill="url(#SVGID_73_)" cx="730.661" cy="307.875" r="1.574"/>
		</g>
		<g>
			<g>
				<linearGradient id="SVGID_74_" gradientUnits="userSpaceOnUse" x1="736.4033" y1="209.5156" x2="853.4035" y2="362.5156">
					<stop  offset="0" style="stop-color:#7DC8ED"/>
					<stop  offset="1" style="stop-color:#807FB6"/>
				</linearGradient>
				<circle fill="url(#SVGID_74_)" cx="776.538" cy="261.998" r="1.574"/>
				<linearGradient id="SVGID_75_" gradientUnits="userSpaceOnUse" x1="692.1309" y1="243.3721" x2="809.131" y2="396.372">
					<stop  offset="0" style="stop-color:#7DC8ED"/>
					<stop  offset="1" style="stop-color:#807FB6"/>
				</linearGradient>
				<circle fill="url(#SVGID_75_)" cx="776.538" cy="353.75" r="1.574"/>
			</g>
			<g>
				<linearGradient id="SVGID_76_" gradientUnits="userSpaceOnUse" x1="743.2393" y1="204.3398" x2="860.2031" y2="357.2923">
					<stop  offset="0" style="stop-color:#7DC8ED"/>
					<stop  offset="1" style="stop-color:#807FB6"/>
				</linearGradient>
				<circle fill="url(#SVGID_76_)" cx="822.413" cy="307.875" r="1.574"/>
				<linearGradient id="SVGID_77_" gradientUnits="userSpaceOnUse" x1="685.3184" y1="248.5811" x2="802.3185" y2="401.581">
					<stop  offset="0" style="stop-color:#7DC8ED"/>
					<stop  offset="1" style="stop-color:#807FB6"/>
				</linearGradient>
				<circle fill="url(#SVGID_77_)" cx="730.661" cy="307.875" r="1.574"/>
			</g>
		</g>
		<g>
			<g>
				<linearGradient id="SVGID_78_" gradientUnits="userSpaceOnUse" x1="733.2588" y1="211.9229" x2="850.259" y2="364.9228">
					<stop  offset="0" style="stop-color:#7DC8ED"/>
					<stop  offset="1" style="stop-color:#807FB6"/>
				</linearGradient>
				<circle fill="url(#SVGID_78_)" cx="771.743" cy="262.249" r="1.575"/>
				<linearGradient id="SVGID_79_" gradientUnits="userSpaceOnUse" x1="695.2783" y1="240.9648" x2="812.2784" y2="393.9647">
					<stop  offset="0" style="stop-color:#7DC8ED"/>
					<stop  offset="1" style="stop-color:#807FB6"/>
				</linearGradient>
				<circle fill="url(#SVGID_79_)" cx="781.334" cy="353.498" r="1.574"/>
			</g>
			<g>
				<linearGradient id="SVGID_80_" gradientUnits="userSpaceOnUse" x1="745.3701" y1="202.6587" x2="862.3703" y2="355.6587">
					<stop  offset="0" style="stop-color:#7DC8ED"/>
					<stop  offset="1" style="stop-color:#807FB6"/>
				</linearGradient>
				<circle fill="url(#SVGID_80_)" cx="822.163" cy="303.079" r="1.574"/>
				<linearGradient id="SVGID_81_" gradientUnits="userSpaceOnUse" x1="683.1494" y1="250.209" x2="800.1859" y2="403.2564">
					<stop  offset="0" style="stop-color:#7DC8ED"/>
					<stop  offset="1" style="stop-color:#807FB6"/>
				</linearGradient>
				<circle fill="url(#SVGID_81_)" cx="730.913" cy="312.669" r="1.574"/>
			</g>
		</g>
		<g>
			<g>
				<linearGradient id="SVGID_82_" gradientUnits="userSpaceOnUse" x1="729.9141" y1="214.5034" x2="846.8779" y2="367.4559">
					<stop  offset="0" style="stop-color:#7DC8ED"/>
					<stop  offset="1" style="stop-color:#807FB6"/>
				</linearGradient>
				<circle fill="url(#SVGID_82_)" cx="767" cy="263" r="1.575"/>
				<linearGradient id="SVGID_83_" gradientUnits="userSpaceOnUse" x1="698.6328" y1="238.3994" x2="815.6329" y2="391.3993">
					<stop  offset="0" style="stop-color:#7DC8ED"/>
					<stop  offset="1" style="stop-color:#807FB6"/>
				</linearGradient>
				<circle fill="url(#SVGID_83_)" cx="786.076" cy="352.747" r="1.574"/>
			</g>
			<g>
				<linearGradient id="SVGID_84_" gradientUnits="userSpaceOnUse" x1="747.1621" y1="201.2412" x2="864.1986" y2="354.2887">
					<stop  offset="0" style="stop-color:#7DC8ED"/>
					<stop  offset="1" style="stop-color:#807FB6"/>
				</linearGradient>
				<path fill="url(#SVGID_84_)" d="M821.739,299.877c-0.852,0.178-1.688-0.363-1.867-1.213c-0.182-0.852,0.361-1.688,1.213-1.867
					c0.85-0.182,1.686,0.359,1.865,1.213C823.132,298.859,822.589,299.693,821.739,299.877z"/>
				<linearGradient id="SVGID_85_" gradientUnits="userSpaceOnUse" x1="681.3652" y1="251.6367" x2="798.3291" y2="404.5892">
					<stop  offset="0" style="stop-color:#7DC8ED"/>
					<stop  offset="1" style="stop-color:#807FB6"/>
				</linearGradient>
				<circle fill="url(#SVGID_85_)" cx="731.664" cy="317.412" r="1.573"/>
			</g>
		</g>
		<g>
			<g>
				<linearGradient id="SVGID_86_" gradientUnits="userSpaceOnUse" x1="726.377" y1="217.1836" x2="843.3771" y2="370.1835">
					<stop  offset="0" style="stop-color:#7DC8ED"/>
					<stop  offset="1" style="stop-color:#807FB6"/>
				</linearGradient>
				<circle fill="url(#SVGID_86_)" cx="762.363" cy="264.243" r="1.574"/>
				<linearGradient id="SVGID_87_" gradientUnits="userSpaceOnUse" x1="702.1328" y1="235.666" x2="819.1693" y2="388.7134">
					<stop  offset="0" style="stop-color:#7DC8ED"/>
					<stop  offset="1" style="stop-color:#807FB6"/>
				</linearGradient>
				<circle fill="url(#SVGID_87_)" cx="790.715" cy="351.504" r="1.574"/>
			</g>
			<g>
				<linearGradient id="SVGID_88_" gradientUnits="userSpaceOnUse" x1="748.6621" y1="200.1885" x2="865.6259" y2="353.1409">
					<stop  offset="0" style="stop-color:#7DC8ED"/>
					<stop  offset="1" style="stop-color:#807FB6"/>
				</linearGradient>
				<path fill="url(#SVGID_88_)" d="M820.655,295.195c-0.826,0.266-1.715-0.184-1.984-1.012c-0.268-0.826,0.186-1.715,1.012-1.982
					c0.826-0.27,1.715,0.182,1.984,1.01C821.935,294.039,821.481,294.924,820.655,295.195z"/>
				<linearGradient id="SVGID_89_" gradientUnits="userSpaceOnUse" x1="679.8955" y1="252.728" x2="796.8956" y2="405.7279">
					<stop  offset="0" style="stop-color:#7DC8ED"/>
					<stop  offset="1" style="stop-color:#807FB6"/>
				</linearGradient>
				<circle fill="url(#SVGID_89_)" cx="732.907" cy="322.05" r="1.574"/>
			</g>
		</g>
		<g>
			<g>
				<linearGradient id="SVGID_90_" gradientUnits="userSpaceOnUse" x1="722.7061" y1="219.9673" x2="839.7424" y2="373.0146">
					<stop  offset="0" style="stop-color:#7DC8ED"/>
					<stop  offset="1" style="stop-color:#807FB6"/>
				</linearGradient>
				<circle fill="url(#SVGID_90_)" cx="757.88" cy="265.964" r="1.574"/>
				<linearGradient id="SVGID_91_" gradientUnits="userSpaceOnUse" x1="705.8477" y1="232.9399" x2="822.8115" y2="385.8925">
					<stop  offset="0" style="stop-color:#7DC8ED"/>
					<stop  offset="1" style="stop-color:#807FB6"/>
				</linearGradient>
				<circle fill="url(#SVGID_91_)" cx="795.198" cy="349.783" r="1.574"/>
			</g>
			<g>
				<linearGradient id="SVGID_92_" gradientUnits="userSpaceOnUse" x1="749.6748" y1="199.2783" x2="866.7476" y2="352.3732">
					<stop  offset="0" style="stop-color:#7DC8ED"/>
					<stop  offset="1" style="stop-color:#807FB6"/>
				</linearGradient>
				<path fill="url(#SVGID_92_)" d="M819.089,290.654c-0.795,0.35-1.725-0.006-2.078-0.801c-0.354-0.793,0.004-1.725,0.797-2.078
					c0.795-0.354,1.725,0.004,2.08,0.799C820.241,289.369,819.882,290.297,819.089,290.654z"/>
				<linearGradient id="SVGID_93_" gradientUnits="userSpaceOnUse" x1="678.8545" y1="253.5972" x2="795.7821" y2="406.5022">
					<stop  offset="0" style="stop-color:#7DC8ED"/>
					<stop  offset="1" style="stop-color:#807FB6"/>
				</linearGradient>
				<circle fill="url(#SVGID_93_)" cx="734.629" cy="326.533" r="1.573"/>
			</g>
		</g>
		<g>
			<g>
				<linearGradient id="SVGID_94_" gradientUnits="userSpaceOnUse" x1="718.9766" y1="222.8638" x2="835.9404" y2="375.8162">
					<stop  offset="0" style="stop-color:#7DC8ED"/>
					<stop  offset="1" style="stop-color:#807FB6"/>
				</linearGradient>
				<circle fill="url(#SVGID_94_)" cx="753.603" cy="268.144" r="1.575"/>
				<linearGradient id="SVGID_95_" gradientUnits="userSpaceOnUse" x1="709.5166" y1="229.9619" x2="826.5894" y2="383.0568">
					<stop  offset="0" style="stop-color:#7DC8ED"/>
					<stop  offset="1" style="stop-color:#807FB6"/>
				</linearGradient>
				<path fill="url(#SVGID_95_)" d="M800.841,346.816c0.434,0.752,0.176,1.715-0.576,2.15c-0.754,0.434-1.717,0.176-2.15-0.578
					c-0.436-0.752-0.178-1.715,0.574-2.148C799.444,345.805,800.405,346.062,800.841,346.816z"/>
			</g>
			<g>
				<linearGradient id="SVGID_96_" gradientUnits="userSpaceOnUse" x1="750.3652" y1="198.7544" x2="867.438" y2="351.8493">
					<stop  offset="0" style="stop-color:#7DC8ED"/>
					<stop  offset="1" style="stop-color:#807FB6"/>
				</linearGradient>
				<path fill="url(#SVGID_96_)" d="M817.056,286.301c-0.752,0.432-1.715,0.174-2.15-0.578c-0.436-0.754-0.176-1.717,0.576-2.15
					c0.754-0.436,1.715-0.178,2.15,0.576S817.808,285.863,817.056,286.301z"/>
				<linearGradient id="SVGID_97_" gradientUnits="userSpaceOnUse" x1="678.1123" y1="254.0542" x2="795.1488" y2="407.1017">
					<stop  offset="0" style="stop-color:#7DC8ED"/>
					<stop  offset="1" style="stop-color:#807FB6"/>
				</linearGradient>
				<circle fill="url(#SVGID_97_)" cx="736.81" cy="330.811" r="1.574"/>
			</g>
		</g>
		<g>
			<g>
				<linearGradient id="SVGID_98_" gradientUnits="userSpaceOnUse" x1="715.1533" y1="225.7446" x2="832.1897" y2="378.792">
					<stop  offset="0" style="stop-color:#7DC8ED"/>
					<stop  offset="1" style="stop-color:#807FB6"/>
				</linearGradient>
				<circle fill="url(#SVGID_98_)" cx="749.575" cy="270.758" r="1.574"/>
				<linearGradient id="SVGID_99_" gradientUnits="userSpaceOnUse" x1="713.4316" y1="227.1987" x2="830.3593" y2="380.1038">
					<stop  offset="0" style="stop-color:#7DC8ED"/>
					<stop  offset="1" style="stop-color:#807FB6"/>
				</linearGradient>
				<circle fill="url(#SVGID_99_)" cx="803.505" cy="344.986" r="1.573"/>
			</g>
			<g>
				<linearGradient id="SVGID_100_" gradientUnits="userSpaceOnUse" x1="750.7002" y1="198.583" x2="867.7003" y2="351.5829">
					<stop  offset="0" style="stop-color:#7DC8ED"/>
					<stop  offset="1" style="stop-color:#807FB6"/>
				</linearGradient>
				<circle fill="url(#SVGID_100_)" cx="813.654" cy="280.907" r="1.575"/>
				<linearGradient id="SVGID_101_" gradientUnits="userSpaceOnUse" x1="677.8574" y1="254.3271" x2="794.8213" y2="407.2797">
					<stop  offset="0" style="stop-color:#7DC8ED"/>
					<stop  offset="1" style="stop-color:#807FB6"/>
				</linearGradient>
				<circle fill="url(#SVGID_101_)" cx="739.425" cy="334.838" r="1.573"/>
			</g>
		</g>
		<g>
			<g>
				<linearGradient id="SVGID_102_" gradientUnits="userSpaceOnUse" x1="711.3613" y1="228.6875" x2="828.3251" y2="381.64">
					<stop  offset="0" style="stop-color:#7DC8ED"/>
					<stop  offset="1" style="stop-color:#807FB6"/>
				</linearGradient>
				<path fill="url(#SVGID_102_)" d="M747.013,272.727c0.584,0.646,0.531,1.643-0.115,2.223c-0.648,0.582-1.643,0.529-2.223-0.115
					c-0.584-0.646-0.531-1.643,0.115-2.225C745.437,272.029,746.431,272.08,747.013,272.727z"/>
				<linearGradient id="SVGID_103_" gradientUnits="userSpaceOnUse" x1="717.2178" y1="224.2461" x2="834.1815" y2="377.1984">
					<stop  offset="0" style="stop-color:#7DC8ED"/>
					<stop  offset="1" style="stop-color:#807FB6"/>
				</linearGradient>
				<path fill="url(#SVGID_103_)" d="M808.407,340.912c0.58,0.645,0.529,1.641-0.117,2.221c-0.646,0.584-1.641,0.531-2.223-0.117
					c-0.582-0.645-0.531-1.639,0.115-2.219C806.831,340.215,807.825,340.266,808.407,340.912z"/>
			</g>
			<g>
				<linearGradient id="SVGID_104_" gradientUnits="userSpaceOnUse" x1="750.5938" y1="198.6641" x2="867.5938" y2="351.6638">
					<stop  offset="0" style="stop-color:#7DC8ED"/>
					<stop  offset="1" style="stop-color:#807FB6"/>
				</linearGradient>
				<circle fill="url(#SVGID_104_)" cx="810.633" cy="277.175" r="1.575"/>
				<linearGradient id="SVGID_105_" gradientUnits="userSpaceOnUse" x1="677.9248" y1="254.1934" x2="794.9612" y2="407.2407">
					<stop  offset="0" style="stop-color:#7DC8ED"/>
					<stop  offset="1" style="stop-color:#807FB6"/>
				</linearGradient>
				<path fill="url(#SVGID_105_)" d="M743.499,339.738c-0.645,0.584-1.641,0.529-2.223-0.117c-0.58-0.646-0.527-1.639,0.117-2.221
					c0.646-0.582,1.643-0.527,2.225,0.117S744.147,339.158,743.499,339.738z"/>
			</g>
		</g>
		<g>
			<g>
				<linearGradient id="SVGID_106_" gradientUnits="userSpaceOnUse" x1="707.5801" y1="231.5791" x2="824.5439" y2="384.5316">
					<stop  offset="0" style="stop-color:#7DC8ED"/>
					<stop  offset="1" style="stop-color:#807FB6"/>
				</linearGradient>
				<circle fill="url(#SVGID_106_)" cx="742.448" cy="277.175" r="1.575"/>
				<linearGradient id="SVGID_107_" gradientUnits="userSpaceOnUse" x1="720.9697" y1="221.3169" x2="837.9697" y2="374.3167">
					<stop  offset="0" style="stop-color:#7DC8ED"/>
					<stop  offset="1" style="stop-color:#807FB6"/>
				</linearGradient>
				<circle fill="url(#SVGID_107_)" cx="810.633" cy="338.568" r="1.573"/>
			</g>
			<g>
				<linearGradient id="SVGID_108_" gradientUnits="userSpaceOnUse" x1="750.0908" y1="199.0488" x2="867.0908" y2="352.0486">
					<stop  offset="0" style="stop-color:#7DC8ED"/>
					<stop  offset="1" style="stop-color:#807FB6"/>
				</linearGradient>
				<circle fill="url(#SVGID_108_)" cx="807.237" cy="273.779" r="1.575"/>
				<linearGradient id="SVGID_109_" gradientUnits="userSpaceOnUse" x1="678.4287" y1="253.8066" x2="795.4652" y2="406.8541">
					<stop  offset="0" style="stop-color:#7DC8ED"/>
					<stop  offset="1" style="stop-color:#807FB6"/>
				</linearGradient>
				<path fill="url(#SVGID_109_)" d="M747.011,343.018c-0.578,0.646-1.574,0.697-2.221,0.115s-0.697-1.574-0.117-2.221
					c0.582-0.646,1.578-0.697,2.225-0.115C747.542,341.377,747.595,342.373,747.011,343.018z"/>
			</g>
		</g>
		<g>
			<g>
				<linearGradient id="SVGID_110_" gradientUnits="userSpaceOnUse" x1="703.8955" y1="234.4419" x2="820.7868" y2="387.2995">
					<stop  offset="0" style="stop-color:#7DC8ED"/>
					<stop  offset="1" style="stop-color:#807FB6"/>
				</linearGradient>
				<path fill="url(#SVGID_110_)" d="M740.353,279.631c0.703,0.514,0.859,1.498,0.348,2.199c-0.514,0.705-1.498,0.859-2.199,0.35
					c-0.703-0.51-0.859-1.496-0.348-2.199S739.647,279.121,740.353,279.631z"/>
				<linearGradient id="SVGID_111_" gradientUnits="userSpaceOnUse" x1="724.6494" y1="218.4458" x2="841.6859" y2="371.4933">
					<stop  offset="0" style="stop-color:#7DC8ED"/>
					<stop  offset="1" style="stop-color:#807FB6"/>
				</linearGradient>
				<path fill="url(#SVGID_111_)" d="M814.579,333.564c0.703,0.51,0.859,1.494,0.35,2.197c-0.514,0.703-1.496,0.859-2.201,0.346
					c-0.701-0.51-0.857-1.492-0.348-2.195C812.894,333.209,813.876,333.051,814.579,333.564z"/>
			</g>
			<g>
				<linearGradient id="SVGID_112_" gradientUnits="userSpaceOnUse" x1="749.1777" y1="199.7124" x2="866.2141" y2="352.7596">
					<stop  offset="0" style="stop-color:#7DC8ED"/>
					<stop  offset="1" style="stop-color:#807FB6"/>
				</linearGradient>
				<path fill="url(#SVGID_112_)" d="M804.78,271.684c-0.514,0.701-1.496,0.857-2.199,0.348c-0.705-0.512-0.859-1.498-0.35-2.201
					c0.512-0.701,1.494-0.857,2.201-0.346C805.136,269.996,805.288,270.979,804.78,271.684z"/>
				<linearGradient id="SVGID_113_" gradientUnits="userSpaceOnUse" x1="679.3672" y1="253.1768" x2="796.3311" y2="406.1293">
					<stop  offset="0" style="stop-color:#7DC8ED"/>
					<stop  offset="1" style="stop-color:#807FB6"/>
				</linearGradient>
				<path fill="url(#SVGID_113_)" d="M750.847,345.912c-0.508,0.703-1.494,0.857-2.197,0.346s-0.857-1.492-0.348-2.195
					c0.512-0.705,1.496-0.859,2.199-0.348C751.204,344.225,751.36,345.209,750.847,345.912z"/>
			</g>
		</g>
		<g>
			<g>
				<linearGradient id="SVGID_114_" gradientUnits="userSpaceOnUse" x1="700.2812" y1="237.1636" x2="817.2451" y2="390.116">
					<stop  offset="0" style="stop-color:#7DC8ED"/>
					<stop  offset="1" style="stop-color:#807FB6"/>
				</linearGradient>
				<path fill="url(#SVGID_114_)" d="M737.599,283.568c0.754,0.436,1.012,1.4,0.576,2.15c-0.438,0.756-1.4,1.012-2.15,0.578
					c-0.754-0.434-1.012-1.398-0.576-2.15C735.884,283.393,736.845,283.135,737.599,283.568z"/>
				<linearGradient id="SVGID_115_" gradientUnits="userSpaceOnUse" x1="728.2441" y1="215.6982" x2="845.2806" y2="368.7457">
					<stop  offset="0" style="stop-color:#7DC8ED"/>
					<stop  offset="1" style="stop-color:#807FB6"/>
				</linearGradient>
				<circle fill="url(#SVGID_115_)" cx="816.27" cy="330.809" r="1.573"/>
			</g>
			<g>
				<linearGradient id="SVGID_116_" gradientUnits="userSpaceOnUse" x1="747.9004" y1="200.6924" x2="864.9368" y2="353.7397">
					<stop  offset="0" style="stop-color:#7DC8ED"/>
					<stop  offset="1" style="stop-color:#807FB6"/>
				</linearGradient>
				<path fill="url(#SVGID_116_)" d="M800.843,268.93c-0.438,0.752-1.398,1.01-2.152,0.576c-0.752-0.436-1.01-1.4-0.576-2.152
					c0.436-0.752,1.396-1.01,2.152-0.576C801.021,267.213,801.274,268.176,800.843,268.93z"/>
				<linearGradient id="SVGID_117_" gradientUnits="userSpaceOnUse" x1="680.6484" y1="252.2002" x2="797.6123" y2="405.1527">
					<stop  offset="0" style="stop-color:#7DC8ED"/>
					<stop  offset="1" style="stop-color:#807FB6"/>
				</linearGradient>
				<path fill="url(#SVGID_117_)" d="M754.964,348.389c-0.432,0.752-1.396,1.01-2.15,0.574c-0.752-0.436-1.008-1.395-0.574-2.148
					c0.436-0.752,1.398-1.01,2.152-0.574C755.144,346.674,755.401,347.635,754.964,348.389z"/>
			</g>
		</g>
		<g>
			<g>
				<linearGradient id="SVGID_118_" gradientUnits="userSpaceOnUse" x1="696.8291" y1="239.7783" x2="813.8293" y2="392.7783">
					<stop  offset="0" style="stop-color:#7DC8ED"/>
					<stop  offset="1" style="stop-color:#807FB6"/>
				</linearGradient>
				<path fill="url(#SVGID_118_)" d="M735.271,287.771c0.797,0.355,1.154,1.287,0.801,2.078c-0.357,0.797-1.289,1.154-2.08,0.801
					c-0.795-0.354-1.152-1.285-0.799-2.08C733.548,287.775,734.476,287.42,735.271,287.771z"/>
				<linearGradient id="SVGID_119_" gradientUnits="userSpaceOnUse" x1="731.6836" y1="213.0679" x2="848.7201" y2="366.1154">
					<stop  offset="0" style="stop-color:#7DC8ED"/>
					<stop  offset="1" style="stop-color:#807FB6"/>
				</linearGradient>
				<path fill="url(#SVGID_119_)" d="M819.091,325.094c0.793,0.352,1.15,1.281,0.797,2.076c-0.355,0.795-1.283,1.152-2.08,0.797
					c-0.793-0.354-1.15-1.281-0.797-2.076C817.368,325.096,818.296,324.736,819.091,325.094z"/>
			</g>
			<g>
				<linearGradient id="SVGID_120_" gradientUnits="userSpaceOnUse" x1="746.2832" y1="201.9922" x2="863.247" y2="354.9446">
					<stop  offset="0" style="stop-color:#7DC8ED"/>
					<stop  offset="1" style="stop-color:#807FB6"/>
				</linearGradient>
				<path fill="url(#SVGID_120_)" d="M796.64,266.602c-0.357,0.793-1.285,1.152-2.08,0.799s-1.15-1.287-0.799-2.082
					c0.355-0.791,1.285-1.148,2.08-0.797C796.638,264.877,796.991,265.807,796.64,266.602z"/>
				<linearGradient id="SVGID_121_" gradientUnits="userSpaceOnUse" x1="682.2734" y1="250.9092" x2="799.2736" y2="403.9091">
					<stop  offset="0" style="stop-color:#7DC8ED"/>
					<stop  offset="1" style="stop-color:#807FB6"/>
				</linearGradient>
				<path fill="url(#SVGID_121_)" d="M759.317,350.422c-0.352,0.793-1.283,1.15-2.078,0.795c-0.793-0.354-1.148-1.281-0.795-2.076
					c0.352-0.795,1.283-1.15,2.078-0.797C759.315,348.697,759.675,349.627,759.317,350.422z"/>
			</g>
		</g>
		<g>
			<g>
				<linearGradient id="SVGID_122_" gradientUnits="userSpaceOnUse" x1="693.5684" y1="242.2471" x2="810.6048" y2="395.2945">
					<stop  offset="0" style="stop-color:#7DC8ED"/>
					<stop  offset="1" style="stop-color:#807FB6"/>
				</linearGradient>
				<path fill="url(#SVGID_122_)" d="M733.396,292.195c0.83,0.27,1.281,1.158,1.014,1.982c-0.271,0.83-1.16,1.283-1.984,1.014
					c-0.828-0.268-1.281-1.156-1.012-1.984S732.569,291.93,733.396,292.195z"/>
				<linearGradient id="SVGID_123_" gradientUnits="userSpaceOnUse" x1="734.9873" y1="210.6533" x2="851.9512" y2="363.6059">
					<stop  offset="0" style="stop-color:#7DC8ED"/>
					<stop  offset="1" style="stop-color:#807FB6"/>
				</linearGradient>
				<path fill="url(#SVGID_123_)" d="M820.659,320.551c0.824,0.268,1.277,1.154,1.008,1.982c-0.27,0.826-1.156,1.279-1.984,1.008
					c-0.826-0.268-1.277-1.152-1.01-1.979C818.944,320.734,819.829,320.279,820.659,320.551z"/>
			</g>
			<g>
				<linearGradient id="SVGID_124_" gradientUnits="userSpaceOnUse" x1="744.2695" y1="203.4995" x2="861.2697" y2="356.4994">
					<stop  offset="0" style="stop-color:#7DC8ED"/>
					<stop  offset="1" style="stop-color:#807FB6"/>
				</linearGradient>
				<path fill="url(#SVGID_124_)" d="M792.216,264.727c-0.271,0.826-1.158,1.279-1.984,1.012c-0.828-0.27-1.279-1.16-1.012-1.986
					c0.27-0.826,1.156-1.277,1.984-1.01C792.032,263.012,792.481,263.898,792.216,264.727z"/>
				<linearGradient id="SVGID_125_" gradientUnits="userSpaceOnUse" x1="684.248" y1="249.3496" x2="801.2845" y2="402.3971">
					<stop  offset="0" style="stop-color:#7DC8ED"/>
					<stop  offset="1" style="stop-color:#807FB6"/>
				</linearGradient>
				<circle fill="url(#SVGID_125_)" cx="762.364" cy="351.502" r="1.573"/>
			</g>
		</g>
		<g>
			<g>
				<linearGradient id="SVGID_126_" gradientUnits="userSpaceOnUse" x1="690.5723" y1="244.5903" x2="807.5361" y2="397.5428">
					<stop  offset="0" style="stop-color:#7DC8ED"/>
					<stop  offset="1" style="stop-color:#807FB6"/>
				</linearGradient>
				<path fill="url(#SVGID_126_)" d="M731.993,296.791c0.854,0.182,1.396,1.018,1.215,1.865c-0.184,0.854-1.02,1.396-1.867,1.217
					c-0.85-0.182-1.395-1.018-1.213-1.869S731.144,296.611,731.993,296.791z"/>
				<linearGradient id="SVGID_127_" gradientUnits="userSpaceOnUse" x1="737.957" y1="208.2734" x2="854.9934" y2="361.3207">
					<stop  offset="0" style="stop-color:#7DC8ED"/>
					<stop  offset="1" style="stop-color:#807FB6"/>
				</linearGradient>
				<path fill="url(#SVGID_127_)" d="M821.741,315.869c0.85,0.18,1.393,1.016,1.211,1.865c-0.182,0.852-1.016,1.395-1.869,1.211
					c-0.848-0.18-1.391-1.014-1.209-1.863C820.058,316.23,820.89,315.686,821.741,315.869z"/>
			</g>
			<g>
				<linearGradient id="SVGID_128_" gradientUnits="userSpaceOnUse" x1="741.9424" y1="205.2798" x2="858.9426" y2="358.2798">
					<stop  offset="0" style="stop-color:#7DC8ED"/>
					<stop  offset="1" style="stop-color:#807FB6"/>
				</linearGradient>
				<path fill="url(#SVGID_128_)" d="M787.62,263.324c-0.184,0.85-1.018,1.393-1.869,1.213c-0.85-0.182-1.393-1.02-1.213-1.869
					c0.182-0.85,1.018-1.391,1.869-1.213C787.259,261.639,787.798,262.473,787.62,263.324z"/>
				<linearGradient id="SVGID_129_" gradientUnits="userSpaceOnUse" x1="686.6748" y1="247.6997" x2="803.5661" y2="400.5573">
					<stop  offset="0" style="stop-color:#7DC8ED"/>
					<stop  offset="1" style="stop-color:#807FB6"/>
				</linearGradient>
				<path fill="url(#SVGID_129_)" d="M768.542,353.07c-0.18,0.852-1.018,1.395-1.869,1.213c-0.85-0.182-1.389-1.016-1.209-1.867
					c0.18-0.85,1.016-1.393,1.869-1.211C768.181,351.385,768.726,352.221,768.542,353.07z"/>
			</g>
		</g>
		<g>
			<g>
				<linearGradient id="SVGID_130_" gradientUnits="userSpaceOnUse" x1="687.7969" y1="246.6855" x2="804.7971" y2="399.6855">
					<stop  offset="0" style="stop-color:#7DC8ED"/>
					<stop  offset="1" style="stop-color:#807FB6"/>
				</linearGradient>
				<path fill="url(#SVGID_130_)" d="M731.079,301.508c0.869,0.09,1.496,0.865,1.404,1.729c-0.094,0.867-0.869,1.494-1.73,1.404
					c-0.865-0.092-1.492-0.865-1.402-1.73C729.442,302.043,730.216,301.418,731.079,301.508z"/>
				<linearGradient id="SVGID_131_" gradientUnits="userSpaceOnUse" x1="740.6963" y1="206.1279" x2="857.7689" y2="359.2227">
					<stop  offset="0" style="stop-color:#7DC8ED"/>
					<stop  offset="1" style="stop-color:#807FB6"/>
				</linearGradient>
				<path fill="url(#SVGID_131_)" d="M822.331,311.1c0.863,0.09,1.49,0.863,1.398,1.729c-0.092,0.867-0.863,1.492-1.73,1.4
					c-0.863-0.09-1.49-0.863-1.398-1.727C820.692,311.637,821.464,311.008,822.331,311.1z"/>
			</g>
			<g>
				<linearGradient id="SVGID_132_" gradientUnits="userSpaceOnUse" x1="739.3271" y1="207.3086" x2="856.291" y2="360.261">
					<stop  offset="0" style="stop-color:#7DC8ED"/>
					<stop  offset="1" style="stop-color:#807FB6"/>
				</linearGradient>
				<path fill="url(#SVGID_132_)" d="M782.903,262.41c-0.094,0.863-0.865,1.492-1.73,1.402c-0.865-0.092-1.492-0.869-1.402-1.734
					c0.092-0.863,0.865-1.488,1.732-1.4C782.368,260.77,782.991,261.545,782.903,262.41z"/>
				<linearGradient id="SVGID_133_" gradientUnits="userSpaceOnUse" x1="689.1797" y1="245.522" x2="806.2525" y2="398.6169">
					<stop  offset="0" style="stop-color:#7DC8ED"/>
					<stop  offset="1" style="stop-color:#807FB6"/>
				</linearGradient>
				<path fill="url(#SVGID_133_)" d="M773.312,353.658c-0.09,0.865-0.865,1.494-1.732,1.402c-0.863-0.092-1.488-0.865-1.398-1.73
					s0.865-1.492,1.732-1.4C772.776,352.02,773.403,352.793,773.312,353.658z"/>
			</g>
		</g>
		<linearGradient id="SVGID_134_" gradientUnits="userSpaceOnUse" x1="670.4746" y1="259.9551" x2="787.4385" y2="412.9076">
			<stop  offset="0" style="stop-color:#7DC8ED"/>
			<stop  offset="1" style="stop-color:#807FB6"/>
		</linearGradient>
		<circle fill="url(#SVGID_134_)" cx="707.03" cy="307.758" r="1.574"/>
		<linearGradient id="SVGID_135_" gradientUnits="userSpaceOnUse" x1="673.457" y1="257.6514" x2="790.4572" y2="410.6513">
			<stop  offset="0" style="stop-color:#7DC8ED"/>
			<stop  offset="1" style="stop-color:#807FB6"/>
		</linearGradient>
		<circle fill="url(#SVGID_135_)" cx="711.774" cy="307.758" r="1.574"/>
		<linearGradient id="SVGID_136_" gradientUnits="userSpaceOnUse" x1="676.4502" y1="255.3613" x2="793.4504" y2="408.3613">
			<stop  offset="0" style="stop-color:#7DC8ED"/>
			<stop  offset="1" style="stop-color:#807FB6"/>
		</linearGradient>
		<circle fill="url(#SVGID_136_)" cx="716.519" cy="307.758" r="1.574"/>
		<linearGradient id="SVGID_137_" gradientUnits="userSpaceOnUse" x1="679.4336" y1="253.0557" x2="796.47" y2="406.1031">
			<stop  offset="0" style="stop-color:#7DC8ED"/>
			<stop  offset="1" style="stop-color:#807FB6"/>
		</linearGradient>
		<circle fill="url(#SVGID_137_)" cx="721.265" cy="307.758" r="1.574"/>
		<linearGradient id="SVGID_138_" gradientUnits="userSpaceOnUse" x1="682.4395" y1="250.7827" x2="799.4396" y2="403.7827">
			<stop  offset="0" style="stop-color:#7DC8ED"/>
			<stop  offset="1" style="stop-color:#807FB6"/>
		</linearGradient>
		<circle fill="url(#SVGID_138_)" cx="726.009" cy="307.758" r="1.574"/>
	</g>
	<circle fill="#EEEEEF" stroke="#7DC8ED" stroke-width="2.5" stroke-miterlimit="10" cx="405.744" cy="307.877" r="32.716"/>
	<path fill="#807FB6" d="M433.194,315.479c0,3.203-2.596,5.799-5.799,5.799h-43.301c-3.203,0-5.801-2.596-5.801-5.799l0,0
		c0-3.203,2.598-5.799,5.801-5.799h43.301C430.599,309.68,433.194,312.275,433.194,315.479L433.194,315.479z"/>
	<g>
		<text transform="matrix(1 0 0 1 384.8599 317.1914)" fill="#FFFFFF" font-family="'TitilliumText22L-Regular'" font-size="8.5">reservation</text>
	</g>
	<g>
		<path fill="#807FB6" d="M394.837,304.268c-0.373,0-0.676-0.303-0.676-0.676c0-0.372,0.303-0.675,0.676-0.675h0.363v-13.192h-0.363
			c-0.373,0-0.676-0.303-0.676-0.676c0-0.372,0.303-0.675,0.676-0.675h0.363v-1.922c0-0.659,0.535-1.195,1.195-1.195h18.697
			c0.658,0,1.195,0.536,1.195,1.195v1.922h0.363c0.371,0,0.676,0.303,0.676,0.675c0,0.373-0.305,0.676-0.676,0.676h-0.363v13.192
			h0.363c0.371,0,0.676,0.303,0.676,0.675c0,0.373-0.305,0.676-0.676,0.676H394.837z M414.937,302.917v-10.581
			c-0.396,0.324-0.891,0.505-1.402,0.505c-0.58,0-1.139-0.233-1.557-0.645c-0.418,0.411-0.979,0.645-1.559,0.645
			c-0.582,0-1.141-0.233-1.559-0.645c-0.418,0.411-0.977,0.645-1.559,0.645c-0.58,0-1.141-0.233-1.559-0.645
			c-0.418,0.411-0.977,0.645-1.557,0.645c-0.582,0-1.141-0.233-1.559-0.645c-0.418,0.411-0.977,0.645-1.559,0.645
			c-0.58,0-1.141-0.233-1.559-0.645c-0.418,0.411-0.977,0.645-1.559,0.645c-0.51,0-1.006-0.181-1.402-0.505v10.581h6.961v-5.558
			c0-0.372,0.303-0.675,0.676-0.675h3.115c0.373,0,0.676,0.303,0.676,0.675v5.558H414.937z M406.628,302.917v-4.882h-1.768v4.882
			H406.628z M412.651,290.607c0,0.486,0.396,0.882,0.883,0.882s0.883-0.396,0.883-0.882v-0.883h-1.766V290.607z M409.534,290.607
			c0,0.486,0.396,0.882,0.885,0.882c0.486,0,0.883-0.396,0.883-0.882v-0.883h-1.768V290.607z M406.419,290.607
			c0,0.486,0.396,0.882,0.883,0.882s0.883-0.396,0.883-0.882v-0.883h-1.766V290.607z M403.302,290.607
			c0,0.486,0.396,0.882,0.885,0.882c0.486,0,0.883-0.396,0.883-0.882v-0.883h-1.768V290.607z M400.187,290.607
			c0,0.486,0.396,0.882,0.883,0.882s0.883-0.396,0.883-0.882v-0.883h-1.766V290.607z M397.069,290.607
			c0,0.486,0.396,0.882,0.883,0.882c0.488,0,0.885-0.396,0.885-0.882v-0.883h-1.768V290.607z M414.937,288.374v-1.766H396.55v1.766
			H414.937z M409.38,301.151c-0.373,0-0.676-0.304-0.676-0.676v-3.116c0-0.372,0.303-0.675,0.676-0.675h3.115
			c0.373,0,0.676,0.303,0.676,0.675v3.116c0,0.372-0.303,0.676-0.676,0.676H409.38z M411.821,299.801v-1.766h-1.766v1.766H411.821z
			 M398.991,301.151c-0.371,0-0.676-0.304-0.676-0.676v-3.116c0-0.372,0.305-0.675,0.676-0.675h3.117
			c0.373,0,0.674,0.303,0.674,0.675v3.116c0,0.372-0.301,0.676-0.674,0.676H398.991z M401.433,299.801v-1.766h-1.766v1.766H401.433z
			"/>
		<path fill="#807FB6" d="M402.108,296.84h-3.117c-0.287,0-0.52,0.233-0.52,0.52v3.116c0,0.286,0.232,0.52,0.52,0.52h3.117
			c0.287,0,0.52-0.233,0.52-0.52v-3.116C402.628,297.073,402.396,296.84,402.108,296.84 M401.589,299.956h-2.078v-2.077h2.078
			V299.956z M412.495,296.84h-3.115c-0.287,0-0.52,0.233-0.52,0.52v3.116c0,0.286,0.232,0.52,0.52,0.52h3.115
			c0.287,0,0.52-0.233,0.52-0.52v-3.116C413.015,297.073,412.782,296.84,412.495,296.84 M411.978,299.956h-2.078v-2.077h2.078
			V299.956z M416.651,303.073h-0.52v-13.505h0.52c0.287,0,0.52-0.232,0.52-0.52s-0.232-0.519-0.52-0.519h-0.52v-2.078
			c0-0.572-0.465-1.039-1.039-1.039h-18.697c-0.574,0-1.039,0.467-1.039,1.039v2.078h-0.52c-0.287,0-0.52,0.231-0.52,0.519
			s0.232,0.52,0.52,0.52h0.52v13.505h-0.52c-0.287,0-0.52,0.232-0.52,0.519c0,0.287,0.232,0.52,0.52,0.52h21.814
			c0.287,0,0.52-0.232,0.52-0.52C417.171,303.306,416.938,303.073,416.651,303.073 M406.782,303.073h-2.076v-5.194h2.076V303.073z
			 M415.093,303.073h-7.271v-5.714c0-0.286-0.232-0.52-0.52-0.52h-3.115c-0.287,0-0.521,0.233-0.521,0.52v5.714h-7.27v-11.104
			c0.381,0.436,0.934,0.717,1.557,0.717c0.625,0,1.178-0.281,1.559-0.717c0.381,0.436,0.936,0.717,1.559,0.717
			s1.178-0.281,1.559-0.717c0.381,0.436,0.934,0.717,1.559,0.717c0.623,0,1.176-0.281,1.557-0.717
			c0.381,0.436,0.936,0.717,1.559,0.717c0.625,0,1.178-0.281,1.559-0.717c0.381,0.436,0.934,0.717,1.559,0.717
			c0.623,0,1.178-0.281,1.559-0.717c0.381,0.436,0.934,0.717,1.557,0.717c0.625,0,1.178-0.281,1.559-0.717V303.073z
			 M396.915,290.607v-1.039h2.076v1.039c0,0.572-0.465,1.038-1.039,1.038S396.915,291.18,396.915,290.607 M400.03,290.607v-1.039
			h2.078v1.039c0,0.572-0.465,1.038-1.039,1.038S400.03,291.18,400.03,290.607 M403.147,290.607v-1.039h2.076v1.039
			c0,0.572-0.465,1.038-1.037,1.038C403.61,291.646,403.147,291.18,403.147,290.607 M406.263,290.607v-1.039h2.078v1.039
			c0,0.572-0.465,1.038-1.039,1.038S406.263,291.18,406.263,290.607 M409.38,290.607v-1.039h2.076v1.039
			c0,0.572-0.465,1.038-1.037,1.038C409.845,291.646,409.38,291.18,409.38,290.607 M412.495,290.607v-1.039h2.078v1.039
			c0,0.572-0.465,1.038-1.039,1.038S412.495,291.18,412.495,290.607 M415.093,288.53h-18.697v-2.078h18.697V288.53z"/>
	</g>
	<g>
		<circle fill="#EEEEEF" stroke="#7DC8ED" stroke-width="2.5" stroke-miterlimit="10" cx="494.133" cy="307.881" r="21.995"/>
		<path fill="#807FB6" d="M489.194,321.607c-1.441,0-2.611-1.172-2.611-2.613v-22.228c0-1.439,1.17-2.611,2.611-2.611h9.879
			c1.439,0,2.611,1.172,2.611,2.611v22.228c0,1.441-1.172,2.613-2.611,2.613H489.194z M488.101,318.994
			c0,0.604,0.49,1.094,1.094,1.094h9.879c0.602,0,1.092-0.49,1.092-1.094v-1.092h-12.064V318.994z M500.165,316.385v-17.007h-12.064
			v17.007H500.165z M500.165,297.86v-1.094c0-0.604-0.49-1.094-1.092-1.094h-9.879c-0.604,0-1.094,0.49-1.094,1.094v1.094H500.165z
			 M494.134,319.754c-0.42,0-0.76-0.34-0.76-0.76c0-0.418,0.34-0.758,0.76-0.758c0.418,0,0.758,0.34,0.758,0.758
			C494.892,319.414,494.552,319.754,494.134,319.754z M493.515,297.526c-0.418,0-0.758-0.342-0.758-0.76s0.34-0.76,0.758-0.76h1.236
			c0.418,0,0.758,0.342,0.758,0.76s-0.34,0.76-0.758,0.76H493.515z"/>
		<path fill="#807FB6" d="M494.134,319.613c0.34,0,0.617-0.277,0.617-0.619c0-0.34-0.277-0.615-0.617-0.615
			c-0.342,0-0.619,0.275-0.619,0.615C493.515,319.336,493.792,319.613,494.134,319.613 M499.073,294.296h-9.879
			c-1.365,0-2.471,1.107-2.471,2.471v22.228c0,1.365,1.105,2.471,2.471,2.471h9.879c1.363,0,2.469-1.105,2.469-2.471v-22.228
			C501.542,295.403,500.437,294.296,499.073,294.296 M500.308,318.994c0,0.684-0.555,1.236-1.234,1.236h-9.879
			c-0.684,0-1.236-0.553-1.236-1.236v-1.234h12.35V318.994z M500.308,316.525h-12.35v-17.29h12.35V316.525z M500.308,298.001h-12.35
			v-1.234c0-0.682,0.553-1.234,1.236-1.234h9.879c0.68,0,1.234,0.553,1.234,1.234V298.001z M494.751,296.149h-1.236
			c-0.34,0-0.617,0.277-0.617,0.617c0,0.342,0.277,0.617,0.617,0.617h1.236c0.34,0,0.617-0.275,0.617-0.617
			C495.368,296.427,495.091,296.149,494.751,296.149"/>
	</g>
	<g>
		<circle fill="#7DC8ED" cx="472.139" cy="307.875" r="6.288"/>
		<circle fill="#FFFFFF" cx="472.202" cy="307.875" r="2.516"/>
	</g>
	<g>
		<circle fill="#7DC8ED" cx="516.128" cy="307.875" r="6.289"/>
		<circle fill="#FFFFFF" cx="516.192" cy="307.875" r="2.516"/>
	</g>
	<circle fill="#FFFFFF" stroke="#E1E2E3" stroke-width="2.5" stroke-miterlimit="10" cx="670.164" cy="213.607" r="32.716"/>
	<text transform="matrix(1 0 0 1 472.9033 249.6729)"><tspan x="0" y="0" fill="#C1C3C5" font-family="'NanumBarunGothicOTF-KSCpc-EUC-H'" font-size="8">단골디자이너</tspan><tspan x="-20.528" y="10.5" fill="#C1C3C5" font-family="'NanumBarunGothicOTF-KSCpc-EUC-H'" font-size="8">예약가능시간 확인 및 예약</tspan></text>
	<g>
		<path fill="none" d="M634.401,216.617"/>
	</g>
	
		<line fill="none" stroke="#E1E2E3" stroke-width="4" stroke-miterlimit="10" x1="516.128" y1="213.608" x2="638.233" y2="213.608"/>
	
		<line fill="none" stroke="#E1E2E3" stroke-width="4" stroke-miterlimit="10" x1="339.274" y1="213.608" x2="469.944" y2="213.608"/>
	<circle fill="#FFFFFF" stroke="#E1E2E3" stroke-width="2.5" stroke-miterlimit="10" cx="405.729" cy="213.675" r="32.716"/>
	<g>
		<path fill="#C1C3C5" d="M405.724,211.139c-6.146,0-11.145-4.996-11.145-11.137c0-6.15,4.998-11.153,11.145-11.153
			c6.145,0,11.145,5.003,11.145,11.153C416.868,206.143,411.868,211.139,405.724,211.139z M405.724,190.419
			c-5.285,0-9.582,4.299-9.582,9.583c0,5.278,4.297,9.573,9.582,9.573c5.281,0,9.58-4.295,9.58-9.573
			C415.304,194.718,411.005,190.419,405.724,190.419z"/>
		<path fill="#C1C3C5" d="M405.724,210.997c-6.068,0-11.004-4.933-11.004-10.995c0-6.072,4.936-11.012,11.004-11.012
			c6.066,0,11.002,4.939,11.002,11.012C416.726,206.064,411.79,210.997,405.724,210.997z M405.724,190.277
			c-5.361,0-9.725,4.363-9.725,9.725c0,5.356,4.363,9.715,9.725,9.715s9.723-4.358,9.723-9.715
			C415.446,194.641,411.085,190.277,405.724,190.277z"/>
		<path fill="#C1C3C5" d="M405.724,210.99c-6.064,0-10.998-4.93-10.998-10.988c0-6.068,4.934-11.005,10.998-11.005
			c6.062,0,10.996,4.937,10.996,11.005C416.72,206.061,411.786,210.99,405.724,210.99z M405.724,190.271
			c-5.365,0-9.73,4.365-9.73,9.73c0,5.36,4.365,9.722,9.73,9.722c5.363,0,9.729-4.361,9.729-9.722
			C415.452,194.637,411.087,190.271,405.724,190.271z"/>
		<path fill="#C1C3C5" d="M405.724,189.139c-5.998,0-10.855,4.864-10.855,10.863c0,5.99,4.857,10.847,10.855,10.847
			c5.996,0,10.854-4.856,10.854-10.847C416.577,194.003,411.72,189.139,405.724,189.139 M405.724,209.865
			c-5.449,0-9.871-4.417-9.871-9.863c0-5.455,4.422-9.872,9.871-9.872c5.445,0,9.871,4.417,9.871,9.872
			C415.595,205.448,411.169,209.865,405.724,209.865"/>
		<g>
			<path fill="#C1C3C5" d="M405.724,200.78c-0.434,0-0.787-0.349-0.787-0.778v-7.398c0-0.445,0.346-0.794,0.787-0.794
				c0.428,0,0.775,0.356,0.775,0.794v7.398C406.499,200.432,406.151,200.78,405.724,200.78z"/>
			<path fill="#C1C3C5" d="M405.724,200.639c-0.355,0-0.645-0.285-0.645-0.637v-7.398c0-0.366,0.283-0.652,0.645-0.652
				c0.35,0,0.635,0.293,0.635,0.652v7.398C406.358,200.354,406.073,200.639,405.724,200.639z"/>
			<path fill="#C1C3C5" d="M405.724,200.632c-0.354,0-0.639-0.282-0.639-0.63v-7.398c0-0.362,0.279-0.646,0.639-0.646
				c0.346,0,0.629,0.289,0.629,0.646v7.398C406.353,200.35,406.069,200.632,405.724,200.632z"/>
			<path fill="#C1C3C5" d="M406.21,200.002c0,0.268-0.221,0.488-0.486,0.488l0,0c-0.275,0-0.498-0.221-0.498-0.488v-7.398
				c0-0.285,0.223-0.504,0.498-0.504l0,0c0.266,0,0.486,0.219,0.486,0.504V200.002z"/>
			<path fill="#C1C3C5" d="M405.724,200.78c-0.434,0-0.787-0.349-0.787-0.778c0-0.433,0.354-0.784,0.787-0.784h4.438
				c0.43,0,0.779,0.352,0.779,0.784c0,0.43-0.35,0.778-0.779,0.778H405.724z"/>
			<path fill="#C1C3C5" d="M405.724,200.639c-0.355,0-0.645-0.285-0.645-0.637c0-0.354,0.289-0.643,0.645-0.643h4.438
				c0.352,0,0.637,0.289,0.637,0.643c0,0.352-0.285,0.637-0.637,0.637H405.724z"/>
			<path fill="#C1C3C5" d="M405.724,200.632c-0.354,0-0.639-0.282-0.639-0.63c0-0.351,0.285-0.636,0.639-0.636h4.438
				c0.348,0,0.631,0.285,0.631,0.636c0,0.348-0.283,0.63-0.631,0.63H405.724z"/>
			<path fill="#C1C3C5" d="M405.724,200.49c-0.275,0-0.498-0.221-0.498-0.488l0,0c0-0.275,0.223-0.494,0.498-0.494h4.438
				c0.27,0,0.488,0.219,0.488,0.494l0,0c0,0.268-0.219,0.488-0.488,0.488H405.724z"/>
		</g>
	</g>
	<path fill="#C1C3C5" d="M433.171,221.275c0,3.203-2.596,5.8-5.799,5.8h-43.301c-3.203,0-5.799-2.597-5.799-5.8l0,0
		c0-3.202,2.596-5.799,5.799-5.799h43.301C430.575,215.477,433.171,218.073,433.171,221.275L433.171,221.275z"/>
	<g>
		<text transform="matrix(1 0 0 1 381.9062 222.9893)" fill="#FFFFFF" font-family="'TitilliumText22L-Regular'" font-size="8.5">appointment</text>
	</g>
	<path fill="#C1C3C5" d="M690.032,226.065c0,3.203-2.596,5.8-5.799,5.8h-28.141c-3.203,0-5.799-2.597-5.799-5.8l0,0
		c0-3.202,2.596-5.799,5.799-5.799h28.141C687.437,220.267,690.032,222.863,690.032,226.065L690.032,226.065z"/>
	<path fill="#C1C3C5" d="M660.284,216.202c-0.6,0-0.758-0.496-0.758-0.758c0-3.783,3.363-4.969,4.98-5.539
		c0.143-0.037,2.443-0.607,2.443-3.03c0-1.849-0.701-2.677-1.166-3.226c-0.09-0.106-0.172-0.203-0.236-0.292
		c-0.02-0.019-0.795-0.845-0.234-3.16c-0.365-0.731-1.355-2.917-0.59-4.8c0.912-2.234,1.898-2.805,3.301-3.422
		c0.443-0.287,1.672-0.759,2.998-0.759c0.789,0,1.482,0.163,2.062,0.484c0.83,0.461,1.41,1.243,2.07,2.79
		c0.932,2.183,0.902,4.467-0.068,5.846c0.529,2.274-0.295,3.015-0.332,3.045c-0.041,0.064-0.123,0.161-0.213,0.268
		c-0.465,0.549-1.166,1.377-1.166,3.226c0,2.428,2.375,3.011,2.398,3.017c1.662,0.584,5.027,1.771,5.027,5.553
		c0,0.262-0.158,0.758-0.76,0.758H660.284z M679.214,214.685c-0.369-1.943-2.188-2.742-3.873-3.338
		c-1.285-0.33-3.482-1.648-3.482-4.472c0-2.406,0.992-3.578,1.525-4.208c0.074-0.086,0.125-0.145,0.166-0.201
		c0.033-0.046,0.072-0.091,0.111-0.135c0.006-0.02,0.227-0.488-0.066-1.701c-0.096-0.396-0.012-0.811,0.23-1.137
		c0.57-0.778,0.771-2.442-0.066-4.404c-0.59-1.387-0.99-1.826-1.41-2.059c-0.352-0.195-0.799-0.295-1.326-0.295
		c-0.961,0-1.92,0.35-2.197,0.528c-0.062,0.038-0.125,0.073-0.191,0.103c-1.186,0.521-1.787,0.85-2.504,2.605
		c-0.52,1.275,0.275,3.029,0.574,3.69c0.127,0.278,0.156,0.595,0.084,0.892c-0.314,1.304-0.074,1.818-0.045,1.873
		c0.072,0.092,0.119,0.146,0.17,0.206c0.562,0.663,1.555,1.835,1.555,4.242c0,2.823-2.195,4.142-3.494,4.476
		c-1.674,0.594-3.492,1.395-3.861,3.334H679.214z"/>
	
		<text transform="matrix(1 0 0 1 655.8906 228.6001)" fill="#FFFFFF" font-family="'NanumBarunGothicOTF-KSCpc-EUC-H'" font-size="8">디자이너</text>
	<g>
		<circle fill="#E1E2E3" cx="637.447" cy="213.68" r="6.288"/>
		<circle fill="#FFFFFF" cx="637.511" cy="213.68" r="2.516"/>
	</g>
	<circle fill="#FFFFFF" stroke="#E1E2E3" stroke-width="2.5" stroke-miterlimit="10" cx="494.133" cy="213.617" r="21.995"/>
	<g>
		<path fill="#C1C3C5" d="M494.134,225.416c0.34,0,0.617-0.276,0.617-0.618c0-0.341-0.277-0.616-0.617-0.616
			c-0.342,0-0.619,0.275-0.619,0.616C493.515,225.14,493.792,225.416,494.134,225.416 M499.073,200.101h-9.879
			c-1.365,0-2.471,1.106-2.471,2.471v22.227c0,1.365,1.105,2.471,2.471,2.471h9.879c1.363,0,2.469-1.105,2.469-2.471v-22.227
			C501.542,201.207,500.437,200.101,499.073,200.101 M500.308,224.798c0,0.683-0.555,1.235-1.234,1.235h-9.879
			c-0.684,0-1.236-0.553-1.236-1.235v-1.234h12.35V224.798z M500.308,222.329h-12.35V205.04h12.35V222.329z M500.308,203.806h-12.35
			v-1.234c0-0.682,0.553-1.235,1.236-1.235h9.879c0.68,0,1.234,0.554,1.234,1.235V203.806z M494.751,201.953h-1.236
			c-0.34,0-0.617,0.277-0.617,0.618s0.277,0.617,0.617,0.617h1.236c0.34,0,0.617-0.276,0.617-0.617S495.091,201.953,494.751,201.953
			"/>
		<path fill="#C1C3C5" d="M489.194,227.344c-1.441,0-2.611-1.172-2.611-2.613v-22.227c0-1.439,1.17-2.611,2.611-2.611h9.879
			c1.439,0,2.611,1.172,2.611,2.611v22.227c0,1.441-1.172,2.613-2.611,2.613H489.194z M488.101,224.73
			c0,0.604,0.49,1.094,1.094,1.094h9.879c0.602,0,1.092-0.49,1.092-1.094v-1.092h-12.064V224.73z M500.165,222.121v-17.006h-12.064
			v17.006H500.165z M500.165,203.598v-1.094c0-0.604-0.49-1.094-1.092-1.094h-9.879c-0.604,0-1.094,0.49-1.094,1.094v1.094H500.165z
			 M494.134,225.49c-0.42,0-0.76-0.34-0.76-0.76c0-0.418,0.34-0.758,0.76-0.758c0.418,0,0.758,0.34,0.758,0.758
			C494.892,225.15,494.552,225.49,494.134,225.49z M493.515,203.264c-0.418,0-0.758-0.342-0.758-0.76s0.34-0.76,0.758-0.76h1.236
			c0.418,0,0.758,0.342,0.758,0.76s-0.34,0.76-0.758,0.76H493.515z"/>
		<path fill="#C1C3C5" d="M494.134,225.35c0.34,0,0.617-0.277,0.617-0.619c0-0.34-0.277-0.615-0.617-0.615
			c-0.342,0-0.619,0.275-0.619,0.615C493.515,225.072,493.792,225.35,494.134,225.35 M499.073,200.033h-9.879
			c-1.365,0-2.471,1.107-2.471,2.471v22.227c0,1.365,1.105,2.471,2.471,2.471h9.879c1.363,0,2.469-1.105,2.469-2.471v-22.227
			C501.542,201.141,500.437,200.033,499.073,200.033 M500.308,224.73c0,0.684-0.555,1.236-1.234,1.236h-9.879
			c-0.684,0-1.236-0.553-1.236-1.236v-1.234h12.35V224.73z M500.308,222.262h-12.35v-17.289h12.35V222.262z M500.308,203.738h-12.35
			v-1.234c0-0.682,0.553-1.234,1.236-1.234h9.879c0.68,0,1.234,0.553,1.234,1.234V203.738z M494.751,201.887h-1.236
			c-0.34,0-0.617,0.277-0.617,0.617c0,0.342,0.277,0.617,0.617,0.617h1.236c0.34,0,0.617-0.275,0.617-0.617
			C495.368,202.164,495.091,201.887,494.751,201.887"/>
	</g>
	<g>
		<circle fill="#E1E2E3" cx="516.128" cy="213.68" r="6.289"/>
		<circle fill="#FFFFFF" cx="516.192" cy="213.68" r="2.516"/>
	</g>
	<g>
		<circle fill="#E1E2E3" cx="472.139" cy="213.68" r="6.288"/>
		<circle fill="#FFFFFF" cx="472.202" cy="213.68" r="2.516"/>
	</g>
	<circle fill="#EEEEEF" stroke="#7DC8ED" stroke-width="2.5" stroke-miterlimit="10" cx="306.559" cy="213.607" r="32.716"/>
	<path fill="#807FB6" d="M320.538,226.065c0,3.203-2.598,5.8-5.799,5.8h-16.377c-3.203,0-5.801-2.597-5.801-5.8l0,0
		c0-3.202,2.598-5.799,5.801-5.799h16.377C317.94,220.267,320.538,222.863,320.538,226.065L320.538,226.065z"/>
	<path fill="#807FB6" d="M296.749,216.202c-0.6,0-0.758-0.496-0.758-0.758c0-3.783,3.365-4.969,4.982-5.539
		c0.141-0.037,2.441-0.607,2.441-3.03c0-1.849-0.701-2.677-1.166-3.226c-0.09-0.106-0.172-0.203-0.236-0.292
		c-0.02-0.019-0.795-0.845-0.234-3.16c-0.365-0.731-1.355-2.917-0.588-4.8c0.912-2.234,1.898-2.805,3.299-3.422
		c0.443-0.287,1.672-0.759,3-0.759c0.787,0,1.482,0.163,2.061,0.484c0.83,0.461,1.41,1.243,2.072,2.79
		c0.93,2.183,0.9,4.467-0.07,5.846c0.531,2.274-0.295,3.015-0.33,3.045c-0.043,0.064-0.123,0.161-0.215,0.268
		c-0.463,0.549-1.166,1.377-1.166,3.226c0,2.428,2.375,3.011,2.4,3.017c1.66,0.584,5.025,1.771,5.025,5.553
		c0,0.262-0.158,0.758-0.76,0.758H296.749z M315.679,214.685c-0.369-1.943-2.188-2.742-3.871-3.338
		c-1.287-0.33-3.484-1.648-3.484-4.472c0-2.406,0.992-3.578,1.525-4.208c0.074-0.086,0.125-0.145,0.166-0.201
		c0.033-0.046,0.072-0.091,0.113-0.135c0.004-0.02,0.225-0.488-0.066-1.701c-0.096-0.396-0.014-0.811,0.229-1.137
		c0.57-0.778,0.771-2.442-0.066-4.404c-0.59-1.387-0.99-1.826-1.41-2.059c-0.352-0.195-0.797-0.295-1.324-0.295
		c-0.963,0-1.922,0.35-2.199,0.528c-0.062,0.038-0.125,0.073-0.189,0.103c-1.188,0.521-1.789,0.85-2.504,2.605
		c-0.521,1.275,0.273,3.029,0.572,3.69c0.127,0.278,0.158,0.595,0.086,0.892c-0.314,1.304-0.074,1.818-0.047,1.873
		c0.072,0.092,0.119,0.146,0.17,0.206c0.562,0.663,1.555,1.835,1.555,4.242c0,2.823-2.195,4.142-3.494,4.476
		c-1.674,0.594-3.492,1.395-3.861,3.334H315.679z"/>
	
		<text transform="matrix(1 0 0 1 299.4912 228.6001)" fill="#FFFFFF" font-family="'NanumBarunGothicOTF-KSCpc-EUC-H'" font-size="8">고객</text>
	<g>
		<circle fill="#7DC8ED" cx="306.55" cy="180.795" r="6.289"/>
		<circle fill="#FFFFFF" cx="306.614" cy="180.795" r="2.516"/>
	</g>
	<g>
		<circle fill="#7DC8ED" cx="306.55" cy="246.3" r="6.289"/>
		<circle fill="#FFFFFF" cx="306.614" cy="246.3" r="2.516"/>
	</g>
	<rect x="0.284" y="10.204" fill="#A4A4A4" width="178.986" height="1.955"/>
</g>
</svg>
