<?xml version="1.0" encoding="utf-8"?>
<!-- Generator: Adobe Illustrator 16.0.3, SVG Export Plug-In . SVG Version: 6.00 Build 0)  -->
<!DOCTYPE svg PUBLIC "-//W3C//DTD SVG 1.1//EN" "http://www.w3.org/Graphics/SVG/1.1/DTD/svg11.dtd">
<svg version="1.1" id="Layer_1" xmlns="http://www.w3.org/2000/svg" xmlns:xlink="http://www.w3.org/1999/xlink" x="0px" y="0px"
	 width="828.568px" height="410.236px" viewBox="0 0 828.568 410.236" enable-background="new 0 0 828.568 410.236"
	 xml:space="preserve">
<g>
	<rect x="0.105" fill="#FFFFFF" width="828.569" height="410.236"/>
	<g>
		<g>
			<path fill="#FFFFFF" d="M396.767,356.589c0,6.171-5.002,11.169-11.168,11.169h-90.171c-6.166,0-11.165-4.998-11.165-11.169
				V147.384c0-6.166,4.999-11.167,11.165-11.167h90.171c6.166,0,11.168,5.001,11.168,11.167V356.589z"/>
			<path fill="#59595C" d="M340.041,361.568c-4.578,0-8.303-3.725-8.303-8.308c0-4.576,3.725-8.301,8.303-8.301
				s8.303,3.725,8.303,8.301C348.343,357.844,344.619,361.568,340.041,361.568z M340.041,345.551c-4.251,0-7.713,3.457-7.713,7.71
				c0,4.256,3.462,7.713,7.713,7.713c4.256,0,7.707-3.457,7.707-7.713C347.748,349.008,344.296,345.551,340.041,345.551z"/>
			<path fill="#59595C" d="M323.822,150.541c0,0.879-0.711,1.59-1.588,1.59s-1.592-0.711-1.592-1.59
				c0-0.873,0.715-1.588,1.592-1.588S323.822,149.668,323.822,150.541z"/>
			<circle fill="#59595C" cx="340.109" cy="143.38" r="1.145"/>
			<path fill="#59595C" d="M348.417,150.416c0,0.491-0.396,0.891-0.887,0.891H332.66c-0.488,0-0.885-0.399-0.885-0.891l0,0
				c0-0.486,0.396-0.889,0.885-0.889h14.871C348.021,149.527,348.417,149.93,348.417,150.416L348.417,150.416z"/>
			<path fill="#59595C" d="M397.257,185.698l-0.526-0.349v-37.971c0-6.351-5.169-11.52-11.516-11.52h-90.29
				c-6.351,0-11.52,5.169-11.52,11.52v17.68c-0.388,0.288-0.96,0.852-0.96,1.675v7.046c0,0,0.06,1.19,0.96,1.703v9.798l-0.628,0.418
				v16.396l0.628,0.392v4.131l-0.628,0.42v16.398l0.628,0.386v132.661c0,6.351,5.169,11.522,11.52,11.522h90.29
				c6.347,0,11.516-5.172,11.516-11.522V202.533l0.526-0.438V185.698z M395.947,356.482c0,5.92-4.814,10.738-10.731,10.738h-90.29
				c-5.917,0-10.731-4.818-10.731-10.738V147.379c0-5.917,4.814-10.73,10.731-10.73h90.29c5.917,0,10.731,4.813,10.731,10.73
				V356.482z"/>
		</g>
		<g>
			<path fill="#808080" d="M389.011,340.813h-97.935c-0.411,0-0.748-0.337-0.748-0.748V164.14c0-0.408,0.337-0.745,0.748-0.745
				h97.935c0.411,0,0.748,0.337,0.748,0.745v175.926C389.759,340.477,389.422,340.813,389.011,340.813"/>
			<path fill="none" stroke="#FFFFFF" stroke-width="0.7957" stroke-miterlimit="10" d="M369.413,210.526
				c0,16.221-13.149,29.368-29.368,29.368c-16.223,0-29.369-13.147-29.369-29.368c0-16.218,13.146-29.367,29.369-29.367
				C356.263,181.159,369.413,194.309,369.413,210.526z"/>
			<path fill="#FFFFFF" d="M364.728,190.946c1.989,0,3.596,1.61,3.596,3.595c0,1.987-1.606,3.596-3.596,3.596
				c-1.984,0-3.596-1.608-3.596-3.596C361.132,192.555,362.744,190.946,364.728,190.946z"/>
			<text transform="matrix(1 0 0 1 331.5449 208.1348)"><tspan x="0" y="0" fill="#FFFFFF" font-family="'TitilliumText22L-Regular'" font-size="9.9464">Hair</tspan><tspan x="-10.418" y="11.446" fill="#FFFFFF" font-family="'TitilliumText22L-Regular'" font-size="9.9464">Schedule</tspan></text>
			<path fill="none" stroke="#FFFFFF" stroke-width="0.4575" stroke-miterlimit="10" d="M380.158,264.3
				c0,3.875-3.144,7.016-7.016,7.016h-66.194c-3.875,0-7.016-3.141-7.016-7.016l0,0c0-3.874,3.141-7.015,7.016-7.015h66.194
				C377.014,257.285,380.158,260.426,380.158,264.3L380.158,264.3z"/>
			<path fill="none" stroke="#FFFFFF" stroke-width="0.4575" stroke-miterlimit="10" d="M380.158,281.382
				c0,3.874-3.144,7.015-7.016,7.015h-66.194c-3.875,0-7.016-3.141-7.016-7.015l0,0c0-3.877,3.141-7.016,7.016-7.016h66.194
				C377.014,274.366,380.158,277.505,380.158,281.382L380.158,281.382z"/>
			<path opacity="0.4" fill="#FFFFFF" d="M380.158,301.514c0,3.875-3.144,7.016-7.016,7.016h-66.194
				c-3.875,0-7.016-3.141-7.016-7.016l0,0c0-3.877,3.141-7.016,7.016-7.016h66.194C377.014,294.498,380.158,297.637,380.158,301.514
				L380.158,301.514z"/>
			<g opacity="0.7">
				
					<text transform="matrix(1 0 0 1 308.5435 321.4258)" fill="#FFFFFF" font-family="'NanumBarunGothicOTF-KSCpc-EUC-H'" font-size="4.2438">아직 가입을 안하셨나요?</text>
			</g>
			<g>
				
					<text transform="matrix(1 0 0 1 349.0005 321.4258)" fill="#FFFFFF" font-family="'NanumBarunGothicOTF-KSCpc-EUC-H'" font-size="4.2438">회원가입하기</text>
			</g>
			
				<text transform="matrix(1 0 0 1 333.5522 303.25)" fill="#FFFFFF" font-family="'NanumBarunGothicOTF-KSCpc-EUC-H'" font-size="4.7743">로그인</text>
			<path fill="#FFFFFF" d="M308.981,281.963c-0.321,0-0.58,0.261-0.58,0.582c0,0.147,0.058,0.281,0.15,0.385
				c-0.002,0.017-0.005,0.032-0.005,0.049c0,0.24,0.194,0.434,0.434,0.434c0.242,0,0.436-0.193,0.436-0.434
				c0-0.017-0.005-0.032-0.005-0.049c0.092-0.104,0.148-0.237,0.148-0.385C309.561,282.224,309.302,281.963,308.981,281.963
				 M309.126,282.794v0.185c0,0.081-0.064,0.146-0.145,0.146c-0.081,0-0.146-0.064-0.146-0.146v-0.185
				c-0.085-0.051-0.143-0.144-0.143-0.249c0-0.162,0.129-0.291,0.289-0.291s0.291,0.129,0.291,0.291
				C309.272,282.65,309.214,282.743,309.126,282.794 M310.721,280.805v-0.87c0-0.96-0.778-1.737-1.74-1.737
				c-0.96,0-1.738,0.777-1.738,1.737v0.87c-0.321,0-0.582,0.259-0.582,0.579v2.61c0,0.318,0.261,0.579,0.582,0.579h3.478
				c0.321,0,0.579-0.261,0.579-0.579v-2.61C311.3,281.063,311.042,280.805,310.721,280.805 M307.532,279.935
				c0-0.801,0.648-1.449,1.449-1.449s1.451,0.648,1.451,1.449v0.87h-2.9V279.935z M311.01,283.994c0,0.159-0.129,0.288-0.289,0.288
				h-3.478c-0.162,0-0.291-0.129-0.291-0.288v-2.61c0-0.159,0.129-0.288,0.291-0.288h3.478c0.159,0,0.289,0.129,0.289,0.288V283.994
				z"/>
			<path fill="#FFFFFF" d="M308.928,261.118c-1.756,0-3.18,1.424-3.18,3.182c0,1.759,1.424,3.185,3.18,3.185
				c1.758,0,3.185-1.426,3.185-3.185C312.113,262.542,310.687,261.118,308.928,261.118 M308.928,267.194
				c-0.72,0-1.375-0.264-1.883-0.702c0.39-0.342,0.577-0.434,1.006-0.623c0.499-0.222,0.669-0.609,0.466-1.07
				c-0.037-0.083-0.079-0.159-0.125-0.24c-0.152-0.277-0.332-0.593-0.332-1.311c0-0.85,0.406-0.858,0.725-0.863
				c0.229-0.005,0.339-0.042,0.429-0.074c0.06-0.022,0.095-0.034,0.159-0.034c0.27,0,0.565,0.266,0.565,1.009
				c0,0.747-0.113,0.932-0.284,1.236c-0.044,0.078-0.095,0.166-0.146,0.272c-0.099,0.201-0.12,0.39-0.06,0.563
				c0.076,0.217,0.277,0.396,0.627,0.562c0.289,0.139,0.591,0.404,0.752,0.559C310.322,266.922,309.657,267.194,308.928,267.194
				 M311.04,266.275c-0.173-0.164-0.505-0.457-0.837-0.613c-0.272-0.13-0.429-0.264-0.48-0.402
				c-0.033-0.097-0.019-0.207,0.046-0.339c0.051-0.1,0.097-0.183,0.139-0.259c0.18-0.32,0.321-0.556,0.321-1.377
				c0-1.235-0.713-1.297-0.854-1.297c-0.115,0-0.187,0.025-0.256,0.051c-0.078,0.027-0.157,0.055-0.337,0.055
				c-0.325,0.007-1.008,0.019-1.008,1.154c0,0.794,0.206,1.158,0.369,1.449c0.042,0.076,0.081,0.147,0.113,0.217
				c0.138,0.313,0.037,0.535-0.318,0.689c-0.448,0.199-0.66,0.303-1.101,0.69c-0.494-0.52-0.798-1.221-0.798-1.994
				c0-1.597,1.294-2.894,2.892-2.894c1.599,0,2.894,1.297,2.894,2.894C311.822,265.066,311.525,265.759,311.04,266.275"/>
		</g>
		<path fill="#59595C" d="M389.757,340.815h-99.429V163.39h99.429V340.815z M290.915,340.223h98.251V163.98h-98.251V340.223z"/>
	</g>
	<g>
		<path fill="#FFFFFF" d="M680.805,356.591c0,6.168-5.004,11.171-11.17,11.171h-90.17c-6.166,0-11.164-5.003-11.164-11.171V147.389
			c0-6.172,4.998-11.17,11.164-11.17h90.17c6.166,0,11.17,4.998,11.17,11.17V356.591z"/>
		<path fill="#59595C" d="M624.078,361.568c-4.58,0-8.305-3.723-8.305-8.306c0-4.576,3.725-8.301,8.305-8.301
			c4.578,0,8.303,3.725,8.303,8.301C632.381,357.846,628.656,361.568,624.078,361.568z M624.078,345.553
			c-4.252,0-7.713,3.457-7.713,7.71c0,4.256,3.461,7.715,7.713,7.715c4.254,0,7.707-3.459,7.707-7.715
			C631.785,349.01,628.332,345.553,624.078,345.553z"/>
		<path fill="#59595C" d="M607.859,150.541c0,0.881-0.711,1.592-1.588,1.592s-1.592-0.711-1.592-1.592
			c0-0.873,0.715-1.584,1.592-1.584S607.859,149.668,607.859,150.541z"/>
		<circle fill="#59595C" cx="624.146" cy="143.382" r="1.145"/>
		<path fill="#59595C" d="M632.455,150.418c0,0.492-0.398,0.893-0.887,0.893h-14.871c-0.488,0-0.887-0.4-0.887-0.893l0,0
			c0-0.486,0.398-0.889,0.887-0.889h14.871C632.057,149.529,632.455,149.932,632.455,150.418L632.455,150.418z"/>
		<path fill="#59595C" d="M681.295,185.7l-0.527-0.346v-37.974c0-6.348-5.168-11.52-11.516-11.52h-90.289
			c-6.352,0-11.521,5.172-11.521,11.52v17.68c-0.387,0.291-0.959,0.852-0.959,1.676v7.047c0,0,0.061,1.188,0.959,1.703v9.799
			l-0.627,0.415v16.398l0.627,0.39v4.131l-0.627,0.423v16.394l0.627,0.388v132.664c0,6.351,5.17,11.52,11.521,11.52h90.289
			c6.348,0,11.516-5.169,11.516-11.52v-153.95l0.527-0.438V185.7z M679.982,356.487c0,5.917-4.812,10.735-10.73,10.735h-90.289
			c-5.918,0-10.73-4.818-10.73-10.735V147.381c0-5.914,4.812-10.732,10.73-10.732h90.289c5.918,0,10.73,4.818,10.73,10.732V356.487z
			"/>
	</g>
	<g>
		<path fill="#FFFFFF" d="M823.004,356.593c0,6.169-5.004,11.171-11.17,11.171h-90.17c-6.166,0-11.166-5.002-11.166-11.171V147.391
			c0-6.172,5-11.17,11.166-11.17h90.17c6.166,0,11.17,4.998,11.17,11.17V356.593z"/>
		<path fill="#59595C" d="M766.275,361.57c-4.578,0-8.303-3.723-8.303-8.305c0-4.576,3.725-8.301,8.303-8.301
			s8.303,3.725,8.303,8.301C774.578,357.848,770.854,361.57,766.275,361.57z M766.275,345.555c-4.25,0-7.713,3.457-7.713,7.711
			c0,4.255,3.463,7.714,7.713,7.714c4.256,0,7.707-3.459,7.707-7.714C773.982,349.012,770.531,345.555,766.275,345.555z"/>
		<path fill="#59595C" d="M750.057,150.543c0,0.881-0.711,1.592-1.588,1.592s-1.592-0.711-1.592-1.592
			c0-0.873,0.715-1.584,1.592-1.584S750.057,149.67,750.057,150.543z"/>
		<path fill="#59595C" d="M767.49,143.384c0,0.632-0.514,1.146-1.145,1.146c-0.633,0-1.145-0.514-1.145-1.146
			c0-0.63,0.512-1.145,1.145-1.145C766.977,142.239,767.49,142.754,767.49,143.384z"/>
		<path fill="#59595C" d="M774.652,150.42c0,0.492-0.396,0.893-0.887,0.893h-14.869c-0.49,0-0.887-0.4-0.887-0.893l0,0
			c0-0.486,0.396-0.889,0.887-0.889h14.869C774.256,149.531,774.652,149.934,774.652,150.42L774.652,150.42z"/>
		<path fill="#59595C" d="M823.492,185.702l-0.525-0.347v-37.973c0-6.348-5.17-11.52-11.516-11.52H721.16
			c-6.35,0-11.52,5.172-11.52,11.52v17.68c-0.389,0.291-0.961,0.852-0.961,1.676v7.047c0,0,0.061,1.188,0.961,1.703v9.799
			l-0.627,0.415v16.398l0.627,0.39v4.131l-0.627,0.422v16.395l0.627,0.388v132.663c0,6.352,5.17,11.521,11.52,11.521h90.291
			c6.346,0,11.516-5.169,11.516-11.521V202.539l0.525-0.438V185.702z M822.182,356.488c0,5.918-4.814,10.736-10.73,10.736H721.16
			c-5.916,0-10.73-4.818-10.73-10.736V147.383c0-5.914,4.814-10.732,10.73-10.732h90.291c5.916,0,10.73,4.818,10.73,10.732V356.488z
			"/>
	</g>
	<g>
		<g>
			<path fill="#FFFFFF" d="M538.602,356.591c0,6.169-5.004,11.169-11.17,11.169h-90.169c-6.166,0-11.164-5-11.164-11.169V147.386
				c0-6.168,4.998-11.169,11.164-11.169h90.169c6.166,0,11.17,5.001,11.17,11.169V356.591z"/>
			<path fill="#59595C" d="M481.875,361.568c-4.58,0-8.304-3.723-8.304-8.305c0-4.578,3.725-8.303,8.304-8.303
				c4.578,0,8.303,3.725,8.303,8.303C490.178,357.846,486.453,361.568,481.875,361.568z M481.875,345.551
				c-4.251,0-7.713,3.457-7.713,7.713c0,4.255,3.462,7.712,7.713,7.712c4.254,0,7.707-3.457,7.707-7.712
				C489.582,349.008,486.129,345.551,481.875,345.551z"/>
			<path fill="#59595C" d="M465.656,150.54c0,0.88-0.711,1.59-1.588,1.59s-1.592-0.71-1.592-1.59c0-0.871,0.715-1.585,1.592-1.585
				S465.656,149.669,465.656,150.54z"/>
			<path fill="#59595C" d="M483.088,143.38c0,0.633-0.512,1.145-1.145,1.145s-1.144-0.512-1.144-1.145
				c0-0.627,0.511-1.145,1.144-1.145S483.088,142.753,483.088,143.38z"/>
			<path fill="#59595C" d="M490.252,150.419c0,0.488-0.398,0.891-0.887,0.891h-14.871c-0.489,0-0.887-0.402-0.887-0.891l0,0
				c0-0.49,0.397-0.892,0.887-0.892h14.871C489.854,149.527,490.252,149.929,490.252,150.419L490.252,150.419z"/>
			<path fill="#59595C" d="M539.092,185.698l-0.527-0.347v-37.97c0-6.352-5.17-11.521-11.516-11.521h-90.29
				c-6.351,0-11.521,5.169-11.521,11.521v17.677c-0.387,0.291-0.959,0.854-0.959,1.675v7.048c0,0,0.06,1.191,0.959,1.703v9.799
				l-0.627,0.415v16.398l0.627,0.392v4.131l-0.627,0.42v16.396l0.627,0.385v132.664c0,6.352,5.17,11.521,11.521,11.521h90.29
				c6.346,0,11.516-5.169,11.516-11.521V202.535l0.527-0.438V185.698z M537.779,356.484c0,5.918-4.812,10.736-10.73,10.736h-90.29
				c-5.917,0-10.73-4.818-10.73-10.736V147.382c0-5.918,4.813-10.733,10.73-10.733h90.29c5.918,0,10.73,4.815,10.73,10.733V356.484z
				"/>
		</g>
		<g>
			<path fill="#EEEEEF" d="M530.842,340.432H432.91c-0.41,0-0.746-0.491-0.746-1.093V164.485c0-0.601,0.336-1.093,0.746-1.093
				h97.932c0.412,0,0.748,0.492,0.748,0.496v174.854C531.59,339.94,531.254,340.432,530.842,340.432"/>
			<g>
				<rect x="432.163" y="218.969" opacity="0.4" fill="#FFFFFF" width="99.427" height="12.752"/>
				
					<line opacity="0.4" fill="none" stroke="#FFFFFF" stroke-width="0.1326" stroke-miterlimit="10" x1="432.163" y1="231.721" x2="531.59" y2="231.721"/>
				<g>
					
						<text transform="matrix(1 0 0 1 473.6289 226.5283)" fill="#808080" font-family="'NanumBarunGothicOTF-KSCpc-EUC-H'" font-size="4.2431">펌(Perm)</text>
				</g>
				<polygon opacity="0.6" fill="#808080" points="497.615,224.542 496.373,226.129 495.131,224.542 				"/>
			</g>
			<g>
				
					<text transform="matrix(1 0 0 1 462.4531 280.042)" fill="#77787B" font-family="'NanumGothicOTF-KSCpc-EUC-H'" font-size="3.1823">해당시간을 눌러 예약하세요.</text>
			</g>
			<path opacity="0.35" fill="#A1A3A6" d="M481.857,319.771c-10.845,0-21.042-4.223-28.709-11.892
				c-7.669-7.669-11.893-17.864-11.893-28.709s4.224-21.041,11.893-28.709c7.668-7.669,17.864-11.892,28.709-11.892
				c10.846,0,21.041,4.223,28.709,11.892c7.668,7.668,11.893,17.864,11.893,28.709s-4.225,21.041-11.893,28.709
				C502.898,315.549,492.701,319.771,481.857,319.771z M481.857,240.571c-10.311,0-20.004,4.015-27.294,11.306
				c-7.29,7.29-11.306,16.983-11.306,27.294s4.016,20.003,11.306,27.294c7.29,7.29,16.983,11.305,27.294,11.305
				c10.311,0,20.004-4.015,27.293-11.305c7.291-7.291,11.307-16.983,11.307-27.294s-4.016-20.004-11.307-27.294
				C501.861,244.586,492.168,240.571,481.857,240.571z"/>
			<g>
				<g>
					
						<text transform="matrix(1 0 0 1 479.6909 246.0312)" fill="#77787B" font-family="'TitilliumText22L-Regular'" font-size="4.2436">12</text>
				</g>
				<g>
					
						<text transform="matrix(1 0 0 1 496.75 250.4658)" fill="#77787B" font-family="'TitilliumText22L-Regular'" font-size="4.2436">13</text>
				</g>
				
					<text transform="matrix(1 0 0 1 509.54 263.0557)" fill="#77787B" font-family="'TitilliumText22L-Regular'" font-size="4.2436">14</text>
				
					<text transform="matrix(1 0 0 1 479.6714 314.7412)" fill="#77787B" font-family="'TitilliumText22L-Regular'" font-size="4.2436">18</text>
				
					<text transform="matrix(1 0 0 1 462.2788 310.0527)" fill="#77787B" font-family="'TitilliumText22L-Regular'" font-size="4.2436">19</text>
				
					<text transform="matrix(1 0 0 1 449.9868 297.4316)" fill="#77787B" font-family="'TitilliumText22L-Regular'" font-size="4.2436">20</text>
				<g>
					
						<text transform="matrix(1 0 0 1 445.3496 280.415)" fill="#77787B" font-family="'TitilliumText22L-Regular'" font-size="4.2436">21</text>
				</g>
				
					<text transform="matrix(1 0 0 1 449.7148 263.1006)" fill="#77787B" font-family="'TitilliumText22L-Regular'" font-size="4.2436">10</text>
				
					<text transform="matrix(1 0 0 1 462.4526 250.4385)" fill="#77787B" font-family="'TitilliumText22L-Regular'" font-size="4.2436">11</text>
				
					<text transform="matrix(1 0 0 1 514.0117 280.3877)" fill="#77787B" font-family="'TitilliumText22L-Regular'" font-size="4.2436">15</text>
				
					<text transform="matrix(1 0 0 1 509.5234 297.4541)" fill="#77787B" font-family="'TitilliumText22L-Regular'" font-size="4.2436">16</text>
				
					<text transform="matrix(1 0 0 1 496.8184 310.0742)" fill="#77787B" font-family="'TitilliumText22L-Regular'" font-size="4.2436">17</text>
			</g>
			<circle fill="#77787B" cx="481.868" cy="239.573" r="0.995"/>
			<circle fill="#77787B" cx="481.868" cy="318.768" r="0.995"/>
			<circle fill="#77787B" cx="501.668" cy="244.878" r="0.994"/>
			<circle fill="#77787B" cx="462.07" cy="313.463" r="0.995"/>
			<circle fill="#77787B" cx="521.467" cy="279.17" r="0.995"/>
			<circle fill="#77787B" cx="442.271" cy="279.17" r="0.995"/>
			<circle fill="#77787B" cx="516.161" cy="298.969" r="0.995"/>
			<circle fill="#77787B" cx="447.576" cy="259.372" r="0.995"/>
			<circle fill="#77787B" cx="501.668" cy="313.463" r="0.995"/>
			<circle fill="#77787B" cx="462.07" cy="244.878" r="0.995"/>
			<circle fill="#77787B" cx="516.161" cy="259.372" r="0.995"/>
			<circle fill="#77787B" cx="447.576" cy="298.969" r="0.995"/>
			<g>
				<g>
					<path fill="#808080" d="M531.59,184.021h-99.426l0.002-19.882c0-0.411,0.336-0.747,0.746-0.747h97.932
						c0.41,0,0.748,0.336,0.748,0.747v19.135L531.59,184.021z"/>
					<path fill-rule="evenodd" clip-rule="evenodd" fill="#F1F4F5" d="M528.545,166.805c0.295,0,0.457,0.239,0.457,0.534
						s-0.162,0.534-0.457,0.534V166.805z"/>
					<path fill="#F1F4F5" d="M527.936,166.043c0.168,0,0.305,0.137,0.305,0.305v1.982c0,0.168-0.137,0.305-0.305,0.305h-5.949
						c-0.168,0-0.305-0.137-0.305-0.305v-1.982c0-0.168,0.137-0.305,0.305-0.305H527.936 M527.936,165.89h-5.949
						c-0.252,0-0.457,0.205-0.457,0.458v1.982c0,0.252,0.205,0.458,0.457,0.458h5.949c0.252,0,0.457-0.206,0.457-0.458v-1.982
						C528.393,166.095,528.188,165.89,527.936,165.89"/>
					<path fill-rule="evenodd" clip-rule="evenodd" fill="#F1F4F5" d="M522.141,166.194h5.643c0.168,0,0.305,0.138,0.305,0.306
						v1.678c0,0.169-0.137,0.305-0.305,0.305h-5.643c-0.17,0-0.307-0.136-0.307-0.305V166.5
						C521.834,166.332,521.971,166.194,522.141,166.194"/>
					<path fill-rule="evenodd" clip-rule="evenodd" fill="#F1F4F5" d="M435.898,166.5c0.463,0,0.838,0.375,0.838,0.839
						c0,0.463-0.375,0.839-0.838,0.839c-0.464,0-0.84-0.376-0.84-0.839C435.058,166.875,435.434,166.5,435.898,166.5"/>
					<path fill-rule="evenodd" clip-rule="evenodd" fill="#F1F4F5" d="M438.033,166.5c0.463,0,0.838,0.375,0.838,0.839
						c0,0.463-0.375,0.839-0.838,0.839s-0.839-0.376-0.839-0.839C437.194,166.875,437.57,166.5,438.033,166.5"/>
					<path fill-rule="evenodd" clip-rule="evenodd" fill="#F1F4F5" d="M440.167,166.5c0.464,0,0.839,0.375,0.839,0.839
						c0,0.463-0.375,0.839-0.839,0.839c-0.463,0-0.839-0.376-0.839-0.839C439.329,166.875,439.705,166.5,440.167,166.5"/>
					<path fill="#F1F4F5" d="M442.302,166.5c-0.463,0-0.838,0.375-0.838,0.839c0,0.463,0.375,0.839,0.838,0.839
						c0.464,0,0.84-0.376,0.84-0.839C443.142,166.875,442.766,166.5,442.302,166.5"/>
					<path fill="#F1F4F5" d="M444.437,166.576c0.422,0,0.764,0.342,0.764,0.763s-0.342,0.763-0.764,0.763
						c-0.42,0-0.762-0.342-0.762-0.763S444.017,166.576,444.437,166.576 M444.437,166.5c-0.463,0-0.838,0.375-0.838,0.839
						c0,0.463,0.375,0.839,0.838,0.839c0.465,0,0.84-0.376,0.84-0.839C445.277,166.875,444.902,166.5,444.437,166.5"/>
				</g>
				
					<text transform="matrix(1 0 0 1 473.3647 179.0674)" fill="#FFFFFF" font-family="'NanumBarunGothicOTF-KSCpc-EUC-H'" font-size="4.7741">예약하기</text>
				<g>
					<rect x="432.165" y="184.021" fill="#808080" width="99.425" height="34.947"/>
					
						<text transform="matrix(1 0 0 1 471.3613 192.1328)" fill="#FFFFFF" font-family="'TitilliumText22L-Regular'" font-size="4.7741">April 2015</text>
					<polygon fill="#FFFFFF" points="438.453,192.24 436.694,190.479 438.453,188.719 438.84,189.106 437.47,190.479 
						438.84,191.852 					"/>
					<polygon fill="#FFFFFF" points="526.227,188.719 527.984,190.479 526.227,192.24 525.838,191.853 527.209,190.479 
						525.838,189.107 					"/>
					
						<text transform="matrix(1 0 0 1 438.2251 202.4258)" fill="#A2A3A5" font-family="'TitilliumText22L-Regular'" font-size="4.2436">S</text>
					
						<text transform="matrix(1 0 0 1 451.9419 202.4258)" fill="#A2A3A5" font-family="'TitilliumText22L-Regular'" font-size="4.2436">M</text>
					
						<text transform="matrix(1 0 0 1 466.5615 202.4258)" fill="#A2A3A5" font-family="'TitilliumText22L-Regular'" font-size="4.2436">T</text>
					
						<text transform="matrix(1 0 0 1 480.2466 202.4258)" fill="#A2A3A5" font-family="'TitilliumText22L-Regular'" font-size="4.2436">W</text>
					
						<text transform="matrix(1 0 0 1 494.875 202.4258)" fill="#A2A3A5" font-family="'TitilliumText22L-Regular'" font-size="4.2436">T</text>
					
						<text transform="matrix(1 0 0 1 509.0566 202.4258)" fill="#A2A3A5" font-family="'TitilliumText22L-Regular'" font-size="4.2436">F</text>
					
						<text transform="matrix(1 0 0 1 523.1641 202.4258)" fill="#A2A3A5" font-family="'TitilliumText22L-Regular'" font-size="4.2436">S</text>
					<circle opacity="0.3" fill="#FFFFFF" cx="467.976" cy="211.893" r="4.153"/>
					<g>
						
							<text transform="matrix(1 0 0 1 508.2539 213.3877)" fill="#FFFFFF" font-family="'TitilliumText22L-Regular'" font-size="4.2436">24</text>
						
							<text transform="matrix(1 0 0 1 522.4023 213.3877)" fill="#FFFFFF" font-family="'TitilliumText22L-Regular'" font-size="4.2436">25</text>
						
							<text transform="matrix(1 0 0 1 479.9595 213.3877)" fill="#FFFFFF" font-family="'TitilliumText22L-Regular'" font-size="4.2436">22</text>
						
							<text transform="matrix(1 0 0 1 494.1074 213.3877)" fill="#FFFFFF" font-family="'TitilliumText22L-Regular'" font-size="4.2436">23</text>
						<g>
							
								<text transform="matrix(1 0 0 1 451.665 213.3877)" fill="#FFFFFF" font-family="'TitilliumText22L-Regular'" font-size="4.2436">20</text>
						</g>
						<g>
							<g>
								
									<text transform="matrix(1 0 0 1 437.5181 213.3877)" fill="#FFFFFF" font-family="'TitilliumText22L-Regular'" font-size="4.2436">19</text>
							</g>
						</g>
						<g>
							
								<text transform="matrix(1 0 0 1 465.8125 213.3887)" fill="#FFFFFF" font-family="'TitilliumText22L-Regular'" font-size="4.2436">21</text>
						</g>
					</g>
				</g>
			</g>
			<g>
				<path opacity="0.85" fill="#FFFFFF" d="M531.59,327.701h-99.408v11.979c0,0.415,0.337,0.751,0.752,0.751h97.921
					c0.416,0,0.734-0.336,0.734-0.751V327.701z"/>
				
					<line fill="none" stroke="#FFFFFF" stroke-width="0.1326" stroke-miterlimit="10" x1="432.164" y1="327.701" x2="531.59" y2="327.701"/>
				<g opacity="0.4">
					<g>
						
							<text transform="matrix(1.0028 0 0 1 462.8052 338.8525)" fill="#323548" font-family="'NanumBarunGothicOTF-KSCpc-EUC-H'" font-size="2.387">단골 디자이너</text>
					</g>
					<path fill="#2B2F38" d="M469.462,329.185c-1.758,0-3.183,1.425-3.183,3.183s1.425,3.183,3.183,3.183s3.183-1.425,3.183-3.183
						S471.22,329.185,469.462,329.185 M469.462,335.261c-1.598,0-2.894-1.295-2.894-2.894c0-1.598,1.296-2.894,2.894-2.894
						s2.893,1.296,2.893,2.894C472.355,333.966,471.06,335.261,469.462,335.261 M469.883,331.784l-0.493-1.307l-0.494,1.307h-1.314
						l1.068,0.831l-0.493,1.479l1.233-0.904l1.232,0.904l-0.493-1.479l1.069-0.831H469.883z M469.855,332.706l0.205,0.617
						l-0.499-0.366l-0.171-0.126l-0.172,0.126l-0.5,0.366l0.207-0.617l0.064-0.194l-0.162-0.125l-0.402-0.313h0.672l0.07-0.188
						l0.223-0.589l0.223,0.589l0.07,0.188h0.672l-0.402,0.313l-0.162,0.125L469.855,332.706z"/>
				</g>
				<g opacity="0.4">
					<g>
						
							<text transform="matrix(1.0028 0 0 1 487.6504 338.8525)" fill="#323548" font-family="'NanumBarunGothicOTF-KSCpc-EUC-H'" font-size="2.387">예약 타임라인</text>
					</g>
					<g>
						<path fill="#2C2F39" d="M494.328,329.185c-1.758,0-3.184,1.425-3.184,3.183s1.426,3.183,3.184,3.183
							c1.756,0,3.182-1.425,3.182-3.183S496.084,329.185,494.328,329.185 M494.328,335.261c-1.6,0-2.895-1.295-2.895-2.894
							c0-1.598,1.295-2.894,2.895-2.894c1.598,0,2.893,1.296,2.893,2.894C497.221,333.966,495.926,335.261,494.328,335.261"/>
						<g>
							<path fill="#2C2F39" d="M494.473,332.367c0,0.08-0.064,0.145-0.145,0.145l0,0c-0.08,0-0.146-0.064-0.146-0.145v-2.17
								c0-0.08,0.066-0.145,0.146-0.145l0,0c0.08,0,0.145,0.064,0.145,0.145V332.367z"/>
							<path fill="#2C2F39" d="M494.328,332.512c-0.08,0-0.146-0.064-0.146-0.145l0,0c0-0.08,0.066-0.145,0.146-0.145h1.301
								c0.08,0,0.145,0.064,0.145,0.145l0,0c0,0.08-0.064,0.145-0.145,0.145H494.328z"/>
						</g>
					</g>
				</g>
				<g opacity="0.4">
					<g>
						
							<text transform="matrix(1.0028 0 0 1 513.6094 338.8525)" fill="#323548" font-family="'NanumBarunGothicOTF-KSCpc-EUC-H'" font-size="2.387">사용자 설정</text>
					</g>
					<path fill="#2B2F38" d="M522.164,331.73l-0.307-0.076c-0.064-0.236-0.158-0.459-0.277-0.665l0.164-0.272
						c0.049-0.097,0.082-0.217,0-0.3l-0.602-0.601c-0.037-0.037-0.082-0.052-0.131-0.052c-0.057,0-0.117,0.022-0.168,0.052
						l-0.273,0.164c-0.207-0.118-0.43-0.212-0.664-0.274l-0.076-0.31c-0.033-0.104-0.096-0.212-0.213-0.212h-0.85
						c-0.117,0-0.186,0.108-0.211,0.212l-0.078,0.31c-0.234,0.062-0.457,0.156-0.662,0.274l-0.273-0.164
						c-0.051-0.029-0.111-0.052-0.17-0.052c-0.047,0-0.094,0.015-0.131,0.052l-0.6,0.601c-0.084,0.083-0.051,0.203,0,0.3
						l0.162,0.272c-0.119,0.206-0.213,0.429-0.275,0.665l-0.307,0.076c-0.104,0.027-0.213,0.096-0.213,0.213v0.849
						c0,0.117,0.109,0.179,0.213,0.212l0.307,0.077c0.062,0.235,0.156,0.459,0.275,0.665l-0.162,0.271
						c-0.055,0.093-0.084,0.217,0,0.3l0.6,0.601c0.037,0.037,0.08,0.051,0.127,0.051c0.057,0,0.119-0.022,0.174-0.051l0.273-0.164
						c0.205,0.119,0.428,0.213,0.662,0.275l0.078,0.309c0.025,0.104,0.094,0.212,0.211,0.212h0.85c0.117,0,0.18-0.108,0.213-0.212
						l0.076-0.309c0.234-0.062,0.457-0.156,0.664-0.275l0.273,0.164c0.053,0.028,0.115,0.051,0.174,0.051
						c0.045,0,0.09-0.014,0.125-0.051l0.602-0.601c0.082-0.083,0.055-0.207,0-0.3l-0.164-0.271c0.119-0.206,0.213-0.43,0.277-0.665
						l0.307-0.077c0.104-0.033,0.211-0.095,0.211-0.212v-0.849C522.375,331.826,522.268,331.758,522.164,331.73 M522.086,332.725
						c-0.002,0-0.002,0.001-0.004,0.001l-0.295,0.074c-0.102,0.025-0.182,0.104-0.209,0.206c-0.057,0.208-0.141,0.408-0.248,0.596
						c-0.053,0.091-0.053,0.203,0.002,0.293l0.16,0.266l-0.506,0.506c-0.002,0-0.002-0.001-0.004-0.002l-0.264-0.158
						c-0.047-0.027-0.098-0.041-0.148-0.041s-0.1,0.013-0.145,0.039c-0.188,0.107-0.387,0.19-0.594,0.246
						c-0.102,0.026-0.182,0.106-0.207,0.209l-0.074,0.299c0,0.001,0,0.002,0,0.003h-0.715l-0.076-0.302
						c-0.025-0.103-0.104-0.183-0.207-0.209c-0.205-0.056-0.406-0.139-0.594-0.246c-0.043-0.026-0.094-0.039-0.143-0.039
						c-0.053,0-0.104,0.014-0.15,0.041l-0.264,0.158c0,0.001-0.002,0.002-0.004,0.002l-0.504-0.506l0.158-0.266
						c0.055-0.09,0.055-0.202,0.002-0.293c-0.107-0.188-0.191-0.388-0.246-0.596c-0.027-0.102-0.107-0.181-0.209-0.206l-0.297-0.074
						c0,0-0.002-0.001-0.004-0.001v-0.715l0.301-0.074c0.102-0.025,0.182-0.104,0.209-0.206c0.055-0.208,0.139-0.408,0.246-0.596
						c0.053-0.091,0.053-0.203-0.002-0.294l-0.156-0.263c-0.002-0.001-0.002-0.002-0.002-0.003l0.506-0.506l0.266,0.16
						c0.047,0.027,0.098,0.042,0.15,0.042c0.049,0,0.1-0.014,0.145-0.039c0.186-0.108,0.387-0.19,0.592-0.246
						c0.104-0.027,0.182-0.107,0.207-0.21l0.076-0.302h0.715c0,0.002,0,0.003,0,0.003l0.074,0.299
						c0.025,0.103,0.105,0.183,0.207,0.21c0.207,0.056,0.406,0.138,0.594,0.246c0.045,0.025,0.094,0.039,0.145,0.039
						s0.102-0.015,0.148-0.042l0.268-0.16l0.506,0.506c0,0-0.002,0.002-0.002,0.003l-0.158,0.263
						c-0.055,0.091-0.055,0.203-0.002,0.294c0.107,0.188,0.191,0.388,0.248,0.596c0.027,0.102,0.107,0.181,0.209,0.206l0.299,0.074
						V332.725z M519.193,330.921c-0.799,0-1.447,0.647-1.447,1.446s0.648,1.447,1.447,1.447s1.445-0.648,1.445-1.447
						S519.992,330.921,519.193,330.921 M519.193,333.525c-0.641,0-1.158-0.519-1.158-1.158c0-0.639,0.518-1.157,1.158-1.157
						c0.639,0,1.156,0.519,1.156,1.157C520.35,333.007,519.832,333.525,519.193,333.525"/>
				</g>
				<g>
					<g>
						
							<text transform="matrix(1.0028 0 0 1 440.3096 338.8525)" fill="#77787B" font-family="'NanumBarunGothicOTF-KSCpc-EUC-H'" font-size="2.387">예약하기</text>
					</g>
					<g>
						<path fill="#77787B" d="M444.597,329.185c-1.758,0-3.183,1.426-3.183,3.183c0,1.758,1.425,3.183,3.183,3.183
							s3.183-1.425,3.183-3.183C447.78,330.61,446.355,329.185,444.597,329.185"/>
						<path fill="#FFFFFF" d="M446.767,332.223c-0.08,0-0.145,0.064-0.145,0.145s0.064,0.145,0.145,0.145s0.145-0.064,0.145-0.145
							S446.847,332.223,446.767,332.223 M443.584,334.121c-0.069-0.039-0.157-0.016-0.198,0.053
							c-0.039,0.07-0.016,0.158,0.054,0.198s0.157,0.017,0.198-0.053C443.677,334.25,443.654,334.161,443.584,334.121
							 M442.646,333.327c-0.07,0.04-0.094,0.128-0.053,0.198c0.039,0.068,0.127,0.093,0.197,0.053
							c0.068-0.04,0.093-0.129,0.053-0.198S442.714,333.287,442.646,333.327 M443.44,330.362c-0.069,0.04-0.093,0.129-0.054,0.198
							c0.041,0.069,0.129,0.093,0.198,0.053s0.093-0.128,0.054-0.197C443.597,330.347,443.509,330.323,443.44,330.362
							 M442.427,332.223c-0.08,0-0.145,0.064-0.145,0.145s0.064,0.145,0.145,0.145s0.145-0.064,0.145-0.145
							S442.507,332.223,442.427,332.223 M445.61,330.613c0.069,0.04,0.157,0.017,0.198-0.053c0.039-0.069,0.016-0.158-0.054-0.198
							c-0.069-0.039-0.157-0.016-0.198,0.054C445.517,330.485,445.541,330.573,445.61,330.613 M442.791,331.157
							c-0.07-0.04-0.158-0.017-0.197,0.053c-0.041,0.069-0.018,0.158,0.053,0.198c0.068,0.039,0.157,0.016,0.197-0.054
							S442.859,331.197,442.791,331.157 M446.548,333.327c-0.068-0.04-0.157-0.017-0.197,0.053s-0.016,0.158,0.053,0.198
							c0.07,0.04,0.158,0.016,0.197-0.053C446.642,333.455,446.619,333.367,446.548,333.327 M444.597,334.393
							c-0.08,0-0.145,0.064-0.145,0.145s0.064,0.145,0.145,0.145s0.145-0.064,0.145-0.145S444.677,334.393,444.597,334.393
							 M446.404,331.157c-0.068,0.04-0.093,0.128-0.053,0.197s0.129,0.093,0.197,0.054c0.07-0.04,0.094-0.129,0.053-0.198
							C446.562,331.141,446.474,331.117,446.404,331.157 M445.61,334.121c-0.069,0.04-0.093,0.129-0.054,0.198
							c0.041,0.069,0.129,0.093,0.198,0.053s0.093-0.128,0.054-0.198C445.767,334.105,445.679,334.082,445.61,334.121"/>
						<g>
							<path fill="#FFFFFF" d="M444.742,332.367c0,0.08-0.064,0.145-0.145,0.145l0,0c-0.08,0-0.145-0.064-0.145-0.145v-2.17
								c0-0.08,0.064-0.145,0.145-0.145l0,0c0.08,0,0.145,0.064,0.145,0.145V332.367z"/>
							<path fill="#FFFFFF" d="M444.597,332.512c-0.08,0-0.145-0.064-0.145-0.145l0,0c0-0.08,0.064-0.145,0.145-0.145h1.301
								c0.08,0,0.146,0.064,0.146,0.145l0,0c0,0.08-0.065,0.145-0.146,0.145H444.597z"/>
						</g>
					</g>
				</g>
			</g>
		</g>
		<path fill="#59595C" d="M531.592,340.816h-99.429V163.393h99.429V340.816z M432.749,340.225H531V163.982h-98.251V340.225z"/>
	</g>
	<g>
		<path fill="#EEEEEF" d="M673.047,340.437h-97.934c-0.41,0-0.746-0.492-0.746-1.093V164.487c0-0.601,0.336-1.093,0.746-1.093
			h97.934c0.41,0,0.746,0.492,0.746,1.093v174.856C673.793,339.944,673.457,340.437,673.047,340.437"/>
		<g>
			<defs>
				<rect id="SVGID_1_" x="574.365" y="231.184" width="99.428" height="96.521"/>
			</defs>
			<clipPath id="SVGID_2_">
				<use xlink:href="#SVGID_1_"  overflow="visible"/>
			</clipPath>
			<g clip-path="url(#SVGID_2_)">
				<g>
					
						<text transform="matrix(1 0 0 1 619.6807 303.1953)" fill="#77787B" font-family="'TitilliumText22L-Regular'" font-size="4.7742">15:00</text>
				</g>
				<g>
					
						<text transform="matrix(1 0 0 1 614.0811 331.9844)" fill="#323548" font-family="'TitilliumText22L-Regular'" font-size="3.9785">16:00</text>
				</g>
				<path opacity="0.35" fill="#A1A3A6" d="M572.779,366.69c-17.285,0-33.535-6.731-45.76-18.954
					c-12.223-12.223-18.953-28.474-18.953-45.76s6.73-33.537,18.953-45.761c12.225-12.223,28.475-18.954,45.76-18.954
					c17.287,0,33.537,6.731,45.76,18.954c12.223,12.224,18.955,28.475,18.955,45.761s-6.732,33.537-18.955,45.76
					S590.066,366.69,572.779,366.69z M572.779,240.233c-16.492,0-31.996,6.423-43.658,18.084
					c-11.66,11.662-18.084,27.167-18.084,43.659c0,16.491,6.424,31.997,18.084,43.658c11.662,11.662,27.166,18.084,43.658,18.084
					c16.494,0,31.998-6.422,43.658-18.084c11.662-11.661,18.084-27.166,18.084-43.658s-6.422-31.997-18.084-43.659
					C604.777,246.656,589.271,240.233,572.779,240.233z"/>
				<g>
					
						<text transform="matrix(1 0 0 1 591.2529 255.585)" fill="#77787B" font-family="'TitilliumText22L-Regular'" font-size="4.7742">13:00</text>
				</g>
				<g opacity="0.5">
					
						<text transform="matrix(1 0 0 1 604.8457 263.3604)" fill="#77787B" font-family="'TitilliumText22L-Regular'" font-size="3.1828">13:30</text>
				</g>
				<g opacity="0.5">
					
						<text transform="matrix(1 0 0 1 619.2402 317.5117)" fill="#77787B" font-family="'TitilliumText22L-Regular'" font-size="3.1828">15:30</text>
				</g>
				<g opacity="0.5">
					
						<text transform="matrix(1 0 0 1 619.418 288.3965)" fill="#77787B" font-family="'TitilliumText22L-Regular'" font-size="3.1828">14:30</text>
				</g>
				<g>
					
						<text transform="matrix(1 0 0 1 611.6211 275.1406)" fill="#77787B" font-family="'TitilliumText22L-Regular'" font-size="4.7742">14:00</text>
				</g>
				<g>
					<circle fill="#77787B" cx="633.851" cy="285.521" r="0.823"/>
					<circle fill="#77787B" cx="633.836" cy="318.441" r="0.822"/>
					<circle fill="#FFFFFF" cx="627.468" cy="333.78" r="1.46"/>
					<circle fill="#77787B" cx="636.007" cy="301.977" r="1.46"/>
					<g>
						<circle fill="#77787B" cx="633.142" cy="282.614" r="0.309"/>
						<circle fill="#77787B" cx="632.27" cy="280.082" r="0.308"/>
						<circle fill="#77787B" cx="631.299" cy="277.593" r="0.308"/>
						<circle fill="#77787B" cx="630.283" cy="275.378" r="0.308"/>
						<circle fill="#77787B" cx="629.102" cy="272.961" r="0.308"/>
					</g>
					<g>
						<circle fill="#77787B" cx="636.033" cy="298.78" r="0.309"/>
						<circle fill="#77787B" cx="635.865" cy="296.107" r="0.309"/>
						<circle fill="#77787B" cx="635.591" cy="293.45" r="0.308"/>
						<circle fill="#77787B" cx="635.199" cy="291.045" r="0.309"/>
						<circle fill="#77787B" cx="634.701" cy="288.401" r="0.309"/>
					</g>
					<g>
						<circle fill="#FFFFFF" cx="628.977" cy="331.222" r="0.308"/>
						<circle fill="#FFFFFF" cx="630.169" cy="328.824" r="0.309"/>
						<circle fill="#77787B" cx="631.26" cy="326.385" r="0.308"/>
						<circle fill="#77787B" cx="632.124" cy="324.107" r="0.309"/>
						<circle fill="#77787B" cx="633.015" cy="321.568" r="0.309"/>
					</g>
					<g>
						<circle fill="#77787B" cx="634.634" cy="315.512" r="0.309"/>
						<circle fill="#77787B" cx="635.171" cy="312.888" r="0.309"/>
						<circle fill="#77787B" cx="635.6" cy="310.251" r="0.308"/>
						<circle fill="#77787B" cx="635.851" cy="307.827" r="0.309"/>
						<circle fill="#77787B" cx="636.062" cy="305.145" r="0.309"/>
					</g>
					<g>
						<circle fill="#FFFFFF" cx="621.241" cy="342.795" r="0.308"/>
						<circle fill="#FFFFFF" cx="622.921" cy="340.718" r="0.309"/>
						<circle fill="#FFFFFF" cx="624.341" cy="338.738" r="0.309"/>
						<circle fill="#FFFFFF" cx="625.854" cy="336.513" r="0.308"/>
					</g>
					<circle fill="#77787B" cx="604.149" cy="247.05" r="1.46"/>
					<circle fill="#77787B" cx="588.806" cy="240.783" r="0.823"/>
					<circle fill="#77787B" cx="617.315" cy="257.077" r="0.823"/>
					<circle fill="#77787B" cx="627.646" cy="270.495" r="1.461"/>
					<g>
						<circle fill="#77787B" cx="615.112" cy="254.897" r="0.308"/>
						<circle fill="#77787B" cx="613.082" cy="253.151" r="0.309"/>
						<circle fill="#77787B" cx="610.987" cy="251.492" r="0.308"/>
						<circle fill="#77787B" cx="608.993" cy="250.093" r="0.308"/>
						<circle fill="#77787B" cx="606.753" cy="248.604" r="0.308"/>
					</g>
					<g>
						<circle fill="#77787B" cx="601.322" cy="245.553" r="0.308"/>
						<circle fill="#77787B" cx="598.911" cy="244.388" r="0.309"/>
						<circle fill="#77787B" cx="596.46" cy="243.324" r="0.309"/>
						<circle fill="#77787B" cx="594.172" cy="242.486" r="0.308"/>
						<circle fill="#77787B" cx="591.623" cy="241.624" r="0.308"/>
					</g>
					<g>
						<circle fill="#77787B" cx="585.909" cy="240.18" r="0.308"/>
						<circle fill="#77787B" cx="583.279" cy="239.673" r="0.308"/>
						<circle fill="#77787B" cx="580.637" cy="239.274" r="0.308"/>
						<circle fill="#77787B" cx="578.21" cy="239.051" r="0.308"/>
						<circle fill="#77787B" cx="575.526" cy="238.871" r="0.308"/>
					</g>
					<g>
						<circle fill="#77787B" cx="624.456" cy="265.29" r="0.309"/>
						<circle fill="#77787B" cx="625.918" cy="267.484" r="0.308"/>
						<circle fill="#77787B" cx="622.855" cy="263.18" r="0.308"/>
						<circle fill="#77787B" cx="621.312" cy="261.249" r="0.308"/>
						<circle fill="#77787B" cx="619.517" cy="259.246" r="0.309"/>
					</g>
				</g>
				<g opacity="0.5">
					
						<text transform="matrix(1 0 0 1 580.126 249.0986)" fill="#77787B" font-family="'TitilliumText22L-Regular'" font-size="3.1828">12:30</text>
				</g>
			</g>
		</g>
		<g>
			<rect x="574.367" y="218.972" opacity="0.4" fill="#FFFFFF" width="99.43" height="12.752"/>
			
				<line opacity="0.4" fill="none" stroke="#FFFFFF" stroke-width="0.1326" stroke-miterlimit="10" x1="574.367" y1="231.724" x2="673.795" y2="231.724"/>
			<g>
				
					<text transform="matrix(1 0 0 1 615.835 226.5312)" fill="#808080" font-family="'NanumBarunGothicOTF-KSCpc-EUC-H'" font-size="4.2431">펌(Perm)</text>
			</g>
			<polygon fill="#808080" points="639.82,224.545 638.578,226.133 637.336,224.545 			"/>
		</g>
		<g>
			<path opacity="0.85" fill="#FFFFFF" d="M673.793,327.705h-99.408v11.979c0,0.415,0.338,0.752,0.752,0.752h97.924
				c0.414,0,0.732-0.337,0.732-0.752V327.705z"/>
			
				<line fill="none" stroke="#FFFFFF" stroke-width="0.1326" stroke-miterlimit="10" x1="574.367" y1="327.705" x2="673.793" y2="327.705"/>
			<g opacity="0.4">
				<g>
					
						<text transform="matrix(1.0028 0 0 1 605.0078 338.8564)" fill="#323548" font-family="'NanumBarunGothicOTF-KSCpc-EUC-H'" font-size="2.3871">단골 디자이너</text>
				</g>
				<path fill="#2B2F38" d="M611.666,329.188c-1.758,0-3.184,1.426-3.184,3.184s1.426,3.183,3.184,3.183s3.184-1.425,3.184-3.183
					S613.424,329.188,611.666,329.188 M611.666,335.265c-1.598,0-2.893-1.295-2.893-2.893c0-1.599,1.295-2.894,2.893-2.894
					s2.893,1.295,2.893,2.894C614.559,333.97,613.264,335.265,611.666,335.265 M612.088,331.788l-0.494-1.307l-0.494,1.307h-1.314
					l1.068,0.831l-0.492,1.479l1.232-0.904l1.232,0.904l-0.492-1.479l1.068-0.831H612.088z M612.059,332.711l0.205,0.616
					l-0.498-0.366l-0.172-0.125l-0.172,0.125l-0.5,0.366l0.207-0.616l0.064-0.194l-0.162-0.126l-0.402-0.313h0.672l0.07-0.187
					l0.223-0.589l0.223,0.589l0.07,0.187h0.672l-0.402,0.313l-0.162,0.126L612.059,332.711z"/>
			</g>
			<g opacity="0.4">
				<g>
					
						<text transform="matrix(1.0028 0 0 1 629.8535 338.8564)" fill="#323548" font-family="'NanumBarunGothicOTF-KSCpc-EUC-H'" font-size="2.3871">예약 타임라인</text>
				</g>
				<g>
					<path fill="#2C2F39" d="M636.531,329.189c-1.758,0-3.184,1.425-3.184,3.183s1.426,3.183,3.184,3.183s3.182-1.425,3.182-3.183
						S638.289,329.189,636.531,329.189 M636.531,335.265c-1.598,0-2.895-1.295-2.895-2.893c0-1.599,1.297-2.894,2.895-2.894
						s2.893,1.295,2.893,2.894C639.424,333.97,638.129,335.265,636.531,335.265"/>
					<g>
						<path fill="#2C2F39" d="M636.676,332.372c0,0.08-0.064,0.145-0.145,0.145l0,0c-0.08,0-0.145-0.064-0.145-0.145v-2.17
							c0-0.08,0.064-0.146,0.145-0.146l0,0c0.08,0,0.145,0.065,0.145,0.146V332.372z"/>
						<path fill="#2C2F39" d="M636.531,332.517c-0.08,0-0.145-0.064-0.145-0.145l0,0c0-0.08,0.064-0.145,0.145-0.145h1.301
							c0.08,0,0.145,0.064,0.145,0.145l0,0c0,0.08-0.064,0.145-0.145,0.145H636.531z"/>
					</g>
				</g>
			</g>
			<g opacity="0.4">
				<g>
					
						<text transform="matrix(1.0028 0 0 1 655.8145 338.8564)" fill="#323548" font-family="'NanumBarunGothicOTF-KSCpc-EUC-H'" font-size="2.3871">사용자 설정</text>
				</g>
				<path fill="#2B2F38" d="M664.367,331.735l-0.307-0.077c-0.062-0.235-0.156-0.459-0.275-0.665l0.162-0.271
					c0.051-0.098,0.082-0.218,0-0.301l-0.6-0.6c-0.037-0.037-0.084-0.053-0.131-0.053c-0.059,0-0.119,0.022-0.17,0.053l-0.273,0.164
					c-0.205-0.119-0.428-0.212-0.662-0.275l-0.078-0.309c-0.033-0.104-0.096-0.213-0.213-0.213h-0.848
					c-0.117,0-0.186,0.108-0.213,0.213l-0.076,0.309c-0.236,0.063-0.459,0.156-0.664,0.275l-0.273-0.164
					c-0.051-0.03-0.111-0.053-0.168-0.053c-0.049,0-0.094,0.016-0.131,0.053l-0.602,0.6c-0.082,0.083-0.049,0.203,0,0.301
					l0.164,0.271c-0.121,0.206-0.215,0.43-0.277,0.665l-0.307,0.077c-0.104,0.026-0.211,0.095-0.211,0.212v0.849
					c0,0.117,0.107,0.18,0.211,0.213l0.307,0.076c0.062,0.236,0.156,0.459,0.277,0.666l-0.164,0.271c-0.055,0.092-0.082,0.217,0,0.3
					l0.602,0.601c0.035,0.036,0.08,0.05,0.125,0.05c0.059,0,0.119-0.022,0.174-0.05l0.273-0.164
					c0.205,0.119,0.428,0.212,0.664,0.274l0.076,0.31c0.027,0.104,0.096,0.212,0.213,0.212h0.848c0.117,0,0.18-0.108,0.213-0.212
					l0.078-0.31c0.234-0.062,0.457-0.155,0.662-0.274l0.273,0.164c0.055,0.027,0.115,0.05,0.174,0.05c0.047,0,0.09-0.014,0.127-0.05
					l0.6-0.601c0.082-0.083,0.055-0.208,0-0.3l-0.162-0.271c0.119-0.207,0.213-0.43,0.275-0.666l0.307-0.076
					c0.104-0.033,0.213-0.096,0.213-0.213v-0.849C664.58,331.83,664.471,331.762,664.367,331.735 M664.291,332.729
					c-0.002,0-0.004,0.001-0.004,0.001l-0.297,0.074c-0.102,0.025-0.182,0.104-0.209,0.205c-0.055,0.208-0.139,0.408-0.246,0.596
					c-0.055,0.091-0.053,0.204,0.002,0.294l0.158,0.266l-0.506,0.506c0-0.001-0.002-0.002-0.002-0.002l-0.266-0.158
					c-0.045-0.027-0.096-0.042-0.148-0.042c-0.049,0-0.1,0.014-0.145,0.039c-0.188,0.108-0.387,0.19-0.594,0.246
					c-0.102,0.027-0.18,0.107-0.205,0.21l-0.074,0.298c0,0.001-0.002,0.002-0.002,0.004h-0.715l-0.076-0.303
					c-0.025-0.102-0.104-0.182-0.205-0.209c-0.207-0.056-0.406-0.138-0.594-0.246c-0.045-0.025-0.094-0.039-0.145-0.039
					s-0.104,0.015-0.148,0.042l-0.264,0.158c-0.002,0-0.002,0.001-0.004,0.002l-0.506-0.506l0.16-0.266
					c0.053-0.09,0.055-0.203,0.002-0.294c-0.109-0.188-0.191-0.388-0.248-0.596c-0.027-0.101-0.107-0.18-0.209-0.205l-0.297-0.074
					l-0.002-0.001v-0.715l0.299-0.075c0.102-0.025,0.182-0.104,0.209-0.206c0.057-0.208,0.139-0.408,0.248-0.595
					c0.053-0.092,0.051-0.204-0.002-0.294l-0.158-0.264l-0.002-0.003l0.506-0.505l0.268,0.16c0.045,0.027,0.098,0.041,0.148,0.041
					s0.1-0.013,0.145-0.039c0.188-0.107,0.387-0.19,0.594-0.246c0.102-0.026,0.18-0.107,0.205-0.209l0.076-0.302h0.715l0.002,0.003
					l0.074,0.299c0.025,0.102,0.104,0.183,0.205,0.209c0.207,0.056,0.406,0.139,0.594,0.246c0.045,0.026,0.096,0.039,0.145,0.039
					c0.053,0,0.104-0.014,0.148-0.041l0.268-0.16l0.506,0.505c0,0,0,0.003-0.002,0.004l-0.156,0.262
					c-0.055,0.091-0.057,0.203-0.002,0.295c0.107,0.187,0.191,0.387,0.246,0.595c0.027,0.102,0.107,0.181,0.209,0.206l0.301,0.075
					V332.729z M661.396,330.925c-0.799,0-1.447,0.648-1.447,1.447s0.648,1.446,1.447,1.446s1.447-0.647,1.447-1.446
					S662.195,330.925,661.396,330.925 M661.396,333.529c-0.639,0-1.156-0.519-1.156-1.157c0-0.64,0.518-1.158,1.156-1.158
					s1.158,0.519,1.158,1.158C662.555,333.011,662.035,333.529,661.396,333.529"/>
			</g>
			<g>
				<g>
					
						<text transform="matrix(1.0028 0 0 1 582.5117 338.8564)" fill="#77787B" font-family="'NanumBarunGothicOTF-KSCpc-EUC-H'" font-size="2.3871">예약하기</text>
				</g>
				<g>
					<path fill="#77787B" d="M586.801,329.189c-1.758,0-3.184,1.425-3.184,3.183s1.426,3.183,3.184,3.183s3.182-1.425,3.182-3.183
						S588.559,329.189,586.801,329.189"/>
					<path fill="#FFFFFF" d="M588.971,332.228c-0.08,0-0.145,0.064-0.145,0.145s0.064,0.145,0.145,0.145s0.145-0.064,0.145-0.145
						S589.051,332.228,588.971,332.228 M585.787,334.126c-0.068-0.04-0.156-0.017-0.197,0.053c-0.039,0.069-0.016,0.158,0.053,0.197
						c0.07,0.04,0.158,0.017,0.197-0.053C585.881,334.254,585.857,334.166,585.787,334.126 M584.85,333.331
						c-0.07,0.04-0.094,0.129-0.055,0.198c0.041,0.069,0.129,0.093,0.199,0.053c0.068-0.04,0.092-0.128,0.053-0.197
						C585.006,333.315,584.918,333.292,584.85,333.331 M585.643,330.367c-0.068,0.04-0.092,0.128-0.053,0.197
						c0.041,0.069,0.129,0.093,0.197,0.054c0.07-0.041,0.094-0.129,0.053-0.197C585.801,330.351,585.713,330.327,585.643,330.367
						 M584.631,332.228c-0.08,0-0.145,0.064-0.145,0.145s0.064,0.145,0.145,0.145s0.145-0.064,0.145-0.145
						S584.711,332.228,584.631,332.228 M587.812,330.618c0.07,0.039,0.158,0.016,0.199-0.054c0.039-0.069,0.016-0.157-0.055-0.197
						c-0.068-0.04-0.156-0.017-0.197,0.054C587.721,330.489,587.744,330.577,587.812,330.618 M584.994,331.161
						c-0.07-0.04-0.158-0.016-0.199,0.053c-0.039,0.07-0.016,0.158,0.055,0.198c0.068,0.04,0.156,0.017,0.197-0.053
						C585.086,331.29,585.062,331.201,584.994,331.161 M588.752,333.331c-0.068-0.039-0.158-0.016-0.197,0.054
						c-0.041,0.069-0.016,0.157,0.053,0.197s0.158,0.017,0.197-0.053C588.846,333.46,588.822,333.371,588.752,333.331
						 M586.801,334.397c-0.08,0-0.145,0.064-0.145,0.145s0.064,0.145,0.145,0.145s0.145-0.064,0.145-0.145
						S586.881,334.397,586.801,334.397 M588.607,331.161c-0.068,0.04-0.094,0.129-0.053,0.198c0.039,0.069,0.129,0.093,0.197,0.053
						c0.07-0.04,0.094-0.128,0.053-0.198C588.766,331.146,588.676,331.121,588.607,331.161 M587.812,334.126
						c-0.068,0.04-0.092,0.128-0.053,0.197c0.041,0.069,0.129,0.093,0.197,0.053c0.07-0.039,0.094-0.128,0.055-0.197
						C587.971,334.109,587.883,334.086,587.812,334.126"/>
					<g>
						<path fill="#FFFFFF" d="M586.945,332.372c0,0.08-0.064,0.145-0.145,0.145l0,0c-0.08,0-0.145-0.064-0.145-0.145v-2.17
							c0-0.08,0.064-0.146,0.145-0.146l0,0c0.08,0,0.145,0.065,0.145,0.146V332.372z"/>
						<path fill="#FFFFFF" d="M586.801,332.517c-0.08,0-0.145-0.064-0.145-0.145l0,0c0-0.08,0.064-0.145,0.145-0.145h1.301
							c0.08,0,0.145,0.064,0.145,0.145l0,0c0,0.08-0.064,0.145-0.145,0.145H586.801z"/>
					</g>
				</g>
			</g>
		</g>
		<g>
			<g>
				<path fill="#808080" d="M673.795,184.023h-99.428v-19.882c0-0.411,0.338-0.747,0.748-0.747h97.934
					c0.41,0,0.746,0.336,0.746,0.747v19.135V184.023z"/>
				<path fill-rule="evenodd" clip-rule="evenodd" fill="#F1F4F5" d="M670.75,166.807c0.295,0,0.457,0.239,0.457,0.534
					s-0.162,0.533-0.457,0.533V166.807z"/>
				<path fill="#F1F4F5" d="M670.139,166.044c0.17,0,0.305,0.138,0.305,0.306v1.982c0,0.168-0.135,0.305-0.305,0.305h-5.947
					c-0.168,0-0.305-0.137-0.305-0.305v-1.982c0-0.168,0.137-0.306,0.305-0.306H670.139 M670.139,165.892h-5.947
					c-0.252,0-0.457,0.205-0.457,0.458v1.982c0,0.252,0.205,0.458,0.457,0.458h5.947c0.254,0,0.459-0.206,0.459-0.458v-1.982
					C670.598,166.097,670.393,165.892,670.139,165.892"/>
				<path fill-rule="evenodd" clip-rule="evenodd" fill="#F1F4F5" d="M664.344,166.196h5.643c0.17,0,0.305,0.137,0.305,0.306v1.678
					c0,0.169-0.135,0.305-0.305,0.305h-5.643c-0.168,0-0.305-0.136-0.305-0.305v-1.678
					C664.039,166.333,664.176,166.196,664.344,166.196"/>
				<path fill-rule="evenodd" clip-rule="evenodd" fill="#F1F4F5" d="M578.1,166.502c0.465,0,0.84,0.375,0.84,0.839
					c0,0.463-0.375,0.839-0.84,0.839c-0.463,0-0.838-0.376-0.838-0.839C577.262,166.877,577.637,166.502,578.1,166.502"/>
				<path fill-rule="evenodd" clip-rule="evenodd" fill="#F1F4F5" d="M580.236,166.502c0.463,0,0.838,0.375,0.838,0.839
					c0,0.463-0.375,0.839-0.838,0.839c-0.465,0-0.84-0.376-0.84-0.839C579.396,166.877,579.771,166.502,580.236,166.502"/>
				<path fill-rule="evenodd" clip-rule="evenodd" fill="#F1F4F5" d="M582.371,166.502c0.463,0,0.838,0.375,0.838,0.839
					c0,0.463-0.375,0.839-0.838,0.839s-0.84-0.376-0.84-0.839C581.531,166.877,581.908,166.502,582.371,166.502"/>
				<path fill="#F1F4F5" d="M584.506,166.502c-0.463,0-0.838,0.375-0.838,0.839c0,0.463,0.375,0.839,0.838,0.839
					s0.84-0.376,0.84-0.839C585.346,166.877,584.969,166.502,584.506,166.502"/>
				<path fill="#F1F4F5" d="M586.641,166.578c0.422,0,0.764,0.342,0.764,0.763c0,0.42-0.342,0.762-0.764,0.762
					c-0.42,0-0.762-0.342-0.762-0.762C585.879,166.92,586.221,166.578,586.641,166.578 M586.641,166.502
					c-0.463,0-0.838,0.375-0.838,0.839c0,0.463,0.375,0.839,0.838,0.839c0.465,0,0.84-0.376,0.84-0.839
					C587.48,166.877,587.105,166.502,586.641,166.502"/>
			</g>
			
				<text transform="matrix(1 0 0 1 615.5684 179.0684)" fill="#FFFFFF" font-family="'NanumBarunGothicOTF-KSCpc-EUC-H'" font-size="4.7742">예약하기</text>
			<g>
				<rect x="574.367" y="184.023" fill="#808080" width="99.428" height="34.948"/>
				
					<text transform="matrix(1 0 0 1 613.5645 192.1357)" fill="#FFFFFF" font-family="'TitilliumText22L-Regular'" font-size="4.7742">April 2015</text>
				<polygon fill="#FFFFFF" points="580.656,192.242 578.896,190.481 580.656,188.722 581.043,189.109 579.674,190.481 
					581.043,191.854 				"/>
				<polygon fill="#FFFFFF" points="668.432,188.722 670.189,190.481 668.432,192.242 668.043,191.854 669.412,190.481 
					668.043,189.11 				"/>
				
					<text transform="matrix(1 0 0 1 580.4277 202.4277)" fill="#A2A3A5" font-family="'TitilliumText22L-Regular'" font-size="4.2437">S</text>
				
					<text transform="matrix(1 0 0 1 594.1445 202.4277)" fill="#A2A3A5" font-family="'TitilliumText22L-Regular'" font-size="4.2437">M</text>
				
					<text transform="matrix(1 0 0 1 608.7656 202.4277)" fill="#A2A3A5" font-family="'TitilliumText22L-Regular'" font-size="4.2437">T</text>
				
					<text transform="matrix(1 0 0 1 622.4512 202.4277)" fill="#A2A3A5" font-family="'TitilliumText22L-Regular'" font-size="4.2437">W</text>
				
					<text transform="matrix(1 0 0 1 637.0781 202.4277)" fill="#A2A3A5" font-family="'TitilliumText22L-Regular'" font-size="4.2437">T</text>
				
					<text transform="matrix(1 0 0 1 651.2607 202.4277)" fill="#A2A3A5" font-family="'TitilliumText22L-Regular'" font-size="4.2437">F</text>
				
					<text transform="matrix(1 0 0 1 665.3691 202.4277)" fill="#A2A3A5" font-family="'TitilliumText22L-Regular'" font-size="4.2437">S</text>
				<circle opacity="0.3" fill="#FFFFFF" cx="610.181" cy="211.896" r="4.153"/>
				<g>
					
						<text transform="matrix(1 0 0 1 650.459 213.3896)" fill="#FFFFFF" font-family="'TitilliumText22L-Regular'" font-size="4.2437">24</text>
					
						<text transform="matrix(1 0 0 1 664.6064 213.3896)" fill="#FFFFFF" font-family="'TitilliumText22L-Regular'" font-size="4.2437">25</text>
					
						<text transform="matrix(1 0 0 1 622.1631 213.3896)" fill="#FFFFFF" font-family="'TitilliumText22L-Regular'" font-size="4.2437">22</text>
					
						<text transform="matrix(1 0 0 1 636.3125 213.3896)" fill="#FFFFFF" font-family="'TitilliumText22L-Regular'" font-size="4.2437">23</text>
					<g>
						
							<text transform="matrix(1 0 0 1 593.8682 213.3906)" fill="#FFFFFF" font-family="'TitilliumText22L-Regular'" font-size="4.2437">20</text>
					</g>
					<g>
						<g>
							
								<text transform="matrix(1 0 0 1 579.7207 213.3906)" fill="#FFFFFF" font-family="'TitilliumText22L-Regular'" font-size="4.2437">19</text>
						</g>
					</g>
					<g>
						
							<text transform="matrix(1 0 0 1 608.0156 213.3906)" fill="#FFFFFF" font-family="'TitilliumText22L-Regular'" font-size="4.2437">21</text>
					</g>
				</g>
			</g>
		</g>
	</g>
	<path fill="#59595C" d="M673.795,340.817h-99.43V163.395h99.43V340.817z M574.951,340.225h98.252v-176.24h-98.252V340.225z"/>
	<g>
		<path fill="#EEEEEF" d="M815.242,340.436h-97.932c-0.41,0-0.746-0.492-0.746-1.093V164.488c0-0.601,0.336-1.092,0.746-1.092
			h97.932c0.412,0,0.748,0.491,0.748,1.092v174.854C815.99,339.943,815.654,340.436,815.242,340.436"/>
		<path opacity="0.35" fill="#A1A3A6" d="M766.258,319.775c-10.846,0-21.041-4.223-28.709-11.891
			c-7.67-7.669-11.893-17.865-11.893-28.71s4.223-21.041,11.893-28.709c7.668-7.669,17.863-11.893,28.709-11.893
			c10.844,0,21.041,4.224,28.709,11.893c7.668,7.668,11.893,17.864,11.893,28.709s-4.225,21.041-11.893,28.71
			C787.299,315.553,777.102,319.775,766.258,319.775z M766.258,240.575c-10.311,0-20.004,4.015-27.295,11.306
			c-7.289,7.29-11.305,16.983-11.305,27.294s4.016,20.004,11.305,27.294c7.291,7.29,16.984,11.306,27.295,11.306
			s20.004-4.016,27.293-11.306c7.291-7.291,11.307-16.983,11.307-27.294s-4.016-20.004-11.307-27.294
			C786.262,244.59,776.568,240.575,766.258,240.575z"/>
		<g>
			<g>
				
					<text transform="matrix(1 0 0 1 764.0918 246.0352)" fill="#77787B" font-family="'TitilliumText22L-Regular'" font-size="4.2437">12</text>
			</g>
			<g>
				
					<text transform="matrix(1 0 0 1 781.1523 250.4707)" fill="#77787B" font-family="'TitilliumText22L-Regular'" font-size="4.2437">13</text>
			</g>
			
				<text transform="matrix(1 0 0 1 793.9414 263.0605)" fill="#77787B" font-family="'TitilliumText22L-Regular'" font-size="4.2437">14</text>
			<g>
				
					<text transform="matrix(1 0 0 1 764.0723 314.7461)" fill="#77787B" font-family="'TitilliumText22L-Regular'" font-size="4.2437">18</text>
			</g>
			
				<text transform="matrix(1 0 0 1 746.6797 310.0566)" fill="#77787B" font-family="'TitilliumText22L-Regular'" font-size="4.2437">19</text>
			
				<text transform="matrix(1 0 0 1 734.3877 297.4365)" fill="#77787B" font-family="'TitilliumText22L-Regular'" font-size="4.2437">20</text>
			<g>
				
					<text transform="matrix(1 0 0 1 729.75 280.4189)" fill="#77787B" font-family="'TitilliumText22L-Regular'" font-size="4.2437">21</text>
			</g>
			<g>
				
					<text transform="matrix(1 0 0 1 734.1152 263.1055)" fill="#77787B" font-family="'TitilliumText22L-Regular'" font-size="4.2437">10</text>
			</g>
			<g>
				
					<text transform="matrix(1 0 0 1 746.8535 250.4424)" fill="#77787B" font-family="'TitilliumText22L-Regular'" font-size="4.2437">11</text>
			</g>
			
				<text transform="matrix(1 0 0 1 798.4121 280.3926)" fill="#77787B" font-family="'TitilliumText22L-Regular'" font-size="4.2437">15</text>
			
				<text transform="matrix(1 0 0 1 793.9248 297.459)" fill="#77787B" font-family="'TitilliumText22L-Regular'" font-size="4.2437">16</text>
			
				<text transform="matrix(1 0 0 1 781.2188 310.0791)" fill="#77787B" font-family="'TitilliumText22L-Regular'" font-size="4.2437">17</text>
		</g>
		<circle fill="#FFFFFF" cx="805.867" cy="279.175" r="0.995"/>
		<circle fill="#FFFFFF" cx="800.562" cy="298.974" r="0.995"/>
		<circle fill="#77787B" cx="786.068" cy="313.467" r="0.995"/>
		<circle fill="#2B2F38" cx="800.562" cy="259.375" r="0.995"/>
		<g>
			<defs>
				<path id="SVGID_3_" d="M766.258,319.775c-10.846,0-21.041-4.223-28.709-11.891c-7.67-7.669-11.893-17.865-11.893-28.71
					s4.223-21.041,11.893-28.709c7.668-7.669,17.863-11.893,28.709-11.893c10.844,0,21.041,4.224,28.709,11.893
					c7.668,7.668,11.893,17.864,11.893,28.709s-4.225,21.041-11.893,28.71C787.299,315.553,777.102,319.775,766.258,319.775z
					 M766.258,240.575c-10.311,0-20.004,4.015-27.295,11.306c-7.289,7.29-11.305,16.983-11.305,27.294s4.016,20.004,11.305,27.294
					c7.291,7.29,16.984,11.306,27.295,11.306s20.004-4.016,27.293-11.306c7.291-7.291,11.307-16.983,11.307-27.294
					s-4.016-20.004-11.307-27.294C786.262,244.59,776.568,240.575,766.258,240.575z"/>
			</defs>
			<clipPath id="SVGID_4_">
				<use xlink:href="#SVGID_3_"  overflow="visible"/>
			</clipPath>
			<polygon clip-path="url(#SVGID_4_)" fill="#77787B" points="803.725,257.843 796.963,261.291 783.668,308.635 787.48,316.178 
				805.867,298.17 808.578,265.004 			"/>
		</g>
		<circle fill="#77787B" cx="800.562" cy="259.376" r="2.864"/>
		<g>
			<text transform="matrix(1 0 0 1 749.1465 282.2314)" fill="#77787B" font-family="'TitilliumText22L-Thin'" font-size="15.9117">14:00</text>
		</g>
		<g>
			
				<text transform="matrix(1 0 0 1 758.0557 289.7803)" fill="#77787B" font-family="'NanumBarunGothicOTFLight-KSCpc-EUC-H'" font-size="4.7735">예약완료</text>
		</g>
		<g>
			<rect x="716.564" y="218.972" opacity="0.4" fill="#FFFFFF" width="99.428" height="12.753"/>
			
				<line opacity="0.4" fill="none" stroke="#FFFFFF" stroke-width="0.1326" stroke-miterlimit="10" x1="716.564" y1="231.725" x2="815.99" y2="231.725"/>
			<g>
				
					<text transform="matrix(1 0 0 1 758.0312 226.5312)" fill="#808080" font-family="'NanumBarunGothicOTF-KSCpc-EUC-H'" font-size="4.2431">펌(Perm)</text>
			</g>
			<polygon fill="#808080" points="782.016,224.546 780.773,226.133 779.531,224.546 			"/>
		</g>
		<g>
			<path opacity="0.85" fill="#FFFFFF" d="M815.99,327.704h-99.408v11.979c0,0.415,0.338,0.752,0.752,0.752h97.922
				c0.416,0,0.734-0.337,0.734-0.752V327.704z"/>
			
				<line fill="none" stroke="#FFFFFF" stroke-width="0.1326" stroke-miterlimit="10" x1="716.564" y1="327.704" x2="815.99" y2="327.704"/>
			<g opacity="0.4">
				<g>
					
						<text transform="matrix(1.0028 0 0 1 747.2051 338.8555)" fill="#323548" font-family="'NanumBarunGothicOTF-KSCpc-EUC-H'" font-size="2.3871">단골 디자이너</text>
				</g>
				<path fill="#2B2F38" d="M753.863,329.188c-1.758,0-3.184,1.426-3.184,3.184s1.426,3.183,3.184,3.183s3.182-1.425,3.182-3.183
					S755.621,329.188,753.863,329.188 M753.863,335.264c-1.598,0-2.895-1.295-2.895-2.893c0-1.599,1.297-2.894,2.895-2.894
					s2.893,1.295,2.893,2.894C756.756,333.969,755.461,335.264,753.863,335.264 M754.283,331.787l-0.492-1.307l-0.494,1.307h-1.314
					l1.068,0.831l-0.494,1.479l1.234-0.904l1.232,0.904l-0.494-1.479l1.07-0.831H754.283z M754.256,332.71l0.205,0.616l-0.5-0.366
					l-0.17-0.125l-0.172,0.125l-0.5,0.366l0.205-0.616l0.066-0.194l-0.162-0.126l-0.402-0.313h0.672l0.07-0.187l0.223-0.589
					l0.223,0.589l0.07,0.187h0.672l-0.404,0.313l-0.16,0.126L754.256,332.71z"/>
			</g>
			<g opacity="0.4">
				<g>
					
						<text transform="matrix(1.0028 0 0 1 772.0508 338.8555)" fill="#323548" font-family="'NanumBarunGothicOTF-KSCpc-EUC-H'" font-size="2.3871">예약 타임라인</text>
				</g>
				<g>
					<path fill="#2C2F39" d="M778.729,329.188c-1.758,0-3.184,1.426-3.184,3.184s1.426,3.183,3.184,3.183
						c1.756,0,3.182-1.425,3.182-3.183S780.484,329.188,778.729,329.188 M778.729,335.264c-1.6,0-2.895-1.295-2.895-2.893
						c0-1.599,1.295-2.894,2.895-2.894c1.598,0,2.893,1.295,2.893,2.894C781.621,333.969,780.326,335.264,778.729,335.264"/>
					<g>
						<path fill="#2C2F39" d="M778.873,332.371c0,0.08-0.064,0.145-0.145,0.145l0,0c-0.08,0-0.146-0.064-0.146-0.145v-2.17
							c0-0.08,0.066-0.146,0.146-0.146l0,0c0.08,0,0.145,0.065,0.145,0.146V332.371z"/>
						<path fill="#2C2F39" d="M778.729,332.516c-0.08,0-0.146-0.064-0.146-0.145l0,0c0-0.08,0.066-0.145,0.146-0.145h1.301
							c0.08,0,0.145,0.064,0.145,0.145l0,0c0,0.08-0.064,0.145-0.145,0.145H778.729z"/>
					</g>
				</g>
			</g>
			<g opacity="0.4">
				<g>
					
						<text transform="matrix(1.0028 0 0 1 798.0107 338.8555)" fill="#323548" font-family="'NanumBarunGothicOTF-KSCpc-EUC-H'" font-size="2.3871">사용자 설정</text>
				</g>
				<path fill="#2B2F38" d="M806.564,331.734l-0.307-0.077c-0.064-0.235-0.156-0.459-0.277-0.665l0.164-0.271
					c0.049-0.098,0.082-0.218,0-0.301l-0.602-0.6c-0.037-0.037-0.082-0.053-0.131-0.053c-0.057,0-0.117,0.022-0.168,0.053
					l-0.273,0.164c-0.207-0.119-0.428-0.212-0.664-0.275l-0.076-0.309c-0.033-0.104-0.096-0.213-0.213-0.213h-0.85
					c-0.117,0-0.186,0.108-0.211,0.213l-0.078,0.309c-0.234,0.063-0.457,0.156-0.662,0.275l-0.273-0.164
					c-0.051-0.03-0.111-0.053-0.17-0.053c-0.047,0-0.094,0.016-0.131,0.053l-0.6,0.6c-0.084,0.083-0.051,0.203,0,0.301l0.162,0.271
					c-0.119,0.206-0.213,0.43-0.275,0.665l-0.307,0.077c-0.104,0.026-0.213,0.095-0.213,0.212v0.849c0,0.117,0.109,0.18,0.213,0.212
					l0.307,0.077c0.062,0.236,0.156,0.459,0.275,0.666l-0.162,0.271c-0.055,0.092-0.084,0.217,0,0.3l0.6,0.601
					c0.037,0.036,0.08,0.05,0.127,0.05c0.059,0,0.119-0.022,0.174-0.05l0.273-0.164c0.205,0.118,0.428,0.212,0.662,0.274l0.078,0.31
					c0.025,0.104,0.094,0.212,0.211,0.212h0.85c0.117,0,0.18-0.108,0.213-0.212l0.076-0.31c0.236-0.062,0.457-0.156,0.664-0.274
					l0.273,0.164c0.055,0.027,0.115,0.05,0.174,0.05c0.045,0,0.09-0.014,0.125-0.05l0.602-0.601c0.082-0.083,0.055-0.208,0-0.3
					l-0.164-0.271c0.121-0.207,0.213-0.43,0.277-0.666l0.307-0.077c0.104-0.032,0.211-0.095,0.211-0.212v-0.849
					C806.775,331.829,806.668,331.761,806.564,331.734 M806.486,332.729c0,0-0.002,0-0.004,0.001l-0.295,0.074
					c-0.102,0.025-0.182,0.104-0.209,0.205c-0.057,0.208-0.139,0.408-0.248,0.596c-0.053,0.091-0.053,0.204,0.002,0.294l0.16,0.266
					l-0.506,0.505c-0.002,0-0.002-0.001-0.004-0.001l-0.264-0.158c-0.045-0.028-0.098-0.042-0.148-0.042s-0.1,0.014-0.145,0.039
					c-0.188,0.108-0.387,0.19-0.594,0.246c-0.102,0.027-0.182,0.107-0.207,0.209l-0.074,0.299c0,0,0,0.002,0,0.004h-0.715
					l-0.076-0.303c-0.025-0.102-0.104-0.182-0.205-0.209c-0.207-0.056-0.408-0.138-0.594-0.246
					c-0.045-0.025-0.096-0.039-0.145-0.039c-0.053,0-0.104,0.014-0.15,0.042l-0.264,0.158c0,0-0.002,0.001-0.004,0.001l-0.504-0.505
					l0.158-0.266c0.055-0.09,0.055-0.203,0.002-0.294c-0.107-0.188-0.191-0.388-0.246-0.596c-0.027-0.101-0.107-0.18-0.209-0.205
					l-0.297-0.074c0-0.001-0.002-0.001-0.004-0.001v-0.715l0.301-0.075c0.102-0.025,0.182-0.104,0.209-0.206
					c0.055-0.208,0.139-0.408,0.246-0.595c0.053-0.092,0.053-0.204-0.002-0.294l-0.156-0.264c-0.002,0-0.002-0.002-0.002-0.003
					l0.506-0.505l0.266,0.16c0.047,0.027,0.098,0.041,0.15,0.041c0.049,0,0.1-0.013,0.145-0.039c0.186-0.107,0.387-0.19,0.594-0.246
					c0.102-0.027,0.18-0.106,0.205-0.209l0.076-0.302h0.715c0,0.001,0,0.002,0,0.003l0.074,0.299
					c0.025,0.103,0.105,0.182,0.207,0.209c0.207,0.056,0.406,0.139,0.594,0.246c0.045,0.026,0.094,0.039,0.145,0.039
					s0.104-0.014,0.148-0.041l0.268-0.16l0.506,0.505c-0.002,0.001-0.002,0.003-0.002,0.003l-0.158,0.263
					c-0.055,0.091-0.055,0.203-0.002,0.295c0.109,0.187,0.191,0.387,0.248,0.595c0.027,0.102,0.107,0.181,0.209,0.206l0.299,0.075
					V332.729z M803.594,330.924c-0.799,0-1.447,0.648-1.447,1.447s0.648,1.446,1.447,1.446s1.445-0.647,1.445-1.446
					S804.393,330.924,803.594,330.924 M803.594,333.528c-0.641,0-1.158-0.519-1.158-1.157c0-0.64,0.518-1.158,1.158-1.158
					c0.639,0,1.156,0.519,1.156,1.158C804.75,333.01,804.232,333.528,803.594,333.528"/>
			</g>
			<g>
				<g>
					
						<text transform="matrix(1.0028 0 0 1 724.71 338.8555)" fill="#77787B" font-family="'NanumBarunGothicOTF-KSCpc-EUC-H'" font-size="2.3871">예약하기</text>
				</g>
				<g>
					<path fill="#77787B" d="M728.998,329.188c-1.758,0-3.184,1.425-3.184,3.183s1.426,3.183,3.184,3.183s3.182-1.425,3.182-3.183
						S730.756,329.188,728.998,329.188"/>
					<path fill="#FFFFFF" d="M731.168,332.227c-0.08,0-0.145,0.064-0.145,0.145s0.064,0.145,0.145,0.145s0.145-0.064,0.145-0.145
						S731.248,332.227,731.168,332.227 M727.984,334.125c-0.068-0.04-0.158-0.017-0.197,0.053s-0.016,0.158,0.053,0.197
						c0.07,0.04,0.158,0.017,0.197-0.053C728.078,334.253,728.055,334.165,727.984,334.125 M727.045,333.33
						c-0.068,0.04-0.092,0.129-0.053,0.198c0.041,0.069,0.129,0.093,0.197,0.053c0.07-0.04,0.094-0.128,0.055-0.198
						C727.203,333.314,727.115,333.291,727.045,333.33 M727.84,330.366c-0.068,0.04-0.092,0.128-0.053,0.197
						s0.129,0.093,0.197,0.054c0.07-0.041,0.094-0.129,0.053-0.197C727.998,330.35,727.91,330.326,727.84,330.366 M726.828,332.227
						c-0.08,0-0.145,0.064-0.145,0.145s0.064,0.145,0.145,0.145c0.078,0,0.145-0.064,0.145-0.145S726.906,332.227,726.828,332.227
						 M730.01,330.617c0.07,0.039,0.158,0.016,0.197-0.054c0.041-0.069,0.018-0.157-0.053-0.197
						c-0.068-0.04-0.158-0.017-0.197,0.054C729.918,330.488,729.941,330.576,730.01,330.617 M727.189,331.16
						c-0.068-0.04-0.156-0.016-0.197,0.053c-0.039,0.07-0.016,0.158,0.053,0.198c0.07,0.04,0.158,0.017,0.199-0.053
						C727.283,331.289,727.26,331.2,727.189,331.16 M730.949,333.33c-0.07-0.039-0.158-0.016-0.197,0.053
						c-0.041,0.07-0.018,0.158,0.053,0.198c0.068,0.04,0.158,0.017,0.197-0.053S731.018,333.37,730.949,333.33 M728.998,334.396
						c-0.08,0-0.145,0.064-0.145,0.145s0.064,0.145,0.145,0.145s0.145-0.064,0.145-0.145S729.078,334.396,728.998,334.396
						 M730.805,331.16c-0.07,0.04-0.094,0.129-0.053,0.198c0.039,0.069,0.127,0.093,0.197,0.053c0.068-0.04,0.092-0.128,0.053-0.198
						C730.963,331.145,730.873,331.12,730.805,331.16 M730.01,334.125c-0.068,0.04-0.092,0.128-0.053,0.197s0.129,0.093,0.197,0.053
						c0.07-0.039,0.094-0.128,0.053-0.197C730.168,334.108,730.08,334.085,730.01,334.125"/>
					<g>
						<path fill="#FFFFFF" d="M729.143,332.371c0,0.08-0.064,0.145-0.145,0.145l0,0c-0.08,0-0.145-0.064-0.145-0.145V330.2
							c0-0.079,0.064-0.145,0.145-0.145l0,0c0.08,0,0.145,0.065,0.145,0.145V332.371z"/>
						<path fill="#FFFFFF" d="M728.998,332.516c-0.08,0-0.145-0.064-0.145-0.145l0,0c0-0.08,0.064-0.145,0.145-0.145h1.301
							c0.08,0,0.145,0.064,0.145,0.145l0,0c0,0.08-0.064,0.145-0.145,0.145H728.998z"/>
					</g>
				</g>
			</g>
		</g>
		<g>
			<g>
				<path fill="#808080" d="M815.992,184.024h-99.428v-19.882c0-0.41,0.336-0.746,0.748-0.746h97.932
					c0.412,0,0.748,0.336,0.748,0.746v19.135V184.024z"/>
				<path fill-rule="evenodd" clip-rule="evenodd" fill="#F1F4F5" d="M812.945,166.809c0.295,0,0.457,0.238,0.457,0.533
					s-0.162,0.534-0.457,0.534V166.809z"/>
				<path fill="#F1F4F5" d="M812.336,166.046c0.168,0,0.305,0.137,0.305,0.305v1.982c0,0.169-0.137,0.306-0.305,0.306h-5.947
					c-0.17,0-0.307-0.137-0.307-0.306v-1.982c0-0.168,0.137-0.305,0.307-0.305H812.336 M812.336,165.894h-5.947
					c-0.254,0-0.459,0.205-0.459,0.457v1.982c0,0.253,0.205,0.458,0.459,0.458h5.947c0.252,0,0.457-0.205,0.457-0.458v-1.982
					C812.793,166.099,812.588,165.894,812.336,165.894"/>
				<path fill-rule="evenodd" clip-rule="evenodd" fill="#F1F4F5" d="M806.541,166.198h5.643c0.168,0,0.305,0.137,0.305,0.305v1.678
					c0,0.169-0.137,0.305-0.305,0.305h-5.643c-0.17,0-0.305-0.136-0.305-0.305v-1.678
					C806.236,166.335,806.371,166.198,806.541,166.198"/>
				<path fill-rule="evenodd" clip-rule="evenodd" fill="#F1F4F5" d="M720.297,166.503c0.465,0,0.84,0.376,0.84,0.839
					s-0.375,0.839-0.84,0.839c-0.463,0-0.838-0.376-0.838-0.839S719.834,166.503,720.297,166.503"/>
				<path fill-rule="evenodd" clip-rule="evenodd" fill="#F1F4F5" d="M722.434,166.503c0.463,0,0.838,0.376,0.838,0.839
					s-0.375,0.839-0.838,0.839c-0.465,0-0.84-0.376-0.84-0.839S721.969,166.503,722.434,166.503"/>
				<path fill-rule="evenodd" clip-rule="evenodd" fill="#F1F4F5" d="M724.568,166.503c0.463,0,0.838,0.376,0.838,0.839
					s-0.375,0.839-0.838,0.839s-0.84-0.376-0.84-0.839S724.105,166.503,724.568,166.503"/>
				<path fill="#F1F4F5" d="M726.703,166.503c-0.463,0-0.84,0.376-0.84,0.839s0.377,0.839,0.84,0.839s0.838-0.376,0.838-0.839
					S727.166,166.503,726.703,166.503"/>
				<path fill="#F1F4F5" d="M728.838,166.579c0.42,0,0.762,0.343,0.762,0.763c0,0.421-0.342,0.763-0.762,0.763
					s-0.762-0.342-0.762-0.763C728.076,166.922,728.418,166.579,728.838,166.579 M728.838,166.503c-0.463,0-0.838,0.376-0.838,0.839
					s0.375,0.839,0.838,0.839s0.84-0.376,0.84-0.839S729.301,166.503,728.838,166.503"/>
			</g>
			
				<text transform="matrix(1 0 0 1 757.7656 179.0703)" fill="#FFFFFF" font-family="'NanumBarunGothicOTF-KSCpc-EUC-H'" font-size="4.7741">예약하기</text>
			<g>
				<rect x="716.564" y="184.024" fill="#808080" width="99.426" height="34.947"/>
				
					<text transform="matrix(1 0 0 1 755.7617 192.1367)" fill="#FFFFFF" font-family="'TitilliumText22L-Regular'" font-size="4.7741">April 2015</text>
				<polygon fill="#FFFFFF" points="722.854,192.244 721.094,190.482 722.854,188.723 723.24,189.11 721.871,190.482 
					723.24,191.854 				"/>
				<polygon fill="#FFFFFF" points="810.627,188.723 812.385,190.482 810.627,192.244 810.238,191.855 811.609,190.482 
					810.238,189.111 				"/>
				
					<text transform="matrix(1 0 0 1 722.625 202.4287)" fill="#A2A3A5" font-family="'TitilliumText22L-Regular'" font-size="4.2437">S</text>
				
					<text transform="matrix(1 0 0 1 736.3418 202.4287)" fill="#A2A3A5" font-family="'TitilliumText22L-Regular'" font-size="4.2437">M</text>
				
					<text transform="matrix(1 0 0 1 750.9629 202.4287)" fill="#A2A3A5" font-family="'TitilliumText22L-Regular'" font-size="4.2437">T</text>
				
					<text transform="matrix(1 0 0 1 764.6484 202.4287)" fill="#A2A3A5" font-family="'TitilliumText22L-Regular'" font-size="4.2437">W</text>
				
					<text transform="matrix(1 0 0 1 779.2754 202.4287)" fill="#A2A3A5" font-family="'TitilliumText22L-Regular'" font-size="4.2437">T</text>
				
					<text transform="matrix(1 0 0 1 793.457 202.4287)" fill="#A2A3A5" font-family="'TitilliumText22L-Regular'" font-size="4.2437">F</text>
				
					<text transform="matrix(1 0 0 1 807.5654 202.4287)" fill="#A2A3A5" font-family="'TitilliumText22L-Regular'" font-size="4.2437">S</text>
				<circle opacity="0.3" fill="#FFFFFF" cx="752.376" cy="211.896" r="4.153"/>
				<g>
					
						<text transform="matrix(1 0 0 1 792.6562 213.3916)" fill="#FFFFFF" font-family="'TitilliumText22L-Regular'" font-size="4.2437">24</text>
					
						<text transform="matrix(1 0 0 1 806.8027 213.3916)" fill="#FFFFFF" font-family="'TitilliumText22L-Regular'" font-size="4.2437">25</text>
					
						<text transform="matrix(1 0 0 1 764.3604 213.3916)" fill="#FFFFFF" font-family="'TitilliumText22L-Regular'" font-size="4.2437">22</text>
					
						<text transform="matrix(1 0 0 1 778.5088 213.3916)" fill="#FFFFFF" font-family="'TitilliumText22L-Regular'" font-size="4.2437">23</text>
					<g>
						
							<text transform="matrix(1 0 0 1 736.0654 213.3916)" fill="#FFFFFF" font-family="'TitilliumText22L-Regular'" font-size="4.2437">20</text>
					</g>
					<g>
						<g>
							
								<text transform="matrix(1 0 0 1 721.918 213.3916)" fill="#FFFFFF" font-family="'TitilliumText22L-Regular'" font-size="4.2437">19</text>
						</g>
					</g>
					<g>
						
							<text transform="matrix(1 0 0 1 750.2129 213.3916)" fill="#FFFFFF" font-family="'TitilliumText22L-Regular'" font-size="4.2437">21</text>
					</g>
				</g>
			</g>
		</g>
	</g>
	<path fill="#59595C" d="M815.992,340.82h-99.428V163.396h99.428V340.82z M717.15,340.227h98.252v-176.24H717.15V340.227z"/>
	<g>
		<path opacity="0.35" d="M673.049,340.443h-97.936c-0.412,0-0.748-0.491-0.748-1.093V164.487c0-0.601,0.336-1.093,0.748-1.093
			h97.936c0.412,0,0.748,0.492,0.748,1.093v174.863C673.797,339.952,673.461,340.443,673.049,340.443"/>
		<g>
			<g>
				<rect x="580.707" y="232.821" fill="#EEEEEE" width="86.748" height="38.195"/>
				<g>
					<g>
						<path fill="#6D6E70" d="M661.203,239.375l1.879,1.879c0.023,0.024,0.057,0.039,0.094,0.039c0.074,0,0.133-0.06,0.133-0.133
							c0-0.036-0.016-0.069-0.039-0.094l-1.879-1.879l1.879-1.88c0.023-0.023,0.039-0.057,0.039-0.094
							c0-0.073-0.061-0.133-0.133-0.133c-0.037,0-0.07,0.015-0.094,0.039l-1.879,1.88l-1.881-1.88
							c-0.023-0.024-0.057-0.039-0.094-0.039c-0.072,0-0.131,0.06-0.133,0.133c0.002,0.037,0.016,0.07,0.041,0.094l1.879,1.88
							l-1.879,1.879c-0.025,0.024-0.039,0.058-0.039,0.094c0,0.074,0.059,0.133,0.131,0.133c0.037,0,0.07-0.015,0.094-0.039
							L661.203,239.375z"/>
					</g>
				</g>
			</g>
			<g>
				
					<text transform="matrix(1 0 0 1 607.5195 245.6191)" fill="#58595B" font-family="'NanumBarunGothicOTF-KSCpc-EUC-H'" font-size="4.2439">예약하시겠습니까?</text>
			</g>
			<g>
				
					<text transform="matrix(1 0 0 1 598.5449 264.7158)" fill="#58595B" font-family="'NanumBarunGothicOTF-KSCpc-EUC-H'" font-size="4.2439">취소</text>
			</g>
			<g>
				
					<text transform="matrix(1 0 0 1 638.2598 264.7158)" fill="#58595B" font-family="'NanumBarunGothicOTF-KSCpc-EUC-H'" font-size="4.2439">예약하기</text>
			</g>
			
				<line fill="none" stroke="#A1A3A6" stroke-width="0.1326" stroke-miterlimit="10" x1="580.707" y1="256.03" x2="667.455" y2="256.03"/>
			
				<line fill="none" stroke="#A1A3A6" stroke-width="0.1326" stroke-miterlimit="10" x1="624.08" y1="256.03" x2="624.08" y2="271.017"/>
		</g>
	</g>
	<circle fill="#EEEEEF" stroke="#7DC8ED" stroke-width="2" stroke-miterlimit="10" cx="339.746" cy="92.307" r="21.994"/>
	<circle fill="#EEEEEF" stroke="#7DC8ED" stroke-width="2" stroke-miterlimit="10" cx="481.976" cy="92.307" r="21.995"/>
	<circle fill="#EEEEEF" stroke="#7DC8ED" stroke-width="2" stroke-miterlimit="10" cx="624.028" cy="92.307" r="21.995"/>
	<circle fill="#EEEEEF" stroke="#7DC8ED" stroke-width="2" stroke-miterlimit="10" cx="766.417" cy="92.307" r="21.995"/>
	<g>
		
			<text transform="matrix(1 0 0 1 329.0415 95.1128)" fill="#807FB6" font-family="'NanumBarunGothicOTF-KSCpc-EUC-H'" font-size="8">로그인</text>
	</g>
	<g>
		<text transform="matrix(1 0 0 1 467.7476 89.8633)"><tspan x="0" y="0" fill="#807FB6" font-family="'NanumBarunGothicOTF-KSCpc-EUC-H'" font-size="8">예약가능</tspan><tspan x="0" y="10.5" fill="#807FB6" font-family="'NanumBarunGothicOTF-KSCpc-EUC-H'" font-size="8">시간확인</tspan></text>
	</g>
	<g>
		
			<text transform="matrix(1 0 0 1 609.7559 95.1128)" fill="#807FB6" font-family="'NanumBarunGothicOTF-KSCpc-EUC-H'" font-size="8">예약하기</text>
	</g>
	<g>
		
			<text transform="matrix(1 0 0 1 752.1445 95.1128)" fill="#807FB6" font-family="'NanumBarunGothicOTF-KSCpc-EUC-H'" font-size="8">예약완료</text>
	</g>
	<g>
		<text transform="matrix(0.9729 0 0 1 279.606 31.6855)" fill="#626366" font-family="'TitilliumText22L-Regular'" font-size="16">Scenario &amp; UI Design</text>
	</g>
	<g>
		<text transform="matrix(0.9729 0 0 1 0 31.6855)" fill="#626366" font-family="'TitilliumText22L-Regular'" font-size="16">Deliver</text>
	</g>
	<rect x="278.606" y="10.197" fill="#A2A4A6" width="542.234" height="0.538"/>
	<rect x="0.284" y="10.197" fill="#A4A4A4" width="178.986" height="1.954"/>
</g>
</svg>
