<?xml version="1.0" encoding="UTF-8"?>
<svg width="1040px" height="1454px" viewBox="0 0 1040 1454" version="1.1" xmlns="http://www.w3.org/2000/svg" xmlns:xlink="http://www.w3.org/1999/xlink">
    <!-- Generator: Sketch 52.4 (67378) - http://www.bohemiancoding.com/sketch -->
    <title>P_mt_05</title>
    <desc>Created with Sketch.</desc>
    <g id="P_mt_05" stroke="none" stroke-width="1" fill="none" fill-rule="evenodd">
        <rect fill="#FFFFFF" x="0" y="0" width="1040" height="1454"></rect>
        <text id="Form" font-family="NotoSans-Regular, Noto Sans" font-size="24" font-weight="normal" fill="#485465">
            <tspan x="80" y="66">Form</tspan>
        </text>
        <text id="Table" font-family="NotoSans-Regular, Noto Sans" font-size="24" font-weight="normal" fill="#485465">
            <tspan x="80" y="997">Table</tspan>
        </text>
        <path d="M80,85.5 L960,85.5" id="Line-Copy-13" stroke="#B2C0D0" stroke-width="0.6" stroke-linecap="square" fill-rule="nonzero"></path>
        <path d="M80,1016.5 L960,1016.5" id="Line-Copy-14" stroke="#B2C0D0" stroke-width="0.6" stroke-linecap="square" fill-rule="nonzero"></path>
        <g id="standard-forms-copy" transform="translate(80.000000, 126.000000)">
            <text id="Section-name" font-family="NotoSans-Regular, Noto Sans" font-size="35" font-weight="normal" line-spacing="43" fill="#010F1B">
                <tspan x="0" y="37">Section name</tspan>
            </text>
            <text id="Section-name" font-family="NotoSans-Regular, Noto Sans" font-size="35" font-weight="normal" line-spacing="43" fill="#010F1B">
                <tspan x="0" y="494">Section name</tspan>
            </text>
            <g id="text-input" transform="translate(0.000000, 83.000000)">
                <rect id="input-copy" stroke="#B2C0D0" fill="#FFFFFF" x="0.5" y="24.5" width="599" height="35" rx="2"></rect>
                <text id="Enter-your-details-h" opacity="0.3" font-family="NotoSans-Regular, Noto Sans" font-size="14" font-weight="normal" line-spacing="22" fill="#485464">
                    <tspan x="16" y="46">Enter your details here</tspan>
                </text>
                <text id="Field-label" font-family="NotoSans-Bold, Noto Sans" font-size="12" font-weight="bold" line-spacing="20" fill="#485465">
                    <tspan x="2" y="13">Field label</tspan>
                </text>
            </g>
            <g id="text-input-copy" transform="translate(0.000000, 540.000000)">
                <rect id="input-copy" stroke="#B2C0D0" fill="#FFFFFF" x="0.5" y="24.5" width="599" height="35" rx="2"></rect>
                <text id="Enter-your-details-h" opacity="0.3" font-family="NotoSans-Regular, Noto Sans" font-size="14" font-weight="normal" line-spacing="22" fill="#485464">
                    <tspan x="16" y="46">Enter your details here</tspan>
                </text>
                <text id="Field-label" font-family="NotoSans-Bold, Noto Sans" font-size="12" font-weight="bold" line-spacing="20" fill="#485465">
                    <tspan x="2" y="13">Field label</tspan>
                </text>
            </g>
            <g id="select" transform="translate(0.000000, 283.000000)">
                <g id="dropdown" transform="translate(0.000000, 24.000000)">
                    <g id="dropdown_노출수">
                        <path d="M2,0.5 C1.17157288,0.5 0.5,1.17157288 0.5,2 L0.5,34 C0.5,34.8284271 1.17157288,35.5 2,35.5 L290,35.5 C290.828427,35.5 291.5,34.8284271 291.5,34 L291.5,2 C291.5,1.17157288 290.828427,0.5 290,0.5 L2,0.5 Z" id="Rectangle-5" stroke="#B2C0D0" fill="#FFFFFF"></path>
                        <text id="Select" opacity="0.8" font-family="NotoSans-Medium, Noto Sans" font-size="14" font-weight="400" line-spacing="22" fill="#485464">
                            <tspan x="16" y="22">Select</tspan>
                        </text>
                        <g id="chevron-down" transform="translate(260.000000, 6.000000)">
                            <rect id="Rectangle-4" stroke-opacity="0.01" stroke="#FFFFFF" style="mix-blend-mode: multiply;" x="0.5" y="0.5" width="23" height="23"></rect>
                            <polygon fill-opacity="0.8" fill="#485464" points="17.5750252 8 12.001007 13.2944411 6.42497482 8 5 9.35325762 12.001007 16 19 9.35325762"></polygon>
                        </g>
                    </g>
                </g>
                <text id="Select-label" font-family="NotoSans-Bold, Noto Sans" font-size="12" font-weight="bold" line-spacing="20" fill="#485465">
                    <tspan x="2" y="13">Select label</tspan>
                </text>
            </g>
            <g id="select-copy-2" transform="translate(0.000000, 183.000000)">
                <g id="dropdown" transform="translate(0.000000, 24.000000)">
                    <g id="dropdown_노출수">
                        <path d="M2,0.5 C1.17157288,0.5 0.5,1.17157288 0.5,2 L0.5,34 C0.5,34.8284271 1.17157288,35.5 2,35.5 L290,35.5 C290.828427,35.5 291.5,34.8284271 291.5,34 L291.5,2 C291.5,1.17157288 290.828427,0.5 290,0.5 L2,0.5 Z" id="Rectangle-5" stroke="#B2C0D0" fill="#FFFFFF"></path>
                        <text id="Enter-your-details-h" opacity="0.3" font-family="NotoSans-Medium, Noto Sans" font-size="14" font-weight="400" line-spacing="22" fill="#485464">
                            <tspan x="16" y="22">Enter your details here</tspan>
                        </text>
                    </g>
                </g>
                <text id="Field-label" font-family="NotoSans-Bold, Noto Sans" font-size="12" font-weight="bold" line-spacing="20" fill="#485465">
                    <tspan x="2" y="13">Field label</tspan>
                </text>
            </g>
            <g id="select-copy-3" transform="translate(308.000000, 183.000000)">
                <g id="dropdown" transform="translate(0.000000, 24.000000)">
                    <g id="dropdown_노출수">
                        <path d="M2,0.5 C1.17157288,0.5 0.5,1.17157288 0.5,2 L0.5,34 C0.5,34.8284271 1.17157288,35.5 2,35.5 L290,35.5 C290.828427,35.5 291.5,34.8284271 291.5,34 L291.5,2 C291.5,1.17157288 290.828427,0.5 290,0.5 L2,0.5 Z" id="Rectangle-5" stroke="#B2C0D0" fill="#FFFFFF"></path>
                        <text id="Enter-your-details-h" opacity="0.3" font-family="NotoSans-Medium, Noto Sans" font-size="14" font-weight="400" line-spacing="22" fill="#485464">
                            <tspan x="16" y="22">Enter your details here</tspan>
                        </text>
                    </g>
                </g>
                <text id="Field-label" font-family="NotoSans-Bold, Noto Sans" font-size="12" font-weight="bold" line-spacing="20" fill="#485465">
                    <tspan x="2" y="13">Field label</tspan>
                </text>
            </g>
            <g id="select-copy" transform="translate(308.000000, 283.000000)">
                <g id="dropdown" transform="translate(0.000000, 24.000000)">
                    <g id="dropdown_노출수">
                        <path d="M2,0.5 C1.17157288,0.5 0.5,1.17157288 0.5,2 L0.5,34 C0.5,34.8284271 1.17157288,35.5 2,35.5 L290,35.5 C290.828427,35.5 291.5,34.8284271 291.5,34 L291.5,2 C291.5,1.17157288 290.828427,0.5 290,0.5 L2,0.5 Z" id="Rectangle-5" stroke="#B2C0D0" fill="#FFFFFF"></path>
                        <text id="Select" opacity="0.8" font-family="NotoSans-Medium, Noto Sans" font-size="14" font-weight="400" line-spacing="22" fill="#485464">
                            <tspan x="16" y="22">Select</tspan>
                        </text>
                        <g id="chevron-down" transform="translate(260.000000, 6.000000)">
                            <rect id="Rectangle-4" stroke-opacity="0.01" stroke="#FFFFFF" style="mix-blend-mode: multiply;" x="0.5" y="0.5" width="23" height="23"></rect>
                            <polygon fill-opacity="0.8" fill="#485464" points="17.5750252 8 12.001007 13.2944411 6.42497482 8 5 9.35325762 12.001007 16 19 9.35325762"></polygon>
                        </g>
                    </g>
                </g>
                <text id="Select-label" font-family="NotoSans-Bold, Noto Sans" font-size="12" font-weight="bold" line-spacing="20" fill="#485465">
                    <tspan x="2" y="13">Select label</tspan>
                </text>
            </g>
            <g id="primary" transform="translate(0.000000, 656.000000)">
                <rect id="Rectangle-2-Copy-3" fill="#097DB7" x="0" y="0" width="200" height="48" rx="4"></rect>
                <text id="Primary" font-family="NotoSans-Medium, Noto Sans" font-size="16" font-weight="400" line-spacing="24" fill="#FFFFFF">
                    <tspan x="69.2895079" y="29">Primary</tspan>
                </text>
            </g>
            <g id="secondary" transform="translate(216.000000, 656.000000)">
                <rect id="Rectangle-2-Copy-3" stroke="#097DB7" stroke-width="2" x="1" y="1" width="198" height="46" rx="4"></rect>
                <text id="Secondary" font-family="NotoSans-Medium, Noto Sans" font-size="16" font-weight="400" line-spacing="24" fill="#097DB7">
                    <tspan x="59.5855079" y="29">Secondary</tspan>
                </text>
            </g>
            <path d="M0,400 L600,400" id="Line-Copy-12" stroke="#B2C0D0" stroke-linecap="square"></path>
        </g>
        <g id="Group-23" transform="translate(80.000000, 1056.000000)">
            <rect id="container-copy" fill="#FFFFFF" x="0" y="1" width="880" height="296"></rect>
            <polygon id="bgHeaderColumn" fill="#F6F7FA" points="5.00222086e-14 1 880 1 880 57 5.00222086e-14 57"></polygon>
            <polygon id="bgRowNonSelected" points="-1.25055521e-14 57 880 57 880 105 -1.25055521e-14 105"></polygon>
            <polygon id="bgRowNonSelected" fill-opacity="0.08" fill="#097DB7" points="-1.25055521e-14 105 880 105 880 153 -1.25055521e-14 153"></polygon>
            <rect id="bgRow" x="0" y="153" width="880" height="48"></rect>
            <rect id="bgRow-Copy" x="0" y="201" width="880" height="48"></rect>
            <rect id="checkboxes-unchecked" stroke="#B2C0D0" x="20.5" y="216.5" width="17" height="17" rx="1"></rect>
            <rect id="bgRow-Copy-2" x="0" y="249" width="880" height="48"></rect>
            <rect id="checkboxes-unchecked" stroke="#B2C0D0" x="20.5" y="264.5" width="17" height="17" rx="1"></rect>
            <g id="checkboxes-checked-indeterminate" transform="translate(20.000000, 20.000000)">
                <rect id="Rectangle-6-Copy-3" fill="#097DB7" x="0" y="0" width="18" height="18" rx="1"></rect>
                <rect id="Rectangle-4" stroke-opacity="0.01" stroke="#FFFFFF" style="mix-blend-mode: multiply;" x="0.5" y="0.5" width="17" height="17"></rect>
                <polygon id="minus" fill="#FFFFFF" points="3 9.75 15 9.75 15 8.25 3 8.25"></polygon>
            </g>
            <path d="M0,57.5 L880,57.5" id="Sep-Copy-13" stroke="#B2C0D0" stroke-linecap="square"></path>
            <path d="M0,0.5 L880,0.5" id="Sep-Copy-13" stroke="#B2C0D0" stroke-linecap="square"></path>
            <rect id="checkboxes-unchecked" stroke="#B2C0D0" x="20.5" y="72.5" width="17" height="17" rx="1"></rect>
            <path d="M-1.00044417e-13,105.3 L880,105.3" id="Line-Copy-24" stroke="#B2C0D0" stroke-width="0.6" stroke-linecap="square"></path>
            <path d="M-1.00044417e-13,297.3 L880,297.3" id="Line-Copy-25" stroke="#B2C0D0" stroke-width="0.6" stroke-linecap="square"></path>
            <path d="M-1.00044417e-13,249.3 L880,249.3" id="Line-Copy-26" stroke="#B2C0D0" stroke-width="0.6" stroke-linecap="square"></path>
            <g id="checkboxes-checked" transform="translate(20.000000, 120.000000)">
                <rect id="Rectangle-6-Copy-3" fill="#097DB7" x="0" y="0" width="18" height="18" rx="1"></rect>
                <rect id="Rectangle-4" stroke-opacity="0.01" stroke="#FFFFFF" style="mix-blend-mode: multiply;" x="0.5" y="0.5" width="17" height="17"></rect>
                <polygon id="check" fill="#FFFFFF" points="13.8623008 3.75 7.10856574 11.8924896 4.16832669 8.02758325 3 8.96248392 7.0749502 14.25 15 4.72166643"></polygon>
            </g>
            <rect id="checkboxes-unchecked" stroke="#B2C0D0" x="20.5" y="169.5" width="17" height="17" rx="1"></rect>
            <path d="M-1.00044417e-13,153.3 L880,153.3" id="Line-Copy-27" stroke="#B2C0D0" stroke-width="0.6" stroke-linecap="square"></path>
            <path d="M-1.00044417e-13,201.3 L880,201.3" id="Line-Copy-30" stroke="#B2C0D0" stroke-width="0.6" stroke-linecap="square"></path>
            <path d="M241,1 L241,297.152344" id="Sep-Copy-14" stroke="#B2C0D0" stroke-width="0.6" stroke-linecap="square"></path>
            <path d="M59,1 L59,297.152344" id="Sep-Copy-20" stroke="#B2C0D0" stroke-width="0.6" stroke-linecap="square"></path>
            <path d="M423,1 L423,297.152344" id="Sep-Copy-15" stroke="#B2C0D0" stroke-width="0.6" stroke-linecap="square"></path>
            <path d="M571,1 L571,297.152344" id="Sep-Copy-16" stroke="#B2C0D0" stroke-width="0.6" stroke-linecap="square"></path>
            <path d="M718,1 L718,297.152344" id="Sep-Copy-17" stroke="#B2C0D0" stroke-width="0.6" stroke-linecap="square"></path>
            <path d="M865,1 L865,297.152344" id="Sep-Copy-18" stroke="#B2C0D0" stroke-width="0.6" stroke-linecap="square"></path>
            <g id="Group-22" transform="translate(76.000000, 18.000000)" font-family="NotoSans-Regular, Noto Sans" font-size="14" font-weight="normal" line-spacing="22">
                <text id="Date-Copy" fill="#171B20">
                    <tspan x="0" y="15">Date</tspan>
                </text>
                <text id="Name-Copy-2" fill="#171B20">
                    <tspan x="183" y="15">Name</tspan>
                </text>
                <text id="Numerical-value-Copy-2" fill="#171B20">
                    <tspan x="365" y="15">Numerical value</tspan>
                </text>
                <text id="Numerical-value-Copy-3" fill="#171B20">
                    <tspan x="512" y="15">Numerical value</tspan>
                </text>
                <text id="Numerical-value-Copy-4" fill="#171B20">
                    <tspan x="659" y="15">Numerical value</tspan>
                </text>
                <text id="2018.08.01" fill="#485464">
                    <tspan x="0" y="67">2018.08.01</tspan>
                </text>
                <text id="2018.08.05" fill="#485464">
                    <tspan x="0" y="259">2018.08.05</tspan>
                </text>
                <text id="2018.08.04" fill="#485464">
                    <tspan x="0" y="211">2018.08.04</tspan>
                </text>
                <text id="2018.08.02" fill="#485464">
                    <tspan x="0" y="115">2018.08.02</tspan>
                </text>
                <text id="2018.08.03" fill="#485464">
                    <tspan x="0" y="163">2018.08.03</tspan>
                </text>
                <text id="Campaign1-Copy" fill="#485464">
                    <tspan x="183" y="67">Campaign1</tspan>
                </text>
                <text id="Campaign5-Copy" fill="#485464">
                    <tspan x="183" y="259">Campaign5</tspan>
                </text>
                <text id="Campaign4-Copy" fill="#485464">
                    <tspan x="183" y="211">Campaign4</tspan>
                </text>
                <text id="Campaign3-Copy" fill="#485464">
                    <tspan x="183" y="163">Campaign3</tspan>
                </text>
                <text id="Campaign2-Copy" fill="#485464">
                    <tspan x="183" y="115">Campaign2</tspan>
                </text>
                <text id="42-copy" fill="#485464">
                    <tspan x="461.984" y="67">42</tspan>
                </text>
                <text id="68-copy" fill="#485464">
                    <tspan x="461.984" y="259">68</tspan>
                </text>
                <text id="64-copy" fill="#485464">
                    <tspan x="461.984" y="211">64</tspan>
                </text>
                <text id="43-copy" fill="#485464">
                    <tspan x="461.984" y="163">43</tspan>
                </text>
                <text id="13-copy" fill="#485464">
                    <tspan x="461.984" y="115">13</tspan>
                </text>
                <text id="142-copy" fill="#485464">
                    <tspan x="600.976" y="67">142</tspan>
                </text>
                <text id="174-copy-3" fill="#485464">
                    <tspan x="600.976" y="259">174</tspan>
                </text>
                <text id="145-copy-2" fill="#485464">
                    <tspan x="600.976" y="211">145</tspan>
                </text>
                <text id="132-copy-3" fill="#485464">
                    <tspan x="600.976" y="163">132</tspan>
                </text>
                <text id="132-copy-4" fill="#485464">
                    <tspan x="600.976" y="115">132</tspan>
                </text>
                <text id="1351-copy" fill="#485464">
                    <tspan x="739.968" y="67">1351</tspan>
                </text>
                <text id="64522-copy-2" fill="#485464">
                    <tspan x="730.96" y="259">64522</tspan>
                </text>
                <text id="53531-copy-2" fill="#485464">
                    <tspan x="730.96" y="211">53531</tspan>
                </text>
                <text id="2545-copy-2" fill="#485464">
                    <tspan x="737.968" y="163">2545</tspan>
                </text>
                <text id="1533-copy-2" fill="#485464">
                    <tspan x="738.968" y="115">1533</tspan>
                </text>
            </g>
        </g>
    </g>
</svg>