<?xml version="1.0" encoding="UTF-8"?>
<svg width="1040px" height="1949px" viewBox="0 0 1040 1949" version="1.1" xmlns="http://www.w3.org/2000/svg" xmlns:xlink="http://www.w3.org/1999/xlink">
    <!-- Generator: Sketch 52.4 (67378) - http://www.bohemiancoding.com/sketch -->
    <title>P_mt_01</title>
    <desc>Created with Sketch.</desc>
    <g id="P_mt_01" stroke="none" stroke-width="1" fill="none" fill-rule="evenodd">
        <rect fill="#FFFFFF" x="0" y="0" width="1040" height="1949"></rect>
        <g id="logo-mgtb" transform="translate(393.000000, 239.000000)">
            <g id="logotype-darkgray" transform="translate(65.983240, 4.966480)" fill="#011B32">
                <path d="M8.64007594,2.04113953 L15.9428555,21.4697084 L23.313683,1.88417622 C23.313683,1.88417622 23.5874212,0.748966875 24.6947465,0.748966875 L28.4373824,0.748966875 C28.4373824,0.748966875 28.8781474,0.695060286 28.9446488,1.24046813 L31.3464312,27.8845926 C31.3464312,27.8845926 31.5273768,28.6551397 30.8438045,28.6551397 L27.3857327,28.6551397 C27.3857327,28.6551397 26.8614543,28.7708803 26.7934064,27.957525 L25.1865475,8.93801196 L18.2363799,27.0046468 C18.2363799,27.0046468 18.0940978,27.7387277 17.4213513,27.7387277 L14.547873,27.7387277 C14.547873,27.7387277 13.9570933,27.8322715 13.7390307,27.1314858 L6.71308243,8.93008452 L5.06292026,28.1271722 C5.06292026,28.1271722 5.10158385,28.6472122 4.54018847,28.6472122 L1.09139592,28.6472122 C1.09139592,28.6472122 0.454219898,28.7328286 0.523814366,28.0589962 L2.9255968,1.37999107 C2.9255968,1.37999107 2.88074703,0.734697484 3.43286315,0.734697484 L7.18477827,0.734697484 C7.18477827,0.734697484 8.19776443,0.625298817 8.64007594,2.04113953 Z" id="Fill-3"></path>
                <path d="M80.462186,2.61017114 C80.462186,3.99747307 79.7817068,5.12475497 77.8717253,5.12475497 C76.0266986,5.12475497 75.282811,3.99747307 75.282811,2.61017114 C75.282811,1.22128372 76.0081401,0.0955873048 77.8717253,0.0955873048 C79.8110911,0.0955873048 80.462186,1.22128372 80.462186,2.61017114" id="Fill-5"></path>
                <path d="M80.022813,28.1924943 C80.022813,28.4112916 79.8526932,28.5872808 79.6392701,28.5872808 L76.1085108,28.5872808 C75.8966343,28.5872808 75.7249679,28.4112916 75.7249679,28.1924943 L75.7249679,8.79722063 C75.7249679,8.57525232 75.8966343,8.40084865 76.1085108,8.40084865 L79.6392701,8.40084865 C79.8526932,8.40084865 80.022813,8.57525232 80.022813,8.79722063 L80.022813,28.1924943 Z" id="Fill-7"></path>
                <path d="M167.020384,28.3039541 C167.020384,28.5243369 166.847171,28.7019116 166.633748,28.7019116 L163.092162,28.7019116 C162.875646,28.7019116 162.702433,28.5243369 162.702433,28.3039541 L162.702433,1.11442184 C162.702433,0.894039019 162.875646,0.714878885 163.092162,0.714878885 L166.633748,0.714878885 C166.847171,0.714878885 167.020384,0.894039019 167.020384,1.11442184 L167.020384,28.3039541 Z" id="Fill-9"></path>
                <path d="M98.8878629,9.32835908 L98.8878629,11.5004775 C98.8878629,11.5004775 98.9528177,12.0950355 98.3543053,12.0950355 L92.4310427,12.0950355 C92.4310427,12.0950355 90.0957617,12.0268595 89.2884659,13.1810947 C89.2884659,13.1810947 88.5136474,13.9785951 88.4394133,16.6739246 C88.4394133,16.6739246 88.3481673,19.8797812 88.5306594,21.6222324 C88.6172659,22.465712 88.8786318,23.4090773 89.4322944,24.0543708 C90.1684492,24.9057779 91.4721856,24.9739538 92.4913579,24.9850523 L98.1718131,24.9850523 C98.1718131,24.9850523 98.8878629,24.88041 98.9017818,25.6287603 L98.9017818,27.6930656 C98.9017818,27.6930656 98.9837486,28.3145769 98.2970832,28.4049497 C98.2970832,28.4049497 95.9618021,28.7791248 94.0038777,28.7807103 C92.2423644,28.7807103 90.5519921,28.8346169 88.8353285,28.5016644 C87.4016825,28.2226186 86.1211443,27.505978 85.3061157,26.2534426 C84.6148107,25.1879947 84.4029342,23.7150764 84.2467332,22.4355877 C84.1523941,21.6555276 84.1029047,20.8691256 84.0735203,20.0811381 C84.0735203,20.0811381 83.8693766,14.4304592 84.7354411,12.0712532 C84.7354411,12.0712532 85.264359,9.88645083 87.4821028,8.99699211 C87.4821028,8.99699211 89.0008087,8.32791621 91.9608934,8.26449669 C91.9608934,8.26449669 95.9401505,8.23437242 98.1872786,8.62440245 C98.1872786,8.62440245 98.8878629,8.66403965 98.8878629,9.32835908" id="Fill-11"></path>
                <path d="M114.898457,3.20869283 L114.898457,8.37104148 L118.324051,8.37104148 C118.324051,8.37104148 119.016903,8.32981879 119.016903,9.00365116 L119.016903,11.2058939 C119.016903,11.2058939 119.081858,11.7972809 118.336424,11.7972809 L114.898457,11.7972809 L114.898457,23.0241208 C114.898457,23.5568447 114.977331,24.2925111 115.473771,24.5969248 C115.889792,24.8537739 116.528514,24.837919 116.990931,24.8458464 L118.783375,24.8458464 C118.783375,24.8458464 119.30456,24.7919398 119.30456,25.4213785 L119.30456,27.7330199 C119.30456,27.7330199 119.378794,28.2990391 118.797294,28.4005103 C118.797294,28.4005103 117.389939,28.6954111 115.69338,28.6716288 L115.682555,28.6716288 C114.094254,28.6843127 112.287891,28.5463752 111.273358,27.1273635 C110.622264,26.2220499 110.554216,25.1122084 110.537204,24.0277346 L110.537204,11.7972809 L108.515871,11.7972809 C108.515871,11.7972809 107.928184,11.84326 107.928184,11.1535728 L107.928184,9.05597226 C107.928184,9.05597226 107.866323,8.35201563 108.664339,8.37104148 L110.551123,8.37104148 L110.551123,4.27096973 C110.551123,4.27096973 110.483075,3.72714738 110.981062,3.59713737 L114.27056,2.73463194 C114.27056,2.73463194 114.898457,2.58083961 114.898457,3.20869283" id="Fill-13"></path>
                <path d="M154.107362,22.5914411 C154.073338,22.7690158 154.022302,22.9465904 153.954254,23.1146522 C153.561432,24.1039966 152.641238,24.6684303 151.645264,24.839663 C150.281213,25.0759007 148.764053,24.9474762 147.393816,24.8190517 C147.318035,24.8127097 145.974088,24.6922126 145.974088,24.6335496 L145.974088,12.0178222 L150.392564,12.0178222 C151.880339,12.0178222 152.653611,12.4379765 152.653611,12.4379765 C153.901672,12.9754569 154.314599,14.6354628 154.360995,15.9038531 C154.415124,17.4290925 154.453788,18.9907981 154.371821,20.5223794 C154.333157,21.229507 154.246551,21.9049249 154.107362,22.5914411 M158.757819,17.3577455 C158.751633,17.0549173 158.742354,16.7520892 158.728435,16.4524319 C158.660387,14.7892551 158.417579,13.1165654 157.853091,11.5501033 C157.805148,11.4105804 157.747926,11.2742284 157.684518,11.1394619 C156.679264,9.030763 154.453788,8.45205991 152.381419,8.2570449 C151.982411,8.22057868 151.588042,8.19521087 151.187487,8.18252697 C150.426588,8.15557367 149.665688,8.16667209 148.906335,8.19838185 C147.925827,8.23960453 146.945318,8.31570795 145.974088,8.43461955 L145.974088,1.05575879 C145.974088,0.835375966 145.800875,0.65780132 145.584359,0.65780132 L142.052053,0.65780132 C141.83863,0.65780132 141.665417,0.835375966 141.665417,1.05575879 L141.665417,27.4160809 C141.665417,27.7268365 141.813886,27.929779 142.005657,28.0328357 C142.277849,28.1787006 143.198042,28.2880992 143.467141,28.3293219 C144.246599,28.446648 145.03379,28.5195805 145.820981,28.583 C146.373097,28.6289791 146.925213,28.6686163 147.481969,28.6955696 C149.240389,28.7764295 151.020461,28.8097248 152.774241,28.6115388 C153.493384,28.5306789 154.212527,28.3863995 154.897646,28.1343069 C155.250258,28.0058824 155.592044,27.8457481 155.916818,27.6491476 C157.205089,26.8722585 157.961349,25.5277648 158.286123,24.0485045 C158.395928,23.5443194 158.467069,23.0290358 158.539756,22.5169232 C158.584606,22.1871417 158.61863,21.8557748 158.648014,21.5259933 C158.762459,20.1482043 158.78875,18.7450475 158.757819,17.3577455" id="Fill-15"></path>
                <path d="M183.487208,17.1219835 L175.304445,17.1219835 C175.304445,15.9265256 175.517868,14.6422804 175.517868,14.6422804 C175.695721,13.702086 176.328257,12.7555498 177.231439,12.4495506 C178.020176,12.1800176 178.870775,12.1419659 179.699722,12.1562353 C180.69879,12.1752612 181.818487,12.2561211 182.548456,13.048865 C183.140782,13.6909876 183.329461,14.5677625 183.414521,15.4239259 C183.426893,15.5301536 183.519686,17.1219835 183.487208,17.1219835 M187.840729,19.3178842 C187.840729,16.8128133 187.721645,15.3636774 187.721645,15.3636774 C187.658237,14.62484 187.596375,13.8923446 187.44172,13.1661911 C187.181901,11.931096 186.704019,10.7625915 185.777639,9.90167151 C185.585868,9.72251138 185.375538,9.5623771 185.152836,9.42443965 C184.181606,8.80451388 183.004686,8.50327117 181.869523,8.43192422 C176.353002,8.08153139 174.667269,8.95196425 174.667269,8.95196425 C172.359826,9.76056309 171.75822,11.8867024 171.75822,11.8867024 C170.804003,14.0810177 170.963297,19.869634 170.963297,19.869634 C170.994228,21.6422095 171.114858,23.5035723 171.697905,25.188946 C171.773686,25.4061578 171.857199,25.6186132 171.957724,25.8247267 C172.706252,27.3356966 174.14763,28.2505232 175.748303,28.5501804 C176.241651,28.6421387 176.738091,28.7293405 177.237625,28.7721487 C179.616209,28.9830186 182.870137,28.802273 184.006847,28.6928743 C184.552777,28.6405532 185.103346,28.5803046 185.64773,28.4962738 C186.422548,28.4043155 186.376152,27.7368251 186.376152,27.7368251 L186.376152,25.6233697 C186.376152,24.9590502 185.738976,25.0288117 185.738976,25.0288117 L179.761584,25.0288117 C178.784169,25.0399101 178.168644,24.9479518 178.168644,24.9479518 C176.359188,24.7719627 175.858108,23.5225982 175.858108,23.5225982 C175.323004,22.4381245 175.323004,20.2802754 175.323004,20.2802754 L186.809184,20.2802754 C187.91187,20.2929593 187.840729,19.3178842 187.840729,19.3178842" id="Fill-17"></path>
                <path d="M66.86652,24.7465949 C66.86652,24.7465949 65.5318527,24.9336824 62.9089145,24.9336824 C62.9089145,24.9336824 60.7112759,25.0573505 59.6936501,24.2027725 C59.6936501,24.2027725 58.5430216,23.4242979 58.4966252,20.7353104 C58.4966252,20.7353104 58.4007395,16.8350102 58.6342676,14.9054714 C58.6342676,14.9054714 58.7100483,12.7603062 60.893768,12.265634 C60.893768,12.265634 61.5897127,12.1245256 62.8485993,12.1086707 L66.86652,12.1086707 L66.86652,24.7465949 Z M71.1968425,9.85252139 C71.1968425,8.99160145 70.2936609,8.87586083 70.2936609,8.87586083 C67.6722693,8.28288835 62.6970381,8.26861896 62.6970381,8.26861896 C58.6188022,8.28288835 57.1171082,9.27857476 57.1171082,9.27857476 C54.9504004,10.3519501 54.4802511,13.3976724 54.4802511,13.3976724 C53.9126696,16.5464514 54.1461977,20.4721194 54.1461977,20.4721194 C54.297759,24.3740052 55.2674419,25.9277834 55.2674419,25.9277834 C56.5124096,28.3535799 59.2714437,28.5723772 59.2714437,28.5723772 C63.4378325,29.1447383 66.86652,28.4629785 66.86652,28.4629785 C66.900544,29.9121145 66.6577366,30.6810761 66.4412205,31.0774481 C66.4396739,31.0853756 66.4226619,31.1123289 66.3901845,31.1630645 C66.3468813,31.2344114 66.3051246,31.288318 66.266461,31.3311262 C66.1721218,31.4516233 66.0313864,31.5974882 65.8473477,31.7354256 C65.7452758,31.8147 65.6354712,31.8844615 65.5117477,31.94471 C64.4137016,32.4806049 62.5609422,32.409258 62.5609422,32.409258 L56.951628,32.409258 C56.2680557,32.4251128 56.3438364,33.0339402 56.3438364,33.0339402 L56.3438364,34.8667642 C56.3438364,35.6214565 57.0722585,35.7134148 57.0722585,35.7134148 C58.8152133,35.9686783 60.5720869,36.0891754 62.3305072,36.0891754 C65.2333698,36.0875899 68.9033181,35.9195282 70.4003724,32.861122 C70.93393,31.7655499 71.039095,30.4210561 71.1133291,29.2176708 C71.1736443,28.2251554 71.1488996,27.2389819 71.1519927,26.2496374 C71.1535392,25.7375248 71.1968425,10.7879593 71.1968425,9.85252139 Z" id="Fill-19"></path>
                <path d="M46.0426178,24.6777847 C46.0426178,24.7855979 44.2888372,24.9552451 44.1805791,24.9663435 C43.0330437,25.0757422 41.8947875,25.1201358 40.7487985,25.0091517 C39.9043857,24.9298773 38.9625405,24.5969248 38.5960096,23.7217355 C38.2480373,22.8941108 38.238758,21.7081658 38.7707691,20.9534736 C39.2068944,20.3319623 40.0265626,20.0735278 40.747252,20.0703568 L46.0426178,20.0592584 L46.0426178,24.6777847 Z M46.316356,8.78009736 C44.3646178,8.27115574 41.313287,8.3155494 41.313287,8.3155494 C38.1660705,8.36152855 36.1431913,8.79595224 36.1431913,8.79595224 C35.6297387,8.87205566 35.7055194,9.39051021 35.7055194,9.39051021 L35.7055194,11.6577579 C35.7055194,12.1365753 36.2035065,12.106451 36.2035065,12.106451 L42.3448317,12.106451 C46.2390288,12.0810832 46.0286989,14.7843401 46.0286989,14.7843401 L46.0286989,16.9168213 L40.2492649,16.9168213 C38.3330972,16.9659715 36.0272005,17.2989239 34.9461664,19.1634577 C34.4667379,19.9894969 34.2641406,20.8694427 34.1852669,21.8239064 C34.0677296,23.2873118 34.1899065,24.8712142 34.8564669,26.1982676 C35.2755802,27.0354052 35.8261498,27.6331342 36.6705627,28.0199932 C37.6340594,28.4623443 38.7073608,28.5812559 39.7497313,28.6700433 C42.53351,28.9046955 45.4796759,28.7382192 48.2371634,28.2451325 C48.6516371,28.1722001 49.0521919,28.0754853 49.462026,27.980356 C50.3590214,27.7726571 50.3435559,26.8831984 50.3435559,26.8831984 L50.3435559,14.0550157 C50.4038711,9.47612656 46.316356,8.78009736 46.316356,8.78009736 Z" id="Fill-21"></path>
                <path d="M133.09308,24.6777847 C133.09308,24.7855979 131.3393,24.9552451 131.229495,24.9663435 C130.083506,25.0757422 128.942157,25.1201358 127.799261,25.0091517 C126.956395,24.9298773 126.011456,24.5969248 125.646472,23.7217355 C125.296953,22.8941108 125.287674,21.7081658 125.819685,20.9534736 C126.25581,20.3319623 127.077025,20.0735278 127.796168,20.0703568 L133.09308,20.0592584 L133.09308,24.6777847 Z M133.366818,8.78009736 C131.413534,8.27115574 128.362203,8.3155494 128.362203,8.3155494 C125.214986,8.36152855 123.193654,8.79595224 123.193654,8.79595224 C122.680201,8.87205566 122.752889,9.39051021 122.752889,9.39051021 L122.752889,11.6577579 C122.752889,12.1365753 123.255515,12.106451 123.255515,12.106451 L129.395294,12.106451 C133.289491,12.0810832 133.077615,14.7843401 133.077615,14.7843401 L133.077615,16.9168213 L127.298181,16.9168213 C125.382013,16.9659715 123.076116,17.2989239 121.995082,19.1634577 C121.5172,19.9894969 121.314603,20.8694427 121.237276,21.8239064 C121.118192,23.2873118 121.237276,24.8712142 121.906929,26.1982676 C122.327589,27.0354052 122.878159,27.6331342 123.719479,28.0199932 C124.684522,28.4623443 125.756277,28.5812559 126.798647,28.6700433 C129.582426,28.9046955 132.530138,28.7382192 135.289172,28.2451325 C135.700553,28.1722001 136.102654,28.0754853 136.510942,27.980356 C137.409484,27.7726571 137.394018,26.8831984 137.394018,26.8831984 L137.394018,14.0550157 C137.45588,9.47612656 133.366818,8.78009736 133.366818,8.78009736 Z" id="Fill-23"></path>
            </g>
            <g id="symbol-mgtb">
                <polygon id="Fill-25" fill="#7C70BF" points="0 39.4137931 28.377931 39.4137931 28.377931 11.0358621 0 11.0358621"></polygon>
                <polygon id="Fill-27" fill="#43CDEF" points="11.0358621 28.377931 39.4137931 28.377931 39.4137931 0 11.0358621 0"></polygon>
                <polygon id="Fill-28" fill="#34BCDD" points="11.0358621 0 28.4050517 9.48199921 28.4050517 28.3788785 11.0358621 28.3788785"></polygon>
                <polygon id="Fill-28-Copy" fill="#5A4F8D" points="11.0358621 28.3813344 28.3727201 28.3813344 28.3727201 39.4056374"></polygon>
            </g>
        </g>
        <text id="Style-guide" font-family="NotoSans-SemiBold, Noto Sans" font-size="24" font-weight="500" line-spacing="30" fill="#485464">
            <tspan x="80" y="49">Style guide</tspan>
        </text>
        <g id="Group" transform="translate(307.000000, 381.000000)">
            <rect id="Rectangle-4" fill="#F6F7FA" x="0" y="0" width="126" height="126"></rect>
            <g id="symbol-mgtb" transform="translate(37.800000, 37.800000)">
                <g id="logo_mgtb">
                    <polygon id="Fill-25" fill="#7C70BF" points="0 50.4 36.288 50.4 36.288 14.112 0 14.112"></polygon>
                    <polygon id="Fill-27" fill="#43CDEF" points="14.112 36.288 50.4 36.288 50.4 0 14.112 0"></polygon>
                    <polygon id="Fill-28" fill="#34BCDD" points="14.112 0 36.3226803 12.1250132 36.3226803 36.2892115 14.112 36.2892115"></polygon>
                    <polygon id="Fill-28-Copy" fill="#5A4F8D" points="14.112 36.292352 36.2813365 36.292352 36.2813365 50.3895709"></polygon>
                </g>
            </g>
        </g>
        <g id="Group-2" transform="translate(607.000000, 381.000000)">
            <rect id="Rectangle-4-Copy" fill="#485464" x="0" y="0" width="126" height="126"></rect>
            <g id="symbol-mgtb-white" transform="translate(37.800000, 37.800000)" fill="#FFFFFF">
                <polygon id="Fill-25" fill-opacity="0.6" points="0 50.4 36.288 50.4 14.1223359 36.3086719 14.1223359 14.112 0 14.112"></polygon>
                <polygon id="Fill-27" fill-opacity="0.8" points="36.3076875 12.1540781 36.3076875 36.288 50.4 36.288 50.4 0 14.112 0"></polygon>
                <polygon id="Fill-28" fill-opacity="0.7" points="14.112 0 36.3226803 12.1250132 36.3226803 36.2892115 14.112 36.2892115"></polygon>
                <polygon id="Fill-28-Copy" fill-opacity="0.4" points="14.112 36.292352 36.2813365 36.292352 36.2813365 50.3895709"></polygon>
            </g>
        </g>
        <g id="Group-3" transform="translate(457.000000, 381.000000)">
            <rect id="Rectangle-4-Copy-2" fill="#F6F7FA" x="0" y="0" width="126" height="126"></rect>
            <g id="symbol-mgtb-darkgray" transform="translate(37.800000, 37.800000)" fill="#011B32">
                <polygon id="Fill-25" fill-opacity="0.6" points="0 50.4 36.288 50.4 14.1223359 36.3086719 14.1223359 14.112 0 14.112"></polygon>
                <polygon id="Fill-27" fill-opacity="0.5" points="36.3076875 12.1540781 36.3076875 36.288 50.4 36.288 50.4 0 14.112 0"></polygon>
                <polygon id="Fill-28" fill-opacity="0.7" points="14.112 0 36.3226803 12.1250132 36.3226803 36.2892115 14.112 36.2892115"></polygon>
                <polygon id="Fill-28-Copy" fill-opacity="0.85" points="14.112 36.292352 36.2813365 36.292352 36.2813365 50.3895709"></polygon>
            </g>
        </g>
        <text id="Logo" font-family="NotoSans-Regular, Noto Sans" font-size="24" font-weight="normal" fill="#485465">
            <tspan x="80" y="119">Logo</tspan>
        </text>
        <text id="Colors" font-family="NotoSans-Regular, Noto Sans" font-size="24" font-weight="normal" fill="#485465">
            <tspan x="80" y="673">Colors</tspan>
        </text>
        <text id="Typography:-Noto-San" font-family="NotoSans-Regular, Noto Sans" font-size="24" font-weight="normal" fill="#485465">
            <tspan x="80" y="1295">Typography: Noto Sans</tspan>
        </text>
        <text id="Primary-colors" font-family="NotoSans-Regular, Noto Sans" font-size="16" font-weight="normal" fill="#485465">
            <tspan x="83" y="750">Primary colors</tspan>
        </text>
        <text id="Font-weights" font-family="NotoSans-Regular, Noto Sans" font-size="16" font-weight="normal" fill="#485465">
            <tspan x="80" y="1372">Font weights</tspan>
        </text>
        <text id="Font-scale" font-family="NotoSans-Regular, Noto Sans" font-size="16" font-weight="normal" fill="#485465">
            <tspan x="80" y="1606">Font scale</tspan>
        </text>
        <text id="Noto-Sans-Light" font-family="NotoSans-Light, Noto Sans" font-size="28" font-weight="300" fill="#010F1B">
            <tspan x="80" y="1439">Noto Sans Light</tspan>
        </text>
        <text id="Noto-Sans-Regular" font-family="NotoSans-Regular, Noto Sans" font-size="28" font-weight="normal" fill="#010F1B">
            <tspan x="504" y="1439">Noto Sans Regular</tspan>
        </text>
        <text id="Noto-Sans-Semibold" font-family="NotoSans-SemiBold, Noto Sans" font-size="28" font-weight="500" fill="#010F1B">
            <tspan x="80" y="1501">Noto Sans Semibold</tspan>
        </text>
        <text id="Noto-Sans-Bold" font-family="NotoSans-Bold, Noto Sans" font-size="28" font-weight="bold" fill="#010F1B">
            <tspan x="504" y="1501">Noto Sans Bold</tspan>
        </text>
        <text id="Neutral-colors" font-family="NotoSans-Regular, Noto Sans" font-size="16" font-weight="normal" fill="#485465">
            <tspan x="83" y="972">Neutral colors</tspan>
        </text>
        <text id="Secondary-colors" font-family="NotoSans-Regular, Noto Sans" font-size="16" font-weight="normal" fill="#485465">
            <tspan x="531" y="750">Secondary colors</tspan>
        </text>
        <path d="M80,138.5 L960,138.5" id="Line" stroke="#B2C0D0" stroke-linecap="square" fill-rule="nonzero"></path>
        <path d="M80,692.5 L960,692.5" id="Line-Copy" stroke="#B2C0D0" stroke-width="0.6" stroke-linecap="square" fill-rule="nonzero"></path>
        <path d="M80,1314.5 L960,1314.5" id="Line-Copy-2" stroke="#B2C0D0" stroke-width="0.6" stroke-linecap="square" fill-rule="nonzero"></path>
        <rect id="Rectangle" fill="#097DB7" fill-rule="nonzero" x="80" y="787" width="90" height="90" rx="45"></rect>
        <rect id="Rectangle-Copy-8" fill="#171B20" fill-rule="nonzero" x="80" y="1009" width="90" height="90" rx="45"></rect>
        <text id="Blue" font-family="NotoSans-Regular, Noto Sans" font-size="12" font-weight="normal" line-spacing="14" fill="#485464">
            <tspan x="112" y="906">Blue</tspan>
        </text>
        <text id="Black" font-family="NotoSans-Regular, Noto Sans" font-size="12" font-weight="normal" line-spacing="14" fill="#485464">
            <tspan x="110" y="1128">Black</tspan>
        </text>
        <text id="Dark-gray-02" font-family="NotoSans-Regular, Noto Sans" font-size="12" font-weight="normal" line-spacing="14" fill="#485464">
            <tspan x="202" y="906">Dark gray 02</tspan>
        </text>
        <text id="Dark-gray-02-Copy" font-family="NotoSans-Regular, Noto Sans" font-size="12" font-weight="normal" line-spacing="14" fill="#485464">
            <tspan x="202" y="1128">Dark gray 02</tspan>
        </text>
        <text id="Light-gray-01" font-family="NotoSans-Regular, Noto Sans" font-size="12" font-weight="normal" line-spacing="14" fill="#485464">
            <tspan x="315" y="906">Light gray 01</tspan>
        </text>
        <text id="Dark-gray-01" font-family="NotoSans-Regular, Noto Sans" font-size="12" font-weight="normal" line-spacing="14" fill="#485464">
            <tspan x="316" y="1128">Dark gray 01</tspan>
        </text>
        <text id="White" font-family="NotoSans-Regular, Noto Sans" font-size="12" font-weight="normal" line-spacing="14" fill="#485464">
            <tspan x="448" y="906">White</tspan>
        </text>
        <text id="Light-gray-03" font-family="NotoSans-Regular, Noto Sans" font-size="12" font-weight="normal" line-spacing="14" fill="#485464">
            <tspan x="428" y="1128">Light gray 03</tspan>
        </text>
        <text id="Success" font-family="NotoSans-Regular, Noto Sans" font-size="12" font-weight="normal" line-spacing="14" fill="#485464">
            <tspan x="554" y="906">Success</tspan>
        </text>
        <text id="Light-gray-02" font-family="NotoSans-Regular, Noto Sans" font-size="12" font-weight="normal" line-spacing="14" fill="#485464">
            <tspan x="539" y="1128">Light gray 02</tspan>
        </text>
        <text id="Error" font-family="NotoSans-Regular, Noto Sans" font-size="12" font-weight="normal" line-spacing="14" fill="#485464">
            <tspan x="675" y="906">Error</tspan>
        </text>
        <text id="Light-gray-01" font-family="NotoSans-Regular, Noto Sans" font-size="12" font-weight="normal" line-spacing="14" fill="#485464">
            <tspan x="653" y="1128">Light gray 01</tspan>
        </text>
        <text id="Warning" font-family="NotoSans-Regular, Noto Sans" font-size="12" font-weight="normal" line-spacing="14" fill="#485464">
            <tspan x="778" y="906">Warning</tspan>
        </text>
        <text id="White" font-family="NotoSans-Regular, Noto Sans" font-size="12" font-weight="normal" line-spacing="14" fill="#485464">
            <tspan x="786" y="1128">White</tspan>
        </text>
        <text id="Information" font-family="NotoSans-Regular, Noto Sans" font-size="12" font-weight="normal" line-spacing="14" fill="#485464">
            <tspan x="882" y="906">Information</tspan>
        </text>
        <rect id="Rectangle-Copy-4" fill="#00C853" fill-rule="nonzero" x="531" y="787" width="90" height="90" rx="45"></rect>
        <rect id="Rectangle-Copy-10" fill="#EDEFF3" fill-rule="nonzero" x="531" y="1009" width="90" height="90" rx="45"></rect>
        <text id="#097DB7" font-family="NotoSans-Regular, Noto Sans" font-size="12" font-weight="normal" line-spacing="22" fill="#FFFFFF">
            <tspan x="99.116" y="834">#097DB7</tspan>
        </text>
        <text id="#171B20" font-family="NotoSans-Regular, Noto Sans" font-size="12" font-weight="normal" line-spacing="22" fill="#FFFFFF">
            <tspan x="100.064" y="1056">#171B20</tspan>
        </text>
        <text id="#00C853" font-family="NotoSans-Regular, Noto Sans" font-size="12" font-weight="normal" line-spacing="22" fill="#FFFFFF">
            <tspan x="551.172" y="834">#00C853</tspan>
        </text>
        <text id="#EDEFF3" font-family="NotoSans-Regular, Noto Sans" font-size="12" font-weight="normal" line-spacing="22" fill="#485464">
            <tspan x="551.412" y="1056">#EDEFF3</tspan>
        </text>
        <rect id="Rectangle-Copy" fill="#485464" fill-rule="nonzero" x="193" y="787" width="90" height="90" rx="45"></rect>
        <rect id="Rectangle-Copy-11" fill="#485464" fill-rule="nonzero" x="193" y="1009" width="90" height="90" rx="45"></rect>
        <rect id="Rectangle-Copy-5" fill="#F44336" fill-rule="nonzero" x="644" y="787" width="90" height="90" rx="45"></rect>
        <rect id="Rectangle-Copy-12" fill="#F6F7FA" fill-rule="nonzero" x="644" y="1009" width="90" height="90" rx="45"></rect>
        <text id="#485464" font-family="NotoSans-Regular, Noto Sans" font-size="12" font-weight="normal" line-spacing="22" fill="#FFFFFF">
            <tspan x="214.032" y="834">#485464</tspan>
        </text>
        <text id="#485464-copy" font-family="NotoSans-Regular, Noto Sans" font-size="12" font-weight="normal" line-spacing="22" fill="#FFFFFF">
            <tspan x="214.032" y="1056">#485464</tspan>
        </text>
        <text id="#F44336" font-family="NotoSans-Regular, Noto Sans" font-size="12" font-weight="normal" line-spacing="22" fill="#FFFFFF">
            <tspan x="665.35" y="834">#F44336</tspan>
        </text>
        <text id="#F6F7FA" font-family="NotoSans-Regular, Noto Sans" font-size="12" font-weight="normal" line-spacing="22" fill="#485464">
            <tspan x="666.084" y="1056">#F6F7FA</tspan>
        </text>
        <rect id="Rectangle-Copy-2" stroke="#EBF0F7" fill="#F6F7FA" fill-rule="nonzero" x="306.5" y="787.5" width="89" height="89" rx="44.5"></rect>
        <rect id="Rectangle-Copy-13" fill="#718091" fill-rule="nonzero" x="306" y="1009" width="90" height="90" rx="45"></rect>
        <rect id="Rectangle-Copy-6" stroke="#EBF0F7" fill="#FFC107" fill-rule="nonzero" x="757.5" y="787.5" width="89" height="89" rx="44.5"></rect>
        <rect id="Rectangle-Copy-14" stroke="#EBF0F7" fill="#FFFFFF" fill-rule="nonzero" x="757.5" y="1009.5" width="89" height="89" rx="44.5"></rect>
        <rect id="Rectangle-Copy-3" stroke="#EBF0F7" fill="#FFFFFF" fill-rule="nonzero" x="419.5" y="787.5" width="89" height="89" rx="44.5"></rect>
        <rect id="Rectangle-Copy-15" fill="#B2C0D0" fill-rule="nonzero" x="419" y="1009" width="90" height="90" rx="45"></rect>
        <rect id="Rectangle-Copy-7" stroke="#EBF0F7" fill="#7364FF" fill-rule="nonzero" x="870.5" y="787.5" width="89" height="89" rx="44.5"></rect>
        <text id="#F6F7FA" font-family="NotoSans-Regular, Noto Sans" font-size="12" font-weight="normal" line-spacing="22" fill="#485464">
            <tspan x="327.084" y="834">#F6F7FA</tspan>
        </text>
        <text id="#718091" font-family="NotoSans-Regular, Noto Sans" font-size="12" font-weight="normal" line-spacing="22" fill="#FFFFFF">
            <tspan x="327.032" y="1056">#718091</tspan>
        </text>
        <text id="#FFC107" font-family="NotoSans-Regular, Noto Sans" font-size="12" font-weight="normal" line-spacing="22" fill="#485464">
            <tspan x="778.308" y="834">#FFC107</tspan>
        </text>
        <text id="#FFFFFF" font-family="NotoSans-Regular, Noto Sans" font-size="12" font-weight="normal" line-spacing="22" fill="#485464">
            <tspan x="780.44" y="1056">#FFFFFF</tspan>
        </text>
        <text id="#FFFFFF" font-family="NotoSans-Regular, Noto Sans" font-size="12" font-weight="normal" line-spacing="22" fill="#485464">
            <tspan x="442.44" y="834">#FFFFFF</tspan>
        </text>
        <text id="#B2C0D0" font-family="NotoSans-Regular, Noto Sans" font-size="12" font-weight="normal" line-spacing="22" fill="#485464">
            <tspan x="439.256" y="1056">#B2C0D0</tspan>
        </text>
        <text id="#7364FF" font-family="NotoSans-Regular, Noto Sans" font-size="12" font-weight="normal" line-spacing="22" fill="#FFFFFF">
            <tspan x="891.168" y="834">#7364FF</tspan>
        </text>
        <g id="Group-2" transform="translate(80.000000, 1643.000000)" font-family="NotoSans-Regular, Noto Sans" font-weight="normal">
            <text id="Title-30" font-size="35" fill="#010F1B">
                <tspan x="0" y="37">Title 30</tspan>
            </text>
            <text id="Body-20" font-size="16" fill="#010F1B">
                <tspan x="0" y="158">Body 20</tspan>
            </text>
            <text id="Title-20" font-size="28" fill="#010F1B">
                <tspan x="251" y="37">Title 20</tspan>
            </text>
            <text id="Body-10" font-size="14" fill="#010F1B">
                <tspan x="251" y="158">Body 10</tspan>
            </text>
            <text id="Title-10" font-size="18" fill="#010F1B">
                <tspan x="504" y="37">Title 10</tspan>
            </text>
            <text id="Caption-20" font-size="12" fill="#010F1B">
                <tspan x="504" y="158">Caption 20</tspan>
            </text>
            <text id="Caption-10" font-size="11" fill="#010F1B">
                <tspan x="742" y="158">Caption 10</tspan>
            </text>
            <text id="Noto-Sans-/-35px" font-size="16" fill="#718091">
                <tspan x="0" y="80">Noto Sans / 35px</tspan>
            </text>
            <text id="Noto-Sans-/-16px" font-size="16" fill="#718091">
                <tspan x="0" y="201">Noto Sans / 16px</tspan>
            </text>
            <text id="Noto-Sans-/-28px" font-size="16" fill="#718091">
                <tspan x="251" y="80">Noto Sans / 28px</tspan>
            </text>
            <text id="Noto-Sans-/-14px" font-size="16" fill="#718091">
                <tspan x="251" y="201">Noto Sans / 14px</tspan>
            </text>
            <text id="Noto-Sans-/-18px" font-size="16" fill="#718091">
                <tspan x="504" y="80">Noto Sans / 18px</tspan>
            </text>
            <text id="Noto-Sans-/-12px" font-size="16" fill="#718091">
                <tspan x="504" y="201">Noto Sans / 12px</tspan>
            </text>
            <text id="Noto-Sans-/-11px" font-size="16" fill="#718091">
                <tspan x="742" y="201">Noto Sans / 11px</tspan>
            </text>
        </g>
    </g>
</svg>