<?xml version="1.0" encoding="UTF-8"?>
<svg width="1040px" height="1890px" viewBox="0 0 1040 1890" version="1.1" xmlns="http://www.w3.org/2000/svg" xmlns:xlink="http://www.w3.org/1999/xlink">
    <!-- Generator: Sketch 52.4 (67378) - http://www.bohemiancoding.com/sketch -->
    <title>P_mt_03</title>
    <desc>Created with Sketch.</desc>
    <defs>
        <path d="M4,0 L396,0 C398.209139,-4.05812251e-16 400,1.790861 400,4 L400,296 C400,298.209139 398.209139,300 396,300 L4,300 C1.790861,300 2.705415e-16,298.209139 0,296 L0,4 C-2.705415e-16,1.790861 1.790861,4.05812251e-16 4,0 Z" id="path-1"></path>
        <filter x="-6.2%" y="-6.7%" width="112.5%" height="116.7%" filterUnits="objectBoundingBox" id="filter-3">
            <feOffset dx="0" dy="5" in="SourceAlpha" result="shadowOffsetOuter1"></feOffset>
            <feGaussianBlur stdDeviation="7.5" in="shadowOffsetOuter1" result="shadowBlurOuter1"></feGaussianBlur>
            <feComposite in="shadowBlurOuter1" in2="SourceAlpha" operator="out" result="shadowBlurOuter1"></feComposite>
            <feColorMatrix values="0 0 0 0 0   0 0 0 0 0   0 0 0 0 0  0 0 0 0.15 0" type="matrix" in="shadowBlurOuter1"></feColorMatrix>
        </filter>
        <path d="M4,0 L396,0 C398.209139,-4.05812251e-16 400,1.790861 400,4 L400,263 C400,265.209139 398.209139,267 396,267 L4,267 C1.790861,267 2.705415e-16,265.209139 0,263 L0,4 C-2.705415e-16,1.790861 1.790861,4.05812251e-16 4,0 Z" id="path-4"></path>
        <filter x="-6.2%" y="-7.5%" width="112.5%" height="118.7%" filterUnits="objectBoundingBox" id="filter-6">
            <feOffset dx="0" dy="5" in="SourceAlpha" result="shadowOffsetOuter1"></feOffset>
            <feGaussianBlur stdDeviation="7.5" in="shadowOffsetOuter1" result="shadowBlurOuter1"></feGaussianBlur>
            <feComposite in="shadowBlurOuter1" in2="SourceAlpha" operator="out" result="shadowBlurOuter1"></feComposite>
            <feColorMatrix values="0 0 0 0 0   0 0 0 0 0   0 0 0 0 0  0 0 0 0.15 0" type="matrix" in="shadowBlurOuter1"></feColorMatrix>
        </filter>
        <polygon id="path-7" points="0 0.0003 16.5467 0.0003 16.5467 16.5381 0 16.5381"></polygon>
        <path d="M4,0 L396,0 C398.209139,-4.05812251e-16 400,1.790861 400,4 L400,263 C400,265.209139 398.209139,267 396,267 L4,267 C1.790861,267 2.705415e-16,265.209139 0,263 L0,4 C-2.705415e-16,1.790861 1.790861,4.05812251e-16 4,0 Z" id="path-9"></path>
        <filter x="-6.2%" y="-7.5%" width="112.5%" height="118.7%" filterUnits="objectBoundingBox" id="filter-11">
            <feOffset dx="0" dy="5" in="SourceAlpha" result="shadowOffsetOuter1"></feOffset>
            <feGaussianBlur stdDeviation="7.5" in="shadowOffsetOuter1" result="shadowBlurOuter1"></feGaussianBlur>
            <feComposite in="shadowBlurOuter1" in2="SourceAlpha" operator="out" result="shadowBlurOuter1"></feComposite>
            <feColorMatrix values="0 0 0 0 0   0 0 0 0 0   0 0 0 0 0  0 0 0 0.15 0" type="matrix" in="shadowBlurOuter1"></feColorMatrix>
        </filter>
        <polygon id="path-12" points="0 0 15.9986 0 15.9986 16 0 16"></polygon>
        <path d="M4,0 L396,0 C398.209139,-4.05812251e-16 400,1.790861 400,4 L400,263 C400,265.209139 398.209139,267 396,267 L4,267 C1.790861,267 2.705415e-16,265.209139 0,263 L0,4 C-2.705415e-16,1.790861 1.790861,4.05812251e-16 4,0 Z" id="path-14"></path>
        <filter x="-6.2%" y="-7.5%" width="112.5%" height="118.7%" filterUnits="objectBoundingBox" id="filter-16">
            <feOffset dx="0" dy="5" in="SourceAlpha" result="shadowOffsetOuter1"></feOffset>
            <feGaussianBlur stdDeviation="7.5" in="shadowOffsetOuter1" result="shadowBlurOuter1"></feGaussianBlur>
            <feComposite in="shadowBlurOuter1" in2="SourceAlpha" operator="out" result="shadowBlurOuter1"></feComposite>
            <feColorMatrix values="0 0 0 0 0   0 0 0 0 0   0 0 0 0 0  0 0 0 0.15 0" type="matrix" in="shadowBlurOuter1"></feColorMatrix>
        </filter>
        <polygon id="path-17" points="0.0002 0 16 0 16 15.9997 0.0002 15.9997"></polygon>
    </defs>
    <g id="P_mt_03" stroke="none" stroke-width="1" fill="none" fill-rule="evenodd">
        <rect fill="#FFFFFF" x="0" y="0" width="1040" height="1890"></rect>
        <text id="Modal" font-family="NotoSans-Regular, Noto Sans" font-size="24" font-weight="normal" fill="#485465">
            <tspan x="80" y="67">Modal</tspan>
        </text>
        <text id="Confirm" font-family="NotoSans-Regular, Noto Sans" font-size="24" font-weight="normal" fill="#485465">
            <tspan x="80" y="721">Confirm</tspan>
        </text>
        <path d="M80,86.5 L960,86.5" id="Line-Copy-6" stroke="#B2C0D0" stroke-width="0.6" stroke-linecap="square" fill-rule="nonzero"></path>
        <path d="M80,740.5 L960,740.5" id="Line-Copy-7" stroke="#B2C0D0" stroke-width="0.6" stroke-linecap="square" fill-rule="nonzero"></path>
        <g id="modals-style-basic" transform="translate(80.000000, 127.000000)">
            <rect id="Rectangle-3-Copy-4" fill="#F6F7FA" x="0" y="0" width="880" height="428"></rect>
            <g id="notification-flag-error-copy-8" transform="translate(240.000000, 64.000000)">
                <g id="Group">
                    <mask id="mask-2" fill="white">
                        <use xlink:href="#path-1"></use>
                    </mask>
                    <g id="bg">
                        <use fill="black" fill-opacity="1" filter="url(#filter-3)" xlink:href="#path-1"></use>
                        <path stroke="#B2C0D0" stroke-width="0.5" d="M4,0.25 C1.92893219,0.25 0.25,1.92893219 0.25,4 L0.25,296 C0.25,298.071068 1.92893219,299.75 4,299.75 L396,299.75 C398.071068,299.75 399.75,298.071068 399.75,296 L399.75,4 C399.75,1.92893219 398.071068,0.25 396,0.25 L4,0.25 Z" stroke-linejoin="square" fill="#FFFFFF" fill-rule="evenodd"></path>
                    </g>
                    <rect id="Rectangle-5" fill="#F6F7FA" mask="url(#mask-2)" x="0" y="214" width="400" height="86"></rect>
                </g>
                <text id="Title" font-family="NotoSans-Bold, Noto Sans" font-size="28" font-weight="bold" line-spacing="36" fill="#485464">
                    <tspan x="25" y="46">Title</tspan>
                </text>
                <g id="close" transform="translate(360.000000, 16.000000)">
                    <rect id="Rectangle-4" stroke-opacity="0.01" stroke="#FFFFFF" style="mix-blend-mode: multiply;" x="0.5" y="0.5" width="23" height="23"></rect>
                    <polygon fill-opacity="0.8" fill="#485464" points="16.5557825 5 11.5 10.0553853 6.44421747 5 5 6.44410401 10.0557825 11.5005106 5 16.555896 6.44421747 18 11.5 12.9446147 16.5557825 18 18 16.555896 12.9442175 11.5005106 18 6.44410401"></polygon>
                </g>
                <text id="Lorem-Ipsum-is-simpl" font-family="NotoSans-Regular, Noto Sans" font-size="16" font-weight="normal" line-spacing="24" fill="#485464">
                    <tspan x="25" y="94">Lorem Ipsum is simply dummy text of the </tspan>
                    <tspan x="25" y="118">printing and typesetting industry. Lorem </tspan>
                    <tspan x="25" y="142">Ipsum has been the industry's standard </tspan>
                    <tspan x="25" y="166">dummy text ever since the 1500s, when an </tspan>
                    <tspan x="25" y="190">unknown printer took a galley of type and</tspan>
                </text>
                <g id="small-button-copy" transform="translate(206.000000, 239.000000)">
                    <rect id="bg" fill="#097DB7" x="0" y="0" width="110" height="36" rx="2"></rect>
                    <text id="Small-button" font-family="NotoSans-Medium, Noto Sans" font-size="14" font-weight="400" line-spacing="22" fill="#FFFFFF">
                        <tspan x="12.076" y="22">Small button</tspan>
                    </text>
                </g>
                <text id="Subtle" opacity="0.8" font-family="NotoSans-Medium, Noto Sans" font-size="14" font-weight="400" line-spacing="22" fill="#485464">
                    <tspan x="332.311" y="261">Subtle</tspan>
                </text>
            </g>
        </g>
        <g id="modals-style-warning" transform="translate(80.000000, 781.000000)">
            <polygon id="Rectangle-3-Copy-5" fill="#F6F7FA" points="0 0 880 0 880 1009 0 1009"></polygon>
            <g id="notification-flag-error-copy-11" transform="translate(240.000000, 64.000000)">
                <g id="Group-2">
                    <mask id="mask-5" fill="white">
                        <use xlink:href="#path-4"></use>
                    </mask>
                    <g id="bg">
                        <use fill="black" fill-opacity="1" filter="url(#filter-6)" xlink:href="#path-4"></use>
                        <path stroke="#B2C0D0" stroke-width="0.5" d="M4,0.25 C1.92893219,0.25 0.25,1.92893219 0.25,4 L0.25,263 C0.25,265.071068 1.92893219,266.75 4,266.75 L396,266.75 C398.071068,266.75 399.75,265.071068 399.75,263 L399.75,4 C399.75,1.92893219 398.071068,0.25 396,0.25 L4,0.25 Z" stroke-linejoin="square" fill="#FFFFFF" fill-rule="evenodd"></path>
                    </g>
                    <rect id="Rectangle-5" fill="#F6F7FA" mask="url(#mask-5)" x="0" y="181" width="400" height="86"></rect>
                </g>
                <text id="Title" font-family="NotoSans-Bold, Noto Sans" font-size="18" font-weight="bold" line-spacing="26" fill="#485464">
                    <tspan x="61" y="35">Title</tspan>
                </text>
                <g id="warning-circle" transform="translate(25.000000, 16.000000)">
                    <rect id="Rectangle-4" stroke-opacity="0.01" stroke="#FFFFFF" style="mix-blend-mode: multiply;" x="0.5" y="0.5" width="23" height="23"></rect>
                    <g transform="translate(4.000000, 4.000000)">
                        <mask id="mask-8" fill="white">
                            <use xlink:href="#path-7"></use>
                        </mask>
                        <g id="Clip-2"></g>
                        <path d="M9.2227,11.8223 L7.3247,11.8223 L7.0247,5.7383 L9.5227,5.7383 L9.2227,11.8223 Z M7.3247,14.7093 L9.2227,14.7093 L9.2227,12.8753 L7.3247,12.8753 L7.3247,14.7093 Z M16.4647,15.5673 L16.4657,15.5653 L8.8607,0.3673 L8.8607,0.3693 C8.7537,0.1513 8.5327,0.0003 8.2737,0.0003 C8.0127,0.0003 7.7897,0.1523 7.6837,0.3713 L0.0787,15.5713 C0.0317,15.6643 -0.0003,15.7683 -0.0003,15.8803 C-0.0003,16.2433 0.2927,16.5383 0.6577,16.5383 L15.8887,16.5383 L15.8897,16.5383 C16.2537,16.5383 16.5467,16.2433 16.5467,15.8803 C16.5467,15.7663 16.5157,15.6613 16.4647,15.5673 Z" id="Fill-1" fill="#FFC107" mask="url(#mask-8)"></path>
                    </g>
                </g>
                <text id="Lorem-Ipsum-is-simpl" font-family="NotoSans-Regular, Noto Sans" font-size="16" font-weight="normal" line-spacing="24" fill="#485464">
                    <tspan x="25" y="84">Lorem Ipsum is simply dummy text of the </tspan>
                    <tspan x="25" y="108">printing and typesetting industry. Lorem </tspan>
                    <tspan x="25" y="132">Ipsum has been the industry's standard</tspan>
                </text>
                <g id="small-button-copy" transform="translate(206.000000, 206.000000)">
                    <rect id="bg" fill="#FFC107" x="0" y="0" width="110" height="36" rx="2"></rect>
                    <text id="Small-button" font-family="NotoSans-Medium, Noto Sans" font-size="14" font-weight="400" line-spacing="22" fill="#485464">
                        <tspan x="12.076" y="22">Small button</tspan>
                    </text>
                </g>
                <text id="Subtle" opacity="0.8" font-family="NotoSans-Medium, Noto Sans" font-size="14" font-weight="400" fill="#485464">
                    <tspan x="332.311" y="230">Subtle</tspan>
                </text>
            </g>
            <g id="notification-flag-error-copy-12" transform="translate(240.000000, 371.000000)">
                <g id="Group-2">
                    <mask id="mask-10" fill="white">
                        <use xlink:href="#path-9"></use>
                    </mask>
                    <g id="bg">
                        <use fill="black" fill-opacity="1" filter="url(#filter-11)" xlink:href="#path-9"></use>
                        <path stroke="#B2C0D0" stroke-width="0.5" d="M4,0.25 C1.92893219,0.25 0.25,1.92893219 0.25,4 L0.25,263 C0.25,265.071068 1.92893219,266.75 4,266.75 L396,266.75 C398.071068,266.75 399.75,265.071068 399.75,263 L399.75,4 C399.75,1.92893219 398.071068,0.25 396,0.25 L4,0.25 Z" stroke-linejoin="square" fill="#FFFFFF" fill-rule="evenodd"></path>
                    </g>
                    <rect id="Rectangle-5" fill="#F6F7FA" mask="url(#mask-10)" x="0" y="181" width="400" height="86"></rect>
                </g>
                <text id="Title" font-family="NotoSans-Bold, Noto Sans" font-size="18" font-weight="bold" line-spacing="26" fill="#485464">
                    <tspan x="61" y="35">Title</tspan>
                </text>
                <g id="check-circle" transform="translate(25.000000, 16.000000)">
                    <rect id="Rectangle-4" stroke-opacity="0.01" stroke="#FFFFFF" style="mix-blend-mode: multiply;" x="0.5" y="0.5" width="23" height="23"></rect>
                    <g transform="translate(4.000000, 4.000000)">
                        <mask id="mask-13" fill="white">
                            <use xlink:href="#path-12"></use>
                        </mask>
                        <g id="Clip-2"></g>
                        <path d="M6.8516,12.127 L3.3276,7.631 L4.8916,6.385 L6.8966,8.986 L11.1496,3.871 L12.6726,5.166 L6.8516,12.127 Z M7.9986,0 C3.5816,0 -0.0004,3.58 -0.0004,8 C-0.0004,12.418 3.5816,16 7.9986,16 C12.4186,16 15.9986,12.418 15.9986,8 C15.9986,3.58 12.4186,0 7.9986,0 Z" id="Fill-1" fill="#00C853" mask="url(#mask-13)"></path>
                    </g>
                </g>
                <text id="Lorem-Ipsum-is-simpl" font-family="NotoSans-Regular, Noto Sans" font-size="16" font-weight="normal" line-spacing="24" fill="#485464">
                    <tspan x="25" y="82">Lorem Ipsum is simply dummy text of the </tspan>
                    <tspan x="25" y="106">printing and typesetting industry. Lorem </tspan>
                    <tspan x="25" y="130">Ipsum has been the industry's standard</tspan>
                </text>
                <g id="small-button-copy" transform="translate(206.000000, 206.000000)">
                    <rect id="bg" fill="#097DB7" x="0" y="0" width="110" height="36" rx="2"></rect>
                    <text id="Small-button" font-family="NotoSans-Medium, Noto Sans" font-size="14" font-weight="400" line-spacing="22" fill="#FFFFFF">
                        <tspan x="12.076" y="22">Small button</tspan>
                    </text>
                </g>
                <text id="Subtle" opacity="0.8" font-family="NotoSans-Medium, Noto Sans" font-size="14" font-weight="400" fill="#485464">
                    <tspan x="332.311" y="228">Subtle</tspan>
                </text>
            </g>
            <g id="notification-flag-error-copy-14" transform="translate(240.000000, 678.000000)">
                <g id="Group-2">
                    <mask id="mask-15" fill="white">
                        <use xlink:href="#path-14"></use>
                    </mask>
                    <g id="bg">
                        <use fill="black" fill-opacity="1" filter="url(#filter-16)" xlink:href="#path-14"></use>
                        <path stroke="#B2C0D0" stroke-width="0.5" d="M4,0.25 C1.92893219,0.25 0.25,1.92893219 0.25,4 L0.25,263 C0.25,265.071068 1.92893219,266.75 4,266.75 L396,266.75 C398.071068,266.75 399.75,265.071068 399.75,263 L399.75,4 C399.75,1.92893219 398.071068,0.25 396,0.25 L4,0.25 Z" stroke-linejoin="square" fill="#FFFFFF" fill-rule="evenodd"></path>
                    </g>
                    <rect id="Rectangle-5" fill="#F6F7FA" mask="url(#mask-15)" x="0" y="181" width="400" height="86"></rect>
                </g>
                <text id="Title" font-family="NotoSans-Bold, Noto Sans" font-size="18" font-weight="bold" line-spacing="26" fill="#485464">
                    <tspan x="61" y="35">Title</tspan>
                </text>
                <g id="error-circle" transform="translate(25.000000, 16.000000)">
                    <rect id="Rectangle-4" stroke-opacity="0.01" stroke="#FFFFFF" style="mix-blend-mode: multiply;" x="0.5" y="0.5" width="23" height="23"></rect>
                    <g transform="translate(4.000000, 4.000000)">
                        <mask id="mask-18" fill="white">
                            <use xlink:href="#path-17"></use>
                        </mask>
                        <g id="Clip-2"></g>
                        <path d="M8.9492,9.5977 L7.0512,9.5977 L6.7512,3.5137 L9.2492,3.5137 L8.9492,9.5977 Z M7.0512,12.4847 L8.9492,12.4847 L8.9492,10.6507 L7.0512,10.6507 L7.0512,12.4847 Z M8.0002,-0.0003 C3.5822,-0.0003 0.0002,3.5797 0.0002,7.9997 C0.0002,12.4177 3.5822,15.9997 8.0002,15.9997 C12.4192,15.9997 16.0002,12.4177 16.0002,7.9997 C16.0002,3.5797 12.4192,-0.0003 8.0002,-0.0003 Z" id="Fill-1" fill="#F44336" mask="url(#mask-18)"></path>
                    </g>
                </g>
                <text id="Lorem-Ipsum-is-simpl" font-family="NotoSans-Regular, Noto Sans" font-size="16" font-weight="normal" line-spacing="24" fill="#485464">
                    <tspan x="25" y="84">Lorem Ipsum is simply dummy text of the </tspan>
                    <tspan x="25" y="108">printing and typesetting industry. Lorem </tspan>
                    <tspan x="25" y="132">Ipsum has been the industry's standard</tspan>
                </text>
                <g id="small-button-copy" transform="translate(206.000000, 206.000000)">
                    <rect id="bg" fill="#F44336" x="0" y="0" width="110" height="36" rx="2"></rect>
                    <text id="Small-button" font-family="NotoSans-Medium, Noto Sans" font-size="14" font-weight="400" line-spacing="22" fill="#FFFFFF">
                        <tspan x="12.076" y="22">Small button</tspan>
                    </text>
                </g>
                <text id="Subtle" opacity="0.8" font-family="NotoSans-Medium, Noto Sans" font-size="14" font-weight="400" fill="#485464">
                    <tspan x="332.311" y="228">Subtle</tspan>
                </text>
            </g>
        </g>
    </g>
</svg>