<?xml version="1.0" encoding="UTF-8"?>
<svg width="1040px" height="1791px" viewBox="0 0 1040 1791" version="1.1" xmlns="http://www.w3.org/2000/svg" xmlns:xlink="http://www.w3.org/1999/xlink">
    <!-- Generator: Sketch 52.4 (67378) - http://www.bohemiancoding.com/sketch -->
    <title>P_mt_02</title>
    <desc>Created with Sketch.</desc>
    <defs>
        <path d="M0,2.00751708 C0,0.898796011 0.898259461,0 2.00078235,0 L347.999218,0 C349.104219,0 350,0.896916389 350,2.00751708 L350,117.992483 C350,119.101204 349.101741,120 347.999218,120 L2.00078235,120 C0.895780769,120 0,119.103084 0,117.992483 L0,2.00751708 Z" id="path-1"></path>
        <filter x="-7.1%" y="-16.7%" width="114.3%" height="141.7%" filterUnits="objectBoundingBox" id="filter-2">
            <feOffset dx="0" dy="5" in="SourceAlpha" result="shadowOffsetOuter1"></feOffset>
            <feGaussianBlur stdDeviation="7.5" in="shadowOffsetOuter1" result="shadowBlurOuter1"></feGaussianBlur>
            <feComposite in="shadowBlurOuter1" in2="SourceAlpha" operator="out" result="shadowBlurOuter1"></feComposite>
            <feColorMatrix values="0 0 0 0 0   0 0 0 0 0   0 0 0 0 0  0 0 0 0.15 0" type="matrix" in="shadowBlurOuter1"></feColorMatrix>
        </filter>
        <polygon id="path-3" points="0.0002 0 16 0 16 15.9997 0.0002 15.9997"></polygon>
        <path d="M0,2.00751708 C0,0.898796011 0.898259461,0 2.00078235,0 L347.999218,0 C349.104219,0 350,0.896916389 350,2.00751708 L350,117.992483 C350,119.101204 349.101741,120 347.999218,120 L2.00078235,120 C0.895780769,120 0,119.103084 0,117.992483 L0,2.00751708 Z" id="path-5"></path>
        <filter x="-7.1%" y="-16.7%" width="114.3%" height="141.7%" filterUnits="objectBoundingBox" id="filter-6">
            <feOffset dx="0" dy="5" in="SourceAlpha" result="shadowOffsetOuter1"></feOffset>
            <feGaussianBlur stdDeviation="7.5" in="shadowOffsetOuter1" result="shadowBlurOuter1"></feGaussianBlur>
            <feComposite in="shadowBlurOuter1" in2="SourceAlpha" operator="out" result="shadowBlurOuter1"></feComposite>
            <feColorMatrix values="0 0 0 0 0   0 0 0 0 0   0 0 0 0 0  0 0 0 0.15 0" type="matrix" in="shadowBlurOuter1"></feColorMatrix>
        </filter>
        <polygon id="path-7" points="0 0.0003 16.5467 0.0003 16.5467 16.5381 0 16.5381"></polygon>
        <path d="M0,2.00751708 C0,0.898796011 0.898259461,0 2.00078235,0 L347.999218,0 C349.104219,0 350,0.896916389 350,2.00751708 L350,117.992483 C350,119.101204 349.101741,120 347.999218,120 L2.00078235,120 C0.895780769,120 0,119.103084 0,117.992483 L0,2.00751708 Z" id="path-9"></path>
        <filter x="-7.1%" y="-16.7%" width="114.3%" height="141.7%" filterUnits="objectBoundingBox" id="filter-10">
            <feOffset dx="0" dy="5" in="SourceAlpha" result="shadowOffsetOuter1"></feOffset>
            <feGaussianBlur stdDeviation="7.5" in="shadowOffsetOuter1" result="shadowBlurOuter1"></feGaussianBlur>
            <feComposite in="shadowBlurOuter1" in2="SourceAlpha" operator="out" result="shadowBlurOuter1"></feComposite>
            <feColorMatrix values="0 0 0 0 0   0 0 0 0 0   0 0 0 0 0  0 0 0 0.15 0" type="matrix" in="shadowBlurOuter1"></feColorMatrix>
        </filter>
        <polygon id="path-11" points="0 0 15.9986 0 15.9986 16 0 16"></polygon>
        <path d="M0,2.00751708 C0,0.898796011 0.898259461,0 2.00078235,0 L347.999218,0 C349.104219,0 350,0.896916389 350,2.00751708 L350,117.992483 C350,119.101204 349.101741,120 347.999218,120 L2.00078235,120 C0.895780769,120 0,119.103084 0,117.992483 L0,2.00751708 Z" id="path-13"></path>
        <filter x="-7.1%" y="-16.7%" width="114.3%" height="141.7%" filterUnits="objectBoundingBox" id="filter-14">
            <feOffset dx="0" dy="5" in="SourceAlpha" result="shadowOffsetOuter1"></feOffset>
            <feGaussianBlur stdDeviation="7.5" in="shadowOffsetOuter1" result="shadowBlurOuter1"></feGaussianBlur>
            <feComposite in="shadowBlurOuter1" in2="SourceAlpha" operator="out" result="shadowBlurOuter1"></feComposite>
            <feColorMatrix values="0 0 0 0 0   0 0 0 0 0   0 0 0 0 0  0 0 0 0.15 0" type="matrix" in="shadowBlurOuter1"></feColorMatrix>
        </filter>
        <polygon id="path-15" points="0.7315 0.299 17.1125 0.299 17.1125 7.4248 0.7315 7.4248"></polygon>
        <polygon id="path-17" points="0 0 16 0 16 16 0 16"></polygon>
        <polygon id="path-19" points="0.0002 0 16 0 16 15.9997 0.0002 15.9997"></polygon>
        <polygon id="path-21" points="0 0.0003 16.5467 0.0003 16.5467 16.5381 0 16.5381"></polygon>
        <polygon id="path-23" points="0 0 15.9986 0 15.9986 16 0 16"></polygon>
        <polygon id="path-25" points="0 0.0002 15.9608 0.0002 15.9608 16.1159 0 16.1159"></polygon>
        <polygon id="path-27" points="0.0003 0.9995 16.417 0.9995 16.417 16.7285 0.0003 16.7285"></polygon>
        <polygon id="path-29" points="0.0002 0 16 0 16 15.9997 0.0002 15.9997"></polygon>
        <polygon id="path-31" points="0 0.0003 16.5467 0.0003 16.5467 16.5381 0 16.5381"></polygon>
        <polygon id="path-33" points="0 0 15.9986 0 15.9986 16 0 16"></polygon>
    </defs>
    <g id="P_mt_02" stroke="none" stroke-width="1" fill="none" fill-rule="evenodd">
        <rect fill="#FFFFFF" x="0" y="0" width="1040" height="1791"></rect>
        <text id="Buttons" font-family="NotoSans-Regular, Noto Sans" font-size="24" font-weight="normal" fill="#485465">
            <tspan x="80" y="430">Buttons</tspan>
        </text>
        <text id="Notification" font-family="NotoSans-Regular, Noto Sans" font-size="24" font-weight="normal" fill="#485465">
            <tspan x="80" y="772">Notification</tspan>
        </text>
        <text id="Iconography" font-family="NotoSans-Regular, Noto Sans" font-size="24" font-weight="normal" fill="#485465">
            <tspan x="80" y="67">Iconography</tspan>
        </text>
        <path d="M80,449.5 L960,449.5" id="Line-Copy-3" stroke="#B2C0D0" stroke-width="0.6" stroke-linecap="square" fill-rule="nonzero"></path>
        <path d="M80,791.5 L960,791.5" id="Line-Copy-5" stroke="#B2C0D0" stroke-width="0.6" stroke-linecap="square" fill-rule="nonzero"></path>
        <text id="Flag-messages" font-family="NotoSans-Regular, Noto Sans" font-size="16" font-weight="normal" fill="#485465">
            <tspan x="80" y="1246">Flag messages</tspan>
        </text>
        <polygon id="Rectangle" fill="#F6F7FA" points="80 1283 960 1283 960 1691 80 1691"></polygon>
        <g id="notification-flag-error" transform="translate(150.000000, 1347.000000)">
            <g>
                <g id="bg">
                    <use fill="black" fill-opacity="1" filter="url(#filter-2)" xlink:href="#path-1"></use>
                    <path stroke="#B2C0D0" stroke-width="0.5" d="M0.25,2.00751708 L0.25,117.992483 C0.25,118.964515 1.03335663,119.75 2.00078235,119.75 L347.999218,119.75 C348.964385,119.75 349.75,118.962415 349.75,117.992483 L349.75,2.00751708 C349.75,1.03548512 348.966643,0.25 347.999218,0.25 L2.00078235,0.25 C1.03561496,0.25 0.25,1.03758542 0.25,2.00751708 Z" stroke-linejoin="square" fill="#FFFFFF" fill-rule="evenodd"></path>
                </g>
                <path d="M2,0 L5,0 L5,120 L2,120 C0.8954305,120 1.3527075e-16,119.104569 0,118 L0,2 C-1.3527075e-16,0.8954305 0.8954305,2.02906125e-16 2,0 Z" id="Rectangle" fill="#F44336"></path>
                <text id="Error:-Notificaton-t" font-family="NotoSans-Bold, Noto Sans" font-size="16" font-weight="bold" line-spacing="24" fill="#485464">
                    <tspan x="51" y="33">Error: Notificaton title</tspan>
                </text>
                <text id="Subtitle-text" font-family="NotoSans-Regular, Noto Sans" font-size="14" font-weight="normal" line-spacing="22" fill="#718091">
                    <tspan x="51" y="55">Subtitle text</tspan>
                </text>
                <g id="close" opacity="0.8" transform="translate(310.000000, 16.000000)">
                    <rect id="Rectangle-4" stroke-opacity="0.01" stroke="#FFFFFF" style="mix-blend-mode: multiply;" x="0.5" y="0.5" width="23" height="23"></rect>
                    <polygon fill="#485464" points="17.5557825 5 12.5 10.0553853 7.44421747 5 6 6.44410401 11.0557825 11.5005106 6 16.555896 7.44421747 18 12.5 12.9446147 17.5557825 18 19 16.555896 13.9442175 11.5005106 19 6.44410401"></polygon>
                </g>
                <g id="error-circle" transform="translate(20.000000, 20.000000)">
                    <mask id="mask-4" fill="white">
                        <use xlink:href="#path-3"></use>
                    </mask>
                    <g id="Clip-2"></g>
                    <path d="M8.9492,9.5977 L7.0512,9.5977 L6.7512,3.5137 L9.2492,3.5137 L8.9492,9.5977 Z M7.0512,12.4847 L8.9492,12.4847 L8.9492,10.6507 L7.0512,10.6507 L7.0512,12.4847 Z M8.0002,-0.0003 C3.5822,-0.0003 0.0002,3.5797 0.0002,7.9997 C0.0002,12.4177 3.5822,15.9997 8.0002,15.9997 C12.4192,15.9997 16.0002,12.4177 16.0002,7.9997 C16.0002,3.5797 12.4192,-0.0003 8.0002,-0.0003 Z" id="Fill-1" fill="#F44336" mask="url(#mask-4)"></path>
                </g>
            </g>
        </g>
        <g id="notification-flag-warning" transform="translate(540.000000, 1347.000000)">
            <g>
                <g id="bg">
                    <use fill="black" fill-opacity="1" filter="url(#filter-6)" xlink:href="#path-5"></use>
                    <path stroke="#B2C0D0" stroke-width="0.5" d="M0.25,2.00751708 L0.25,117.992483 C0.25,118.964515 1.03335663,119.75 2.00078235,119.75 L347.999218,119.75 C348.964385,119.75 349.75,118.962415 349.75,117.992483 L349.75,2.00751708 C349.75,1.03548512 348.966643,0.25 347.999218,0.25 L2.00078235,0.25 C1.03561496,0.25 0.25,1.03758542 0.25,2.00751708 Z" stroke-linejoin="square" fill="#FFFFFF" fill-rule="evenodd"></path>
                </g>
                <path d="M2,0 L5,0 L5,120 L2,120 C0.8954305,120 1.3527075e-16,119.104569 0,118 L0,2 C-1.3527075e-16,0.8954305 0.8954305,2.02906125e-16 2,0 Z" id="Rectangle" fill="#FFC107"></path>
                <text id="Warning:-Notificaton" font-family="NotoSans-Bold, Noto Sans" font-size="16" font-weight="bold" line-spacing="24" fill="#485464">
                    <tspan x="52" y="33">Warning: Notificaton title</tspan>
                </text>
                <text id="Subtitle-text" font-family="NotoSans-Regular, Noto Sans" font-size="14" font-weight="normal" line-spacing="22" fill="#718091">
                    <tspan x="52" y="55">Subtitle text</tspan>
                </text>
                <g id="close" opacity="0.8" transform="translate(310.000000, 16.000000)">
                    <rect id="Rectangle-4" stroke-opacity="0.01" stroke="#FFFFFF" style="mix-blend-mode: multiply;" x="0.5" y="0.5" width="23" height="23"></rect>
                    <polygon fill="#485464" points="17.5557825 5 12.5 10.0553853 7.44421747 5 6 6.44410401 11.0557825 11.5005106 6 16.555896 7.44421747 18 12.5 12.9446147 17.5557825 18 19 16.555896 13.9442175 11.5005106 19 6.44410401"></polygon>
                </g>
                <g id="warning-circle" transform="translate(20.000000, 20.000000)">
                    <mask id="mask-8" fill="white">
                        <use xlink:href="#path-7"></use>
                    </mask>
                    <g id="Clip-2"></g>
                    <path d="M9.2227,11.8223 L7.3247,11.8223 L7.0247,5.7383 L9.5227,5.7383 L9.2227,11.8223 Z M7.3247,14.7093 L9.2227,14.7093 L9.2227,12.8753 L7.3247,12.8753 L7.3247,14.7093 Z M16.4647,15.5673 L16.4657,15.5653 L8.8607,0.3673 L8.8607,0.3693 C8.7537,0.1513 8.5327,0.0003 8.2737,0.0003 C8.0127,0.0003 7.7897,0.1523 7.6837,0.3713 L0.0787,15.5713 C0.0317,15.6643 -0.0003,15.7683 -0.0003,15.8803 C-0.0003,16.2433 0.2927,16.5383 0.6577,16.5383 L15.8887,16.5383 L15.8897,16.5383 C16.2537,16.5383 16.5467,16.2433 16.5467,15.8803 C16.5467,15.7663 16.5157,15.6613 16.4647,15.5673 Z" id="Fill-1" fill="#FFC107" mask="url(#mask-8)"></path>
                </g>
            </g>
        </g>
        <g id="notification-flag-success" transform="translate(150.000000, 1507.000000)">
            <g>
                <g id="bg">
                    <use fill="black" fill-opacity="1" filter="url(#filter-10)" xlink:href="#path-9"></use>
                    <path stroke="#B2C0D0" stroke-width="0.5" d="M0.25,2.00751708 L0.25,117.992483 C0.25,118.964515 1.03335663,119.75 2.00078235,119.75 L347.999218,119.75 C348.964385,119.75 349.75,118.962415 349.75,117.992483 L349.75,2.00751708 C349.75,1.03548512 348.966643,0.25 347.999218,0.25 L2.00078235,0.25 C1.03561496,0.25 0.25,1.03758542 0.25,2.00751708 Z" stroke-linejoin="square" fill="#FFFFFF" fill-rule="evenodd"></path>
                </g>
                <path d="M2,0 L5,0 L5,120 L2,120 C0.8954305,120 1.3527075e-16,119.104569 0,118 L0,2 C-1.3527075e-16,0.8954305 0.8954305,2.02906125e-16 2,0 Z" id="Rectangle" fill="#00C853"></path>
                <text id="Success:-Notificaton" font-family="NotoSans-Bold, Noto Sans" font-size="16" font-weight="bold" line-spacing="24" fill="#485464">
                    <tspan x="51" y="33">Success: Notificaton title</tspan>
                </text>
                <text id="Subtitle-text" font-family="NotoSans-Regular, Noto Sans" font-size="14" font-weight="normal" line-spacing="22" fill="#718091">
                    <tspan x="51" y="55">Subtitle text</tspan>
                </text>
                <g id="close" opacity="0.8" transform="translate(310.000000, 16.000000)">
                    <rect id="Rectangle-4" stroke-opacity="0.01" stroke="#FFFFFF" style="mix-blend-mode: multiply;" x="0.5" y="0.5" width="23" height="23"></rect>
                    <polygon fill="#485464" points="17.5557825 5 12.5 10.0553853 7.44421747 5 6 6.44410401 11.0557825 11.5005106 6 16.555896 7.44421747 18 12.5 12.9446147 17.5557825 18 19 16.555896 13.9442175 11.5005106 19 6.44410401"></polygon>
                </g>
                <g id="check-circle" transform="translate(20.000000, 20.000000)">
                    <mask id="mask-12" fill="white">
                        <use xlink:href="#path-11"></use>
                    </mask>
                    <g id="Clip-2"></g>
                    <path d="M6.8516,12.127 L3.3276,7.631 L4.8916,6.385 L6.8966,8.986 L11.1496,3.871 L12.6726,5.166 L6.8516,12.127 Z M7.9986,0 C3.5816,0 -0.0004,3.58 -0.0004,8 C-0.0004,12.418 3.5816,16 7.9986,16 C12.4186,16 15.9986,12.418 15.9986,8 C15.9986,3.58 12.4186,0 7.9986,0 Z" id="Fill-1" fill="#00C853" mask="url(#mask-12)"></path>
                </g>
            </g>
        </g>
        <g id="notification-flag-information" transform="translate(540.000000, 1507.000000)">
            <g>
                <g id="bg">
                    <use fill="black" fill-opacity="1" filter="url(#filter-14)" xlink:href="#path-13"></use>
                    <path stroke="#B2C0D0" stroke-width="0.5" d="M0.25,2.00751708 L0.25,117.992483 C0.25,118.964515 1.03335663,119.75 2.00078235,119.75 L347.999218,119.75 C348.964385,119.75 349.75,118.962415 349.75,117.992483 L349.75,2.00751708 C349.75,1.03548512 348.966643,0.25 347.999218,0.25 L2.00078235,0.25 C1.03561496,0.25 0.25,1.03758542 0.25,2.00751708 Z" stroke-linejoin="square" fill="#FFFFFF" fill-rule="evenodd"></path>
                </g>
                <path d="M2,0 L5,0 L5,120 L2,120 C0.8954305,120 1.3527075e-16,119.104569 0,118 L0,2 C-1.3527075e-16,0.8954305 0.8954305,2.02906125e-16 2,0 Z" id="Rectangle" fill="#7364FF"></path>
                <text id="Information:-Notific" font-family="NotoSans-Bold, Noto Sans" font-size="16" font-weight="bold" line-spacing="24" fill="#485464">
                    <tspan x="51" y="33">Information: Notificaton title</tspan>
                </text>
                <text id="Subtitle-text" font-family="NotoSans-Regular, Noto Sans" font-size="14" font-weight="normal" line-spacing="22" fill="#718091">
                    <tspan x="51" y="55">Subtitle text</tspan>
                </text>
                <g id="close" opacity="0.8" transform="translate(310.000000, 16.000000)">
                    <rect id="Rectangle-4" stroke-opacity="0.01" stroke="#FFFFFF" style="mix-blend-mode: multiply;" x="0.5" y="0.5" width="23" height="23"></rect>
                    <polygon fill="#485464" points="17.5557825 5 12.5 10.0553853 7.44421747 5 6 6.44410401 11.0557825 11.5005106 6 16.555896 7.44421747 18 12.5 12.9446147 17.5557825 18 19 16.555896 13.9442175 11.5005106 19 6.44410401"></polygon>
                </g>
                <path d="M27.051,25.35 L28.949,25.35 L28.949,23.516 L27.051,23.516 L27.051,25.35 Z M27.051,32.486 L28.949,32.486 L28.949,26.402 L27.051,26.402 L27.051,32.486 Z M28,20 C23.582,20 20,23.582 20,28 C20,32.42 23.582,36 28,36 C32.418,36 36,32.42 36,28 C36,23.582 32.418,20 28,20 Z" id="information-circle" fill="#7364FF"></path>
            </g>
        </g>
        <text id="Banners-Copy" font-family="NotoSans-Regular, Noto Sans" font-size="16" font-weight="normal" fill="#485465">
            <tspan x="80" y="849">Banners</tspan>
        </text>
        <path d="M80,85.5 L960,85.5" id="Line-Copy-4" stroke="#B2C0D0" stroke-width="0.6" stroke-linecap="square" fill-rule="nonzero"></path>
        <g id="Group-6" transform="translate(80.000000, 126.000000)">
            <g id="graph-line-thin" transform="translate(228.000000, 0.000000)">
                <rect id="Rectangle-4" stroke-opacity="0.01" stroke="#FFFFFF" style="mix-blend-mode: multiply;" x="0.5" y="0.5" width="23" height="23"></rect>
                <polygon fill="#485464" points="3 5 3 19 21 19 21 17.833 4.839 17.833 7.502 12.538 10.838 13.975 14.033 7.374 16.923 10.891 20.784 6.714 19.903 5.9 16.976 9.065 13.769 5.164 10.258 12.419 6.938 10.989 4.125 16.581 4.125 5"></polygon>
            </g>
            <g id="graph-bar-thin" transform="translate(285.000000, 0.000000)">
                <rect id="Rectangle-4" stroke-opacity="0.01" stroke="#F6F7FA" x="0.5" y="0.5" width="23" height="23"></rect>
                <polygon fill="#485464" points="3 5 3 19 21 19 21 17.833 18.766 17.833 18.766 8.809 15.766 8.809 15.766 17.833 13.882 17.833 13.882 5.559 10.882 5.559 10.882 17.833 8.999 17.833 8.999 10.366 5.999 10.366 5.999 17.833 4.125 17.833 4.125 5"></polygon>
            </g>
            <g id="graph-scatter-thin" transform="translate(342.000000, 0.000000)">
                <rect id="Rectangle-4" stroke-opacity="0.01" stroke="#FFFFFF" style="mix-blend-mode: multiply;" x="0.5" y="0.5" width="23" height="23"></rect>
                <g transform="translate(3.000000, 5.000000)" fill="#485464">
                    <polygon id="Fill-1" points="0 -0.0004 0 13.9996 18 13.9996 18 12.8326 1.125 12.8326 1.125 -0.0004"></polygon>
                    <g id="Group-12" transform="translate(3.000000, 1.000000)">
                        <path d="M2.541,10.2217 C3.802,10.2217 4.822,9.2007 4.822,7.9397 C4.822,6.6787 3.802,5.6577 2.541,5.6577 C1.28,5.6577 0.259,6.6787 0.259,7.9397 C0.259,9.2007 1.28,10.2217 2.541,10.2217" id="Fill-2"></path>
                        <path d="M6.4453,6.1025 C6.4453,6.9675 7.1443,7.6685 8.0093,7.6685 C8.8753,7.6685 9.5743,6.9675 9.5743,6.1025 C9.5743,5.2395 8.8753,4.5385 8.0093,4.5385 C7.1443,4.5385 6.4453,5.2395 6.4453,6.1025" id="Fill-4"></path>
                        <path d="M7.3066,2.8086 C8.0286,2.8086 8.6136,2.2236 8.6136,1.5026 C8.6136,0.7806 8.0286,0.1946 7.3066,0.1946 C6.5836,0.1946 5.9996,0.7806 5.9996,1.5026 C5.9996,2.2236 6.5836,2.8086 7.3066,2.8086" id="Fill-6"></path>
                        <path d="M11.3604,3.6738 C11.8364,3.6738 12.2234,3.2868 12.2234,2.8088 C12.2234,2.3298 11.8364,1.9438 11.3604,1.9438 C10.8824,1.9438 10.4954,2.3298 10.4954,2.8088 C10.4954,3.2868 10.8824,3.6738 11.3604,3.6738" id="Fill-8"></path>
                        <path d="M3.9121,4.5381 C4.4961,4.5381 4.9701,4.0631 4.9701,3.4781 C4.9701,2.8931 4.4961,2.4201 3.9121,2.4201 C3.3271,2.4201 2.8531,2.8931 2.8531,3.4781 C2.8531,4.0631 3.3271,4.5381 3.9121,4.5381" id="Fill-10"></path>
                    </g>
                </g>
            </g>
            <g id="check" transform="translate(514.000000, 57.000000)">
                <rect id="Rectangle-4" stroke-opacity="0.01" stroke="#FFFFFF" style="mix-blend-mode: multiply;" x="0.5" y="0.5" width="23" height="23"></rect>
                <polygon fill="#485464" points="18.4830677 5 9.47808765 15.8566529 5.55776892 10.7034443 4 11.9499786 9.43326693 19 20 6.29555524"></polygon>
            </g>
            <g id="sync" transform="translate(571.000000, 57.000000)">
                <rect id="Rectangle-4" stroke-opacity="0.01" stroke="#FFFFFF" style="mix-blend-mode: multiply;" x="0.5" y="0.5" width="23" height="23"></rect>
                <g transform="translate(3.000000, 4.000000)">
                    <g id="Group-3" transform="translate(0.000000, 0.701200)">
                        <mask id="mask-16" fill="white">
                            <use xlink:href="#path-15"></use>
                        </mask>
                        <g id="Clip-2"></g>
                        <path d="M2.7065,7.4248 C3.0725,4.5178 5.5545,2.2588 8.5595,2.2588 C10.3575,2.2588 11.9605,3.0758 13.0455,4.3498 L11.0565,3.9368 L10.6595,5.8568 L16.0065,6.9648 L17.1125,1.6288 L15.1935,1.2318 L14.7565,3.3378 L14.7445,3.3458 C13.3045,1.4998 11.0755,0.2988 8.5595,0.2988 C4.4725,0.2988 1.1065,3.4348 0.7315,7.4248 L2.7065,7.4248 Z" id="Fill-1" fill="#485464" mask="url(#mask-16)"></path>
                    </g>
                    <path d="M14.4062,9.5752 C14.0402,12.4822 11.5582,14.7412 8.5522,14.7412 C6.7552,14.7412 5.1522,13.9242 4.0672,12.6512 L6.0562,13.0632 L6.4532,11.1432 L1.1062,10.0352 L0.0002,15.3712 L1.9192,15.7692 L2.3562,13.6632 L2.3682,13.6552 C3.8082,15.5002 6.0372,16.7012 8.5522,16.7012 C12.6402,16.7012 16.0062,13.5662 16.3802,9.5752 L14.4062,9.5752 Z" id="Fill-4" fill="#485464"></path>
                </g>
            </g>
            <g id="graph-sm-bar-thin" transform="translate(457.000000, 0.000000)">
                <rect id="Rectangle-4" stroke-opacity="0.01" stroke="#FFFFFF" style="mix-blend-mode: multiply;" x="0.5" y="0.5" width="23" height="23"></rect>
                <polygon fill="#485464" points="3 5 3 10.682 3 11.849 3 19 5.9988334 19 8.99866674 19 10.8815621 19 13.8813955 19 15.7652908 19 18.7651242 19 21 19 21 17.833 18.7651242 17.833 18.7651242 14.757 15.7652908 14.757 15.7652908 17.833 13.8813955 17.833 13.8813955 13.389 10.8815621 13.389 10.8815621 17.833 8.99866674 17.833 8.99866674 15.129 5.9988334 15.129 5.9988334 17.833 4.12593745 17.833 4.12593745 11.849 5.9988334 11.849 8.99866674 11.849 10.8815621 11.849 13.8813955 11.849 15.7652908 11.849 18.7651242 11.849 21 11.849 21 10.682 18.7651242 10.682 18.7651242 7.605 15.7652908 7.605 15.7652908 10.682 13.8813955 10.682 13.8813955 6.238 10.8815621 6.238 10.8815621 10.682 8.99866674 10.682 8.99866674 7.976 5.9988334 7.976 5.9988334 10.682 4.12593745 10.682 4.12593745 5"></polygon>
            </g>
            <g id="search" transform="translate(228.000000, 57.000000)">
                <rect id="Rectangle-4" stroke-opacity="0.01" stroke="#FFFFFF" style="mix-blend-mode: multiply;" x="0.5" y="0.5" width="23" height="23"></rect>
                <path d="M15,10.5 C15,8.015 12.986,6 10.5,6 C8.016,6 6,8.015 6,10.5 C6,12.985 8.016,15 10.5,15 C12.986,15 15,12.985 15,10.5 M10.5,17 C6.91,17 4,14.09 4,10.5 C4,6.91 6.91,4 10.5,4 C14.09,4 17,6.91 17,10.5 C17,11.934 16.536,13.26 15.75,14.335 L19.735,18.32 C20.126,18.711 20.126,19.344 19.735,19.734 C19.345,20.125 18.711,20.125 18.321,19.734 L14.335,15.749 C13.26,16.535 11.935,17 10.5,17" id="Fill-1" fill="#485464"></path>
            </g>
            <g id="graph-sm-line-thin" transform="translate(399.000000, 0.000000)">
                <rect id="Rectangle-4" stroke-opacity="0.01" stroke="#FFFFFF" style="mix-blend-mode: multiply;" x="0.5" y="0.5" width="23" height="23"></rect>
                <polygon fill="#485464" points="3 5 3 10.682 3 11.849 3 19 21 19 21 17.833 5.318 17.833 10.679 14.791 15.175 16.692 20.146 14.366 19.622 13.246 15.149 15.338 10.599 13.414 4.125 17.087 4.125 11.849 21 11.849 21 10.682 5.344 10.682 10.654 7.669 15.149 9.568 20.12 7.244 19.597 6.122 15.124 8.215 10.574 6.292 4.125 9.951 4.125 5"></polygon>
            </g>
            <g id="delete" transform="translate(171.000000, 57.000000)">
                <rect id="Rectangle-4" stroke-opacity="0.01" stroke="#FFFFFF" style="mix-blend-mode: multiply;" x="0.5" y="0.5" width="23" height="23"></rect>
                <g transform="translate(4.000000, 4.000000)" fill="#485464">
                    <path d="M5.319,-0.0001 L5.319,1.9909 L1.322,1.9909 L0,1.9909 L0,3.9909 L1.322,3.9909 L1.322,15.3469 L14.678,15.3469 L14.678,3.9909 L16,3.9909 L16,1.9909 L14.678,1.9909 L10.68,1.9909 L10.68,-0.0001 L5.319,-0.0001 Z M3.322,13.3469 L12.677,13.3469 L12.677,3.9909 L3.322,3.9909 L3.322,13.3469 Z" id="Fill-1"></path>
                    <polygon id="Fill-2" points="5.261 11.5387 7.261 11.5387 7.261 5.8617 5.261 5.8617"></polygon>
                    <polygon id="Fill-3" points="8.739 11.5387 10.739 11.5387 10.739 5.8617 8.739 5.8617"></polygon>
                </g>
            </g>
            <g id="edit" transform="translate(285.000000, 57.000000)">
                <rect id="Rectangle-4" stroke-opacity="0.01" stroke="#FFFFFF" style="mix-blend-mode: multiply;" x="0.5" y="0.5" width="23" height="23"></rect>
                <path d="M6.23319,15.4896145 L5,20 L9.49704284,18.7493836 L16.5993602,11.6564772 L13.2958062,8.43668647 L6.23319,15.4896145 L6.23319,15.4896145 Z M16.0606032,5.67503778 L14.291267,7.44227358 L17.6058426,10.6516922 L19.3238382,8.93532355 C20.2253873,8.03477643 20.2253873,6.57548555 19.3238382,5.67503778 C18.4224884,4.77498741 16.9609166,4.77498741 16.0606032,5.67503778 Z" fill="#485464"></path>
            </g>
            <g id="chevron-left" transform="translate(514.000000, 0.000000)">
                <rect id="Rectangle-4" stroke-opacity="0.01" stroke="#FFFFFF" style="mix-blend-mode: multiply;" x="0.5" y="0.5" width="23" height="23"></rect>
                <polygon fill="#485464" points="14.6476987 5 8 12.0015107 14.6476987 19 16 17.5759298 10.7065152 12.0015107 16 6.42507733"></polygon>
            </g>
            <g id="chevron-right" transform="translate(571.000000, 0.000000)">
                <rect id="Rectangle-4" stroke-opacity="0.01" stroke="#FFFFFF" style="mix-blend-mode: multiply;" x="0.5" y="0.5" width="23" height="23"></rect>
                <polygon fill="#485464" points="9.35230126 5 8 6.42507733 13.2944411 11.9994964 8 17.5759298 9.35230126 19 16 11.9994964"></polygon>
            </g>
            <g id="chevron-up" transform="translate(628.000000, 0.000000)">
                <rect id="Rectangle-4" stroke-opacity="0.01" stroke="#FFFFFF" style="mix-blend-mode: multiply;" x="0.5" y="0.5" width="23" height="23"></rect>
                <polygon fill="#485464" points="11.998993 8 5 14.6475371 6.42497482 16 11.998993 10.7058824 17.5750252 16 19 14.6475371"></polygon>
            </g>
            <g id="ascending-sort" transform="translate(354.000000, 126.000000) rotate(-180.000000) translate(-354.000000, -126.000000) translate(342.000000, 114.000000)">
                <rect id="Rectangle-4" stroke-opacity="0.01" stroke="#FFFFFF" style="mix-blend-mode: multiply;" x="0.5" y="0.5" width="23" height="23"></rect>
                <g id="Group-2" transform="translate(7.000000, 6.000000)" fill="#485464">
                    <polygon id="chevron-up" points="4.99899295 0 0.109549533 4.64753706 1.53452436 6 4.99899295 2.70588235 8.47949219 6 9.90446701 4.64753706"></polygon>
                    <rect id="Rectangle-5" x="4" y="2" width="2" height="10"></rect>
                </g>
            </g>
            <g id="descending-sort" transform="translate(399.000000, 114.000000)">
                <rect id="Rectangle-4" stroke-opacity="0.01" stroke="#FFFFFF" style="mix-blend-mode: multiply;" x="0.5" y="0.5" width="23" height="23"></rect>
                <g id="Group-2" transform="translate(7.000000, 6.000000)" fill="#485464">
                    <polygon id="chevron-up" points="4.99899295 0 0.109549533 4.64753706 1.53452436 6 4.99899295 2.70588235 8.47949219 6 9.90446701 4.64753706"></polygon>
                    <rect id="Rectangle-5" x="4" y="2" width="2" height="10"></rect>
                </g>
            </g>
            <g id="chevron-down" transform="translate(685.000000, 0.000000)">
                <rect id="Rectangle-4" stroke-opacity="0.01" stroke="#FFFFFF" style="mix-blend-mode: multiply;" x="0.5" y="0.5" width="23" height="23"></rect>
                <polygon fill="#485464" points="17.5750252 8 12.001007 13.2944411 6.42497482 8 5 9.35325762 12.001007 16 19 9.35325762"></polygon>
            </g>
            <g id="plus" transform="translate(742.000000, 0.000000)">
                <rect id="Rectangle-4" stroke-opacity="0.01" stroke="#FFFFFF" style="mix-blend-mode: multiply;" x="0.5" y="0.5" width="23" height="23"></rect>
                <polygon fill="#485464" points="11 4 11 11 4 11 4 13 11 13 11 20 13 20 13 13 20 13 20 11 13 11 13 4"></polygon>
            </g>
            <g id="minus" transform="translate(799.000000, 0.000000)">
                <rect id="Rectangle-4" stroke-opacity="0.01" stroke="#FFFFFF" style="mix-blend-mode: multiply;" x="0.5" y="0.5" width="23" height="23"></rect>
                <polygon fill="#485464" points="4 13 20 13 20 11 4 11"></polygon>
            </g>
            <g id="list" transform="translate(571.000000, 114.000000)">
                <rect id="Rectangle-4" stroke-opacity="0.01" stroke="#FFFFFF" style="mix-blend-mode: multiply;" x="0.5" y="0.5" width="23" height="23"></rect>
                <g id="Group-4" transform="translate(6.000000, 7.000000)" fill="#485464">
                    <polygon id="minus" points="0 2 12 2 12 0 0 0"></polygon>
                    <polygon id="minus-copy-3" points="0 6 12 6 12 4 0 4"></polygon>
                    <polygon id="minus-copy-4" points="0 10 12 10 12 8 0 8"></polygon>
                </g>
            </g>
            <g id="save" transform="translate(628.000000, 114.000000)">
                <rect id="Rectangle-4" stroke-opacity="0.01" stroke="#FFFFFF" style="mix-blend-mode: multiply;" x="0.5" y="0.5" width="23" height="23"></rect>
                <path d="M5,4 L5,19 L19,19 L19,8.07065217 L14.7389783,4 L5,4 Z M7.68206522,8.56506522 L11.2581522,8.56506522 L11.2581522,6.28245652 L7.68206522,6.28245652 L7.68206522,8.56506522 Z M7.68206522,16.9090169 L16.3179348,16.9090169 L16.3179348,10.5434783 L7.68206522,10.5434783 L7.68206522,16.9090169 Z" id="Fill-1" fill="#485464"></path>
            </g>
            <g id="loading" transform="translate(457.000000, 57.000000)">
                <rect id="Rectangle-4" stroke-opacity="0.01" stroke="#FFFFFF" style="mix-blend-mode: multiply;" x="0.5" y="0.5" width="23" height="23"></rect>
                <path d="M4,12 C4,16.418278 7.581722,20 12,20 C16.418278,20 20,16.418278 20,12 C20,7.581722 16.418278,4 12,4 C11.6601325,4 11.3846154,4.27551708 11.3846154,4.61538462 C11.3846154,4.95525215 11.6601325,5.23076923 12,5.23076923 C15.7385429,5.23076923 18.7692308,8.26145708 18.7692308,12 C18.7692308,15.7385429 15.7385429,18.7692308 12,18.7692308 C8.26145708,18.7692308 5.23076923,15.7385429 5.23076923,12 C5.23076923,11.6601325 4.95525215,11.3846154 4.61538462,11.3846154 C4.27551708,11.3846154 4,11.6601325 4,12 L4,12 Z" fill="#485464" fill-rule="nonzero"></path>
            </g>
            <g id="close-circle" transform="translate(628.000000, 57.000000)">
                <rect id="Rectangle-4" stroke-opacity="0.01" stroke="#FFFFFF" style="mix-blend-mode: multiply;" x="0.5" y="0.5" width="23" height="23"></rect>
                <path d="M16.207,14.793 L14.793,16.207 L12,13.414 L9.208,16.207 L7.794,14.793 L10.586,12 L7.794,9.207 L9.208,7.793 L12,10.586 L14.793,7.793 L16.207,9.207 L13.414,12 L16.207,14.793 Z M12,4 C7.582,4 4,7.582 4,12 C4,16.42 7.582,20 12,20 C16.419,20 20,16.42 20,12 C20,7.582 16.419,4 12,4 Z" fill="#485464"></path>
            </g>
            <g id="help-circle" transform="translate(685.000000, 57.000000)">
                <rect id="Rectangle-4" stroke-opacity="0.01" stroke="#FFFFFF" style="mix-blend-mode: multiply;" x="0.5" y="0.5" width="23" height="23"></rect>
                <g transform="translate(4.000000, 4.000000)">
                    <mask id="mask-18" fill="white">
                        <use xlink:href="#path-17"></use>
                    </mask>
                    <g id="Clip-2"></g>
                    <path d="M10.807,7.381 C10.647,7.61 10.338,7.902 9.883,8.258 L9.433,8.608 C9.189,8.797 9.026,9.02 8.946,9.274 C8.895,9.434 8.868,9.684 8.864,10.022 L7.144,10.022 C7.168,9.307 7.237,8.813 7.346,8.539 C7.455,8.268 7.739,7.953 8.194,7.598 L8.656,7.236 C8.808,7.121 8.93,6.996 9.023,6.861 C9.192,6.629 9.277,6.373 9.277,6.094 C9.277,5.772 9.182,5.479 8.995,5.213 C8.807,4.949 8.463,4.817 7.965,4.817 C7.476,4.817 7.128,4.981 6.923,5.307 C6.719,5.631 6.617,5.971 6.617,6.322 L4.783,6.322 C4.833,5.115 5.254,4.26 6.045,3.758 C6.544,3.436 7.159,3.276 7.886,3.276 C8.842,3.276 9.637,3.504 10.27,3.961 C10.903,4.418 11.218,5.094 11.218,5.992 C11.218,6.541 11.081,7.004 10.807,7.381 Z M7.099,12.727 L8.997,12.727 L8.997,10.893 L7.099,10.893 L7.099,12.727 Z M8,0 C3.582,0 0,3.582 0,8 C0,12.42 3.582,16 8,16 C12.419,16 16,12.42 16,8 C16,3.582 12.419,0 8,0 Z" id="Fill-1" fill="#485464" mask="url(#mask-18)"></path>
                </g>
            </g>
            <g id="information-circle" transform="translate(742.000000, 57.000000)">
                <rect id="Rectangle-4" stroke-opacity="0.01" stroke="#FFFFFF" style="mix-blend-mode: multiply;" x="0.5" y="0.5" width="23" height="23"></rect>
                <path d="M11,10 L13,10 L13,8 L11,8 L11,10 Z M11,16 L13,16 L13,11 L11,11 L11,16 Z M4,12 C4,16.42 7.582,20 12,20 C16.418,20 20,16.42 20,12 C20,7.582 16.418,4 12,4 C7.582,4 4,7.582 4,12 Z" fill="#485464"></path>
            </g>
            <g id="error-circle" transform="translate(799.000000, 57.000000)">
                <rect id="Rectangle-4" stroke-opacity="0.01" stroke="#FFFFFF" style="mix-blend-mode: multiply;" x="0.5" y="0.5" width="23" height="23"></rect>
                <g transform="translate(4.000000, 4.000000)">
                    <mask id="mask-20" fill="white">
                        <use xlink:href="#path-19"></use>
                    </mask>
                    <g id="Clip-2"></g>
                    <path d="M8.9492,9.5977 L7.0512,9.5977 L6.7512,3.5137 L9.2492,3.5137 L8.9492,9.5977 Z M7.0512,12.4847 L8.9492,12.4847 L8.9492,10.6507 L7.0512,10.6507 L7.0512,12.4847 Z M8.0002,-0.0003 C3.5822,-0.0003 0.0002,3.5797 0.0002,7.9997 C0.0002,12.4177 3.5822,15.9997 8.0002,15.9997 C12.4192,15.9997 16.0002,12.4177 16.0002,7.9997 C16.0002,3.5797 12.4192,-0.0003 8.0002,-0.0003 Z" id="Fill-1" fill="#485464" mask="url(#mask-20)"></path>
                </g>
            </g>
            <g id="warning-circle" transform="translate(856.000000, 57.000000)">
                <rect id="Rectangle-4" stroke-opacity="0.01" stroke="#FFFFFF" style="mix-blend-mode: multiply;" x="0.5" y="0.5" width="23" height="23"></rect>
                <g transform="translate(4.000000, 4.000000)">
                    <mask id="mask-22" fill="white">
                        <use xlink:href="#path-21"></use>
                    </mask>
                    <g id="Clip-2"></g>
                    <path d="M9.2227,11.8223 L7.3247,11.8223 L7.0247,5.7383 L9.5227,5.7383 L9.2227,11.8223 Z M7.3247,14.7093 L9.2227,14.7093 L9.2227,12.8753 L7.3247,12.8753 L7.3247,14.7093 Z M16.4647,15.5673 L16.4657,15.5653 L8.8607,0.3673 L8.8607,0.3693 C8.7537,0.1513 8.5327,0.0003 8.2737,0.0003 C8.0127,0.0003 7.7897,0.1523 7.6837,0.3713 L0.0787,15.5713 C0.0317,15.6643 -0.0003,15.7683 -0.0003,15.8803 C-0.0003,16.2433 0.2927,16.5383 0.6577,16.5383 L15.8887,16.5383 L15.8897,16.5383 C16.2537,16.5383 16.5467,16.2433 16.5467,15.8803 C16.5467,15.7663 16.5157,15.6613 16.4647,15.5673 Z" id="Fill-1" fill="#485464" mask="url(#mask-22)"></path>
                </g>
            </g>
            <g id="check-circle" transform="translate(0.000000, 114.000000)">
                <rect id="Rectangle-4" stroke-opacity="0.01" stroke="#FFFFFF" style="mix-blend-mode: multiply;" x="0.5" y="0.5" width="23" height="23"></rect>
                <g transform="translate(4.000000, 4.000000)">
                    <mask id="mask-24" fill="white">
                        <use xlink:href="#path-23"></use>
                    </mask>
                    <g id="Clip-2"></g>
                    <path d="M6.8516,12.127 L3.3276,7.631 L4.8916,6.385 L6.8966,8.986 L11.1496,3.871 L12.6726,5.166 L6.8516,12.127 Z M7.9986,0 C3.5816,0 -0.0004,3.58 -0.0004,8 C-0.0004,12.418 3.5816,16 7.9986,16 C12.4186,16 15.9986,12.418 15.9986,8 C15.9986,3.58 12.4186,0 7.9986,0 Z" id="Fill-1" fill="#485464" mask="url(#mask-24)"></path>
                </g>
            </g>
            <g id="arrow-left" transform="translate(69.000000, 126.000000) rotate(-270.000000) translate(-69.000000, -126.000000) translate(57.000000, 114.000000)">
                <rect id="Rectangle-4" stroke-opacity="0.01" stroke="#FFFFFF" style="mix-blend-mode: multiply;" x="0.5" y="0.5" width="23" height="23"></rect>
                <polygon id="Triangle" fill="#485464" points="12 15 7 9 17 9"></polygon>
            </g>
            <g id="arrow-right" transform="translate(126.000000, 126.000000) rotate(-90.000000) translate(-126.000000, -126.000000) translate(114.000000, 114.000000)">
                <rect id="Rectangle-4" stroke-opacity="0.01" stroke="#FFFFFF" style="mix-blend-mode: multiply;" x="0.5" y="0.5" width="23" height="23"></rect>
                <polygon id="Triangle" fill="#485464" points="12 15 7 9 17 9"></polygon>
            </g>
            <g id="arrow-up" transform="translate(183.000000, 126.000000) rotate(-180.000000) translate(-183.000000, -126.000000) translate(171.000000, 114.000000)">
                <rect id="Rectangle-4" stroke-opacity="0.01" stroke="#FFFFFF" style="mix-blend-mode: multiply;" x="0.5" y="0.5" width="23" height="23"></rect>
                <polygon id="Triangle" fill="#485464" points="12 15 7 9 17 9"></polygon>
            </g>
            <g id="close" transform="translate(856.000000, 0.000000)">
                <rect id="Rectangle-4" stroke-opacity="0.01" stroke="#FFFFFF" style="mix-blend-mode: multiply;" x="0.5" y="0.5" width="23" height="23"></rect>
                <polygon fill="#485464" points="17.5557825 5 12.5 10.0553853 7.44421747 5 6 6.44410401 11.0557825 11.5005106 6 16.555896 7.44421747 18 12.5 12.9446147 17.5557825 18 19 16.555896 13.9442175 11.5005106 19 6.44410401"></polygon>
            </g>
            <g id="more" transform="translate(114.000000, 57.000000)">
                <rect id="Rectangle-4" stroke-opacity="0.01" stroke="#FFFFFF" style="mix-blend-mode: multiply;" x="0.5" y="0.5" width="23" height="23"></rect>
                <path d="M12,8 C13.1,8 14,7.1 14,6 C14,4.9 13.1,4 12,4 C10.9,4 10,4.9 10,6 C10,7.1 10.9,8 12,8 L12,8 Z M12,10 C10.9,10 10,10.9 10,12 C10,13.1 10.9,14 12,14 C13.1,14 14,13.1 14,12 C14,10.9 13.1,10 12,10 L12,10 Z M12,16 C10.9,16 10,16.9 10,18 C10,19.1 10.9,20 12,20 C13.1,20 14,19.1 14,18 C14,16.9 13.1,16 12,16 L12,16 Z" fill="#485464"></path>
            </g>
            <g id="download" transform="translate(57.000000, 57.000000)">
                <rect id="Rectangle-4" stroke-opacity="0.01" stroke="#FFFFFF" style="mix-blend-mode: multiply;" x="0.5" y="0.5" width="23" height="23"></rect>
                <g transform="translate(4.000000, 5.000000)" fill="#485464">
                    <polygon id="Fill-1" points="14.0058 9.0587 14.0058 12.8917 1.9998 12.8917 1.9998 9.0587 -0.0002 9.0587 0.0048 14.8917 16.0048 14.8917 16.0058 9.0587"></polygon>
                    <polygon id="Fill-2" points="6.9723 0.0002 6.9723 7.3592 4.7733 5.1602 3.3593 6.5742 8.0073 11.2212 12.6463 6.5832 11.2323 5.1692 8.9733 7.4282 8.9733 0.0002"></polygon>
                </g>
            </g>
            <g id="upload" transform="translate(685.000000, 114.000000)">
                <rect id="Rectangle-4" stroke-opacity="0.01" stroke="#FFFFFF" style="mix-blend-mode: multiply;" x="0.5" y="0.5" width="23" height="23"></rect>
                <g transform="translate(4.000000, 5.000000)" fill="#485464">
                    <polygon id="Fill-1" points="14.0058 9.0587 14.0058 12.8917 1.9998 12.8917 1.9998 9.0587 -0.0002 9.0587 0.0048 14.8917 16.0048 14.8917 16.0058 9.0587"></polygon>
                    <polygon id="Fill-2" transform="translate(8.002800, 5.610700) rotate(-180.000000) translate(-8.002800, -5.610700) " points="6.9723 0.0002 6.9723 7.3592 4.7733 5.1602 3.3593 6.5742 8.0073 11.2212 12.6463 6.5832 11.2323 5.1692 8.9733 7.4282 8.9733 0.0002"></polygon>
                </g>
            </g>
            <g id="enter" transform="translate(799.000000, 114.000000)">
                <rect id="Rectangle-4" stroke-opacity="0.01" stroke="#FFFFFF" style="mix-blend-mode: multiply;" x="0.5" y="0.5" width="23" height="23"></rect>
                <g transform="translate(11.500000, 11.500000) rotate(-90.000000) translate(-11.500000, -11.500000) translate(3.000000, 3.000000)" fill="#485464">
                    <polygon id="Fill-1" points="11.9916551 3 11.9916551 5.18589135 14.006 5.18589135 14.006 14.8852981 2 14.8852981 2 5.18589135 3.97773906 5.18589135 3.97773906 3 6.82121026e-13 3 0.005 16.8852981 16.005 16.8852981 16.006 3"></polygon>
                    <polygon id="Fill-2" points="6.99676786 0 6.99676786 9.31329584 4.79776786 7.11429584 3.38376786 8.52829584 8.03176786 13.1752958 12.6707679 8.53729584 11.2567679 7.12329584 8.99776786 9.38229584 8.99776786 0"></polygon>
                </g>
            </g>
            <g id="calendar" transform="translate(856.000000, 114.000000)">
                <rect id="Rectangle-4" stroke-opacity="0.01" stroke="#FFFFFF" style="mix-blend-mode: multiply;" x="0.5" y="0.5" width="23" height="23"></rect>
                <path d="M15.4285717,5 L8.57142878,5 L8.57142867,3 L6,3 L6,5 L4,5 L4,21 L20,21 L20,5 L18,5 L18,3 L15.4285718,3 L15.4285717,5 Z M5.99999999,19.0714293 L5.99999999,9 L18,9 L18,19.0714293 L5.99999999,19.0714293 Z M12.5673787,13 L12.5673787,17.0000001 L16.4999999,17.0000001 L16.4999999,13 L12.5673787,13 Z" fill="#485464"></path>
            </g>
            <g id="folder" transform="translate(742.000000, 114.000000)">
                <rect id="Rectangle-4" stroke-opacity="0.01" stroke="#FFFFFF" style="mix-blend-mode: multiply;" x="0.5" y="0.5" width="23" height="23"></rect>
                <g transform="translate(4.000000, 4.000000)" fill="#485464">
                    <rect id="Rectangle-11" x="0" y="3" width="16" height="11"></rect>
                    <polygon id="Rectangle-11-Copy" points="0 0.401692708 7.05577528 0.401692708 11.8847656 8 0 8"></polygon>
                </g>
            </g>
            <g id="filter" transform="translate(0.000000, 57.000000)">
                <rect id="Rectangle-4" stroke-opacity="0.01" stroke="#FFFFFF" style="mix-blend-mode: multiply;" x="0.5" y="0.5" width="23" height="23"></rect>
                <g transform="translate(4.000000, 4.000000)">
                    <mask id="mask-26" fill="white">
                        <use xlink:href="#path-25"></use>
                    </mask>
                    <g id="Clip-2"></g>
                    <path d="M8.9888,6.7139 L8.9888,11.1589 L6.9008,12.4819 L6.9008,6.7179 L3.4408,1.9999 L12.4908,1.9999 L8.9888,6.7139 Z M15.9608,0.5299 C15.9608,0.2379 15.7248,0.0019 15.4328,0.0019 L15.4328,-0.0001 L0.5138,-0.0001 C0.2288,0.0079 -0.0002,0.2379 -0.0002,0.5259 C-0.0002,0.6389 0.0428,0.7369 0.1038,0.8229 L0.0998,0.8259 L4.9008,7.3719 L4.9008,16.1159 L10.9888,12.2589 L10.9888,7.3759 L15.8658,0.8119 C15.9208,0.7299 15.9608,0.6369 15.9608,0.5299 Z" id="Fill-1" fill="#485464" mask="url(#mask-26)"></path>
                </g>
            </g>
            <g id="settings" transform="translate(171.000000, 0.000000)">
                <rect id="Rectangle-4" stroke-opacity="0.01" stroke="#FFFFFF" style="mix-blend-mode: multiply;" x="0.5" y="0.5" width="23" height="23"></rect>
                <path d="M14.6666667,12 C14.6666667,13.46875 13.46875,14.6666667 12,14.6666667 C10.53125,14.6666667 9.33333333,13.46875 9.33333333,12 C9.33333333,10.53125 10.53125,9.33333333 12,9.33333333 C13.46875,9.33333333 14.6666667,10.53125 14.6666667,12 L14.6666667,12 Z M20,10.8645833 C20,10.6875 19.875,10.5208333 19.6979167,10.4895833 L17.7916667,10.1979167 C17.6875,9.85416667 17.5416667,9.51041667 17.3645833,9.17708333 C17.71875,8.6875 18.1041667,8.22916667 18.4583333,7.75 C18.5104167,7.67708333 18.5416667,7.60416667 18.5416667,7.51041667 C18.5416667,7.42708333 18.5208333,7.34375 18.46875,7.28125 C18.03125,6.66666667 17.3020833,6.02083333 16.75,5.51041667 C16.6770833,5.44791667 16.5833333,5.40625 16.4895833,5.40625 C16.3958333,5.40625 16.3020833,5.4375 16.2395833,5.5 L14.7604167,6.61458333 C14.4583333,6.45833333 14.1458333,6.33333333 13.8229167,6.22916667 L13.53125,4.3125 C13.5104167,4.13541667 13.34375,4 13.15625,4 L10.84375,4 C10.65625,4 10.5104167,4.125 10.46875,4.29166667 C10.3020833,4.91666667 10.2395833,5.59375 10.1666667,6.22916667 C9.84375,6.33333333 9.52083333,6.46875 9.21875,6.625 L7.78125,5.51041667 C7.69791667,5.44791667 7.60416667,5.40625 7.51041667,5.40625 C7.15625,5.40625 5.75,6.92708333 5.5,7.27083333 C5.44791667,7.34375 5.40625,7.41666667 5.40625,7.51041667 C5.40625,7.60416667 5.44791667,7.6875 5.51041667,7.76041667 C5.89583333,8.22916667 6.27083333,8.69791667 6.625,9.19791667 C6.45833333,9.51041667 6.32291667,9.82291667 6.21875,10.15625 L4.28125,10.4479167 C4.125,10.4791667 4,10.6666667 4,10.8229167 L4,13.1354167 C4,13.3125 4.125,13.4791667 4.30208333,13.5104167 L6.20833333,13.7916667 C6.3125,14.1458333 6.45833333,14.4895833 6.63541667,14.8229167 C6.28125,15.3125 5.89583333,15.7708333 5.54166667,16.25 C5.48958333,16.3229167 5.45833333,16.3958333 5.45833333,16.4895833 C5.45833333,16.5729167 5.47916667,16.65625 5.53125,16.7291667 C5.96875,17.3333333 6.69791667,17.9791667 7.25,18.4791667 C7.32291667,18.5520833 7.41666667,18.59375 7.51041667,18.59375 C7.60416667,18.59375 7.69791667,18.5625 7.77083333,18.5 L9.23958333,17.3854167 C9.54166667,17.5416667 9.85416667,17.6666667 10.1770833,17.7708333 L10.46875,19.6875 C10.4895833,19.8645833 10.65625,20 10.84375,20 L13.15625,20 C13.34375,20 13.4895833,19.875 13.53125,19.7083333 C13.6979167,19.0833333 13.7604167,18.40625 13.8333333,17.7708333 C14.15625,17.6666667 14.4791667,17.53125 14.78125,17.375 L16.21875,18.5 C16.3020833,18.5520833 16.3958333,18.59375 16.4895833,18.59375 C16.84375,18.59375 18.25,17.0625 18.5,16.7291667 C18.5625,16.65625 18.59375,16.5833333 18.59375,16.4895833 C18.59375,16.3958333 18.5520833,16.3020833 18.4895833,16.2291667 C18.1041667,15.7604167 17.7291667,15.3020833 17.375,14.7916667 C17.5416667,14.4895833 17.6666667,14.1770833 17.78125,13.84375 L19.7083333,13.5520833 C19.875,13.5208333 20,13.3333333 20,13.1770833 L20,10.8645833 Z" fill="#485464"></path>
            </g>
            <g id="graph-line-thick" transform="translate(57.000000, 0.000000)">
                <rect id="Rectangle-4" stroke-opacity="0.01" stroke="#FFFFFF" style="mix-blend-mode: multiply;" x="0.5" y="0.5" width="23" height="23"></rect>
                <path d="M21,17.8333333 L4.125,17.8333333 L4.125,5 L3,5 L3,19 L21,19 L21,17.8333333 Z M17.625,8.5 L14.25,11.4166667 L9.1875,6.16666667 L5.25,11.4166667 L5.25,16.6666667 L19.875,16.6666667 L17.625,8.5 Z" fill="#485464"></path>
            </g>
            <g id="dashboard">
                <rect id="Rectangle-4" stroke-opacity="0.01" stroke="#FFFFFF" style="mix-blend-mode: multiply;" x="0.5" y="0.5" width="23" height="23"></rect>
                <g transform="translate(5.000000, 5.000000)" fill="#485464">
                    <rect id="Rectangle-3" x="0" y="0" width="6.53333333" height="6.53333333"></rect>
                    <rect id="Rectangle-3-Copy-2" x="0" y="7.46666667" width="6.53333333" height="6.53333333"></rect>
                    <rect id="Rectangle-3-Copy" x="7.46666667" y="0" width="6.53333333" height="6.53333333"></rect>
                    <rect id="Rectangle-3-Copy-3" x="7.46666667" y="7.46666667" width="6.53333333" height="6.53333333"></rect>
                </g>
            </g>
            <g id="graph-bar-thick" transform="translate(114.000000, 0.000000)">
                <rect id="Rectangle-4" stroke-opacity="0.01" stroke="#FFFFFF" style="mix-blend-mode: multiply;" x="0.5" y="0.5" width="23" height="23"></rect>
                <g transform="translate(12.000000, 12.500000) scale(-1, 1) translate(-12.000000, -12.500000) translate(5.000000, 5.000000)" fill="#485464">
                    <polygon id="Rectangle-8" points="7.57142857 4.28571429 14 4.28571429 14 14.9872345 7.57142857 14.9872345"></polygon>
                    <polygon id="Rectangle-8-Copy-2" points="0 0 6.42857143 0 6.42857143 14.9872345 0 14.9872345"></polygon>
                </g>
            </g>
            <g id="reports" transform="translate(285.000000, 114.000000)">
                <rect id="Rectangle-4" stroke-opacity="0.01" stroke="#FFFFFF" style="mix-blend-mode: multiply;" x="0.5" y="0.5" width="23" height="23"></rect>
                <g id="Group-7" transform="translate(6.000000, 4.000000)" fill="#485464">
                    <polygon id="Path-6" points="0 0 6.4753407 0 6.4753407 6.69285942 13.1028873 6.69285942 13.1028873 16.10254 0 16.10254"></polygon>
                    <polygon id="Path-7" points="7.875 5.37055092 7.875 0.0700341966 13.0564418 5.37055092"></polygon>
                </g>
            </g>
            <g id="arrow-down" transform="translate(228.000000, 114.000000)">
                <rect id="Rectangle-4" stroke-opacity="0.01" stroke="#FFFFFF" style="mix-blend-mode: multiply;" x="0.5" y="0.5" width="23" height="23"></rect>
                <polygon id="Triangle" fill="#485464" points="12 15 7 9 17 9"></polygon>
            </g>
            <g id="reset" transform="translate(342.000000, 57.000000)">
                <rect id="Rectangle-4" stroke-opacity="0.01" stroke="#FFFFFF" style="mix-blend-mode: multiply;" x="0.5" y="0.5" width="23" height="23"></rect>
                <g transform="translate(4.000000, 4.000000)">
                    <mask id="mask-28" fill="white">
                        <use xlink:href="#path-27"></use>
                    </mask>
                    <g id="Clip-2"></g>
                    <path d="M7.8643,14.7685 C4.6083,14.7685 1.9603,12.1205 1.9603,8.8645 C1.9603,5.6085 4.6083,2.9595 7.8643,2.9595 C9.6633,2.9595 11.2663,3.7775 12.3503,5.0495 L10.3613,4.6375 L9.9643,6.5575 L15.3113,7.6645 L16.4173,2.3305 L14.4993,1.9315 L14.0613,4.0385 L14.0493,4.0455 C12.6093,2.2015 10.3813,0.9995 7.8643,0.9995 C3.5283,0.9995 0.0003,4.5285 0.0003,8.8645 C0.0003,13.2015 3.5283,16.7285 7.8643,16.7285 C11.4663,16.7285 14.5033,14.2905 15.4313,10.9805 L13.5113,10.5845 C12.7733,13.0035 10.5213,14.7685 7.8643,14.7685" id="Fill-1" fill="#485464" mask="url(#mask-28)"></path>
                </g>
            </g>
            <g id="eye" transform="translate(399.000000, 57.000000)">
                <rect id="Rectangle-4" stroke-opacity="0.01" stroke="#FFFFFF" style="mix-blend-mode: multiply;" x="0.5" y="0.5" width="23" height="23"></rect>
                <g transform="translate(3.000000, 6.000000)" fill="#485464">
                    <path d="M9.50001137,10.718471 C6.99251229,10.718471 4.95979918,8.69167512 4.95979918,6.19157327 C4.95979918,3.69142761 6.99251229,1.66467557 9.50001137,1.66467557 C12.0074665,1.66467557 14.0402236,3.69142761 14.0402236,6.19157327 C14.0402236,8.69167512 12.0074665,10.718471 9.50001137,10.718471 M18.827495,5.39263939 C16.9754079,2.17075026 13.4927654,0 9.50119768,0 C5.50967391,0 2.02698747,2.17079407 0.174900409,5.39272701 C0.148230496,5.44560375 -0.177827866,6.11753706 0.134346324,6.71482085 C1.97584451,9.9759185 5.48036776,12.1787365 9.50119768,12.1787365 C13.5204898,12.1787365 17.0237828,9.97771465 18.8658961,6.71880742 C19.1766204,6.12695587 18.8535937,5.44560375 18.827495,5.39263939" id="Fill-1"></path>
                    <path d="M11.9555085,6.24961479 C11.9555085,7.59926549 10.8561217,8.69337442 9.5,8.69337442 C8.14384625,8.69337442 7.04449153,7.59926549 7.04449153,6.24961479 C7.04449153,4.89996409 8.14384625,3.80585516 9.5,3.80585516 C10.8561217,3.80585516 11.9555085,4.89996409 11.9555085,6.24961479" id="Fill-3"></path>
                </g>
            </g>
            <g id="user" transform="translate(457.000000, 114.000000)">
                <rect id="Rectangle-4" stroke-opacity="0.01" stroke="#FFFFFF" style="mix-blend-mode: multiply;" x="0.5" y="0.5" width="23" height="23"></rect>
                <g id="Group-15" transform="translate(6.000000, 4.000000)" fill="#485464">
                    <path d="M10.2873826,3.65868263 C10.2873826,5.67932635 8.64930479,7.31736527 6.6287,7.31736527 C4.60805629,7.31736527 2.97001737,5.67932635 2.97001737,3.65868263 C2.97001737,1.63803892 4.60805629,0 6.6287,0 C8.64930479,0 10.2873826,1.63803892 10.2873826,3.65868263" id="Fill-1"></path>
                    <path d="M0,14.9071856 L12.9740425,14.9071856 L12.9740389,12.1047904 C12.9740389,12.1047904 12.9999611,8.23853593 8.66664072,8.31638024 C8.66664072,8.31638024 7.0059491,9.32598204 4.38520359,8.31521257 C4.38520359,8.31521257 0.44110479,7.95311976 0,12.1307515 L0,14.9071856 Z" id="Fill-3"></path>
                </g>
            </g>
            <g id="link" transform="translate(514.000000, 114.000000)">
                <rect id="Rectangle-3" opacity="0.25" x="0" y="0" width="24" height="24"></rect>
                <path d="M11.1151588,9 L11.1151588,10.4641217 L12.5221792,10.4641217 C13.3294319,10.4641217 13.5476287,10.7396805 13.5476287,11.4896324 L13.5476287,17.4614731 C13.5476287,18.242936 13.4004195,18.4869838 12.5221792,18.4869838 L6.55089444,18.4869838 C5.71779588,18.4869838 5.52544494,18.3062257 5.52544494,17.4614731 L5.52544494,11.4896324 C5.52544494,10.6973448 5.75371731,10.4641217 6.55089444,10.4641217 L7.87276035,10.4641217 L7.87276035,9 L6.03900659,9 C4.91470149,9 4,9.91469587 4,11.0390616 L4,17.9609384 C4,19.0853041 4.91470149,20 6.03900659,20 L12.9609934,20 C14.0852985,20 15,19.0853041 15,17.9609384 L15,11.0390616 C15,9.91469587 14.0852985,9 12.9609934,9 L11.1151588,9 Z" id="Fill-1" fill="#485464"></path>
                <path d="M16.1151588,4 L16.1151588,5.46412165 L17.5221792,5.46412165 C18.3294319,5.46412165 18.5476287,5.73968054 18.5476287,6.48963242 L18.5476287,12.4614731 C18.5476287,13.242936 18.4004195,13.4869838 17.5221792,13.4869838 L11.5508944,13.4869838 C10.7177959,13.4869838 10.5254449,13.3062257 10.5254449,12.4614731 L10.5254449,6.48963242 C10.5254449,5.69734483 10.7537173,5.46412165 11.5508944,5.46412165 L12.8727604,5.46412165 L12.8727604,4 L11.0390066,4 C9.91470149,4 9,4.91469587 9,6.03906164 L9,12.9609384 C9,14.0853041 9.91470149,15 11.0390066,15 L17.9609934,15 C19.0852985,15 20,14.0853041 20,12.9609384 L20,6.03906164 C20,4.91469587 19.0852985,4 17.9609934,4 L16.1151588,4 Z" id="Fill-1" fill="#485464" transform="translate(14.500000, 9.500000) rotate(-180.000000) translate(-14.500000, -9.500000) "></path>
            </g>
        </g>
        <g id="Group-5" transform="translate(80.000000, 490.000000)">
            <g id="primary">
                <rect id="Rectangle-2-Copy-3" fill="#097DB7" x="0" y="0" width="200" height="48" rx="4"></rect>
                <text id="Primary" font-family="NotoSans-Medium, Noto Sans" font-size="16" font-weight="400" line-spacing="24" fill="#FFFFFF">
                    <tspan x="69.2895079" y="29">Primary</tspan>
                </text>
            </g>
            <g id="secondary" transform="translate(232.000000, 0.000000)">
                <rect id="Rectangle-2-Copy-3" stroke="#097DB7" stroke-width="2" x="1" y="1" width="198" height="46" rx="4"></rect>
                <text id="Secondary" font-family="NotoSans-Medium, Noto Sans" font-size="16" font-weight="400" line-spacing="24" fill="#097DB7">
                    <tspan x="59.5855079" y="29">Secondary</tspan>
                </text>
            </g>
            <g id="secondary-gray" transform="translate(448.000000, 0.000000)">
                <rect id="Rectangle-2-Copy-3" stroke="#718091" stroke-width="2" x="1" y="1" width="198" height="46" rx="4"></rect>
                <text id="Secondary" font-family="NotoSans-Medium, Noto Sans" font-size="16" font-weight="400" line-spacing="24" fill="#718091">
                    <tspan x="59.5855079" y="29">Secondary</tspan>
                </text>
            </g>
            <g id="default" transform="translate(0.000000, 80.000000)">
                <path d="M2,0.5 C1.17157288,0.5 0.5,1.17157288 0.5,2 L0.5,34 C0.5,34.8284271 1.17157288,35.5 2,35.5 L130,35.5 C130.828427,35.5 131.5,34.8284271 131.5,34 L131.5,2 C131.5,1.17157288 130.828427,0.5 130,0.5 L2,0.5 Z" id="Bg-Copy-7" stroke="#B2C0D0" fill="#EDEFF3"></path>
                <text id="Default" font-family="NotoSans-Medium, Noto Sans" font-size="14" font-weight="400" line-spacing="22" fill="#485464">
                    <tspan x="41.2239677" y="22">Default</tspan>
                </text>
            </g>
            <g id="disabled" transform="translate(395.000000, 80.000000)">
                <path d="M2,0 L130,0 C131.104569,-2.02906125e-16 132,0.8954305 132,2 L132,34 C132,35.1045695 131.104569,36 130,36 L2,36 C0.8954305,36 1.3527075e-16,35.1045695 0,34 L0,2 C-1.3527075e-16,0.8954305 0.8954305,2.02906125e-16 2,0 Z" id="Bg-Copy-7" fill="#EDEFF3"></path>
                <text id="Disabled" opacity="0.3" font-family="NotoSans-Medium, Noto Sans" font-size="14" font-weight="400" line-spacing="22" fill="#485464">
                    <tspan x="36.8419677" y="22">Disabled</tspan>
                </text>
            </g>
            <g id="icon-in-button" transform="translate(164.000000, 80.000000)">
                <rect id="Bg-Copy-7" stroke="#B2C0D0" fill="#EDEFF3" x="0.5" y="0.5" width="146" height="35" rx="2"></rect>
                <path d="M22.6666667,18 C22.6666667,19.46875 21.46875,20.6666667 20,20.6666667 C18.53125,20.6666667 17.3333333,19.46875 17.3333333,18 C17.3333333,16.53125 18.53125,15.3333333 20,15.3333333 C21.46875,15.3333333 22.6666667,16.53125 22.6666667,18 L22.6666667,18 Z M28,16.8645833 C28,16.6875 27.875,16.5208333 27.6979167,16.4895833 L25.7916667,16.1979167 C25.6875,15.8541667 25.5416667,15.5104167 25.3645833,15.1770833 C25.71875,14.6875 26.1041667,14.2291667 26.4583333,13.75 C26.5104167,13.6770833 26.5416667,13.6041667 26.5416667,13.5104167 C26.5416667,13.4270833 26.5208333,13.34375 26.46875,13.28125 C26.03125,12.6666667 25.3020833,12.0208333 24.75,11.5104167 C24.6770833,11.4479167 24.5833333,11.40625 24.4895833,11.40625 C24.3958333,11.40625 24.3020833,11.4375 24.2395833,11.5 L22.7604167,12.6145833 C22.4583333,12.4583333 22.1458333,12.3333333 21.8229167,12.2291667 L21.53125,10.3125 C21.5104167,10.1354167 21.34375,10 21.15625,10 L18.84375,10 C18.65625,10 18.5104167,10.125 18.46875,10.2916667 C18.3020833,10.9166667 18.2395833,11.59375 18.1666667,12.2291667 C17.84375,12.3333333 17.5208333,12.46875 17.21875,12.625 L15.78125,11.5104167 C15.6979167,11.4479167 15.6041667,11.40625 15.5104167,11.40625 C15.15625,11.40625 13.75,12.9270833 13.5,13.2708333 C13.4479167,13.34375 13.40625,13.4166667 13.40625,13.5104167 C13.40625,13.6041667 13.4479167,13.6875 13.5104167,13.7604167 C13.8958333,14.2291667 14.2708333,14.6979167 14.625,15.1979167 C14.4583333,15.5104167 14.3229167,15.8229167 14.21875,16.15625 L12.28125,16.4479167 C12.125,16.4791667 12,16.6666667 12,16.8229167 L12,19.1354167 C12,19.3125 12.125,19.4791667 12.3020833,19.5104167 L14.2083333,19.7916667 C14.3125,20.1458333 14.4583333,20.4895833 14.6354167,20.8229167 C14.28125,21.3125 13.8958333,21.7708333 13.5416667,22.25 C13.4895833,22.3229167 13.4583333,22.3958333 13.4583333,22.4895833 C13.4583333,22.5729167 13.4791667,22.65625 13.53125,22.7291667 C13.96875,23.3333333 14.6979167,23.9791667 15.25,24.4791667 C15.3229167,24.5520833 15.4166667,24.59375 15.5104167,24.59375 C15.6041667,24.59375 15.6979167,24.5625 15.7708333,24.5 L17.2395833,23.3854167 C17.5416667,23.5416667 17.8541667,23.6666667 18.1770833,23.7708333 L18.46875,25.6875 C18.4895833,25.8645833 18.65625,26 18.84375,26 L21.15625,26 C21.34375,26 21.4895833,25.875 21.53125,25.7083333 C21.6979167,25.0833333 21.7604167,24.40625 21.8333333,23.7708333 C22.15625,23.6666667 22.4791667,23.53125 22.78125,23.375 L24.21875,24.5 C24.3020833,24.5520833 24.3958333,24.59375 24.4895833,24.59375 C24.84375,24.59375 26.25,23.0625 26.5,22.7291667 C26.5625,22.65625 26.59375,22.5833333 26.59375,22.4895833 C26.59375,22.3958333 26.5520833,22.3020833 26.4895833,22.2291667 C26.1041667,21.7604167 25.7291667,21.3020833 25.375,20.7916667 C25.5416667,20.4895833 25.6666667,20.1770833 25.78125,19.84375 L27.7083333,19.5520833 C27.875,19.5208333 28,19.3333333 28,19.1770833 L28,16.8645833 Z" id="settings" fill-opacity="0.8" fill="#485464"></path>
                <text id="Icon-in-button" font-family="NotoSans-Medium, Noto Sans" font-size="14" font-weight="400" line-spacing="22" fill="#485464">
                    <tspan x="37.68" y="23">Icon in button</tspan>
                </text>
            </g>
            <text id="Subtle" font-family="NotoSans-Medium, Noto Sans" font-size="14" font-weight="400" fill="#485464">
                <tspan x="559.311" y="104">Subtle</tspan>
            </text>
            <g id="icon-in-button-without-text" transform="translate(327.000000, 80.000000)">
                <rect id="Bg-Copy-7" stroke="#B2C0D0" fill="#EDEFF3" x="0.5" y="0.5" width="35" height="35" rx="2"></rect>
                <path d="M20.6666667,18 C20.6666667,19.46875 19.46875,20.6666667 18,20.6666667 C16.53125,20.6666667 15.3333333,19.46875 15.3333333,18 C15.3333333,16.53125 16.53125,15.3333333 18,15.3333333 C19.46875,15.3333333 20.6666667,16.53125 20.6666667,18 L20.6666667,18 Z M26,16.8645833 C26,16.6875 25.875,16.5208333 25.6979167,16.4895833 L23.7916667,16.1979167 C23.6875,15.8541667 23.5416667,15.5104167 23.3645833,15.1770833 C23.71875,14.6875 24.1041667,14.2291667 24.4583333,13.75 C24.5104167,13.6770833 24.5416667,13.6041667 24.5416667,13.5104167 C24.5416667,13.4270833 24.5208333,13.34375 24.46875,13.28125 C24.03125,12.6666667 23.3020833,12.0208333 22.75,11.5104167 C22.6770833,11.4479167 22.5833333,11.40625 22.4895833,11.40625 C22.3958333,11.40625 22.3020833,11.4375 22.2395833,11.5 L20.7604167,12.6145833 C20.4583333,12.4583333 20.1458333,12.3333333 19.8229167,12.2291667 L19.53125,10.3125 C19.5104167,10.1354167 19.34375,10 19.15625,10 L16.84375,10 C16.65625,10 16.5104167,10.125 16.46875,10.2916667 C16.3020833,10.9166667 16.2395833,11.59375 16.1666667,12.2291667 C15.84375,12.3333333 15.5208333,12.46875 15.21875,12.625 L13.78125,11.5104167 C13.6979167,11.4479167 13.6041667,11.40625 13.5104167,11.40625 C13.15625,11.40625 11.75,12.9270833 11.5,13.2708333 C11.4479167,13.34375 11.40625,13.4166667 11.40625,13.5104167 C11.40625,13.6041667 11.4479167,13.6875 11.5104167,13.7604167 C11.8958333,14.2291667 12.2708333,14.6979167 12.625,15.1979167 C12.4583333,15.5104167 12.3229167,15.8229167 12.21875,16.15625 L10.28125,16.4479167 C10.125,16.4791667 10,16.6666667 10,16.8229167 L10,19.1354167 C10,19.3125 10.125,19.4791667 10.3020833,19.5104167 L12.2083333,19.7916667 C12.3125,20.1458333 12.4583333,20.4895833 12.6354167,20.8229167 C12.28125,21.3125 11.8958333,21.7708333 11.5416667,22.25 C11.4895833,22.3229167 11.4583333,22.3958333 11.4583333,22.4895833 C11.4583333,22.5729167 11.4791667,22.65625 11.53125,22.7291667 C11.96875,23.3333333 12.6979167,23.9791667 13.25,24.4791667 C13.3229167,24.5520833 13.4166667,24.59375 13.5104167,24.59375 C13.6041667,24.59375 13.6979167,24.5625 13.7708333,24.5 L15.2395833,23.3854167 C15.5416667,23.5416667 15.8541667,23.6666667 16.1770833,23.7708333 L16.46875,25.6875 C16.4895833,25.8645833 16.65625,26 16.84375,26 L19.15625,26 C19.34375,26 19.4895833,25.875 19.53125,25.7083333 C19.6979167,25.0833333 19.7604167,24.40625 19.8333333,23.7708333 C20.15625,23.6666667 20.4791667,23.53125 20.78125,23.375 L22.21875,24.5 C22.3020833,24.5520833 22.3958333,24.59375 22.4895833,24.59375 C22.84375,24.59375 24.25,23.0625 24.5,22.7291667 C24.5625,22.65625 24.59375,22.5833333 24.59375,22.4895833 C24.59375,22.3958333 24.5520833,22.3020833 24.4895833,22.2291667 C24.1041667,21.7604167 23.7291667,21.3020833 23.375,20.7916667 C23.5416667,20.4895833 23.6666667,20.1770833 23.78125,19.84375 L25.7083333,19.5520833 C25.875,19.5208333 26,19.3333333 26,19.1770833 L26,16.8645833 Z" id="settings" fill-opacity="0.8" fill="#485464"></path>
            </g>
        </g>
        <g id="notification-banner-error" transform="translate(80.000000, 886.000000)">
            <g id="alert">
                <rect id="bg" stroke="#F44336" fill="#FEF2F0" x="0.5" y="0.5" width="599" height="41"></rect>
                <text id="Error:-Notification" font-family="NotoSans-Bold, Noto Sans" font-size="14" font-weight="bold" line-spacing="22" fill="#485464">
                    <tspan x="48" y="25">Error: Notification title</tspan>
                </text>
                <text id="Subtitle-text" font-family="NotoSans-Regular, Noto Sans" font-size="14" font-weight="normal" line-spacing="22" fill="#485464">
                    <tspan x="216" y="25">Subtitle text</tspan>
                </text>
            </g>
            <g id="error-circle" transform="translate(16.000000, 13.000000)">
                <mask id="mask-30" fill="white">
                    <use xlink:href="#path-29"></use>
                </mask>
                <g id="Clip-2"></g>
                <path d="M8.9492,9.5977 L7.0512,9.5977 L6.7512,3.5137 L9.2492,3.5137 L8.9492,9.5977 Z M7.0512,12.4847 L8.9492,12.4847 L8.9492,10.6507 L7.0512,10.6507 L7.0512,12.4847 Z M8.0002,-0.0003 C3.5822,-0.0003 0.0002,3.5797 0.0002,7.9997 C0.0002,12.4177 3.5822,15.9997 8.0002,15.9997 C12.4192,15.9997 16.0002,12.4177 16.0002,7.9997 C16.0002,3.5797 12.4192,-0.0003 8.0002,-0.0003 Z" id="Fill-1" fill="#F44336" mask="url(#mask-30)"></path>
            </g>
            <g id="close" opacity="0.8" transform="translate(568.000000, 9.000000)">
                <rect id="Rectangle-4" stroke-opacity="0.01" stroke="#FFFFFF" style="mix-blend-mode: multiply;" x="0.5" y="0.5" width="23" height="23"></rect>
                <polygon fill="#485464" points="17.5557825 5 12.5 10.0553853 7.44421747 5 6 6.44410401 11.0557825 11.5005106 6 16.555896 7.44421747 18 12.5 12.9446147 17.5557825 18 19 16.555896 13.9442175 11.5005106 19 6.44410401"></polygon>
            </g>
            <g id="action" transform="translate(312.000000, 8.000000)">
                <rect id="Bg-Copy-7" fill="#FDD9D7" x="0" y="0" width="67" height="26" rx="2"></rect>
                <text id="Action" font-family="NotoSans-Regular, Noto Sans" font-size="14" font-weight="normal" line-spacing="22" fill="#485464">
                    <tspan x="12.773" y="17">Action</tspan>
                </text>
            </g>
        </g>
        <g id="notification-banner-warning" transform="translate(80.000000, 960.000000)">
            <g id="alert">
                <rect id="bg" stroke="#FFC107" fill="#FFFAED" x="0.5" y="0.5" width="599" height="41"></rect>
                <text id="Warning:-Notificatio" font-family="NotoSans-Bold, Noto Sans" font-size="14" font-weight="bold" line-spacing="22" fill="#485464">
                    <tspan x="48" y="25">Warning: Notification title</tspan>
                </text>
                <text id="Subtitle-text" font-family="NotoSans-Regular, Noto Sans" font-size="14" font-weight="normal" line-spacing="22" fill="#485464">
                    <tspan x="241" y="25">Subtitle text</tspan>
                </text>
                <g id="action" transform="translate(337.000000, 8.000000)">
                    <rect id="Bg-Copy-7" fill="#FFF3CD" x="0" y="0" width="67" height="26" rx="2"></rect>
                    <text id="Action" font-family="NotoSans-Regular, Noto Sans" font-size="14" font-weight="normal" line-spacing="22" fill="#485464">
                        <tspan x="12.773" y="17">Action</tspan>
                    </text>
                </g>
            </g>
            <g id="warning-circle" transform="translate(16.000000, 12.000000)">
                <mask id="mask-32" fill="white">
                    <use xlink:href="#path-31"></use>
                </mask>
                <g id="Clip-2"></g>
                <path d="M9.2227,11.8223 L7.3247,11.8223 L7.0247,5.7383 L9.5227,5.7383 L9.2227,11.8223 Z M7.3247,14.7093 L9.2227,14.7093 L9.2227,12.8753 L7.3247,12.8753 L7.3247,14.7093 Z M16.4647,15.5673 L16.4657,15.5653 L8.8607,0.3673 L8.8607,0.3693 C8.7537,0.1513 8.5327,0.0003 8.2737,0.0003 C8.0127,0.0003 7.7897,0.1523 7.6837,0.3713 L0.0787,15.5713 C0.0317,15.6643 -0.0003,15.7683 -0.0003,15.8803 C-0.0003,16.2433 0.2927,16.5383 0.6577,16.5383 L15.8887,16.5383 L15.8897,16.5383 C16.2537,16.5383 16.5467,16.2433 16.5467,15.8803 C16.5467,15.7663 16.5157,15.6613 16.4647,15.5673 Z" id="Fill-1" fill="#FFC107" mask="url(#mask-32)"></path>
            </g>
            <g id="close" opacity="0.8" transform="translate(568.000000, 9.000000)">
                <rect id="Rectangle-4" stroke-opacity="0.01" stroke="#FFFFFF" style="mix-blend-mode: multiply;" x="0.5" y="0.5" width="23" height="23"></rect>
                <polygon fill="#485464" points="17.5557825 5 12.5 10.0553853 7.44421747 5 6 6.44410401 11.0557825 11.5005106 6 16.555896 7.44421747 18 12.5 12.9446147 17.5557825 18 19 16.555896 13.9442175 11.5005106 19 6.44410401"></polygon>
            </g>
        </g>
        <g id="notification-banner-success" transform="translate(80.000000, 1034.000000)">
            <g id="alert">
                <rect id="bg" stroke="#00C853" fill="#EDFAF3" x="0.5" y="0.5" width="599" height="41"></rect>
                <text id="Success:-Notificatio" font-family="NotoSans-Bold, Noto Sans" font-size="14" font-weight="bold" line-spacing="22" fill="#485464">
                    <tspan x="48" y="25">Success: Notification title</tspan>
                </text>
                <text id="Subtitle-text" font-family="NotoSans-Regular, Noto Sans" font-size="14" font-weight="normal" line-spacing="22" fill="#485464">
                    <tspan x="234" y="25">Subtitle text</tspan>
                </text>
                <g id="action" transform="translate(330.000000, 8.000000)">
                    <rect id="Bg-Copy-7" fill="#CCF4DC" x="0" y="0" width="67" height="26" rx="2"></rect>
                    <text id="Action" font-family="NotoSans-Regular, Noto Sans" font-size="14" font-weight="normal" line-spacing="22" fill="#485464">
                        <tspan x="12.773" y="17">Action</tspan>
                    </text>
                </g>
            </g>
            <g id="check-circle" transform="translate(16.000000, 13.000000)">
                <mask id="mask-34" fill="white">
                    <use xlink:href="#path-33"></use>
                </mask>
                <g id="Clip-2"></g>
                <path d="M6.8516,12.127 L3.3276,7.631 L4.8916,6.385 L6.8966,8.986 L11.1496,3.871 L12.6726,5.166 L6.8516,12.127 Z M7.9986,0 C3.5816,0 -0.0004,3.58 -0.0004,8 C-0.0004,12.418 3.5816,16 7.9986,16 C12.4186,16 15.9986,12.418 15.9986,8 C15.9986,3.58 12.4186,0 7.9986,0 Z" id="Fill-1" fill="#00C853" mask="url(#mask-34)"></path>
            </g>
            <g id="close" opacity="0.8" transform="translate(568.000000, 9.000000)">
                <rect id="Rectangle-4" stroke-opacity="0.01" stroke="#FFFFFF" style="mix-blend-mode: multiply;" x="0.5" y="0.5" width="23" height="23"></rect>
                <polygon fill="#485464" points="17.5557825 5 12.5 10.0553853 7.44421747 5 6 6.44410401 11.0557825 11.5005106 6 16.555896 7.44421747 18 12.5 12.9446147 17.5557825 18 19 16.555896 13.9442175 11.5005106 19 6.44410401"></polygon>
            </g>
        </g>
        <g id="notification-banner-information" transform="translate(80.000000, 1108.000000)">
            <g id="alert">
                <rect id="bg" stroke="#7364FF" fill="#F5F4FF" x="0.5" y="0.5" width="599" height="41"></rect>
                <text id="Information:-Notific" font-family="NotoSans-Bold, Noto Sans" font-size="14" font-weight="bold" line-spacing="22" fill="#485464">
                    <tspan x="48" y="25">Information: Notification title</tspan>
                </text>
                <text id="Subtitle-text" font-family="NotoSans-Regular, Noto Sans" font-size="14" font-weight="normal" line-spacing="22" fill="#485464">
                    <tspan x="266" y="25">Subtitle text</tspan>
                </text>
                <g id="action" transform="translate(362.000000, 8.000000)">
                    <rect id="Bg-Copy-7" fill="#E3E0FF" x="0" y="0" width="67" height="26" rx="2"></rect>
                    <text id="Action" font-family="NotoSans-Regular, Noto Sans" font-size="14" font-weight="normal" line-spacing="22" fill="#485464">
                        <tspan x="12.773" y="17">Action</tspan>
                    </text>
                </g>
            </g>
            <path d="M23.051,18.35 L24.949,18.35 L24.949,16.516 L23.051,16.516 L23.051,18.35 Z M23.051,25.486 L24.949,25.486 L24.949,19.402 L23.051,19.402 L23.051,25.486 Z M24,13 C19.582,13 16,16.582 16,21 C16,25.42 19.582,29 24,29 C28.418,29 32,25.42 32,21 C32,16.582 28.418,13 24,13 Z" id="information-circle" fill="#7364FF"></path>
            <g id="close" opacity="0.8" transform="translate(568.000000, 9.000000)">
                <rect id="Rectangle-4" stroke-opacity="0.01" stroke="#FFFFFF" style="mix-blend-mode: multiply;" x="0.5" y="0.5" width="23" height="23"></rect>
                <polygon fill="#485464" points="17.5557825 5 12.5 10.0553853 7.44421747 5 6 6.44410401 11.0557825 11.5005106 6 16.555896 7.44421747 18 12.5 12.9446147 17.5557825 18 19 16.555896 13.9442175 11.5005106 19 6.44410401"></polygon>
            </g>
        </g>
    </g>
</svg>