<?xml version="1.0" encoding="UTF-8"?>
<svg width="437px" height="301px" viewBox="0 0 437 301" version="1.1" xmlns="http://www.w3.org/2000/svg" xmlns:xlink="http://www.w3.org/1999/xlink">
    <!-- Generator: Sketch 52.4 (67378) - http://www.bohemiancoding.com/sketch -->
    <title>P_mu_top</title>
    <desc>Created with Sketch.</desc>
    <g id="web-page" stroke="none" stroke-width="1" fill="none" fill-rule="evenodd">
        <g id="P_mu_top">
            <rect fill="#FFFFFF" fill-rule="nonzero" x="0" y="0" width="437" height="301"></rect>
            <g id="P_milkui_featured" transform="translate(131.000000, 104.000000)">
                <path d="M0.5,93.5 L175.5,93.5 L175.5,0.5 L0.5,0.5 L0.5,93.5 Z" id="Stroke-1" stroke="#FFFFFF"></path>
                <path d="M3.5,90.5 L172.5,90.5 L172.5,3.5 L3.5,3.5 L3.5,90.5 Z" id="Stroke-1" stroke="#25CEA5" stroke-width="3"></path>
                <g id="Group-Copy" transform="translate(4.000000, 4.000000)" fill-rule="nonzero" stroke="#25CEA5" stroke-linecap="square" stroke-width="3">
                    <path d="M9,1.84741111e-13 L9,76.7737663" id="Line-6"></path>
                    <path d="M8.97931974,77.0120426 L0.0518973214,86" id="Line-4"></path>
                    <path d="M168.499023,77 L9.01332006,77" id="Line"></path>
                </g>
                <g id="logo-milkui-copy" transform="translate(40.000000, 28.000000)" fill="#25CEA5">
                    <polygon id="Fill-1" points="42.4549839 26.9711047 48.0688103 26.9711047 48.0688103 0.319767442 42.4549839 0.319767442"></polygon>
                    <path d="M27.9136656,13.4452297 C27.7072347,12.5169448 27.0898714,8.98703198 22.1123794,8.8060436 C17.5879421,8.64200291 16.1918006,12.2681657 16.1918006,12.2681657 C16.1918006,12.2681657 15.1390675,8.69348547 10.5959807,8.8050843 C6.02877814,8.91764244 5.02459807,12.4776134 5.02459807,12.4776134 L5.02459807,9.25211919 L0.000160771704,9.25211919 L0.000160771704,26.9765087 L5.24935691,26.9765087 L5.24935691,18.1515669 C5.1107717,13.237061 8.04710611,13.3592122 8.79983923,13.3550552 C11.8229904,13.3368285 11.4892283,17.2731657 11.4892283,17.5932529 L11.4892283,26.9765087 L16.7384244,26.9765087 L16.7384244,17.5932529 C16.7384244,17.0365378 16.6728296,13.8593285 19.6011254,13.4036599 C22.8561093,12.8971483 22.9786174,15.7542703 22.9786174,16.6256366 L22.9786174,26.9765087 L28.227492,26.9765087 L28.227492,16.476625 C28.172508,15.1713343 28.1217042,14.3853459 27.9136656,13.4452297" id="Fill-2"></path>
                    <path d="M84.3626045,9.25202326 L84.3626045,18.0772849 C84.2880064,18.9528081 84.7902572,22.7698721 80.8121222,22.8734767 C77.273537,22.96525 77.710836,18.451093 77.710836,17.9282733 L77.710836,9.25202326 L72.4616399,9.25202326 L72.4616399,19.0445814 C72.591865,20.3118198 71.7275563,27.4231279 78.7413826,27.42025 C83.5442765,27.4186512 84.5870418,23.7291744 84.5870418,23.7291744 L84.5870418,26.9767326 L89.6118006,26.9767326 L89.6118006,9.25202326 L84.3626045,9.25202326 Z" id="Fill-4"></path>
                    <path d="M38.1303537,3.35755814 C38.1303537,5.03537791 36.7628296,6.39534884 35.0756913,6.39534884 C33.3885531,6.39534884 32.0210289,5.03537791 32.0210289,3.35755814 C32.0210289,1.67973837 33.3885531,0.319767442 35.0756913,0.319767442 C36.7628296,0.319767442 38.1303537,1.67973837 38.1303537,3.35755814" id="Fill-6"></path>
                    <polygon id="Fill-8" points="32.4472669 26.9768605 37.696463 26.9768605 37.696463 9.25215116 32.4472669 9.25215116"></polygon>
                    <path d="M38.1344373,3.36568023 C38.1344373,5.04797674 36.7633762,6.41146512 35.0717363,6.41146512 C33.3800965,6.41146512 32.0087138,5.04797674 32.0087138,3.36568023 C32.0087138,1.68338372 33.3800965,0.319895349 35.0717363,0.319895349 C36.7633762,0.319895349 38.1344373,1.68338372 38.1344373,3.36568023" id="Fill-10"></path>
                    <polygon id="Fill-11" points="94.021865 26.9768605 99.2710611 26.9768605 99.2710611 9.25215116 94.021865 9.25215116"></polygon>
                    <path d="M99.7090675,3.36568023 C99.7090675,5.04797674 98.3380064,6.41146512 96.6463666,6.41146512 C94.9547267,6.41146512 93.5833441,5.04797674 93.5833441,3.36568023 C93.5833441,1.68338372 94.9547267,0.319895349 96.6463666,0.319895349 C98.3380064,0.319895349 99.7090675,1.68338372 99.7090675,3.36568023" id="Fill-12"></path>
                    <polygon id="Fill-13" points="69.8236013 9.25202326 64.095627 9.25202326 58.228746 18.6858023 58.228746 0.319639535 53.0226367 0.319639535 53.0226367 26.9709767 57.5342122 26.9709767 61.9596141 20.5801047 65.6631511 26.9709767 71.2155627 26.9709767 64.8194212 16.4627791"></polygon>
                </g>
            </g>
        </g>
    </g>
</svg>