<?xml version="1.0" encoding="UTF-8"?>
<svg width="36px" height="49px" viewBox="0 0 47 49" version="1.1" xmlns="http://www.w3.org/2000/svg" xmlns:xlink="http://www.w3.org/1999/xlink">
    <!-- Generator: Sketch 52.4 (67378) - http://www.bohemiancoding.com/sketch -->
    <title>P_PI</title>
    <desc>Created with Sketch.</desc>
    <g id="Page-1" stroke="none" stroke-width="1" fill="none" fill-rule="evenodd">
        <g id="P_PI" fill="#000000">
            <path d="M10.7881026,24.2351355 C10.7881026,28.6108132 11.9614359,32.1776996 14.3057582,34.9287619 C16.7122051,37.7114725 19.7445861,39.1028278 23.4029011,39.1028278 C27.3144029,39.1028278 30.471033,37.7571868 32.8774799,35.0694212 C35.2862711,32.2867106 36.4900806,28.7526447 36.4900806,24.4707399 C36.4900806,20.1864908 35.2862711,16.6524249 32.8774799,13.8685421 C30.471033,11.1514725 27.343707,9.79176557 23.4978462,9.79176557 C19.8700073,9.79176557 16.8376264,11.1655385 14.4007033,13.9177729 C11.9907399,16.7004835 10.7881026,20.1396044 10.7881026,24.2351355 Z M35.8336703,1.53623443 L46.4323516,1.53623443 L46.4323516,47.2153553 L35.8336703,47.2153553 L35.8336703,42.4317656 C31.4872967,46.4968205 26.8127179,48.5305201 21.8099341,48.5305201 C15.4931575,48.5305201 10.2735238,46.2483223 6.14634432,41.6827546 C2.04846886,37.0234139 -0.000468864469,31.2071502 -0.000468864469,24.2351355 C-0.000468864469,17.38737 2.04846886,11.6824615 6.14634432,7.11572161 C10.2407033,2.55249817 15.3677363,0.267956044 21.5286154,0.267956044 C26.842022,0.267956044 31.6115458,2.45755311 35.8336703,6.83323077 L35.8336703,1.53623443 Z" id="Fill-3"></path>
        </g>
    </g>
</svg>