<?xml version="1.0" encoding="UTF-8"?>
<svg width="320px" height="113px" viewBox="0 0 320 113" version="1.1" xmlns="http://www.w3.org/2000/svg" xmlns:xlink="http://www.w3.org/1999/xlink">
    <!-- Generator: Sketch 52.4 (67378) - http://www.bohemiancoding.com/sketch -->
    <title>P_PI_fullname</title>
    <desc>Created with Sketch.</desc>
    <defs>
        <polygon id="path-1" points="0 0.000468864469 319.579194 0.000468864469 319.579194 112.751824 0 112.751824"></polygon>
    </defs>
    <g id="Page-1" stroke="none" stroke-width="1" fill="none" fill-rule="evenodd">
        <g id="P_PI_fullname">
            <mask id="mask-2" fill="white">
                <use xlink:href="#path-1"></use>
            </mask>
            <g id="Clip-2"></g>
            <path d="M307.432088,79.216293 L317.985055,79.216293 L317.985055,33.536 L307.432088,33.536 L307.432088,79.216293 Z M305.836777,14.5411282 C305.836777,12.6961465 306.508425,11.099663 307.852894,9.7563663 C309.197363,8.41189744 310.809084,7.73907692 312.684542,7.73907692 C314.590476,7.73907692 316.218608,8.41189744 317.563077,9.7563663 C318.906374,11.070359 319.579194,12.6797363 319.579194,14.5880147 C319.579194,16.496293 318.906374,18.1220806 317.563077,19.4653773 C316.249084,20.8098462 314.638535,21.4826667 312.731429,21.4826667 C310.82315,21.4826667 309.197363,20.8098462 307.852894,19.4653773 C306.508425,18.1220806 305.836777,16.4798828 305.836777,14.5411282 Z" id="Fill-1" fill="#000000" mask="url(#mask-2)"></path>
            <path d="M10.7881026,56.2351355 C10.7881026,60.6108132 11.9614359,64.1776996 14.3057582,66.9287619 C16.7122051,69.7114725 19.7445861,71.1028278 23.4029011,71.1028278 C27.3144029,71.1028278 30.471033,69.7571868 32.8774799,67.0694212 C35.2862711,64.2867106 36.4900806,60.7526447 36.4900806,56.4707399 C36.4900806,52.1864908 35.2862711,48.6524249 32.8774799,45.8685421 C30.471033,43.1514725 27.343707,41.7917656 23.4978462,41.7917656 C19.8700073,41.7917656 16.8376264,43.1655385 14.4007033,45.9177729 C11.9907399,48.7004835 10.7881026,52.1396044 10.7881026,56.2351355 Z M35.8336703,33.5362344 L46.4323516,33.5362344 L46.4323516,79.2153553 L35.8336703,79.2153553 L35.8336703,74.4317656 C31.4872967,78.4968205 26.8127179,80.5305201 21.8099341,80.5305201 C15.4931575,80.5305201 10.2735238,78.2483223 6.14634432,73.6827546 C2.04846886,69.0234139 -0.000468864469,63.2071502 -0.000468864469,56.2351355 C-0.000468864469,49.38737 2.04846886,43.6824615 6.14634432,39.1157216 C10.2407033,34.5524982 15.3677363,32.267956 21.5286154,32.267956 C26.842022,32.267956 31.6115458,34.4575531 35.8336703,38.8332308 L35.8336703,33.5362344 Z" id="Fill-3" fill="#000000" mask="url(#mask-2)"></path>
            <path d="M59.7527912,0 L70.3045861,0 L70.3045861,37.3368498 C74.0555018,33.956337 78.1990916,32.2672527 82.733011,32.2672527 C87.8905201,32.2672527 92.0176996,33.9422711 95.1145495,37.2864469 C97.7413626,40.1945788 99.053011,44.8398535 99.053011,51.2164103 L99.053011,79.2158242 L88.500044,79.2158242 L88.500044,52.2021978 C88.500044,48.5438828 87.853011,45.8936264 86.5542564,44.2514286 C85.256674,42.6092308 83.1702271,41.7910623 80.2937436,41.7910623 C76.6026081,41.7910623 74.0097875,42.9315751 72.5082491,45.2137729 C71.0371868,47.5287912 70.3045861,51.4989011 70.3045861,57.1252747 L70.3045861,79.2158242 L59.7527912,79.2158242 L59.7527912,0 Z" id="Fill-4" fill="#000000" mask="url(#mask-2)"></path>
            <path d="M204.38189,112.751824 L193.828923,112.751824 L193.828923,75.4161465 C190.078007,78.7954872 185.93559,80.4845714 181.40167,80.4845714 C176.244161,80.4845714 172.116982,78.8095531 169.01896,75.4642051 C166.393319,72.5572454 165.08167,67.9119707 165.08167,61.5365861 L165.08167,33.536 L175.634637,33.536 L175.634637,60.5496264 C175.634637,64.2079414 176.28167,66.8581978 177.580425,68.5003956 C178.878007,70.1425934 180.964454,70.9619341 183.840938,70.9619341 C187.530901,70.9619341 190.124894,69.8202491 191.62526,67.5380513 C193.097495,65.2242051 193.828923,61.2529231 193.828923,55.6253773 L193.828923,33.536 L204.38189,33.536 L204.38189,112.751824 Z" id="Fill-5" fill="#000000" mask="url(#mask-2)"></path>
            <path d="M112.423853,33.5358828 L123.022535,33.5358828 L123.022535,37.755663 C126.710154,34.097348 130.871326,32.2676044 135.496674,32.2676044 C140.813597,32.2676044 144.954842,33.9426227 147.927443,37.2856264 C150.488615,40.1316337 151.773304,44.7769084 151.773304,51.2167619 L151.773304,79.2161758 L141.171106,79.2161758 L141.171106,53.7333919 C141.171106,49.2381538 140.548689,46.1319267 139.295648,44.4135385 C138.076601,42.6658462 135.8577,41.7914139 132.637773,41.7914139 C129.133011,41.7914139 126.649201,42.9448205 125.179311,45.2574945 C123.74107,47.5350037 123.022535,51.5168352 123.022535,57.1983004 L123.022535,79.2161758 L112.423853,79.2161758 L112.423853,33.5358828 Z" id="Fill-6" fill="#000000" mask="url(#mask-2)"></path>
            <path d="M257.060454,79.2158242 L246.461773,79.2158242 L246.461773,74.996044 C242.774154,78.654359 238.614154,80.4841026 233.986462,80.4841026 C228.670711,80.4841026 224.529465,78.8090842 221.556864,75.4660806 C218.995692,72.6200733 217.712176,67.9747985 217.712176,61.5349451 L217.712176,33.5355311 L228.313201,33.5355311 L228.313201,59.018315 C228.313201,63.5135531 228.936791,66.6197802 230.188659,68.3381685 C231.406535,70.0858608 233.62778,70.960293 236.846535,70.960293 C240.351297,70.960293 242.835106,69.8068864 244.304996,67.4942125 C245.743238,65.2167033 246.461773,61.2348718 246.461773,55.5534066 L246.461773,33.5355311 L257.060454,33.5355311 L257.060454,79.2158242 Z" id="Fill-7" fill="#000000" mask="url(#mask-2)"></path>
            <path d="M270.052689,33.5358828 L280.605656,33.5358828 L280.605656,37.6138315 C282.543238,35.5824762 284.261626,34.192293 285.761993,33.4421099 C287.294007,32.6614505 289.109685,32.2676044 291.204337,32.2676044 C293.987048,32.2676044 296.895179,33.1748571 299.92756,34.9881905 L295.095912,44.6491429 C293.095033,43.2132454 291.14104,42.4923663 289.233934,42.4923663 C283.480967,42.4923663 280.605656,46.8399121 280.605656,55.530315 L280.605656,79.2161758 L270.052689,79.2161758 L270.052689,33.5358828 Z" id="Fill-8" fill="#000000" mask="url(#mask-2)"></path>
        </g>
    </g>
</svg>