<?xml version="1.0" encoding="UTF-8"?>
<svg width="948px" height="437px" viewBox="0 0 948 437" version="1.1" xmlns="http://www.w3.org/2000/svg" xmlns:xlink="http://www.w3.org/1999/xlink">
    <!-- Generator: Sketch 52.4 (67378) - http://www.bohemiancoding.com/sketch -->
    <title>P_SE_logo</title>
    <desc>Created with Sketch.</desc>
    <defs>
        <polygon id="path-1" points="0.4878 0.3151 24.6798 0.3151 24.6798 73 0.4878 73"></polygon>
    </defs>
    <g id="bt-portfolio" stroke="none" stroke-width="1" fill="none" fill-rule="evenodd">
        <g id="P_SE_logo">
            <rect id="Rectangle" fill="#FFFFFF" fill-rule="nonzero" x="0" y="0" width="948" height="437"></rect>
            <g id="Group-8" transform="translate(430.000000, 171.000000)">
                <path d="M28.8242,4.5136 C19.2582,-0.3164 8.8852,-1.1454 0.0742,1.4326 L0.0242,1.4036 C0.0312,1.4186 0.0332,1.4266 0.0372,1.4436 C0.0242,1.4446 0.0122,1.4476 0.0002,1.4556 L0.0532,1.4826 C3.1992,10.1006 10.0112,17.9566 19.5812,22.7976 C29.1402,27.6346 39.5152,28.4586 48.3202,25.8836 L48.3732,25.9126 C48.3712,25.9016 48.3652,25.8876 48.3612,25.8746 C48.3732,25.8676 48.3902,25.8626 48.4002,25.8616 L48.3452,25.8316 C45.2012,17.2136 38.3852,9.3526 28.8242,4.5136" id="Fill-1" fill="#29D2B8"></path>
                <path d="M58.3008,4.5136 C67.8668,-0.3164 78.2418,-1.1454 87.0468,1.4326 L87.1058,1.4036 C87.0978,1.4186 87.0908,1.4266 87.0858,1.4436 C87.0978,1.4446 87.1128,1.4476 87.1248,1.4556 L87.0718,1.4826 C83.9268,10.1006 77.1088,17.9566 67.5468,22.7976 C57.9788,27.6346 47.6108,28.4586 38.8008,25.8836 L38.7478,25.9126 C38.7538,25.9016 38.7598,25.8876 38.7638,25.8746 C38.7478,25.8676 38.7338,25.8626 38.7188,25.8616 L38.7778,25.8316 C41.9248,17.2136 48.7378,9.3526 58.3008,4.5136" id="Fill-3" fill="#29D2B8"></path>
                <g id="Group-7" transform="translate(31.000000, 22.760700)">
                    <mask id="mask-2" fill="white">
                        <use xlink:href="#path-1"></use>
                    </mask>
                    <g id="Clip-6"></g>
                    <path d="M12.5898,67.7461 C8.8108,67.7461 5.7428,64.6831 5.7428,60.9031 C5.7428,57.9351 7.6408,55.4371 10.2778,54.4881 L10.2778,22.6031 L14.9358,22.6031 L14.9358,54.4961 C17.5488,55.4631 19.4298,57.9521 19.4298,60.9031 C19.4298,64.6831 16.3648,67.7461 12.5898,67.7461 M18.3358,50.3261 L18.3358,0.3151 L6.8378,0.3151 L6.8378,50.3221 C3.0718,52.3751 0.4878,56.3151 0.4878,60.9031 C0.4878,67.5821 5.9058,73.0001 12.5898,73.0001 C19.2638,73.0001 24.6798,67.5821 24.6798,60.9031 C24.6798,56.3181 22.1038,52.3781 18.3358,50.3261" id="Fill-5" fill="#29D2B8" mask="url(#mask-2)"></path>
                </g>
            </g>
        </g>
    </g>
</svg>